<?xml version="1.0" encoding="utf-8"?>
<!-- Generator: Adobe Illustrator 27.1.1, SVG Export Plug-In . SVG Version: 6.00 Build 0)  -->
<svg version="1.1" id="Layer_1" xmlns="http://www.w3.org/2000/svg" xmlns:xlink="http://www.w3.org/1999/xlink" x="0px" y="0px"
	 viewBox="0 0 1080 56" style="enable-background:new 0 0 1080 56;" xml:space="preserve">
<style type="text/css">
	.st0{fill:#0B7F7F;}
	.st1{fill:#F87046;}
	.st2{fill:#8583F2;}
	.st3{opacity:0.61;}
	.st4{opacity:0.44;fill:#00D8EE;enable-background:new    ;}
	.st5{opacity:0.5;fill:#00D8EE;enable-background:new    ;}
	.st6{fill:#FFFFFF;}
	.st7{opacity:0.5;fill:#FFFFFF;enable-background:new    ;}
	.st8{opacity:0.22;fill:#8583F2;enable-background:new    ;}
	.st9{fill:none;stroke:#151F38;stroke-width:0.5;stroke-miterlimit:10;}
	.st10{opacity:0.26;fill:#FFFFFF;enable-background:new    ;}
	.st11{fill:none;stroke:#8482F1;stroke-width:0.5;stroke-miterlimit:10;}
	.st12{fill:#034944;}
	.st13{fill:none;stroke:#FFFFFF;stroke-width:0.25;stroke-miterlimit:10;}
	.st14{fill-rule:evenodd;clip-rule:evenodd;fill:#FFFFFF;}
	.st15{fill-rule:evenodd;clip-rule:evenodd;fill:#024F49;}
	.st16{fill:#0F0F0F;}
	.st17{fill:#F91616;}
	.st18{fill:#A03607;}
	.st19{fill:#F9A12D;stroke:#0C0F0F;stroke-width:0.25;stroke-miterlimit:10;}
	.st20{fill:#161616;stroke:#141414;stroke-width:0.25;stroke-miterlimit:10;}
	.st21{fill:#0C1111;}
	.st22{opacity:0.9;}
	.st23{fill:#FF551A;stroke:#0F0F0F;stroke-width:0.25;stroke-miterlimit:10;}
</style>
<g>
	<g>
		<g>
			<rect x="-1.3" y="-1.2" class="st0" width="1082.7" height="58.3"/>
			<path class="st1" d="M922.7,22.2c0,0.7-0.6,1.2-1.2,1.2s-1.2-0.6-1.2-1.2c0-0.7,0.6-1.2,1.2-1.2S922.7,21.5,922.7,22.2z"/>
			<path class="st2" d="M967.2,33.2c0,0.7-0.6,1.3-1.3,1.3s-1.3-0.6-1.3-1.3s0.6-1.3,1.3-1.3C966.6,31.7,967.2,32.4,967.2,33.2z"/>
			<g class="st3">
				<path class="st4" d="M531.3,46.2c0,0,4-2.8,4.6-3.5s3.5,4.3,5.2,5c0,0-3.5,3.9-4.4,4.4C535.8,52.8,532.2,47.9,531.3,46.2z"/>
				<polygon class="st5" points="533,47 534.1,48.5 535.7,47 534.4,45.5 				"/>
				<polygon class="st5" points="535,49.2 538.2,46.2 538.5,47 535.5,49.7 				"/>
				<polygon class="st5" points="536,50.2 539.1,47.2 539.5,47.9 536.5,50.7 				"/>
				<path class="st5" d="M536.3,44.2l-1.3,1.2l0.5,0.5l1.2-1.2C536.6,44.5,536.5,44.4,536.3,44.2z"/>
				<path class="st5" d="M537.2,45.2l-1.2,1.1l0.5,0.5l1.1-1C537.5,45.7,537.3,45.5,537.2,45.2z"/>
			</g>
			<polygon class="st6" points="529.9,5.8 530.3,6.6 531.1,7 530.3,7.5 529.9,8.3 529.4,7.5 528.6,7 529.4,6.6 			"/>
			<polygon class="st6" points="14.9,49.5 15.2,49.9 15.6,50.2 15.2,50.4 14.9,50.8 14.7,50.4 14.3,50.2 14.7,49.9 			"/>
			<path class="st1" d="M179.8,37.2c0,0.4-0.3,0.6-0.6,0.6c-0.4,0-0.6-0.3-0.6-0.6c0-0.4,0.3-0.6,0.6-0.6
				C179.5,36.5,179.8,36.8,179.8,37.2z"/>
			<polygon class="st7" points="642.6,47.9 641.9,48.1 642.2,48.5 639.8,50.3 639.7,49.9 639.4,50.3 639.4,50.3 635.4,47.4 
				635.7,47.3 635.4,47 635.3,46.6 635,46.9 634.5,47 634.9,47.4 634.9,47.4 631.5,50 631.4,49.4 631,50 630.2,50.2 630.8,50.6 
				630.9,51.2 631.3,50.8 632,50.6 631.5,50.1 631.5,50 631.6,50.2 634.8,47.5 635,47.8 635.2,47.5 639.2,50.4 639,50.3 639.3,50.7 
				639.4,51.1 639.7,50.8 640.2,50.6 639.9,50.5 642.4,48.5 642.5,49.2 643,48.7 643.7,48.6 643.2,48.1 643,47.4 			"/>
		</g>
		<g>
			<path class="st6" d="M648.8,39.7c-0.5-0.6-1.2-1.1-1.6-1.8c-0.1-0.1-0.2-0.3-0.2-0.4c0,0,0,0,0-0.1l-0.7,1.6c0,0,2.7,2.3,3.7,2.9
				C649.6,41.1,649.3,40.3,648.8,39.7z"/>
			<path class="st8" d="M648.8,39.7c-0.5-0.6-1.2-1.1-1.6-1.8c-0.1-0.1-0.2-0.3-0.2-0.4c0,0,0,0,0-0.1l-0.7,1.6c0,0,2.7,2.3,3.7,2.9
				C649.6,41.1,649.3,40.3,648.8,39.7z"/>
			<polygon class="st6" points="645.3,39.4 646,37.6 649.6,41.1 655.2,40.9 653.8,44.3 644.6,41 			"/>
			<polygon class="st6" points="642.5,45.1 645.6,37.6 649.5,41.4 655.4,41.1 652.4,49.1 647.1,49.1 			"/>
			<path class="st1" d="M648.6,41.2c0,0,0.6,0.7,2.1,0.6l-2.9,7.8c0,0-1.7,0.2-2.1-1L648.6,41.2z"/>
			<polygon class="st1" points="650.8,41.7 655.6,41.4 652.7,49.5 647.9,49.5 			"/>
			<polygon class="st1" points="648.8,41.3 644.8,37.6 642,45.4 646.1,49.1 			"/>
			<line class="st9" x1="650.5" y1="42.2" x2="648" y2="49.1"/>
			<line class="st9" x1="648.4" y1="41.5" x2="645.9" y2="48.3"/>
			<path class="st9" d="M648.6,41.7c0,0,0.6,0.6,1.5,0.4"/>
			<path class="st9" d="M646.1,48.5c0,0,0.6,0.8,1.5,0.5"/>
			<polygon class="st10" points="651,42.4 655,42.1 652.6,49.1 648.7,49.3 			"/>
			<polygon class="st10" points="647.9,41.2 645,38.6 642.3,45.2 645.6,48 			"/>
			<path class="st10" d="M647.4,47.1L647.4,47.1c-0.2-0.1-0.3-0.3-0.2-0.5l1.1-3c0.1-0.2,0.3-0.3,0.5-0.2l0,0
				c0.2,0.1,0.3,0.3,0.2,0.5l-1.1,3C647.8,47.1,647.6,47.2,647.4,47.1z"/>
			<polyline class="st11" points="645.9,37.9 649.6,41.4 655,41.2 			"/>
		</g>
	</g>
	<g>
		<g>
			<path class="st12" d="M573.9,16.8c0.2-0.1,0.4-0.2,0.6-0.3c0.9-0.4,1.9-0.5,3-0.5l0.1,0c1.2,0,2.2,0.2,3.1,0.6
				c0.4,0.2,0.8,0.4,1.2,0.7c-0.1-0.2-0.3-0.4-0.5-0.6c-0.7-0.8-1.5-1.5-2.5-1.9c-0.9-0.4-2-0.6-3.1-0.6l-0.1,0
				c-0.6,0-1.2,0.1-1.8,0.2L573.9,16.8z"/>
			<path class="st12" d="M537.4,34.4V21.1c0-0.7,0.2-1.5,0.7-2c-0.4-0.6-0.7-1.3-0.7-2v-3.8c0-1.8,1.4-3.2,3.1-3.2h30.4
				c0.4,0,0.8,0.1,1.1,0.2c-0.4-1.2-1.5-2-2.8-2h-30.4c-1.7,0-3.1,1.4-3.1,3.2v3.8c0,0.7,0.2,1.4,0.7,2c-0.4,0.6-0.7,1.3-0.7,2v13.4
				c0,1.4,0.8,2.6,2,3C537.4,35.3,537.4,34.9,537.4,34.4z"/>
		</g>
		<path class="st13" d="M585.8,34.4c0,0-0.1-0.2-0.2-0.9c-0.1-0.6-0.2-1.3-0.3-2.2c-0.1-0.9-0.2-2-0.2-3.1c-0.1-1.2-0.1-2.5-0.1-3.9
			c0-1.1-0.2-2.1-0.4-3c-0.3-1-0.8-1.9-1.4-2.7c-0.7-0.8-1.5-1.5-2.5-1.9c-0.9-0.4-2-0.6-3.1-0.6l-0.1,0c-1.1,0-2.1,0.2-3,0.5
			c-0.2,0.1-0.4,0.2-0.6,0.3l0-3.5c0-1.8-1.4-3.2-3.1-3.2h-30.4c-1.7,0-3.1,1.4-3.1,3.2v3.8c0,0.7,0.2,1.4,0.7,2
			c-0.4,0.6-0.7,1.3-0.7,2v13.4c0,1.8,1.4,3.3,3.1,3.3h17.2l1.5,1.2c0.5,0.4,1.1,0.6,1.7,0.6l0.1,0l0.1,0c0.8,0,1.5-0.4,2.1-1
			c0.2-0.3,0.5-0.6,0.7-0.9h4.5c0.2,0.3,0.5,0.6,0.7,0.9c0.5,0.6,1.3,1,2.2,1c0.6,0,1.3-0.2,1.8-0.6l1.5-1.2h2.7c0.2,0,0.4,0,0.6,0
			l0,0c0.4,1.1,1.5,1.9,2.7,1.9c0.3,0,0.6-0.1,0.9-0.2l2.8-1c0.7-0.3,1.3-0.9,1.7-1.6C586.1,36,586.1,35.2,585.8,34.4z"/>
		<g>
			<g>
				<g>
					<path class="st14" d="M571,18.3h-31c-0.8,0-1.4-0.6-1.4-1.4v-4c0-0.8,0.6-1.4,1.4-1.4h31c0.8,0,1.4,0.6,1.4,1.4v4
						C572.4,17.7,571.8,18.3,571,18.3z"/>
					<g>
						<path class="st15" d="M577.3,36.1h-37.2c-0.8,0-1.5-0.7-1.5-1.5V21c0-0.8,0.7-1.5,1.5-1.5h37.2c3.5,0,6.3,2.8,6.3,6.3v4.1
							C583.6,33.3,580.8,36.1,577.3,36.1z"/>
						<g>
							<path class="st6" d="M542.1,26.9c0.2-0.1,0.4-0.2,0.6-0.4c0.2-0.2,0.3-0.3,0.3-0.6s0.1-0.5,0.1-0.8v-1.9h-0.6v1.9
								c0,0.2,0,0.4-0.1,0.6c0,0.2-0.1,0.3-0.2,0.4c-0.1,0.1-0.2,0.2-0.4,0.2c-0.2,0-0.3,0.1-0.5,0.1h-0.4v0.6h0.4
								C541.6,27.1,541.9,27,542.1,26.9z"/>
							<rect x="543.9" y="21" class="st6" width="0.6" height="4.3"/>
							<path class="st6" d="M546.1,22.6c0.1,0,0.2,0,0.3-0.1c0.1-0.1,0.1-0.2,0.1-0.3c0-0.1,0-0.2-0.1-0.3c-0.1-0.1-0.2-0.1-0.3-0.1
								c-0.1,0-0.2,0-0.3,0.1c-0.1,0.1-0.1,0.2-0.1,0.3c0,0.1,0,0.2,0.1,0.3S546,22.6,546.1,22.6z"/>
							<path class="st6" d="M546.3,26c0.1-0.2,0.1-0.5,0.1-0.8c0.2,0.1,0.3,0.1,0.5,0.1h0h0.1h1.2h0.1h1.2h0.1h1.2h0.1h1.2h0.1h0.4
								c0.3,0,0.6,0,0.8,0c0.3,0,0.5-0.1,0.7-0.1c0,0,0.1,0,0.1,0c0,0,0.1,0,0.1,0c0,0,0.1,0,0.1,0.1c0.2,0.1,0.3,0.1,0.5,0.2
								c0.1,0,0.3,0.1,0.4,0.1c0.1,0,0.3,0,0.4-0.1c0.1,0,0.2-0.1,0.3-0.2c0.1-0.1,0.2-0.2,0.3-0.2c0.1-0.1,0.1-0.2,0.2-0.3
								c0-0.1,0-0.2,0.1-0.2c0-0.1,0-0.1,0-0.1c0-0.1,0-0.1,0-0.2c0-0.1,0-0.2-0.1-0.3c0-0.1-0.1-0.2-0.1-0.3c0,0-0.1-0.1-0.1-0.2
								c-0.1-0.1-0.1-0.1-0.2-0.2c-0.1-0.1-0.1-0.2-0.2-0.3c-0.1-0.1-0.2-0.2-0.2-0.3c-0.2-0.2-0.4-0.4-0.6-0.7l-0.4,0.4
								c0.1,0.1,0.3,0.3,0.4,0.4c0.1,0.1,0.3,0.3,0.4,0.4c0.1,0.1,0.2,0.3,0.3,0.4c0.1,0.1,0.2,0.2,0.2,0.4c0.1,0.1,0.1,0.2,0.1,0.3
								c0,0.1,0,0.1,0,0.1c0,0.1,0,0.1,0,0.2c0,0.1-0.1,0.1-0.1,0.2c0,0-0.1,0.1-0.1,0.1c-0.1,0-0.1,0-0.2,0c-0.1,0-0.1,0-0.2,0
								c-0.1,0-0.2,0-0.3,0c-0.1,0-0.2-0.1-0.3-0.1c0.2-0.1,0.3-0.3,0.3-0.4c0.1-0.2,0.1-0.4,0.1-0.6c0-0.1,0-0.2,0-0.2
								c0-0.1-0.1-0.2-0.1-0.2c0-0.1-0.1-0.2-0.2-0.2c-0.1-0.1-0.1-0.1-0.2-0.2c-0.1-0.1-0.2-0.1-0.3-0.1c-0.1,0-0.2-0.1-0.3-0.1
								c-0.2,0-0.3,0-0.5,0.1c-0.1,0.1-0.3,0.1-0.4,0.2c-0.1,0.1-0.2,0.2-0.2,0.3c-0.1,0.1-0.1,0.3-0.1,0.4c0,0.2,0,0.4,0.1,0.5
								c0.1,0.2,0.2,0.3,0.3,0.4c-0.1,0-0.2,0-0.4,0c-0.1,0-0.3,0-0.4,0h-0.4H552h-1.2h-0.1h-1.2h-0.1h-1.2h-0.1h-1.2H547h0
								c0,0-0.1,0-0.1,0c-0.1,0-0.1,0-0.2-0.1c-0.1,0-0.1-0.1-0.2-0.1c0-0.1-0.1-0.2-0.1-0.3v-1h-0.6v1.9c0,0.2,0,0.4-0.1,0.6
								c0,0.2-0.1,0.3-0.2,0.4c-0.1,0.1-0.2,0.2-0.4,0.2c-0.2,0-0.3,0.1-0.5,0.1h-0.4v0.6h0.4c0.3,0,0.5,0,0.8-0.1
								c0.2-0.1,0.4-0.2,0.6-0.4C546.1,26.4,546.3,26.2,546.3,26z M553.4,23.6c0-0.1,0.1-0.1,0.1-0.2c0.1,0,0.1-0.1,0.2-0.1
								c0.1,0,0.1,0,0.2,0c0,0,0.1,0,0.2,0c0.1,0,0.1,0.1,0.2,0.1c0.1,0,0.1,0.1,0.2,0.2c0,0.1,0.1,0.2,0.1,0.3c0,0.1,0,0.2,0,0.2
								c0,0.1-0.1,0.1-0.1,0.2c0,0.1-0.1,0.1-0.2,0.2c-0.1,0-0.1,0.1-0.2,0.1c-0.1-0.1-0.2-0.1-0.3-0.2c-0.1-0.1-0.1-0.1-0.2-0.2
								c0-0.1-0.1-0.1-0.1-0.2c0-0.1,0-0.1,0-0.2C553.4,23.7,553.4,23.7,553.4,23.6z"/>
							<path class="st6" d="M544.4,32.7c0,0.2,0,0.3,0,0.4c0,0.1-0.1,0.2-0.2,0.3c-0.1,0.1-0.2,0.2-0.3,0.2c-0.1,0-0.3,0.1-0.6,0.1
								h-0.7c-0.2,0-0.4,0-0.6-0.1c-0.2-0.1-0.3-0.2-0.4-0.4c-0.1-0.1-0.1-0.3-0.2-0.4c0-0.1,0-0.3,0-0.4c0-0.1,0-0.1,0-0.2
								c0-0.2,0.1-0.4,0.1-0.6c0.1-0.2,0.2-0.4,0.3-0.7l-0.5-0.2c-0.1,0.3-0.2,0.5-0.3,0.8s-0.1,0.5-0.1,0.6c0,0.1,0,0.2,0,0.3
								c0,0.2,0,0.3,0.1,0.5c0,0.2,0.1,0.4,0.2,0.6c0.2,0.3,0.4,0.4,0.6,0.6c0.3,0.1,0.5,0.2,0.9,0.2h0.7c0.6,0,1-0.1,1.3-0.4
								c0.3-0.3,0.4-0.7,0.4-1.2v-2.1h-0.6V32.7z"/>
							<path class="st6" d="M542.8,30c-0.1,0.1-0.1,0.2-0.1,0.3c0,0.1,0,0.2,0.1,0.3s0.2,0.1,0.3,0.1c0.1,0,0.2,0,0.3-0.1
								c0.1-0.1,0.1-0.2,0.1-0.3c0-0.1,0-0.2-0.1-0.3c-0.1-0.1-0.2-0.1-0.3-0.1C543,29.9,542.9,29.9,542.8,30z"/>
							<path class="st6" d="M549.6,30.5c-0.1-0.1-0.2-0.2-0.4-0.3c-0.1-0.1-0.3-0.1-0.5-0.1c-0.2,0-0.3,0-0.4,0.1
								c-0.1,0.1-0.2,0.1-0.3,0.2c-0.1,0.1-0.2,0.2-0.2,0.3c-0.1,0.1-0.1,0.2-0.1,0.4c0,0.1-0.1,0.2-0.1,0.4c0,0.1-0.1,0.2-0.1,0.3
								c0,0.1-0.1,0.2-0.1,0.2c0,0.1-0.1,0.1-0.2,0.1h-0.2c-0.2,0-0.3,0-0.4,0c-0.1,0-0.2-0.1-0.2-0.1c0-0.1-0.1-0.1-0.1-0.3
								c0-0.1,0-0.3,0-0.4v-2.9h-0.6v2.9c0,0.2,0,0.3,0,0.4c0,0.1,0,0.2,0.1,0.3c0,0.1,0.1,0.2,0.1,0.3c0.1,0.1,0.1,0.1,0.2,0.2
								c0.1,0.1,0.2,0.1,0.4,0.1c0.1,0,0.3,0,0.4,0v0h0.4c0.3,0,0.5-0.1,0.6-0.3c0.1,0.1,0.2,0.1,0.3,0.2c0.1,0.1,0.2,0.1,0.3,0.1
								c0.1,0,0.2,0.1,0.3,0.1c0.1,0,0.2,0,0.3,0c0,0,0.1,0,0.2,0c0.1,0,0.1,0,0.2-0.1c0.1,0,0.1-0.1,0.2-0.1
								c0.1-0.1,0.1-0.1,0.2-0.2c0.1-0.1,0.1-0.2,0.1-0.4c0-0.1,0.1-0.3,0.1-0.5c0-0.2,0-0.3-0.1-0.5
								C549.8,30.8,549.7,30.6,549.6,30.5z M549.4,31.8c0,0.1,0,0.2-0.1,0.2c0,0.1,0,0.1-0.1,0.1c0,0-0.1,0.1-0.1,0.1
								c0,0-0.1,0-0.1,0c0,0,0,0-0.1,0c-0.1,0-0.1,0-0.2,0c-0.1,0-0.1,0-0.2-0.1c-0.1,0-0.2-0.1-0.3-0.1c-0.1,0-0.2-0.1-0.3-0.1
								c0-0.1,0.1-0.2,0.1-0.3c0-0.1,0-0.2,0.1-0.3c0-0.1,0.1-0.2,0.1-0.2c0-0.1,0.1-0.1,0.1-0.2c0-0.1,0.1-0.1,0.2-0.1
								c0.1,0,0.1,0,0.2,0c0.1,0,0.2,0,0.2,0c0.1,0,0.1,0.1,0.2,0.1c0,0.1,0.1,0.1,0.1,0.2c0,0.1,0,0.1,0.1,0.2c0,0.1,0,0.1,0,0.2
								c0,0,0,0.1,0,0.1C549.4,31.6,549.4,31.7,549.4,31.8z"/>
							<path class="st6" d="M556.7,28.7c-0.1-0.1-0.2-0.1-0.3-0.1c-0.1,0-0.2,0-0.3,0.1c-0.1,0.1-0.1,0.2-0.1,0.3
								c0,0.1,0,0.2,0.1,0.3c0.1,0.1,0.2,0.1,0.3,0.1c0.1,0,0.2,0,0.3-0.1c0.1-0.1,0.1-0.2,0.1-0.3
								C556.8,28.9,556.7,28.8,556.7,28.7z"/>
							<path class="st6" d="M556.6,31c0-0.1,0-0.2,0-0.3c0-0.1,0-0.2-0.1-0.3c0-0.1,0-0.1,0-0.2c0-0.1,0-0.1,0-0.1l-0.5,0.2
								c0,0,0,0.1,0,0.1c0,0.1,0,0.1,0,0.2c0,0.1,0,0.1,0,0.2c0,0.1,0,0.2,0,0.2c0,0.1,0,0.2,0,0.2c0,0.1,0,0.1,0,0.2
								c0,0.1,0,0.2-0.1,0.3c0,0.1-0.1,0.1-0.1,0.2c-0.1,0-0.1,0.1-0.2,0.1c-0.1,0-0.1,0-0.1,0h-1.2h-0.1h-1.1h-0.1h-0.4v-0.6
								c0-0.5-0.1-0.9-0.4-1.2c-0.1-0.1-0.2-0.2-0.3-0.2c-0.1,0-0.3-0.1-0.4-0.1c-0.2,0-0.3,0-0.5,0.1c-0.1,0.1-0.3,0.1-0.4,0.3
								c0,0-0.1,0.1-0.1,0.2c0,0.1-0.1,0.1-0.1,0.2c0,0.1-0.1,0.2-0.1,0.3c0,0.1,0,0.2,0,0.4c0,0.2,0,0.4,0.1,0.6
								c0.1,0.2,0.2,0.3,0.3,0.4c0.1,0.1,0.3,0.2,0.4,0.2c0.1,0,0.3,0.1,0.4,0.1h0.6c0,0.2,0,0.4-0.1,0.5c0,0.1-0.1,0.2-0.2,0.3
								c-0.1,0.1-0.3,0.2-0.5,0.2c-0.2,0-0.5,0.1-0.8,0.1v0.6c0.4,0,0.7,0,1-0.1c0.3-0.1,0.5-0.2,0.7-0.3c0.2-0.1,0.3-0.3,0.4-0.5
								c0.1-0.2,0.1-0.5,0.1-0.7h0.4h0.1h1.1h0.1h1.2c0.1,0,0.3,0,0.4-0.1c0.1,0,0.2-0.1,0.3-0.2s0.2-0.2,0.3-0.3
								c0.1-0.1,0.1-0.3,0.1-0.5c0-0.1,0-0.1,0-0.2C556.6,31.2,556.6,31.1,556.6,31z M552.1,32h-0.6c0,0,0,0-0.1,0c0,0-0.1,0-0.1,0
								c0,0-0.1,0-0.1,0c0,0-0.1,0-0.1-0.1c-0.2-0.1-0.2-0.3-0.2-0.5c0-0.3,0.1-0.5,0.2-0.6c0.1-0.1,0.3-0.2,0.5-0.2
								c0,0,0.1,0,0.1,0c0,0,0.1,0,0.1,0c0,0,0.1,0,0.1,0.1c0,0,0.1,0.1,0.1,0.2c0,0.1,0.1,0.2,0.1,0.3c0,0.1,0,0.2,0,0.4V32z"/>
							<path class="st6" d="M555.2,28.6c-0.1,0-0.2,0-0.3,0.1c-0.1,0.1-0.1,0.2-0.1,0.3c0,0.1,0,0.2,0.1,0.3
								c0.1,0.1,0.2,0.1,0.3,0.1c0.1,0,0.2,0,0.3-0.1c0.1-0.1,0.1-0.2,0.1-0.3c0-0.1,0-0.2-0.1-0.3
								C555.4,28.6,555.3,28.6,555.2,28.6z"/>
						</g>
					</g>
					<g>
						<path class="st16" d="M546.2,13.5c0,0.1,0,0.2,0.1,0.3c0.1,0.1,0.2,0.1,0.2,0.1c0.1,0,0.2,0,0.3-0.1c0.1-0.1,0.1-0.2,0.1-0.3
							c0-0.1,0-0.2-0.1-0.3c-0.1-0.1-0.2-0.1-0.3-0.1c-0.1,0-0.2,0-0.2,0.1C546.2,13.3,546.2,13.4,546.2,13.5z"/>
						<path class="st16" d="M545.5,13.8c0.1,0,0.2,0,0.2-0.1c0.1-0.1,0.1-0.2,0.1-0.3c0-0.1,0-0.2-0.1-0.3c-0.1-0.1-0.2-0.1-0.2-0.1
							c-0.1,0-0.2,0-0.3,0.1c-0.1,0.1-0.1,0.2-0.1,0.3c0,0.1,0,0.2,0.1,0.3C545.3,13.8,545.4,13.8,545.5,13.8z"/>
						<path class="st16" d="M546,13.1c0.1,0,0.2,0,0.2-0.1c0.1-0.1,0.1-0.1,0.1-0.2c0-0.1,0-0.2-0.1-0.2c-0.1-0.1-0.1-0.1-0.2-0.1
							c-0.1,0-0.2,0-0.2,0.1c-0.1,0.1-0.1,0.1-0.1,0.2c0,0.1,0,0.2,0.1,0.2C545.9,13,545.9,13.1,546,13.1z"/>
						<path class="st16" d="M547.5,15.8c0.1-0.1,0.1-0.3,0.1-0.4c0-0.1,0-0.1,0-0.2c0-0.1,0-0.2,0-0.2c0-0.1,0-0.2,0-0.2
							c0-0.1,0-0.2,0-0.2c0-0.1,0-0.1,0-0.2c0,0,0-0.1,0-0.1l-0.5,0.2c0,0,0,0.1,0,0.1c0,0,0,0.1,0,0.2c0,0.1,0,0.1,0,0.2
							c0,0.1,0,0.1,0,0.2c0,0.1,0,0.1,0,0.2c0,0.1,0,0.1,0,0.1c0,0.1,0,0.2,0,0.2c0,0.1-0.1,0.1-0.1,0.1c0,0-0.1,0.1-0.1,0.1
							c0,0-0.1,0-0.1,0c-0.2,0-0.3,0-0.3-0.1c-0.1-0.1-0.1-0.2-0.1-0.3v-0.8h-0.6v0.8c0,0.1,0,0.2,0,0.2c0,0.1-0.1,0.1-0.1,0.1
							c0,0-0.1,0.1-0.1,0.1c0,0-0.1,0-0.1,0c-0.1,0-0.1,0-0.2,0c-0.1,0-0.1,0-0.2-0.1c0-0.1-0.1-0.1-0.1-0.2c0-0.1,0-0.2,0-0.4v-0.5
							h-0.6v1.8c0,0.1,0,0.2,0,0.3c0,0.1-0.1,0.2-0.1,0.2c-0.1,0.1-0.2,0.1-0.3,0.2c-0.1,0-0.3,0.1-0.5,0.1h-0.5
							c-0.1,0-0.3,0-0.4-0.1c-0.1-0.1-0.2-0.1-0.3-0.2c-0.1-0.1-0.2-0.2-0.2-0.3c0-0.1-0.1-0.3-0.1-0.4c0-0.2,0-0.4,0.1-0.6
							c0.1-0.2,0.2-0.4,0.3-0.7l-0.5-0.2c-0.1,0.3-0.2,0.5-0.3,0.8c-0.1,0.2-0.1,0.5-0.1,0.7c0,0.2,0,0.5,0.1,0.7
							c0.1,0.2,0.2,0.4,0.3,0.5c0.1,0.1,0.3,0.2,0.5,0.3c0.2,0.1,0.4,0.1,0.6,0.1h0.5c0.5,0,0.8-0.1,1.1-0.3c0.2-0.2,0.4-0.6,0.4-1
							v-0.2c0,0,0.1,0.1,0.1,0.1c0,0,0.1,0,0.1,0c0,0,0.1,0,0.1,0c0,0,0.1,0,0.1,0c0.1,0,0.1,0,0.2,0c0.1,0,0.1,0,0.2,0
							c0.1,0,0.1,0,0.2-0.1s0.1-0.1,0.2-0.1c0.1,0.1,0.2,0.2,0.3,0.2c0.1,0,0.3,0.1,0.4,0.1c0.1,0,0.2,0,0.3-0.1
							c0.1,0,0.2-0.1,0.3-0.2C547.4,16,547.5,15.9,547.5,15.8z"/>
						<path class="st16" d="M548.5,16.2c0,0.2,0,0.3-0.1,0.5c0,0.1-0.1,0.2-0.2,0.3c-0.1,0.1-0.2,0.1-0.3,0.2
							c-0.1,0-0.3,0.1-0.4,0.1h-0.3v0.6h0.3c0.2,0,0.4,0,0.6-0.1c0.2-0.1,0.3-0.2,0.5-0.3c0.1-0.1,0.2-0.3,0.3-0.5
							c0.1-0.2,0.1-0.4,0.1-0.6v-1.7h-0.6V16.2z"/>
						<path class="st16" d="M548.8,13.1c-0.1,0-0.2,0-0.3,0.1c-0.1,0.1-0.1,0.2-0.1,0.3c0,0.1,0,0.2,0.1,0.3
							c0.1,0.1,0.2,0.1,0.3,0.1c0.1,0,0.2,0,0.3-0.1c0.1-0.1,0.1-0.2,0.1-0.3c0-0.1,0-0.2-0.1-0.3C549,13.1,548.9,13.1,548.8,13.1z"
							/>
						<path class="st16" d="M556.6,14.5c-0.1-0.1-0.2-0.2-0.3-0.3c-0.1-0.1-0.3-0.1-0.4-0.1c-0.1,0-0.2,0-0.3,0
							c-0.1,0-0.2,0.1-0.2,0.1s-0.1,0.1-0.2,0.2c-0.1,0.1-0.1,0.1-0.1,0.2c0,0.1-0.1,0.2-0.1,0.2c0,0.1-0.1,0.2-0.1,0.2
							c0,0.1,0,0.1-0.1,0.2s0,0.1-0.1,0.2c0,0-0.1,0.1-0.1,0.1c0,0-0.1,0-0.1,0h-0.3h0h-1c0,0,0,0,0,0s0,0,0,0h-1h-0.1h-0.4v-0.4
							c0-0.2,0-0.4-0.1-0.6c-0.1-0.2-0.1-0.3-0.3-0.4c-0.1-0.1-0.2-0.1-0.3-0.2c-0.1,0-0.2-0.1-0.4-0.1c-0.1,0-0.3,0-0.4,0.1
							c-0.1,0.1-0.2,0.1-0.3,0.2c0,0-0.1,0.1-0.1,0.1c0,0.1-0.1,0.1-0.1,0.2c0,0.1-0.1,0.2-0.1,0.2c0,0.1,0,0.2,0,0.3
							c0,0.2,0,0.4,0.1,0.5s0.1,0.2,0.3,0.3s0.2,0.1,0.3,0.2c0.1,0,0.3,0.1,0.4,0.1h0.4c0,0.1,0,0.1,0,0.2c0,0.1,0,0.1,0,0.2
							c0,0,0,0.1-0.1,0.1c0,0-0.1,0.1-0.1,0.1c-0.1,0.1-0.2,0.1-0.4,0.2c-0.2,0-0.4,0.1-0.6,0.1v0.6c0.2,0,0.3,0,0.5,0
							c0.1,0,0.3,0,0.4-0.1c0.1,0,0.2-0.1,0.3-0.1c0.1,0,0.2-0.1,0.3-0.2c0.1-0.1,0.3-0.3,0.3-0.4c0.1-0.2,0.1-0.4,0.1-0.6h0.4h0.1
							h1c0,0,0,0,0,0c0,0,0,0,0,0h1h0h0.3c0.1,0,0.2,0,0.3-0.1c0.1,0,0.2-0.1,0.2-0.2c0.1,0.1,0.2,0.1,0.3,0.2
							c0.1,0,0.2,0.1,0.2,0.1c0.1,0,0.2,0.1,0.2,0.1c0.1,0,0.2,0,0.2,0c0,0,0.1,0,0.1,0c0.1,0,0.1,0,0.2-0.1s0.1-0.1,0.2-0.1
							c0.1,0,0.1-0.1,0.2-0.2c0-0.1,0.1-0.2,0.1-0.3c0-0.1,0-0.3,0-0.4c0-0.2,0-0.3-0.1-0.4C556.7,14.8,556.6,14.6,556.6,14.5z
							 M551,15.8h-0.4c0,0,0,0-0.1,0s-0.1,0-0.1,0c0,0-0.1,0-0.1,0c0,0-0.1,0-0.1,0c-0.1,0-0.1-0.1-0.1-0.2c0-0.1,0-0.1,0-0.2
							c0-0.2,0-0.4,0.1-0.5c0.1-0.1,0.2-0.2,0.4-0.2c0,0,0,0,0.1,0c0,0,0.1,0,0.1,0c0,0,0.1,0,0.1,0.1c0,0,0.1,0.1,0.1,0.1
							c0,0.1,0,0.1,0.1,0.2c0,0.1,0,0.2,0,0.3V15.8z M556.3,15.7c0,0.1-0.1,0.1-0.1,0.2c0,0-0.1,0.1-0.1,0.1c0,0-0.1,0-0.1,0
							c0,0-0.1,0-0.2,0c-0.1,0-0.1,0-0.2-0.1c-0.1,0-0.1-0.1-0.2-0.1c-0.1,0-0.1-0.1-0.2-0.1c0-0.1,0-0.1,0.1-0.2
							c0-0.1,0-0.1,0.1-0.2c0-0.1,0-0.1,0.1-0.2c0-0.1,0.1-0.1,0.1-0.2c0,0,0.1-0.1,0.1-0.1c0,0,0.1,0,0.2,0c0.1,0,0.1,0,0.2,0
							c0.1,0,0.1,0.1,0.1,0.1c0,0,0.1,0.1,0.1,0.1c0,0,0,0.1,0.1,0.1c0,0,0,0.1,0,0.1c0,0,0,0.1,0,0.1
							C556.3,15.5,556.3,15.6,556.3,15.7z"/>
						<path class="st16" d="M557.6,12.2c-0.1,0-0.2,0-0.3,0.1c-0.1,0.1-0.2,0.1-0.3,0.2c-0.1,0.1-0.1,0.2-0.2,0.4l0.4,0.1
							c0-0.1,0.1-0.1,0.1-0.2c0,0,0.1-0.1,0.1-0.1c0,0,0.1,0,0.2-0.1c0.1,0,0.2,0,0.3,0h1.2v-0.5h-1.2
							C557.8,12.2,557.7,12.2,557.6,12.2z"/>
						<rect x="557.8" y="13" class="st16" width="0.6" height="3.3"/>
						<path class="st16" d="M568.8,15.3c0-0.1,0-0.2-0.1-0.3s-0.1-0.2-0.1-0.2c0,0-0.1-0.1-0.1-0.1c0-0.1-0.1-0.1-0.1-0.2
							c-0.1-0.1-0.1-0.1-0.2-0.2c-0.1-0.1-0.1-0.1-0.2-0.2c-0.1-0.2-0.3-0.3-0.4-0.5l-0.4,0.3c0.2,0.2,0.3,0.4,0.5,0.6
							c0.1,0.2,0.3,0.3,0.4,0.5c0.1,0.1,0.2,0.3,0.2,0.4c0,0.1,0.1,0.2,0.1,0.2c0,0,0,0.1,0,0.1c0,0.1-0.1,0.1-0.1,0.2
							c0,0-0.1,0.1-0.1,0.1c-0.1,0-0.1,0-0.2,0.1c-0.1,0-0.1,0-0.2,0c-0.1,0-0.1,0-0.2,0c-0.1,0-0.1,0-0.2-0.1
							c0.1-0.1,0.2-0.2,0.3-0.4c0.1-0.1,0.1-0.3,0.1-0.5c0-0.1,0-0.1,0-0.2c0-0.1,0-0.1-0.1-0.2c0-0.1-0.1-0.1-0.1-0.2
							s-0.1-0.1-0.2-0.2c-0.1,0-0.2-0.1-0.2-0.1c-0.1,0-0.2,0-0.3,0c-0.1,0-0.3,0-0.4,0.1c-0.1,0-0.2,0.1-0.3,0.2
							c-0.1,0.1-0.2,0.2-0.2,0.3c-0.1,0.1-0.1,0.2-0.1,0.4c0,0.2,0,0.3,0.1,0.4c0.1,0.1,0.1,0.2,0.2,0.3c-0.1,0-0.2,0-0.2,0
							c-0.1,0-0.2,0-0.3,0h-0.2h0h-1c0,0,0,0,0,0c0,0,0,0,0,0h-1h0h0c0,0,0,0-0.1,0c0,0-0.1,0-0.1-0.1c0,0-0.1-0.1-0.1-0.1
							c0-0.1-0.1-0.1-0.1-0.2v-0.8h-0.6v1.6c0,0.2,0,0.3-0.1,0.5c0,0.1-0.1,0.2-0.2,0.3c-0.1,0.1-0.2,0.1-0.3,0.2
							c-0.1,0-0.3,0.1-0.4,0.1h-0.3v0.6h0.3c0.2,0,0.4,0,0.6-0.1c0.2-0.1,0.3-0.2,0.5-0.3c0.1-0.1,0.2-0.3,0.3-0.5
							c0.1-0.2,0.1-0.4,0.1-0.6c0.1,0.1,0.1,0.1,0.2,0.1c0.1,0,0.1,0,0.2,0h0h0h1c0,0,0,0,0,0c0,0,0,0,0,0h1h0h0.2
							c0.5,0,0.9,0,1.2-0.1c0,0,0,0,0.1,0c0,0,0.1,0,0.1,0c0,0,0.1,0,0.1,0c0.1,0.1,0.3,0.1,0.4,0.1c0.1,0,0.3,0,0.4,0
							c0.1,0,0.3,0,0.4,0c0.1,0,0.2-0.1,0.3-0.1c0.1-0.1,0.2-0.1,0.2-0.2c0.1-0.1,0.1-0.2,0.1-0.3c0-0.1,0-0.1,0-0.2
							c0-0.1,0-0.1,0-0.1C568.9,15.4,568.9,15.3,568.8,15.3z M567.2,15.2c0,0.1-0.1,0.1-0.1,0.2s-0.1,0.1-0.1,0.1
							c-0.1,0-0.1,0.1-0.2,0.1c-0.2-0.1-0.3-0.2-0.4-0.3s-0.1-0.2-0.1-0.4c0-0.1,0-0.1,0-0.2c0-0.1,0.1-0.1,0.1-0.1
							c0,0,0.1-0.1,0.2-0.1c0.1,0,0.1,0,0.2,0c0,0,0.1,0,0.1,0c0.1,0,0.1,0,0.2,0.1c0,0,0.1,0.1,0.1,0.1c0,0.1,0,0.1,0,0.2
							C567.2,15,567.2,15.1,567.2,15.2z"/>
					</g>
				</g>
			</g>
			<g>
				<g>
					<path class="st6" d="M561,36.8l-2.3-1.9c0.9-1,1.7-2.2,2.4-3.5c0.7-1.3,1.3-2.8,1.9-4.5c0.3-0.7,0.5-1.4,0.7-2.2
						c0.2-0.7,0.4-1.4,0.5-2.1c0.1-0.7,0.3-1.3,0.3-1.9c0.1-0.6,0.1-1.2,0.1-1.6h3c0,0.5,0,1,0.1,1.6c0.1,0.6,0.2,1.3,0.4,2
						c0.2,0.7,0.3,1.4,0.5,2.1c0.2,0.7,0.4,1.4,0.7,2.1c0.6,1.6,1.3,3.1,2,4.5s1.5,2.5,2.4,3.5l-2.3,1.9c-0.5-0.6-1-1.3-1.5-2.1
						c-0.5-0.8-0.9-1.7-1.4-2.6c-0.4-0.9-0.8-1.9-1.2-2.8c-0.4-1-0.8-2-1.1-2.9c-0.3,1-0.7,1.9-1.1,2.9c-0.4,1-0.8,1.9-1.2,2.8
						c-0.4,0.9-0.9,1.8-1.4,2.6C562.1,35.5,561.5,36.2,561,36.8 M561,38.1c0.3,0,0.7-0.1,0.9-0.4c0.6-0.7,1.1-1.4,1.7-2.3
						c0.5-0.8,1-1.7,1.4-2.7c0.4-0.9,0.9-1.9,1.2-2.9c0.4,1,0.8,2,1.2,2.9c0.5,1,0.9,1.9,1.4,2.7c0.5,0.9,1.1,1.6,1.6,2.3
						c0.2,0.3,0.6,0.4,0.9,0.4c0.3,0,0.5-0.1,0.7-0.3l2.3-1.9c0.3-0.2,0.4-0.5,0.4-0.8s-0.1-0.7-0.3-0.9c-0.8-0.9-1.5-2-2.2-3.3
						c-0.7-1.3-1.3-2.7-1.9-4.3c-0.2-0.7-0.5-1.4-0.7-2.1c-0.2-0.7-0.4-1.4-0.5-2.1c-0.1-0.7-0.3-1.3-0.3-1.9
						c-0.1-0.6-0.1-1-0.1-1.4c0-0.7-0.5-1.2-1.2-1.2l-3,0c-0.7,0-1.2,0.5-1.2,1.2c0,0.4,0,0.9-0.1,1.5c-0.1,0.6-0.2,1.2-0.3,1.8
						c-0.1,0.6-0.3,1.3-0.5,2c-0.2,0.7-0.4,1.4-0.7,2.1c-0.6,1.6-1.2,3.1-1.9,4.4c-0.6,1.2-1.4,2.3-2.2,3.3
						c-0.2,0.2-0.3,0.6-0.3,0.9c0,0.3,0.2,0.6,0.4,0.9l2.3,1.9C560.5,38,560.8,38.1,561,38.1L561,38.1L561,38.1z"/>
					<path class="st6" d="M577.8,18.8c0.8,0,1.5,0.1,2.1,0.4c0.6,0.3,1.1,0.6,1.5,1.1s0.7,1.1,0.9,1.7c0.2,0.7,0.3,1.4,0.3,2.2
						c0,1.5,0,2.8,0.1,4.1c0.1,1.3,0.1,2.4,0.2,3.3c0.1,1,0.2,1.8,0.3,2.5c0.1,0.7,0.3,1.2,0.4,1.6l-2.8,1c-0.2-0.4-0.3-1-0.5-1.6
						c-0.1-0.6-0.2-1.3-0.3-2.1c-0.1-0.7-0.2-1.5-0.2-2.3c-0.1-0.8-0.1-1.6-0.1-2.4l-1.7,0c-0.6,0-1.2-0.1-1.8-0.2
						c-0.6-0.1-1.1-0.4-1.6-0.7s-0.9-0.8-1.2-1.3c-0.3-0.6-0.5-1.3-0.5-2.1s0.1-1.5,0.3-2.2c0.2-0.6,0.6-1.2,1-1.6
						c0.4-0.4,1-0.8,1.6-1C576.4,18.9,577,18.8,577.8,18.8 M577.9,25.5l1.7,0c0-0.2,0-0.4,0-0.7l0-0.6c0-0.6-0.1-1-0.2-1.4
						c-0.1-0.3-0.3-0.6-0.5-0.8c-0.2-0.2-0.4-0.3-0.6-0.3c-0.2,0-0.3-0.1-0.5-0.1c-0.3,0-0.6,0.1-0.8,0.1c-0.3,0.1-0.5,0.2-0.7,0.4
						c-0.2,0.2-0.3,0.4-0.4,0.7s-0.2,0.6-0.1,1c0,0.3,0.1,0.6,0.2,0.8c0.2,0.2,0.3,0.4,0.6,0.5c0.2,0.1,0.5,0.2,0.7,0.2
						C577.5,25.5,577.7,25.5,577.9,25.5 M577.8,17.6c-0.9,0-1.7,0.2-2.4,0.4c-0.8,0.3-1.4,0.7-2,1.3c-0.6,0.6-1,1.3-1.3,2.1
						c-0.3,0.8-0.4,1.7-0.4,2.6c0,1,0.2,1.9,0.6,2.7c0.4,0.7,0.9,1.3,1.5,1.8c0.6,0.4,1.3,0.7,2,0.9c0.7,0.2,1.4,0.2,2.1,0.2l0.6,0
						c0,0.4,0.1,0.9,0.1,1.3c0.1,0.8,0.1,1.6,0.2,2.4c0.1,0.8,0.2,1.5,0.3,2.2c0.1,0.7,0.3,1.3,0.5,1.8c0.2,0.5,0.6,0.8,1.1,0.8
						c0.1,0,0.3,0,0.4-0.1l2.8-1c0.3-0.1,0.6-0.4,0.7-0.7c0.1-0.3,0.1-0.6,0-1c-0.1-0.2-0.2-0.6-0.3-1.3c-0.1-0.7-0.2-1.5-0.3-2.4
						c-0.1-1-0.2-2.1-0.2-3.3c-0.1-1.2-0.1-2.6-0.1-4.1c0-0.9-0.1-1.7-0.4-2.5c-0.2-0.8-0.6-1.5-1.1-2.1c-0.5-0.6-1.2-1.1-1.9-1.5
						C579.6,17.8,578.7,17.6,577.8,17.6L577.8,17.6L577.8,17.6z M576.9,24C576.9,24,576.9,24,576.9,24c0-0.3,0-0.5,0.1-0.6
						c0-0.1,0.1-0.2,0.2-0.3c0.1-0.1,0.1-0.1,0.2-0.1c0.1,0,0.3-0.1,0.4-0.1c0,0,0.1,0,0.2,0c0,0,0,0,0.1,0.1c0,0,0.1,0.1,0.2,0.4
						c0,0.1,0.1,0.4,0.1,0.9l0,0l-0.5,0c-0.1,0-0.3,0-0.5,0c-0.1,0-0.3-0.1-0.4-0.1C577,24.1,576.9,24.1,576.9,24L576.9,24L576.9,24
						z"/>
				</g>
				<g>
					<path class="st17" d="M558.7,34.9c0.9-1,1.7-2.2,2.4-3.5c0.7-1.3,1.3-2.8,1.9-4.5c0.3-0.7,0.5-1.4,0.7-2.2
						c0.2-0.7,0.4-1.4,0.5-2.1c0.1-0.7,0.3-1.3,0.3-1.9c0.1-0.6,0.1-1.2,0.1-1.6l3,0c0,0.5,0,1,0.1,1.6c0.1,0.6,0.2,1.3,0.4,2
						c0.2,0.7,0.3,1.4,0.5,2.1c0.2,0.7,0.4,1.4,0.7,2.1c0.6,1.6,1.3,3.1,2,4.5s1.5,2.5,2.4,3.5l-2.3,1.9c-0.5-0.6-1-1.3-1.5-2.1
						c-0.5-0.8-0.9-1.7-1.4-2.6c-0.4-0.9-0.8-1.9-1.2-2.8c-0.4-1-0.7-2-1.1-2.9c-0.3,1-0.7,1.9-1.1,2.9c-0.4,1-0.8,1.9-1.2,2.8
						c-0.4,0.9-0.9,1.8-1.4,2.6c-0.5,0.8-1,1.5-1.5,2.1L558.7,34.9L558.7,34.9z"/>
					<path class="st17" d="M580.8,36.8c-0.2-0.4-0.3-1-0.5-1.6c-0.1-0.6-0.2-1.3-0.3-2.1c-0.1-0.7-0.2-1.5-0.2-2.3
						c-0.1-0.8-0.1-1.6-0.1-2.4l-1.7,0c-0.6,0-1.2-0.1-1.8-0.2c-0.6-0.1-1.1-0.4-1.6-0.7c-0.5-0.3-0.9-0.8-1.2-1.3s-0.5-1.3-0.5-2.1
						s0.1-1.5,0.3-2.2c0.2-0.6,0.6-1.2,1-1.6c0.4-0.4,1-0.8,1.6-1s1.3-0.4,2-0.4c0.8,0,1.5,0.1,2.1,0.4c0.6,0.3,1.1,0.6,1.5,1.1
						c0.4,0.5,0.7,1.1,0.9,1.7c0.2,0.7,0.3,1.4,0.3,2.2c0,1.5,0,2.8,0.1,4.1c0.1,1.3,0.1,2.4,0.2,3.3c0.1,1,0.2,1.8,0.3,2.5
						c0.1,0.7,0.3,1.2,0.4,1.6L580.8,36.8L580.8,36.8z M579.6,25.5c0-0.2,0-0.4,0-0.7l0-0.6c0-0.6-0.1-1-0.2-1.4
						c-0.1-0.3-0.3-0.6-0.5-0.8s-0.4-0.3-0.6-0.3c-0.2,0-0.3-0.1-0.5-0.1c-0.3,0-0.6,0.1-0.8,0.1c-0.3,0.1-0.5,0.2-0.7,0.4
						c-0.2,0.2-0.3,0.4-0.4,0.7s-0.2,0.6-0.1,1c0,0.3,0.1,0.6,0.2,0.8c0.2,0.2,0.3,0.4,0.6,0.5c0.2,0.1,0.5,0.2,0.7,0.2
						c0.3,0,0.5,0.1,0.7,0.1L579.6,25.5L579.6,25.5z"/>
				</g>
			</g>
		</g>
	</g>
	<g>
		<g>
			<g>
				<path class="st12" d="M615.3,23.5c0.2-1.3,1.3-2.4,2.7-2.4h35.7c0.4,0,0.8,0.1,1.1,0.2c-0.4-0.9-1.4-1.6-2.5-1.6h-35.7
					c-1.2,0-2.3,0.8-2.6,1.9C614.7,22.1,615.2,22.8,615.3,23.5z"/>
				<path class="st12" d="M590.2,31.7l-0.5-5.7c-0.1-0.7,0.1-1.4,0.6-1.9c0.5-0.5,1.1-0.9,1.8-1l20.3-1.8c0.1,0,0.2,0,0.3,0
					c0.4,0,0.8,0.1,1.1,0.2c-0.4-0.9-1.4-1.6-2.5-1.6c-0.1,0-0.2,0-0.3,0l-20.3,1.8c-0.7,0.1-1.4,0.4-1.8,1
					c-0.5,0.5-0.7,1.2-0.6,1.9l0.5,5.7c0.1,1,0.7,1.8,1.6,2.1C590.3,32.3,590.2,32,590.2,31.7z"/>
				<path class="st12" d="M615.3,32v-0.7c0,0,0,0,0,0c-0.3,0.3-0.6,0.6-1,0.7c0.3,0.5,0.7,0.9,1.2,1.1
					C615.4,32.8,615.3,32.4,615.3,32z"/>
			</g>
			<path class="st13" d="M653.5,21.2h-35.4c-1.4,0-2.6,1-2.7,2.4c-0.2-1.3-1.4-2.2-2.7-2.2c-0.1,0-0.2,0-0.3,0l-20.3,1.8
				c-0.7,0.1-1.4,0.4-1.8,1c-0.5,0.5-0.7,1.2-0.6,1.9l0.5,5.7c0.1,1.4,1.3,2.4,2.7,2.4c0.1,0,0.2,0,0.3,0l20.3-1.8
				c0.7-0.1,1.4-0.4,1.9-1c0,0,0,0,0,0V32c0,1.5,1.2,2.7,2.7,2.7l33.6,1.1l0.2,0h0c1,0,1.9-0.5,2.5-1.2c1.1-0.4,1.9-1.4,1.9-2.5
				v-8.2C656.2,22.4,655,21.2,653.5,21.2z"/>
		</g>
		<g>
			<path class="st18" d="M618.4,33.5l32,1.1c0.9,0,1.8-0.2,2.4-0.8l0.4-0.4L618.4,33.5L618.4,33.5z"/>
			<path class="st17" d="M652.9,33.5h-34.3c-1.2,0-2.1-0.6-2.1-1.5v-8.2c0-0.8,0.9-1.5,2.1-1.5h34.3c1.2,0,2.1,0.6,2.1,1.5V32
				C655.1,32.8,654.1,33.5,652.9,33.5z"/>
			<g>
				<path class="st6" d="M592.2,24.3l20.3-1.8c0.8-0.1,1.6,0.5,1.7,1.3l0.5,5.6c0.1,0.8-0.5,1.5-1.4,1.6L593,32.9
					c-0.8,0.1-1.5-0.5-1.6-1.3l-0.5-5.7C590.8,25.1,591.4,24.4,592.2,24.3z"/>
				<g>
					<polygon points="598.7,26.5 598.2,26 597.7,26.5 598.2,27 					"/>
					<polygon points="599.6,26.9 600.1,26.3 599.5,25.9 599,26.4 					"/>
					<polygon points="599.3,25.5 598.8,25.1 598.3,25.6 598.9,26 					"/>
					<path d="M601,29c0.1-0.2,0.1-0.3,0.1-0.5c0-0.1,0-0.1,0-0.2c0-0.1,0-0.2-0.1-0.3c0-0.1,0-0.2-0.1-0.3c0-0.1-0.1-0.2-0.1-0.2
						c0-0.1,0-0.1-0.1-0.2c0,0,0-0.1,0-0.1l-0.6,0.2c0,0,0,0.1,0,0.1c0,0.1,0,0.1,0.1,0.2c0,0.1,0,0.1,0.1,0.2c0,0.1,0,0.1,0.1,0.2
						c0,0.1,0,0.1,0,0.2c0,0.1,0,0.1,0,0.2c0,0.1,0,0.2,0,0.3c0,0.1-0.1,0.1-0.1,0.2c0,0-0.1,0.1-0.2,0.1c-0.1,0-0.1,0-0.1,0
						c-0.2,0-0.3,0-0.4-0.1c-0.1-0.1-0.2-0.2-0.2-0.4l-0.1-0.9l-0.7,0.1l0.1,0.9c0,0.1,0,0.2,0,0.3c0,0.1-0.1,0.1-0.1,0.2
						c-0.1,0-0.1,0.1-0.2,0.1c-0.1,0-0.1,0-0.2,0c-0.1,0-0.2,0-0.2,0c-0.1,0-0.1,0-0.2-0.1c-0.1-0.1-0.1-0.1-0.2-0.2
						c0-0.1-0.1-0.2-0.1-0.4l0-0.6l-0.7,0.1l0.2,2.1c0,0.1,0,0.3,0,0.4c0,0.1-0.1,0.2-0.1,0.3c-0.1,0.1-0.2,0.2-0.3,0.2
						c-0.1,0.1-0.3,0.1-0.6,0.1l-0.6,0c-0.2,0-0.3,0-0.5-0.1c-0.2,0-0.3-0.1-0.4-0.2c-0.1-0.1-0.2-0.2-0.3-0.4
						c-0.1-0.1-0.1-0.3-0.1-0.5c0-0.2,0-0.4,0.1-0.7c0.1-0.2,0.2-0.5,0.3-0.8l-0.6-0.2c-0.1,0.3-0.2,0.7-0.3,0.9
						c-0.1,0.3-0.1,0.6-0.1,0.8c0,0.3,0.1,0.5,0.2,0.7c0.1,0.2,0.3,0.4,0.4,0.5c0.2,0.1,0.4,0.3,0.6,0.3c0.2,0.1,0.5,0.1,0.8,0.1
						l0.6,0c0.6,0,1-0.2,1.3-0.5s0.4-0.7,0.4-1.2l0-0.2c0,0,0.1,0.1,0.1,0.1c0.1,0,0.1,0,0.2,0c0.1,0,0.1,0,0.2,0c0.1,0,0.1,0,0.2,0
						c0.1,0,0.1,0,0.2,0c0.1,0,0.1,0,0.2-0.1s0.1-0.1,0.2-0.1c0.1,0,0.1-0.1,0.2-0.2c0.1,0.1,0.3,0.2,0.4,0.2c0.2,0,0.3,0.1,0.5,0
						c0.1,0,0.3,0,0.4-0.1c0.1-0.1,0.2-0.1,0.3-0.2C600.9,29.3,601,29.1,601,29z"/>
					<polygon points="602.9,26.1 602.3,25.7 601.8,26.2 602.4,26.7 					"/>
					<path d="M602.1,27.5l0.2,1.9c0,0.2,0,0.4,0,0.5c0,0.2-0.1,0.3-0.2,0.4c-0.1,0.1-0.2,0.2-0.4,0.2c-0.1,0.1-0.3,0.1-0.5,0.1
						l-0.4,0l0.1,0.7l0.4,0c0.3,0,0.5-0.1,0.8-0.2c0.2-0.1,0.4-0.2,0.6-0.4c0.2-0.2,0.3-0.4,0.3-0.6c0.1-0.2,0.1-0.5,0.1-0.7
						l-0.2-1.9L602.1,27.5z"/>
					<path d="M609.3,26.9c-0.1-0.1-0.3-0.2-0.4-0.3c-0.2-0.1-0.4-0.1-0.6-0.1c-0.1,0-0.3,0-0.4,0.1c-0.1,0-0.2,0.1-0.3,0.2
						c-0.1,0.1-0.1,0.1-0.2,0.2c-0.1,0.1-0.1,0.2-0.1,0.3c0,0.1-0.1,0.2-0.1,0.3c0,0.1,0,0.2-0.1,0.3c0,0.1,0,0.2-0.1,0.3
						c0,0.1,0,0.1-0.1,0.2c0,0.1-0.1,0.1-0.1,0.1c0,0-0.1,0.1-0.1,0.1l-0.3,0v0l-0.6,0l0-0.5c0-0.3-0.1-0.5-0.2-0.7
						s-0.2-0.3-0.4-0.5c-0.1-0.1-0.2-0.1-0.4-0.2c-0.1,0-0.3,0-0.4,0c-0.2,0-0.3,0.1-0.5,0.1c-0.1,0.1-0.3,0.2-0.4,0.3
						c0,0-0.1,0.1-0.1,0.2c0,0.1-0.1,0.1-0.1,0.2c0,0.1-0.1,0.2-0.1,0.3c0,0.1,0,0.2,0,0.4c0,0.2,0.1,0.4,0.2,0.6
						c0.1,0.2,0.2,0.3,0.3,0.4c0.1,0.1,0.3,0.1,0.4,0.2c0.2,0,0.3,0,0.5,0l0.5,0c0,0.1,0,0.2,0,0.2c0,0.1,0,0.1,0,0.2s0,0.1-0.1,0.2
						S605.1,30,605,30c-0.1,0.1-0.3,0.2-0.5,0.2c-0.2,0.1-0.5,0.1-0.8,0.1l0.1,0.7c0.2,0,0.4,0,0.6-0.1c0.2,0,0.3-0.1,0.5-0.1
						c0.1,0,0.3-0.1,0.4-0.2c0.1-0.1,0.2-0.1,0.3-0.2c0.2-0.2,0.3-0.3,0.4-0.5c0.1-0.2,0.1-0.4,0.1-0.7l0.6,0v0l0.4,0
						c0.1,0,0.2,0,0.3-0.1s0.2-0.1,0.3-0.2c0.1,0.1,0.3,0.1,0.4,0.1c0.1,0,0.2,0.1,0.3,0.1c0.1,0,0.2,0,0.3,0.1c0.1,0,0.2,0,0.3,0
						c0.1,0,0.1,0,0.2,0c0.1,0,0.1,0,0.2-0.1s0.1-0.1,0.2-0.1c0.1-0.1,0.1-0.1,0.2-0.2c0-0.1,0.1-0.2,0.1-0.4c0-0.1,0-0.3,0-0.5
						c0-0.2-0.1-0.4-0.1-0.5C609.5,27.1,609.5,27,609.3,26.9z M604.7,28.7C604.7,28.7,604.7,28.7,604.7,28.7c-0.1,0-0.1,0-0.2,0
						c0,0-0.1,0-0.1,0s-0.1,0-0.1,0c-0.1,0-0.1-0.1-0.2-0.2s-0.1-0.2-0.1-0.3c0-0.2,0-0.4,0.1-0.6c0.1-0.1,0.2-0.2,0.4-0.2
						c0,0,0.1,0,0.1,0c0,0,0.1,0,0.1,0c0,0,0.1,0,0.1,0.1c0,0,0.1,0.1,0.1,0.1c0,0.1,0.1,0.1,0.1,0.2c0,0.1,0,0.2,0.1,0.3l0,0.5
						L604.7,28.7z M609.1,28.2c0,0.1-0.1,0.2-0.1,0.2c0,0-0.1,0.1-0.1,0.1c0,0-0.1,0-0.1,0c-0.1,0-0.1,0-0.2,0c-0.1,0-0.2,0-0.2-0.1
						s-0.2-0.1-0.3-0.1s-0.2-0.1-0.3-0.1c0-0.1,0-0.1,0.1-0.2c0-0.1,0-0.2,0.1-0.2c0-0.1,0-0.2,0.1-0.2c0-0.1,0.1-0.1,0.1-0.2
						c0-0.1,0.1-0.1,0.2-0.1c0.1,0,0.1-0.1,0.2-0.1c0.1,0,0.2,0,0.2,0c0.1,0,0.1,0.1,0.2,0.1c0,0,0.1,0.1,0.1,0.1
						c0,0.1,0.1,0.1,0.1,0.2c0,0.1,0,0.1,0,0.1s0,0.1,0,0.1C609.1,28,609.1,28.1,609.1,28.2z"/>
					<polygon points="610.7,25 611,28.9 611.7,28.8 611.4,24.9 					"/>
					<path d="M612.4,24.4l0-0.5l-1.5,0.1c-0.2,0-0.3,0-0.4,0.1c-0.1,0-0.2,0.1-0.4,0.1c-0.1,0.1-0.2,0.2-0.3,0.3
						c-0.1,0.1-0.1,0.3-0.2,0.4l0.6,0.1c0-0.1,0-0.2,0.1-0.2c0-0.1,0.1-0.1,0.1-0.1c0.1,0,0.1-0.1,0.2-0.1c0.1,0,0.2,0,0.3,0
						L612.4,24.4z"/>
				</g>
			</g>
			<g>
				<path class="st6" d="M623.3,27.4c-0.2-0.3-0.3-0.6-0.5-0.9c-0.2-0.3-0.4-0.6-0.6-0.8c-0.2-0.3-0.4-0.5-0.6-0.7
					c-0.2-0.2-0.4-0.4-0.6-0.6c-0.2-0.2-0.3-0.3-0.4-0.4c-0.1-0.1-0.2-0.1-0.2-0.2l-0.7,0.9l0.4,0.3c-0.1,0.1-0.3,0.3-0.4,0.4
					c-0.2,0.2-0.3,0.4-0.5,0.6c-0.2,0.2-0.3,0.4-0.5,0.7s-0.3,0.5-0.4,0.8c-0.1,0.3-0.2,0.6-0.3,0.9c-0.1,0.3-0.1,0.6-0.1,0.9
					c0,0,0,0.1,0,0.2s0,0.2,0,0.3c0,0.1,0.1,0.2,0.1,0.3s0.1,0.2,0.2,0.4c0.1,0.2,0.3,0.4,0.5,0.6c0.2,0.1,0.4,0.2,0.6,0.3
					c0.2,0,0.3,0,0.4,0c0.1,0,0.3,0,0.4,0c0.2-0.1,0.5-0.2,0.7-0.3c0.2,0.1,0.3,0.2,0.5,0.3c0.2,0.1,0.4,0.1,0.6,0.1h0
					c0.2,0,0.4,0,0.6-0.1c0.2-0.1,0.4-0.2,0.5-0.3h0c0.1-0.1,0.2-0.1,0.2-0.2c0.1-0.1,0.1-0.2,0.2-0.3c0.1-0.1,0.1-0.3,0.2-0.4
					c0-0.2,0.1-0.4,0.1-0.6c0-0.3,0-0.7-0.1-1C623.6,28.1,623.5,27.7,623.3,27.4z M622.7,29.9c-0.1,0.1-0.1,0.2-0.2,0.3
					c-0.1,0.1-0.1,0.1-0.2,0.1c-0.1,0-0.2,0-0.2,0H622c-0.1,0-0.2,0-0.3-0.1c-0.1,0-0.1-0.1-0.2-0.2c0,0,0-0.1-0.1-0.1
					c0,0,0-0.1,0-0.1c0-0.1,0-0.2,0-0.3c0-0.1,0-0.2,0-0.2c0-0.1,0-0.2,0-0.3c0-0.1,0-0.2,0-0.3l-1.1,0.2c0,0.1,0,0.1,0,0.2
					c0,0.1,0,0.1,0,0.2c0,0.1,0,0.1,0,0.2c0,0.1,0,0.1,0,0.2c0,0.1,0,0.1-0.1,0.2c0,0.1-0.1,0.1-0.1,0.1c-0.2,0.1-0.3,0.2-0.4,0.2h0
					c-0.2,0-0.3-0.1-0.4-0.2c-0.1-0.1-0.2-0.2-0.3-0.4s-0.1-0.3-0.1-0.5c0-0.2,0-0.5,0.1-0.7c0.1-0.2,0.2-0.5,0.3-0.7
					c0.1-0.2,0.2-0.5,0.4-0.7s0.3-0.4,0.4-0.6c0.1-0.2,0.3-0.4,0.4-0.5c0.1-0.2,0.3-0.3,0.4-0.4c0.1,0.2,0.3,0.3,0.4,0.5
					c0.2,0.2,0.3,0.4,0.5,0.6c0.1,0.2,0.3,0.4,0.4,0.6c0.1,0.2,0.2,0.4,0.3,0.7c0.1,0.2,0.2,0.4,0.2,0.7c0.1,0.2,0.1,0.4,0.1,0.7
					C622.8,29.6,622.8,29.8,622.7,29.9z"/>
				<path class="st6" d="M629.6,27.5c-0.2-0.3-0.3-0.6-0.5-0.9c-0.2-0.3-0.4-0.6-0.6-0.8c-0.2-0.3-0.4-0.5-0.6-0.7
					c-0.2-0.2-0.4-0.4-0.6-0.6c-0.2-0.2-0.3-0.3-0.4-0.4s-0.2-0.1-0.2-0.2l-0.7,0.9l0.4,0.3c-0.1,0.1-0.3,0.3-0.4,0.4
					c-0.2,0.2-0.3,0.4-0.5,0.6c-0.2,0.2-0.3,0.4-0.5,0.7c-0.2,0.3-0.3,0.5-0.4,0.8c-0.1,0.3-0.2,0.6-0.3,0.9
					c-0.1,0.3-0.1,0.6-0.1,0.9c0,0,0,0.1,0,0.2c0,0.1,0,0.2,0,0.3c0,0.1,0.1,0.2,0.1,0.3s0.1,0.2,0.2,0.4c0.1,0.2,0.3,0.4,0.5,0.6
					c0.2,0.1,0.4,0.2,0.6,0.3c0.2,0,0.3,0,0.4,0c0.1,0,0.3,0,0.4,0c0.2-0.1,0.5-0.2,0.7-0.3c0.2,0.1,0.3,0.2,0.5,0.3
					c0.2,0.1,0.4,0.1,0.6,0.1h0c0.2,0,0.4,0,0.6-0.1c0.2-0.1,0.4-0.2,0.5-0.3h0c0.1-0.1,0.2-0.1,0.2-0.2s0.1-0.2,0.2-0.3
					c0.1-0.1,0.1-0.3,0.2-0.4c0-0.2,0.1-0.4,0.1-0.6c0-0.3,0-0.7-0.1-1C629.8,28.1,629.7,27.8,629.6,27.5z M629,29.9
					c-0.1,0.1-0.1,0.2-0.2,0.3c-0.1,0.1-0.1,0.1-0.2,0.1s-0.2,0-0.2,0l-0.1,0c-0.1,0-0.2,0-0.3-0.1c-0.1,0-0.1-0.1-0.2-0.2
					c0,0,0-0.1-0.1-0.1c0,0,0-0.1,0-0.1c0-0.1,0-0.2,0-0.3s0-0.2,0-0.2c0-0.1,0-0.2,0-0.3c0-0.1,0-0.2,0-0.3l-1.1,0.2
					c0,0.1,0,0.1,0,0.2c0,0.1,0,0.1,0,0.2c0,0.1,0,0.1,0,0.2c0,0.1,0,0.1,0,0.2s0,0.1-0.1,0.2c0,0.1-0.1,0.1-0.1,0.1
					c-0.2,0.1-0.3,0.2-0.4,0.2h0c-0.2,0-0.3-0.1-0.4-0.2c-0.1-0.1-0.2-0.2-0.3-0.4c-0.1-0.1-0.1-0.3-0.1-0.5c0-0.2,0-0.5,0.1-0.7
					c0.1-0.2,0.2-0.5,0.3-0.7c0.1-0.2,0.2-0.5,0.4-0.7c0.1-0.2,0.3-0.4,0.4-0.6c0.1-0.2,0.3-0.4,0.4-0.5c0.1-0.2,0.3-0.3,0.4-0.4
					c0.1,0.2,0.3,0.3,0.4,0.5c0.2,0.2,0.3,0.4,0.5,0.6c0.1,0.2,0.3,0.4,0.4,0.6s0.2,0.4,0.3,0.7c0.1,0.2,0.2,0.4,0.2,0.7
					c0.1,0.2,0.1,0.4,0.1,0.7C629.1,29.7,629,29.8,629,29.9z"/>
				<path class="st6" d="M634.1,27.3c-0.2-0.2-0.4-0.3-0.6-0.4c-0.2-0.1-0.5-0.2-0.7-0.2c-0.3,0-0.5,0-0.7,0.1
					c-0.2,0.1-0.4,0.2-0.6,0.4c-0.2,0.2-0.3,0.4-0.4,0.6c-0.1,0.2-0.2,0.5-0.2,0.7c0,0.3,0,0.5,0.1,0.7c0.1,0.2,0.2,0.4,0.4,0.6
					c0.2,0.2,0.4,0.3,0.6,0.4s0.5,0.2,0.7,0.2s0.5,0,0.7-0.1c0.2-0.1,0.4-0.2,0.6-0.4c0.2-0.2,0.3-0.4,0.4-0.6
					c0.1-0.2,0.2-0.5,0.2-0.7c0-0.3,0-0.5-0.1-0.7C634.4,27.7,634.2,27.5,634.1,27.3z M633.5,29c0,0.1-0.1,0.2-0.2,0.3
					c-0.1,0.1-0.2,0.1-0.3,0.2c-0.1,0-0.2,0.1-0.3,0.1c-0.1,0-0.2,0-0.3-0.1c-0.1,0-0.2-0.1-0.3-0.2c-0.1-0.1-0.1-0.2-0.2-0.3
					c0-0.1-0.1-0.2-0.1-0.3s0-0.2,0.1-0.3c0-0.1,0.1-0.2,0.2-0.3c0.1-0.1,0.2-0.1,0.3-0.2c0.1,0,0.2-0.1,0.3-0.1
					c0.1,0,0.2,0,0.3,0.1c0.1,0,0.2,0.1,0.3,0.2c0.1,0.1,0.1,0.2,0.2,0.3c0,0.1,0.1,0.2,0.1,0.3S633.6,28.9,633.5,29z"/>
				<polygon class="st6" points="638.6,25.8 637.4,25.8 637.4,28 635.4,27.9 635.4,29.1 637.4,29.1 637.3,31.4 638.6,31.4 
					638.6,29.1 640.6,29.1 640.6,28 638.6,28 				"/>
				<path class="st6" d="M642.9,27.2c0-0.5-0.1-0.9-0.2-1.4c-0.1-0.5-0.2-1-0.4-1.5l-1,0.3c0.1,0.5,0.3,0.9,0.3,1.4
					c0.1,0.5,0.1,0.9,0.2,1.3s0.1,0.8,0.1,1.2c0,0.4,0,0.8,0,1.1c0,0.2,0,0.4,0,0.5c0,0.2,0,0.3,0,0.5v0c0,0.1,0,0.3,0,0.4
					c0,0.1,0,0.3,0,0.4l1.1,0c0-0.1,0-0.2,0-0.4s0-0.3,0-0.4c0-0.2,0-0.3,0-0.5c0-0.2,0-0.3,0-0.5c0-0.4,0-0.8,0-1.2
					C642.9,28.1,642.9,27.7,642.9,27.2z"/>
				<path class="st6" d="M648.9,27.6c-0.2-0.3-0.3-0.6-0.5-0.9c-0.2-0.3-0.4-0.6-0.6-0.8c-0.2-0.3-0.4-0.5-0.6-0.7
					c-0.2-0.2-0.4-0.4-0.6-0.6c-0.2-0.2-0.3-0.3-0.4-0.4c-0.1-0.1-0.2-0.1-0.2-0.2l-0.7,0.9l0.4,0.3c-0.1,0.1-0.3,0.3-0.4,0.4
					c-0.2,0.2-0.3,0.4-0.5,0.6c-0.2,0.2-0.3,0.4-0.5,0.7c-0.2,0.3-0.3,0.5-0.4,0.8c-0.1,0.3-0.2,0.6-0.3,0.9
					c-0.1,0.3-0.1,0.6-0.1,0.9c0,0,0,0.1,0,0.2c0,0.1,0,0.2,0,0.3c0,0.1,0.1,0.2,0.1,0.3s0.1,0.2,0.2,0.4c0.1,0.2,0.3,0.4,0.5,0.6
					s0.4,0.2,0.6,0.3c0.2,0,0.3,0,0.4,0c0.1,0,0.3,0,0.4,0c0.2-0.1,0.5-0.2,0.7-0.3c0.2,0.1,0.3,0.2,0.5,0.3s0.4,0.1,0.6,0.1h0
					c0.2,0,0.4,0,0.6-0.1c0.2-0.1,0.4-0.2,0.5-0.3h0c0.1-0.1,0.2-0.1,0.2-0.2c0.1-0.1,0.2-0.2,0.2-0.3s0.1-0.3,0.2-0.4
					c0-0.2,0.1-0.4,0.1-0.6c0-0.3,0-0.7-0.1-1C649.2,28.2,649.1,27.9,648.9,27.6z M648.4,30c-0.1,0.1-0.1,0.2-0.2,0.3
					c-0.1,0.1-0.1,0.1-0.2,0.1c-0.1,0-0.2,0-0.2,0h-0.1c-0.1,0-0.2,0-0.3-0.1c-0.1,0-0.1-0.1-0.2-0.2c0,0,0-0.1-0.1-0.1
					c0,0,0-0.1,0-0.1c0-0.1,0-0.2,0-0.3c0-0.1,0-0.2,0-0.2c0-0.1,0-0.2,0-0.3c0-0.1,0-0.2,0-0.3l-1.1,0.2c0,0.1,0,0.1,0,0.2
					s0,0.1,0,0.2c0,0.1,0,0.1,0,0.2s0,0.1,0,0.2c0,0.1,0,0.1-0.1,0.2c0,0.1-0.1,0.1-0.1,0.1c-0.2,0.1-0.3,0.2-0.4,0.2h0
					c-0.2,0-0.3-0.1-0.4-0.2c-0.1-0.1-0.2-0.2-0.3-0.4s-0.1-0.3-0.1-0.5c0-0.2,0-0.5,0.1-0.7c0.1-0.2,0.2-0.5,0.3-0.7
					c0.1-0.2,0.2-0.5,0.4-0.7s0.3-0.4,0.4-0.6s0.3-0.4,0.4-0.5c0.1-0.2,0.3-0.3,0.4-0.4c0.1,0.2,0.3,0.3,0.4,0.5
					c0.2,0.2,0.3,0.4,0.5,0.6s0.3,0.4,0.4,0.6c0.1,0.2,0.2,0.4,0.3,0.7c0.1,0.2,0.2,0.4,0.2,0.7c0.1,0.2,0.1,0.4,0.1,0.7
					C648.5,29.7,648.4,29.9,648.4,30z"/>
				<path class="st6" d="M653.8,28c-0.1-0.2-0.2-0.4-0.4-0.6c-0.2-0.2-0.4-0.3-0.6-0.4c-0.2-0.1-0.5-0.2-0.7-0.2
					c-0.3,0-0.5,0-0.7,0.1s-0.4,0.2-0.6,0.4c-0.2,0.2-0.3,0.4-0.4,0.6c-0.1,0.2-0.2,0.5-0.2,0.7c0,0.3,0,0.5,0.1,0.7
					s0.2,0.4,0.4,0.6c0.2,0.2,0.4,0.3,0.6,0.4s0.5,0.2,0.7,0.2c0.3,0,0.5,0,0.7-0.1c0.2-0.1,0.4-0.2,0.6-0.4
					c0.2-0.2,0.3-0.4,0.4-0.6c0.1-0.2,0.2-0.5,0.2-0.7C654,28.5,653.9,28.2,653.8,28z M652.9,29.1c0,0.1-0.1,0.2-0.2,0.3
					s-0.2,0.1-0.3,0.2c-0.1,0-0.2,0.1-0.3,0.1c-0.1,0-0.2,0-0.3-0.1c-0.1,0-0.2-0.1-0.3-0.2c-0.1-0.1-0.1-0.2-0.2-0.3
					c0-0.1-0.1-0.2-0.1-0.3s0-0.2,0.1-0.3c0-0.1,0.1-0.2,0.2-0.3s0.2-0.1,0.3-0.2c0.1,0,0.2-0.1,0.3-0.1c0.1,0,0.2,0,0.3,0.1
					c0.1,0,0.2,0.1,0.3,0.2c0.1,0.1,0.1,0.2,0.2,0.3s0.1,0.2,0.1,0.3S652.9,29,652.9,29.1z"/>
			</g>
		</g>
	</g>
	<g>
		<g>
			<g>
				<g>
					<g>
						<path class="st19" d="M575.1,50.9h-31.2c-2.9,0-5.2-2.1-5.2-4.7l0,0c0-2.6,2.3-4.7,5.2-4.7h31.2c2.9,0,5.2,2.1,5.2,4.7l0,0
							C580.3,48.8,578,50.9,575.1,50.9z"/>
					</g>
				</g>
			</g>
			<g>
				<g>
					<g>
						<g>
							<g>
								<g>
									<path class="st6" d="M581.2,44.6c-0.3,0.1-0.5,0.4-0.5,0.7l-0.1-0.5c-0.1-0.3-0.4-0.5-0.7-0.4c-0.3,0.1-0.5,0.4-0.4,0.7
										l-0.1-0.4c-0.1-0.3-0.4-0.5-0.7-0.4c-0.3,0.1-0.5,0.4-0.4,0.7l-0.4-1.7c-0.1-0.3-0.4-0.4-0.7-0.3c-0.3,0.1-0.5,0.3-0.4,0.6
										l1.1,4.3l-0.9-1c-0.4-0.4-1-0.5-1.5-0.1l0,0c-0.1,0.1-0.1,0.2,0,0.3l1.9,2.3c0.7,0.9,1.9,1.3,3.1,1L581,50
										c1.1-0.3,1.8-1.4,1.5-2.6l-0.7-2.5C581.8,44.7,581.5,44.5,581.2,44.6z"/>
								</g>
								<g>
									<path class="st6" d="M578,44.7l0.5,1.8L578,44.7z"/>
								</g>
								<g>
									<path class="st6" d="M579.3,44.7l0.4,1.5L579.3,44.7z"/>
								</g>
								<g>
									<g>
										<path class="st6" d="M580.6,44.7l0.3,1.1L580.6,44.7z"/>
									</g>
									<path class="st20" d="M582.6,47.4l-0.7-2.5c-0.1-0.3-0.5-0.5-0.8-0.5c-0.2,0-0.4,0.2-0.5,0.3l0-0.1
										c-0.1-0.4-0.5-0.6-0.9-0.5c-0.2,0.1-0.3,0.2-0.4,0.3l0,0c-0.1-0.3-0.5-0.5-0.9-0.4c-0.2,0.1-0.3,0.2-0.4,0.3l-0.3-1.3
										c-0.2-0.3-0.5-0.5-0.9-0.4c-0.3,0.1-0.5,0.4-0.5,0.8l1,3.9l-0.6-0.7c-0.4-0.5-1.1-0.5-1.6-0.1c-0.1,0.1-0.1,0.3,0,0.4
										l1.9,2.3c0.4,0.5,0.9,0.8,1.6,1c0,0,0.1,0,0.1,0c0.5,0.1,1,0.1,1.5,0l0.8-0.2c0.6-0.1,1-0.5,1.3-1
										C582.7,48.6,582.8,48,582.6,47.4z M577.6,47.9c0,0,0.1-0.1,0.1-0.1l-1.1-4.3c0-0.2,0.1-0.5,0.4-0.5
										c0.2-0.1,0.5,0.1,0.6,0.3l0.8,3.3c0,0,0,0.1,0.1,0.1c0,0,0,0,0.1,0c0,0,0,0,0.1,0c0,0,0-0.1,0-0.1l-0.4-1.6
										c0-0.3,0.1-0.5,0.4-0.6c0.3-0.1,0.5,0.1,0.6,0.3l0.4,1.6c0,0,0,0.1,0.1,0.1c0,0,0,0,0.1,0c0,0,0,0,0.1,0c0,0,0-0.1,0-0.1
										l-0.3-1.1c-0.1-0.3,0.1-0.5,0.4-0.6c0.3-0.1,0.5,0.1,0.6,0.3l0.3,1.1c0,0,0,0.1,0.1,0.1c0,0,0,0,0.1,0c0,0,0,0,0.1,0
										c0,0,0-0.1,0-0.1l-0.2-0.6c0-0.3,0.1-0.5,0.4-0.6c0.2,0,0.5,0.1,0.6,0.3l0.7,2.5c0.1,0.5,0.1,1.1-0.2,1.5
										c-0.3,0.5-0.7,0.8-1.2,0.9l-0.8,0.2c-1.1,0.3-2.2-0.1-3-1l-1.9-2.3c0,0,0-0.1,0-0.1c0.2-0.2,0.5-0.3,0.8-0.2c0,0,0,0,0,0
										c0.2,0,0.3,0.1,0.5,0.3l0.9,1C577.5,47.9,577.6,47.9,577.6,47.9z"/>
								</g>
							</g>
						</g>
					</g>
				</g>
				<g>
					<path class="st6" d="M576.4,40.5C576.4,40.5,576.3,40.5,576.4,40.5c-0.1-0.1-0.1-0.1-0.1-0.1s0,0-0.1,0.1c0,0,0,0.1,0,0.1
						l0.4,1.4c0,0,0,0.1,0.1,0.1l0,0c0,0,0,0,0,0c0,0,0,0,0.1,0c0,0,0,0,0.1-0.1c0,0,0-0.1,0-0.1L576.4,40.5z"/>
					<path class="st6" d="M576.1,42.3l-1.1-1c0,0-0.1,0-0.1,0c0,0,0,0,0,0.1c0,0,0,0.1,0,0.1l1.1,1c0,0,0,0,0,0c0,0,0,0,0,0
						c0,0,0.1,0,0.1,0C576.1,42.4,576.1,42.4,576.1,42.3C576.1,42.3,576.1,42.3,576.1,42.3z"/>
					<path class="st6" d="M577.8,40.4C577.8,40.4,577.7,40.4,577.8,40.4c-0.1,0-0.1,0.1-0.1,0.1l-0.3,1.4c0,0.1,0,0.1,0.1,0.1l0,0
						c0,0,0,0,0,0c0.1,0,0.1,0,0.1-0.1l0.3-1.4C577.9,40.5,577.9,40.5,577.8,40.4C577.9,40.4,577.8,40.4,577.8,40.4z"/>
					<path class="st6" d="M579.1,41.3C579.1,41.3,579.1,41.3,579.1,41.3c-0.1-0.1-0.1-0.1-0.2-0.1l-1,1.1c0,0,0,0,0,0.1
						c0,0,0,0.1,0,0.1c0,0,0,0,0,0l0,0c0,0,0,0,0,0c0,0,0.1,0,0.1,0L579.1,41.3C579.1,41.4,579.1,41.3,579.1,41.3z"/>
					<path class="st6" d="M575.7,42.9l-1.4-0.3c-0.1,0-0.1,0-0.1,0.1c0,0.1,0,0.1,0.1,0.1l1.4,0.3c0,0,0,0,0,0c0,0,0.1,0,0.1,0
						c0,0,0,0,0-0.1C575.8,43,575.8,43,575.7,42.9z"/>
				</g>
			</g>
		</g>
		<g>
			<path class="st21" d="M546.4,48.9c-0.1,0-0.2,0-0.3,0.1c-0.1,0.1-0.1,0.2-0.1,0.3c0,0.1,0,0.2,0.1,0.3c0.1,0.1,0.2,0.1,0.3,0.1
				c0.1,0,0.2,0,0.3-0.1c0.1-0.1,0.1-0.2,0.1-0.3s0-0.2-0.1-0.3C546.6,48.9,546.5,48.9,546.4,48.9z"/>
			<path class="st21" d="M547.6,48.8c-0.1,0-0.2,0-0.3,0.1c-0.1,0.1-0.1,0.2-0.1,0.3c0,0.1,0,0.2,0.1,0.3c0.1,0.1,0.2,0.1,0.3,0.1
				c0.1,0,0.2,0,0.3-0.1c0.1-0.1,0.1-0.2,0.1-0.3s0-0.2-0.1-0.3C547.8,48.9,547.7,48.8,547.6,48.8z"/>
			<path class="st21" d="M549.9,44.8c0.1,0,0.2,0,0.3-0.1c0.1-0.1,0.1-0.2,0.1-0.3c0-0.1,0-0.2-0.1-0.3c-0.1-0.1-0.2-0.1-0.3-0.1
				c-0.1,0-0.2,0-0.3,0.1s-0.1,0.2-0.1,0.3c0,0.1,0,0.2,0.1,0.3C549.7,44.7,549.8,44.8,549.9,44.8z"/>
			<path class="st21" d="M555.6,42.8l-2.7,1.3l0,0.7c0.1,0.1,0.2,0.1,0.3,0.2c0.1,0.1,0.2,0.2,0.4,0.4c0.1,0.1,0.3,0.3,0.4,0.4
				c0.1,0.2,0.2,0.3,0.4,0.5c0.1,0.2,0.2,0.3,0.3,0.4c0.1,0.1,0.1,0.2,0.1,0.3c0,0.1,0,0.1-0.1,0.1c0,0-0.1,0.1-0.1,0.1
				c-0.1,0-0.1,0-0.2,0c-0.1,0-0.1,0-0.1,0l-1.8,0v0l-1.2,0c0,0,0,0,0,0l-0.2,0c0,0,0,0-0.1,0c0,0-0.1,0-0.1,0c0,0-0.1,0-0.1,0
				c0,0-0.1,0-0.1-0.1c0,0-0.1-0.1-0.1-0.1c0-0.1,0-0.1,0-0.2l0-1.1l-0.6,0l0,1.1c0,0,0,0.1,0,0.1s0,0.1-0.1,0.1
				c0,0-0.1,0.1-0.2,0.1c-0.1,0-0.2,0-0.3,0l-0.4,0v0l-0.1,0l-0.1,0v0l-0.3,0c0,0,0,0-0.1,0c0,0-0.1,0-0.1,0c0,0-0.1,0-0.1,0
				c0,0-0.1,0-0.1-0.1c0,0-0.1-0.1-0.1-0.1c0-0.1,0-0.1,0-0.2l0-1.1l-0.6,0l0,1.1c0,0,0,0.1,0,0.1c0,0.1,0,0.1-0.1,0.1
				c0,0-0.1,0.1-0.2,0.1c-0.1,0-0.2,0-0.3,0l-1,0v0l0,0l0,0c-0.1,0-0.2,0-0.2-0.1c-0.1-0.1-0.2-0.2-0.2-0.3s-0.2-0.2-0.2-0.3
				c-0.1-0.1-0.1-0.2-0.2-0.3c-0.1-0.2-0.3-0.4-0.4-0.6c-0.1-0.2-0.2-0.3-0.3-0.5c-0.1-0.1-0.1-0.2-0.2-0.3l-0.1-0.1l-0.2-0.3
				l-0.5,0.4l0.2,0.3l0,0c0,0,0,0,0,0.1c0,0.1,0.1,0.2,0.2,0.3s0.2,0.3,0.3,0.5c0.1,0.2,0.3,0.4,0.4,0.7c0.1,0.1,0.1,0.2,0.1,0.3v0
				c0,0.1,0,0.1-0.1,0.2c-0.1,0-0.2,0.1-0.3,0.1c-0.1,0-0.2,0-0.4,0c-0.1,0-0.2,0-0.2,0c-0.1,0-0.2,0-0.2,0s-0.1,0-0.2-0.1
				c-0.1,0-0.1,0-0.2-0.1l-0.3-0.2l-0.3,0.6l0.3,0.2c0.1,0,0.1,0.1,0.2,0.1c0.1,0,0.1,0.1,0.2,0.1c0.1,0,0.1,0,0.2,0
				c0.1,0,0.1,0,0.2,0c0.1,0,0.2,0,0.4,0c0.1,0,0.2,0,0.2,0s0.2,0,0.2,0c0.2,0,0.4-0.1,0.5-0.2c0.1-0.1,0.2-0.1,0.2-0.2
				c0.2,0.2,0.5,0.4,0.8,0.4l0,0l0,0c0,0,0,0,0,0l0,0l1,0c0.2,0,0.4,0,0.5-0.1c0.2-0.1,0.3-0.1,0.4-0.2c0.1,0.1,0.2,0.2,0.3,0.2
				c0.1,0.1,0.3,0.1,0.5,0.1l0.4,0l0.5,0c0.2,0,0.4,0,0.5-0.1c0.2-0.1,0.3-0.1,0.4-0.2c0.1,0.1,0.2,0.2,0.3,0.2
				c0.1,0.1,0.3,0.1,0.5,0.1l0.2,0v0l1.2,0c0,0,0,0,0,0l1.6,0c0.2,0,0.3,0,0.5-0.1c0.1,0,0.2-0.1,0.3-0.2c0.1-0.1,0.1-0.1,0.2-0.2
				c0-0.1,0.1-0.1,0.1-0.2c0,0,0-0.1,0-0.2c0-0.1,0-0.1,0-0.2c0-0.1,0-0.1,0-0.2c0-0.1,0-0.2-0.1-0.3c0-0.1-0.1-0.2-0.2-0.3
				c-0.1-0.1-0.2-0.2-0.2-0.4c-0.1-0.1-0.2-0.2-0.3-0.4c-0.1-0.1-0.2-0.2-0.3-0.4c-0.1-0.1-0.2-0.2-0.3-0.3
				c-0.1-0.1-0.2-0.2-0.3-0.3l2.3-1.1L555.6,42.8z"/>
			<path class="st21" d="M565,48.7c-0.1,0-0.2,0-0.3,0.1c-0.1,0.1-0.1,0.2-0.1,0.3c0,0.1,0,0.2,0.1,0.3c0.1,0.1,0.2,0.1,0.3,0.1
				c0.1,0,0.2,0,0.3-0.1c0.1-0.1,0.1-0.2,0.1-0.3s0-0.2-0.1-0.3C565.3,48.8,565.2,48.7,565,48.7z"/>
			<path class="st21" d="M563.9,48.7c-0.1,0-0.2,0-0.3,0.1c-0.1,0.1-0.1,0.2-0.1,0.3c0,0.1,0,0.2,0.1,0.3c0.1,0.1,0.2,0.1,0.3,0.1
				c0.1,0,0.2,0,0.3-0.1c0.1-0.1,0.1-0.2,0.1-0.3s0-0.2-0.1-0.3C564.1,48.8,564,48.7,563.9,48.7z"/>
			<path class="st21" d="M572.2,46.5c0-0.1-0.1-0.2-0.2-0.3c-0.1-0.1-0.2-0.2-0.2-0.4c-0.1-0.1-0.2-0.2-0.3-0.4
				c-0.1-0.1-0.2-0.2-0.3-0.4s-0.2-0.2-0.3-0.3s-0.2-0.2-0.3-0.3l2.3-1.1l-0.2-0.6L570,44l0,0.7c0.1,0.1,0.2,0.1,0.3,0.2
				c0.1,0.1,0.2,0.2,0.4,0.4c0.1,0.1,0.3,0.3,0.4,0.4c0.1,0.2,0.2,0.3,0.4,0.5c0.1,0.2,0.2,0.3,0.3,0.4c0.1,0.1,0.1,0.2,0.1,0.3
				c0,0.1,0,0.1-0.1,0.1c0,0-0.1,0.1-0.1,0.1c-0.1,0-0.1,0-0.2,0c-0.1,0-0.1,0-0.1,0l-1.8,0v0l-1.1,0v0l-0.1,0c-0.1,0-0.2,0-0.2-0.1
				c-0.1,0-0.1-0.1-0.2-0.1s-0.1-0.1-0.1-0.2c0-0.1,0-0.1,0-0.2l0-3.4l-0.6,0l0,3.4c0,0.1,0,0.1,0,0.2c0,0.1,0,0.1-0.1,0.2
				c-0.1,0.1-0.1,0.1-0.2,0.1c-0.1,0-0.3,0.1-0.5,0.1v0l-0.3,0c0,0,0,0-0.1,0c0,0-0.1,0-0.1,0c0,0-0.1,0-0.1,0c0,0-0.1,0-0.1-0.1
				s-0.1-0.1-0.1-0.1c0-0.1,0-0.1,0-0.2l0-1.1l-0.6,0l0,1.1c0,0,0,0.1,0,0.1c0,0.1,0,0.1-0.1,0.1c0,0-0.1,0.1-0.2,0.1
				c-0.1,0-0.2,0-0.3,0l-0.9,0v0l0,0l-0.1,0c-0.1,0-0.2,0-0.3,0c-0.1,0-0.2,0-0.2-0.1c-0.1,0-0.1-0.1-0.2-0.1
				c-0.1-0.1-0.1-0.1-0.2-0.2c-0.1-0.1-0.2-0.2-0.2-0.3c-0.1-0.1-0.2-0.3-0.3-0.4c-0.1-0.2-0.3-0.4-0.4-0.5
				c-0.1-0.1-0.2-0.3-0.3-0.4c-0.1-0.1-0.1-0.2-0.2-0.3s-0.1-0.2-0.2-0.3l2.4-1.2l-0.3-0.7l-2.8,1.4l-0.1,0.5
				c0.1,0.1,0.2,0.2,0.3,0.4c0.1,0.1,0.2,0.3,0.3,0.5c0.1,0.2,0.3,0.4,0.4,0.6c0.1,0.1,0.1,0.2,0.2,0.4c0,0.1,0.1,0.2,0.1,0.3
				c0,0,0,0.1,0,0.1s0,0.1,0,0.1c0,0.1-0.1,0.1-0.1,0.1c-0.1,0-0.1,0.1-0.2,0.1c-0.1,0-0.2,0.1-0.3,0.1c-0.1,0-0.2,0-0.3,0l-2.3,0
				c0,0-0.1,0-0.1,0c-0.1,0-0.1,0-0.2-0.1s-0.1-0.1-0.1-0.2s-0.1-0.2-0.1-0.3c0-0.1,0-0.2,0-0.2s0-0.2,0-0.3c0-0.1,0-0.2,0.1-0.3
				c0-0.1,0-0.1,0.1-0.2l-0.3-0.1l-0.3-0.1c0,0,0,0.1,0,0.2c0,0.1,0,0.2-0.1,0.3c0,0.1,0,0.2-0.1,0.4c0,0.1,0,0.3,0,0.4
				c0,0.1,0,0.2,0,0.3c0,0.1,0.1,0.2,0.1,0.3c0,0.1,0.1,0.1,0.1,0.2c0,0.1,0.1,0.1,0.1,0.1c0.1,0.1,0.2,0.2,0.3,0.2
				c0.1,0.1,0.3,0.1,0.4,0.1l2.3,0c0.2,0,0.3,0,0.5,0s0.3-0.1,0.4-0.1c0.1-0.1,0.3-0.1,0.4-0.2s0.2-0.2,0.2-0.3
				c0.1,0.1,0.2,0.2,0.3,0.3c0.1,0.1,0.2,0.2,0.3,0.2c0.1,0.1,0.2,0.1,0.4,0.1c0.1,0,0.3,0,0.4,0l0,0l0,0c0,0,0,0,0,0l0,0l1,0
				c0.2,0,0.4,0,0.5-0.1c0.2-0.1,0.3-0.1,0.4-0.2c0.1,0.1,0.2,0.2,0.3,0.2c0.1,0.1,0.3,0.1,0.5,0.1l0.5,0l0,0c0.1,0,0.2,0,0.3,0
				c0.1,0,0.2,0,0.3-0.1c0.1,0,0.2-0.1,0.3-0.1c0.1,0,0.1-0.1,0.2-0.2c0.1,0.1,0.1,0.1,0.2,0.2c0.1,0,0.1,0.1,0.2,0.1
				c0.1,0,0.1,0.1,0.2,0.1c0.1,0,0.2,0,0.3,0l0,0c0,0,0,0,0,0l1.3,0c0,0,0,0,0,0l1.6,0c0.2,0,0.3,0,0.5-0.1c0.1,0,0.2-0.1,0.3-0.2
				c0.1-0.1,0.1-0.1,0.2-0.2s0.1-0.1,0.1-0.2c0,0,0-0.1,0-0.2c0-0.1,0-0.1,0-0.2c0-0.1,0-0.1,0-0.2S572.2,46.5,572.2,46.5z"/>
		</g>
	</g>
	<g>
		<g class="st22">
			<g>
				<g>
					<g>
						<path class="st23" d="M627.6,49.9h-34.8c-2.8,0-5.1-2.3-5.1-5.2l0,0c0-2.9,2.3-5.2,5.1-5.2h34.8c2.8,0,5.1,2.3,5.1,5.2l0,0
							C632.8,47.6,630.5,49.9,627.6,49.9z"/>
					</g>
				</g>
			</g>
		</g>
		<g>
			<path class="st6" d="M598.1,43.6l-1,0.3c0,0.1,0,0.2,0.1,0.4l0,0.1l0,0.1c0,0.1,0,0.1,0,0.1c0,0.1,0,0.2,0.1,0.3c0,0,0,0.1,0,0.1
				c0,0.1,0,0.2-0.1,0.2c-0.1,0.1-0.2,0.1-0.4,0.1l-2.9,0l0,1c0.5,0.1,1,0.2,1.3,0.4c0,0.1,0,0.1-0.1,0.2c-0.2,0.1-0.5,0.2-1,0.2
				l-0.9,0c-0.4,0-0.7-0.1-0.8-0.5c-0.1-0.1-0.1-0.2-0.1-0.4c0-0.1,0-0.1,0-0.2c0,0,0-0.1,0-0.1c0-0.4,0.1-0.9,0.4-1.4l-1-0.5
				c-0.1,0.2-0.2,0.3-0.2,0.6c-0.2,0.5-0.2,0.9-0.2,1.3c0,0.6,0.2,1,0.4,1.4c0.4,0.5,0.9,0.8,1.7,0.8l0.9,0c0.9,0,1.5-0.2,1.8-0.6
				c0.1-0.1,0.2-0.3,0.2-0.5c0-0.1,0-0.1,0-0.2c0-0.1,0-0.1,0-0.2c0-0.1,0-0.2-0.1-0.3l0.7,0c0,0,0,0,0,0l0.1,0l0,0
				c0.6,0,1-0.2,1.2-0.6c0.2-0.2,0.3-0.5,0.2-0.8c0-0.1,0-0.2,0-0.3C598.2,44.2,598.1,43.9,598.1,43.6z"/>
			<path class="st6" d="M597.1,42.9c0.2,0,0.3-0.1,0.4-0.2c0.1-0.1,0.2-0.3,0.2-0.4c0-0.2-0.1-0.3-0.2-0.4c-0.1-0.1-0.3-0.2-0.4-0.2
				s-0.3,0.1-0.4,0.2c-0.1,0.1-0.2,0.3-0.2,0.4c0,0.2,0.1,0.3,0.2,0.4C596.8,42.8,597,42.9,597.1,42.9z"/>
			<path class="st6" d="M603,43.5l-1,0.3c0,0.1,0,0.2,0.1,0.4l0,0.1l0,0.1c0,0.1,0,0.1,0,0.1c0,0.1,0,0.2,0.1,0.3c0,0,0,0.1,0,0.1
				c0,0.1,0,0.2-0.1,0.2c-0.1,0.1-0.2,0.1-0.4,0.1l-1.3,0v0l-0.1,0c-0.1,0-0.2,0-0.3-0.1c-0.1,0-0.1-0.1-0.1-0.3l0-3.3l-1.1,0l0,3.3
				c0,0.2,0,0.5,0.1,0.7c0.1,0.1,0.2,0.3,0.3,0.4c0.1,0.1,0.2,0.2,0.4,0.3c0.2,0.1,0.4,0.1,0.7,0.1l0.3,0v0l1.1,0
				c0.6,0,1.1-0.2,1.3-0.6c0.2-0.2,0.3-0.5,0.2-0.8c0-0.1,0-0.2,0-0.3C603.1,44.2,603,43.8,603,43.5z"/>
			<path class="st6" d="M601.1,47c-0.2,0-0.3,0.1-0.4,0.2c-0.1,0.1-0.2,0.3-0.2,0.4c0,0.2,0.1,0.3,0.2,0.4c0.1,0.1,0.2,0.2,0.4,0.2
				c0.2,0,0.3-0.1,0.4-0.2s0.2-0.3,0.2-0.4c0-0.2-0.1-0.3-0.2-0.4C601.4,47.1,601.2,47,601.1,47z"/>
			<path class="st6" d="M602.4,47c-0.2,0-0.3,0.1-0.4,0.2s-0.2,0.3-0.2,0.4c0,0.2,0.1,0.3,0.2,0.4c0.1,0.1,0.2,0.2,0.4,0.2
				c0.2,0,0.3-0.1,0.4-0.2c0.1-0.1,0.2-0.3,0.2-0.4c0-0.2-0.1-0.3-0.2-0.4C602.7,47.1,602.6,47,602.4,47z"/>
			<path class="st6" d="M606.6,47.5c0-0.2-0.1-0.3-0.2-0.4s-0.2-0.2-0.4-0.2c-0.2,0-0.3,0.1-0.4,0.2c-0.1,0.1-0.2,0.3-0.2,0.4
				c0,0.2,0.1,0.3,0.2,0.4c0.1,0.1,0.2,0.2,0.4,0.2c0.2,0,0.3-0.1,0.4-0.2S606.6,47.7,606.6,47.5z"/>
			<path class="st6" d="M606.7,47.9c-0.1,0-0.3,0.1-0.4,0.2s-0.1,0.2-0.1,0.4s0.1,0.3,0.2,0.4s0.2,0.1,0.4,0.1s0.3-0.1,0.4-0.2
				s0.1-0.2,0.1-0.4s-0.1-0.3-0.2-0.4S606.9,47.9,606.7,47.9z"/>
			<path class="st6" d="M607.8,43.5l-1,0.3c0,0.1,0,0.2,0.1,0.4l0,0.1l0,0.1c0,0.1,0,0.1,0,0.1c0,0.1,0,0.2,0.1,0.3c0,0,0,0.1,0,0.1
				c0,0.1,0,0.2-0.1,0.2c-0.1,0.1-0.2,0.1-0.4,0.1l-1.3,0v0l-0.1,0c-0.1,0-0.2,0-0.3-0.1c-0.1-0.1-0.1-0.1-0.1-0.3l0-3.3l-1.1,0
				l0,3.3c0,0.2,0,0.5,0.1,0.7c0.1,0.1,0.2,0.3,0.3,0.4c0.1,0.1,0.2,0.2,0.4,0.3c0.2,0.1,0.4,0.1,0.7,0.1l0.3,0v0l1.1,0
				c0.6,0,1.1-0.2,1.3-0.6c0.2-0.2,0.3-0.5,0.2-0.8c0-0.1,0-0.2,0-0.3C608,44.2,607.9,43.8,607.8,43.5z"/>
			<path class="st6" d="M607.4,46.9c-0.2,0-0.3,0.1-0.4,0.2c-0.1,0.1-0.2,0.3-0.2,0.4c0,0.2,0.1,0.3,0.2,0.4
				c0.1,0.1,0.2,0.2,0.4,0.2c0.2,0,0.3-0.1,0.4-0.2c0.1-0.1,0.2-0.3,0.2-0.4c0-0.2-0.1-0.3-0.2-0.4C607.7,47,607.6,46.9,607.4,46.9z
				"/>
			<path class="st6" d="M612.7,43.7c0.2,0,0.3-0.1,0.4-0.2c0.1-0.1,0.2-0.3,0.2-0.4c0-0.2-0.1-0.3-0.2-0.4c-0.1-0.1-0.2-0.2-0.4-0.2
				c-0.2,0-0.3,0.1-0.4,0.2c-0.1,0.1-0.2,0.3-0.2,0.4c0,0.2,0.1,0.3,0.2,0.4C612.4,43.7,612.5,43.7,612.7,43.7z"/>
			<path class="st6" d="M616.3,43.7l-1,0.3c0,0.1,0,0.1,0,0.2l0,0.1l0,0.1c0,0.1,0,0.1,0,0.1c0,0.1,0,0.2,0.1,0.3c0,0,0,0.1,0,0.1
				c0,0.1,0,0.2-0.1,0.2c-0.1,0.1-0.2,0.1-0.4,0.1l-3.6,0c-0.1,0-0.1,0-0.1-0.1c0,0,0-0.1,0-0.1c0,0,0,0,0-0.1c0-0.3,0.1-0.6,0.2-1
				l-1-0.3c0,0,0,0,0,0c0,0,0,0.1,0,0.1c0,0.1,0,0.2-0.1,0.2c-0.1,0.3-0.1,0.4-0.1,0.6c0,0.1,0,0.2,0,0.3c0,0.1,0,0.2,0,0.2
				c0,0.2,0.1,0.4,0.2,0.6c0.2,0.3,0.4,0.4,0.8,0.5c0.2,0,0.6,0,1.2,0l2.6,0c0.6,0,1.1-0.2,1.3-0.6c0.2-0.2,0.3-0.5,0.3-0.8
				c0-0.1,0-0.2,0-0.3C616.4,44.2,616.3,43.9,616.3,43.7z"/>
			<path class="st6" d="M614.1,43.7c0.2,0,0.3-0.1,0.4-0.2c0.1-0.1,0.2-0.3,0.2-0.4c0-0.2-0.1-0.3-0.2-0.4c-0.1-0.1-0.2-0.2-0.4-0.2
				c-0.2,0-0.3,0.1-0.4,0.2c-0.1,0.1-0.2,0.3-0.2,0.4c0,0.2,0.1,0.3,0.2,0.4C613.8,43.7,613.9,43.7,614.1,43.7z"/>
			<path class="st6" d="M620.4,44L620.4,44c0.3,0,0.6,0.1,0.9,0.4l0.5-0.9l0,0c-0.3-0.2-0.5-0.3-0.6-0.3c-0.2-0.1-0.5-0.1-0.7-0.1
				c-0.5,0-1,0.2-1.3,0.5c-0.3,0.3-0.4,0.6-0.4,1c0,0.2,0,0.4,0.1,0.6l-0.6,0v0l-0.1,0c-0.1,0-0.2,0-0.3-0.1
				c-0.1-0.1-0.1-0.1-0.1-0.3l0-3.3l-1.1,0l0,3.3c0,0.2,0,0.5,0.1,0.7c0.1,0.1,0.2,0.3,0.3,0.4c0.1,0.1,0.2,0.2,0.4,0.3
				c0.2,0.1,0.4,0.1,0.7,0.1l0.3,0v0l3.2,0l0-1.1l-0.7,0c-0.4,0-0.6-0.1-0.9-0.2c-0.2-0.1-0.4-0.3-0.4-0.4c0-0.1,0-0.2,0.1-0.3
				C620.1,44.1,620.3,44,620.4,44z"/>
			<path class="st6" d="M629.7,44.4c-0.1-0.4-0.2-0.8-0.3-1l-1,0.3c0,0.2,0.1,0.5,0.2,1c0,0,0,0.1,0,0.1c0,0.2-0.1,0.3-0.4,0.3
				c-0.2,0-0.3,0-0.3-0.1c-0.1-0.1-0.1-0.2-0.1-0.3l0-0.8l-1.1,0l0,0.8c0,0.2,0,0.3-0.1,0.3c-0.1,0-0.1,0.1-0.3,0.1
				c-0.1,0-0.2,0-0.2-0.1c-0.1-0.1-0.1-0.2-0.1-0.3l0-0.8l-1.1,0l0,0.8c0,0.1,0,0.2-0.1,0.3c-0.1,0.1-0.2,0.1-0.3,0.1l-0.6,0v0
				l-0.1,0c-0.1,0-0.2,0-0.3-0.1c-0.1-0.1-0.1-0.1-0.1-0.3l0-3.3l-1.1,0l0,3.3c0,0.2,0,0.5,0.1,0.7c0.1,0.1,0.2,0.3,0.3,0.4
				c0.1,0.1,0.2,0.2,0.4,0.3c0.2,0.1,0.4,0.1,0.7,0.1l0.3,0v0l0.5,0c0.5,0,0.8-0.1,0.9-0.3c0.3,0.2,0.6,0.3,0.9,0.3
				c0.3,0,0.6-0.1,0.9-0.3c0.1,0.1,0.2,0.1,0.4,0.2c0.2,0.1,0.4,0.1,0.6,0.1c0.5,0,0.9-0.2,1.1-0.6c0.1-0.2,0.2-0.4,0.2-0.6
				c0-0.1,0-0.2,0-0.3C629.8,44.6,629.8,44.5,629.7,44.4z"/>
		</g>
	</g>
	<g>
		<path class="st6" d="M587.8,11.8c-0.2,0.1-0.2,0.3-0.2,0.5c0,0.2,0.1,0.4,0.2,0.5c0.2,0.1,0.3,0.2,0.5,0.2s0.4-0.1,0.5-0.2
			c0.2-0.1,0.2-0.3,0.2-0.5c0-0.2-0.1-0.4-0.2-0.5c-0.2-0.1-0.3-0.2-0.5-0.2S587.9,11.7,587.8,11.8z"/>
		<path class="st6" d="M593.5,10.3c0.2,0,0.3-0.1,0.5-0.2c0.1-0.1,0.2-0.3,0.2-0.5c0-0.2-0.1-0.3-0.2-0.5C593.9,9,593.7,9,593.5,9
			c-0.2,0-0.3,0.1-0.5,0.2c-0.1,0.1-0.2,0.3-0.2,0.5c0,0.2,0.1,0.3,0.2,0.5C593.2,10.2,593.3,10.3,593.5,10.3z"/>
		<path class="st6" d="M592.1,10.3c0.2,0,0.3-0.1,0.5-0.2c0.1-0.1,0.2-0.3,0.2-0.5c0-0.2-0.1-0.3-0.2-0.5C592.5,9,592.3,9,592.1,9
			c-0.2,0-0.3,0.1-0.5,0.2c-0.1,0.1-0.2,0.3-0.2,0.5c0,0.2,0.1,0.3,0.2,0.5C591.8,10.2,591.9,10.3,592.1,10.3z"/>
		<path class="st6" d="M597.2,10c-0.3-0.1-0.6-0.2-1-0.3c-0.4,0-0.7,0-1.1,0c-0.2,0-0.3,0.1-0.4,0.2s0,0.1,0,0.2
			c0.1,0.1,0.2,0.1,0.3,0.1c0.1,0,0.3,0,0.5-0.1c0,0,0,0,0,0c0.3,0,0.5,0,0.8,0c0.2,0.1,0.3,0.2,0.4,0.4c0.1,0.2,0,0.5-0.1,0.8
			c-0.1,0.3-0.3,0.5-0.5,0.7c-0.2,0.2-0.5,0.3-0.8,0.4s-0.6,0.1-0.9,0.2c0,0,0,0,0,0c0,0,0,0,0,0c-0.2,0-0.3,0-0.4-0.1
			c-0.2-0.1-0.3-0.3-0.4-0.5c-0.1-0.2-0.2-0.5-0.2-0.8c0,0,0-0.1,0-0.1v0c0-0.3-0.1-0.4-0.3-0.5c-0.2-0.1-0.4-0.1-0.7,0
			c0,0.1,0,0.2,0,0.3c0,0.1,0,0.1,0,0.2c0,0.2,0,0.3,0,0.5c0,0.2-0.1,0.3-0.1,0.5c0,0.2-0.1,0.3-0.2,0.4s-0.2,0.1-0.3,0.1
			c0,0,0,0,0,0c0,0,0,0,0,0c-0.1,0-0.3,0-0.4-0.1c-0.2-0.2-0.3-0.3-0.4-0.5c-0.1-0.2-0.1-0.3-0.1-0.5c0-0.3-0.1-0.6-0.2-0.9
			c-0.4-0.1-0.6-0.2-0.8-0.1c-0.1,0-0.2,0.1-0.2,0.2s0,0.3,0.1,0.5c0,0.1,0.1,0.2,0.1,0.4c0,0.1,0,0.3,0,0.4c0,0.5-0.1,0.9-0.3,1.2
			c-0.2,0.4-0.5,0.7-0.8,0.8c-0.3,0.2-0.6,0.2-1,0.1c-0.2-0.1-0.4-0.2-0.5-0.4c-0.1-0.2-0.2-0.5-0.3-0.8s0-0.6,0.1-0.9
			c0.1-0.3,0.3-0.7,0.6-1c0.1-0.1,0.2-0.3,0.3-0.3s0.1-0.1,0.2-0.1c0,0,0.1,0,0.1-0.1c0,0,0.1-0.1,0.1-0.1c0,0,0,0,0,0c0,0,0,0,0,0
			s0,0,0,0c0,0,0,0,0,0c0,0,0,0,0,0c0,0,0,0,0,0c0,0,0,0,0,0c0,0,0,0,0,0c-0.1-0.1-0.2-0.2-0.3-0.2c-0.1,0-0.3-0.1-0.4-0.1
			c-0.1,0-0.2,0-0.3,0.1c-0.1,0.1-0.2,0.1-0.2,0.2c0,0-0.1,0.1-0.1,0.1c-0.4,0.4-0.8,0.8-0.9,1.2c-0.2,0.5-0.3,1-0.2,1.4
			c0.1,0.4,0.3,0.8,0.6,1c0.3,0.3,0.7,0.5,1.1,0.6s0.9,0.1,1.3,0c0.5-0.1,0.9-0.3,1.2-0.7c0.3-0.3,0.5-0.6,0.6-1.1
			c0.1,0.1,0.3,0.2,0.4,0.2c0.2,0.1,0.3,0.1,0.5,0.1c0,0,0,0,0,0c0,0,0,0,0,0c0,0,0,0,0,0c0.2,0,0.5-0.1,0.7-0.2
			c0.2-0.1,0.4-0.3,0.5-0.5c0,0,0,0,0.1,0.1c0.2,0.2,0.4,0.3,0.6,0.5c0.2,0.1,0.5,0.2,0.8,0.2h0v0c0,0,0,0,0,0c0,0,0,0,0,0h0l0.3,0
			c0.4,0,0.8-0.1,1.3-0.2c0.4-0.1,0.7-0.3,1-0.5c0.3-0.2,0.5-0.5,0.6-0.7c0.2-0.4,0.2-0.7,0.1-1S597.5,10.2,597.2,10z"/>
		<path class="st6" d="M595.8,9.4c0.2,0,0.3-0.1,0.5-0.2c0.1-0.1,0.2-0.3,0.2-0.5c0-0.2-0.1-0.3-0.2-0.5c-0.1-0.1-0.3-0.2-0.5-0.2
			c-0.2,0-0.4,0.1-0.5,0.2c-0.1,0.1-0.2,0.3-0.2,0.5c0,0.2,0.1,0.3,0.2,0.5C595.5,9.3,595.6,9.4,595.8,9.4z"/>
		<path class="st6" d="M606.2,10.3c-0.3-0.3-0.6-0.4-1-0.4c-0.3,0-0.6,0-0.7,0.1c-0.2,0.1-0.3,0.2-0.4,0.3s-0.2,0.3-0.3,0.5
			c0,0.1,0,0.1-0.1,0.2c0,0.1-0.1,0.2-0.1,0.4c-0.1,0.1-0.1,0.3-0.2,0.4c-0.1,0.2-0.1,0.3-0.2,0.4c-0.1,0.1-0.2,0.2-0.3,0.3
			s-0.2,0.1-0.3,0.1h0c0,0,0,0,0,0c0,0,0,0,0,0h-1.2h0c0,0-0.1,0-0.1,0c0.1-0.3,0.2-0.6,0.2-0.9s0-0.6-0.2-0.8
			c-0.1-0.2-0.3-0.4-0.6-0.6c-0.5-0.2-0.9-0.2-1.2-0.1s-0.6,0.3-0.8,0.5s-0.3,0.6-0.3,0.9c0,0.3,0.1,0.7,0.4,1
			c0.1,0.2,0.3,0.3,0.5,0.4s0.4,0.1,0.7,0.1c0,0.1-0.1,0.2-0.1,0.4c-0.1,0.1-0.1,0.2-0.2,0.3c0,0.1-0.1,0.1-0.1,0.2
			c-0.1,0.1-0.1,0.2-0.2,0.3c-0.1,0.2-0.2,0.4-0.3,0.6l0.2,0.1c0,0,0.1,0,0.1,0c0,0,0.1,0,0.1,0c0,0,0,0,0,0c0.1,0,0.2,0,0.3,0
			c0.1,0,0.2,0,0.3,0c0.1,0,0.2-0.2,0.4-0.6c0.2-0.4,0.4-0.8,0.6-1.3c0.1,0,0.1,0,0.2,0c0,0,0,0,0,0h1.3c0,0,0,0,0,0h0v0
			c0.3,0,0.5-0.1,0.7-0.2c0.2-0.1,0.4-0.3,0.6-0.5c0,0,0,0,0,0c0,0,0,0,0,0c0,0,0,0,0,0s0,0,0,0c0,0,0,0,0,0c0,0,0,0,0,0
			c0,0,0,0,0,0c0,0,0,0,0,0c0,0,0,0,0,0c0,0,0,0,0,0c0,0,0,0,0.1,0.1c0,0,0,0,0.1,0.1c0.2,0.2,0.5,0.4,0.8,0.5c0.3,0.1,0.6,0.1,1,0
			c0.3-0.1,0.6-0.2,0.8-0.5c0.2-0.2,0.3-0.6,0.4-1c0-0.3-0.1-0.6-0.2-0.9C606.6,10.7,606.4,10.5,606.2,10.3z M600.4,12
			c0,0.2-0.1,0.4-0.2,0.6c-0.3,0-0.4-0.1-0.6-0.3s-0.2-0.4-0.2-0.6c0-0.2,0-0.4,0.1-0.6s0.1-0.3,0.2-0.4c0.2-0.1,0.3,0,0.4,0.1
			s0.2,0.3,0.2,0.5C600.4,11.5,600.4,11.7,600.4,12z M605.7,12.3c-0.1,0.2-0.2,0.4-0.3,0.4c-0.1,0-0.3,0-0.4-0.2s-0.2-0.4-0.2-0.7
			c0-0.3,0-0.6,0.1-1c0-0.1,0.1-0.2,0.1-0.3c0,0,0-0.1,0.1-0.1c0,0,0,0,0-0.1c0,0,0,0,0.1,0c0.2,0.1,0.4,0.3,0.5,0.5
			c0.1,0.2,0.2,0.5,0.2,0.8C605.9,11.9,605.8,12.1,605.7,12.3z"/>
		<path class="st6" d="M611.1,7.9c0.1-0.2,0.2-0.4,0.2-0.6c-0.1-0.1-0.2-0.2-0.4-0.3c-0.2-0.1-0.4-0.1-0.6,0c0,0.1-0.1,0.2-0.1,0.3
			c-0.1,0.2-0.1,0.3-0.2,0.5c-0.1,0.2-0.2,0.3-0.3,0.4c-0.2,0.1-0.3,0.1-0.5,0c-0.1-0.1-0.3-0.2-0.5-0.4c-0.1-0.1-0.3-0.3-0.5-0.4
			s-0.4-0.2-0.6-0.2s-0.5,0-0.8,0.1c-0.2,0.1-0.4,0.3-0.5,0.5c-0.2,0.2-0.2,0.4-0.3,0.7c0.1,0.1,0.3,0.2,0.4,0.2c0.2,0,0.4,0,0.6,0
			c0,0,0-0.1,0-0.1c0.1-0.3,0.2-0.5,0.3-0.6c0.1-0.1,0.2-0.2,0.4-0.1c0.2,0.1,0.4,0.2,0.7,0.6c0.2,0.2,0.4,0.4,0.7,0.4
			c0.3,0.1,0.5,0.1,0.8,0.1c0.3-0.1,0.5-0.2,0.7-0.5C610.8,8.3,610.9,8.1,611.1,7.9z"/>
		<path class="st6" d="M608.5,9c-0.2,0-0.3,0-0.5,0.1c0,0.1-0.1,0.3-0.1,0.7s-0.1,0.8-0.1,1.3c0,0.5,0,0.9,0,1.3c0,0.4,0,0.6,0,0.7
			c0,0,0,0,0,0c0.2,0,0.3,0.1,0.5,0.1s0.3,0,0.5-0.1c0-0.1,0-0.2,0-0.3c0-0.3,0-0.8,0.1-1.3c0-0.5,0.1-1,0.1-1.4c0-0.4,0-0.7,0-0.9
			C608.8,9,608.6,9,608.5,9z"/>
		<path class="st6" d="M614.6,9.6c0.1,0,0.2,0.1,0.3,0.1c0.1,0,0.2,0,0.2-0.1c0.1-0.1,0.3-0.2,0.3-0.3c0.1-0.1,0.1-0.2,0.1-0.3
			c0-0.1,0-0.1,0-0.2c0-0.2-0.2-0.3-0.3-0.4c-0.1-0.1-0.2-0.1-0.3-0.1c-0.1,0-0.1,0-0.2,0c-0.1,0.1-0.2,0.2-0.3,0.3
			c0,0.1-0.1,0.2-0.1,0.3C614.2,9.3,614.4,9.4,614.6,9.6z"/>
		<path class="st6" d="M613.3,9.9c0.1,0,0.2,0.1,0.3,0.1c0.1,0,0.2,0,0.2-0.1c0.1-0.1,0.2-0.2,0.3-0.3c0-0.1,0.1-0.2,0.1-0.3
			c0-0.1,0-0.2,0-0.2c-0.1-0.2-0.2-0.3-0.3-0.4c-0.1,0-0.2-0.1-0.3-0.1c-0.1,0-0.2,0-0.2,0.1C613.1,8.8,613,8.9,613,9
			c0,0.1-0.1,0.2-0.1,0.3C612.9,9.6,613,9.8,613.3,9.9z"/>
		<path class="st6" d="M619.7,9.2L619.7,9.2c0.1,0,0.2,0,0.3-0.1s0.1-0.1,0.2-0.2l0.1-0.1c0.2-0.3,0.4-0.5,0.5-0.7
			c0.2-0.2,0.3-0.5,0.3-0.7c-0.1-0.1-0.2-0.2-0.3-0.2C620.7,7,620.6,7,620.5,7h0c-0.1,0-0.2,0-0.2,0.1s-0.1,0.1-0.2,0.2
			c0,0.1-0.1,0.2-0.2,0.3c-0.3,0.4-0.4,0.7-0.6,0.9c-0.1,0.1-0.1,0.3-0.1,0.3v0c0.1,0.1,0.2,0.2,0.3,0.2
			C619.5,9.2,619.6,9.2,619.7,9.2z"/>
		<path class="st6" d="M617.7,8.5c0.1,0,0.2,0,0.3-0.1c0.2-0.1,0.3-0.2,0.3-0.3c0-0.1,0-0.2,0-0.3c0-0.1,0-0.2-0.1-0.3
			c-0.1-0.2-0.2-0.3-0.3-0.4c-0.1,0-0.2,0-0.3,0c-0.1,0-0.2,0-0.3,0.1c-0.2,0.1-0.3,0.2-0.3,0.4c0,0.1,0,0.1,0,0.2
			c0,0.1,0,0.2,0.1,0.3C617.3,8.4,617.5,8.5,617.7,8.5z"/>
		<path class="st6" d="M625.8,8.8c0.2,0,0.3-0.1,0.4-0.2c0.1-0.1,0.2-0.3,0.2-0.4c0-0.2-0.1-0.3-0.2-0.4c-0.1-0.1-0.3-0.2-0.4-0.2
			c-0.2,0-0.3,0.1-0.4,0.2c-0.1,0.1-0.2,0.3-0.2,0.4c0,0.2,0.1,0.3,0.2,0.4C625.5,8.7,625.6,8.8,625.8,8.8z"/>
		<path class="st6" d="M625.8,9.3c0,0.2,0.1,0.3,0.2,0.4s0.3,0.2,0.4,0.2c0.2,0,0.3-0.1,0.4-0.2s0.2-0.3,0.2-0.4
			c0-0.2-0.1-0.3-0.2-0.4s-0.3-0.2-0.4-0.2c-0.2,0-0.3,0.1-0.4,0.2S625.8,9.1,625.8,9.3z"/>
		<path class="st6" d="M625.2,9.9c0.2,0,0.3-0.1,0.4-0.2c0.1-0.1,0.2-0.3,0.2-0.4c0-0.2-0.1-0.3-0.2-0.4c-0.1-0.1-0.3-0.2-0.4-0.2
			c-0.2,0-0.3,0.1-0.4,0.2s-0.2,0.3-0.2,0.4c0,0.2,0.1,0.3,0.2,0.4S625,9.9,625.2,9.9z"/>
		<path class="st6" d="M628,10.9c-0.1-0.2-0.2-0.3-0.3-0.4c-0.3-0.1-0.5-0.2-0.8,0c0,0,0,0.1,0.1,0.3c0.1,0.2,0.2,0.4,0.2,0.7
			s0.1,0.5,0,0.8c0,0.2-0.1,0.3-0.2,0.4c-0.1,0.1-0.2,0.1-0.3,0.1c-0.1,0-0.2-0.2-0.3-0.4c-0.1-0.3-0.1-0.6-0.1-0.8
			c0-0.3-0.1-0.6-0.1-0.8c0,0,0,0,0-0.1c0-0.1,0-0.1,0-0.1c0,0,0,0-0.1-0.1c0,0-0.1,0-0.2,0c0,0,0,0,0,0l-0.4-0.1c0,0-0.1,0-0.1,0
			c-0.1,0-0.1,0-0.1,0c0,0,0,0,0,0.1c0,0,0,0,0,0.1c0,0.2,0,0.4,0,0.7c0,0.3-0.1,0.6-0.2,0.9l-0.4-1.7c0,0,0-0.1,0-0.1
			c0-0.1,0-0.1,0-0.1c0,0,0,0-0.1-0.1c0,0-0.1,0-0.2,0c0,0,0,0,0,0c-0.1,0-0.3-0.1-0.5,0c-0.1,0-0.1,0-0.1,0.1c0,0,0,0.1-0.1,0.2
			c0,0,0,0.1,0,0.1c0,0.1-0.1,0.3-0.1,0.5c-0.1,0.3-0.1,0.6-0.2,0.9c-0.1,0.3-0.2,0.5-0.4,0.8c-0.2,0.2-0.4,0.3-0.7,0.3
			c-0.3,0-0.6-0.3-0.8-0.8c-0.1-0.2-0.2-0.4-0.2-0.6c-0.1-0.4-0.2-0.8-0.4-1.3l-0.1-0.2c0.2-0.3,0.4-0.6,0.7-1
			c0.4-0.5,0.6-0.9,0.8-1.2c-0.2-0.1-0.4-0.2-0.5-0.2c-0.1,0-0.1,0-0.2,0c-0.1,0-0.2,0-0.3,0.1c-0.1,0.1-0.2,0.2-0.3,0.3
			c-0.1,0.2-0.3,0.4-0.5,0.7c-0.2,0.2-0.3,0.5-0.5,0.7c-0.2,0.2-0.3,0.4-0.4,0.6c0.1,0.2,0.3,0.5,0.4,1s0.3,0.9,0.3,1.4
			c0,0.3-0.1,0.5-0.2,0.6s-0.4,0.2-0.6,0.2c-0.3,0-0.5-0.1-0.7-0.2c-0.2-0.1-0.3-0.2-0.3-0.4c0.5-0.5,0.8-0.9,0.9-1.2
			c0.1-0.3,0.2-0.6,0.2-0.8c0-0.2-0.1-0.5-0.2-0.7c-0.2-0.4-0.6-0.6-1.2-0.7c-0.2,0-0.4-0.1-0.6-0.1c-0.2,0-0.4,0-0.6,0.1
			c-0.3,0.1-0.5,0.3-0.7,0.5c-0.1,0.2-0.2,0.4-0.2,0.6c0,0.2,0,0.2,0,0.3c0,0.3,0,0.5,0.1,0.8c0.1,0.3,0.2,0.5,0.4,0.7
			c0.2,0.2,0.3,0.4,0.5,0.5c0,0-0.1,0.1-0.2,0.2c-0.1,0.1-0.2,0.2-0.4,0.2c-0.1,0.1-0.3,0.1-0.5,0.1c-0.1,0-0.2,0-0.3-0.1
			c-0.2-0.1-0.3-0.3-0.4-0.5c-0.1-0.2-0.2-0.5-0.2-0.8l0-0.1c0-0.3-0.1-0.4-0.2-0.5c-0.1,0-0.3-0.1-0.4-0.1c-0.1,0-0.3,0-0.5,0.1
			c0,0.1,0,0.2,0,0.3c0,0.2,0,0.5-0.1,0.7c-0.1,0.4-0.1,0.7-0.3,0.9c-0.1,0.1-0.2,0.1-0.3,0.1c-0.1,0-0.1,0-0.2,0.1
			c0,0-0.1,0.1-0.1,0.2c0,0.1,0,0.1,0.1,0.2c0,0,0.1,0.1,0.2,0.1l0.1,0l0,0c0.2,0,0.3,0,0.5,0s0.4,0.1,0.5,0.2
			c0.2,0.1,0.3,0.2,0.4,0.4c0.1,0.1,0.1,0.3,0.1,0.3s0,0.1,0,0.1c0,0.1,0,0.3-0.1,0.4c-0.1,0.3-0.3,0.5-0.5,0.7
			c-0.3,0.2-0.5,0.3-0.8,0.4c-0.3,0.1-0.5,0.1-0.7,0.1c-0.1,0-0.3,0-0.4,0c-0.3-0.1-0.6-0.2-0.8-0.5c-0.2-0.3-0.3-0.7-0.3-1.2V14
			c0-0.4,0.1-0.8,0.3-1.2c0.2-0.3,0.4-0.7,0.6-0.9c0.2-0.3,0.5-0.5,0.7-0.7c0.3-0.2,0.5-0.5,0.6-0.6c-0.3-0.2-0.5-0.3-0.6-0.3
			s-0.1,0-0.1,0c-0.2,0-0.3,0-0.4,0.1c-0.4,0.2-0.7,0.6-1.1,1.1s-0.6,0.9-0.8,1.4c-0.1,0.4-0.2,0.7-0.2,1.1c0,0.1,0,0.2,0,0.4
			c0.1,0.4,0.2,0.8,0.5,1.1c0.3,0.3,0.6,0.5,1,0.7c0.4,0.2,0.8,0.2,1.2,0.2c0.1,0,0.3,0,0.4,0c0.6-0.1,1.1-0.3,1.6-0.6
			c0.3-0.2,0.5-0.4,0.6-0.6c0.1-0.2,0.2-0.5,0.2-0.7c0,0,0-0.1,0-0.1c0-0.3-0.2-0.6-0.5-0.8c-0.2-0.2-0.6-0.4-1.2-0.6
			c0.1-0.1,0.2-0.2,0.3-0.3c0.2,0.2,0.4,0.4,0.6,0.5c0.2,0.1,0.4,0.2,0.7,0.2c0,0,0,0,0,0l0,0c0,0,0,0,0.1,0c0,0,0,0,0,0h0
			c0,0,0,0,0,0c0,0,0,0,0,0c0,0,0.1,0,0.1,0c0.3,0,0.5,0,0.8-0.1c0.3-0.1,0.6-0.2,0.9-0.4c0.2,0.3,0.5,0.5,0.8,0.6
			c0.3,0.1,0.6,0.1,0.8,0.1c0.2,0,0.4,0,0.6-0.1c0.4-0.1,0.7-0.3,0.9-0.6c0.3,0.3,0.6,0.4,1,0.4c0,0,0,0,0.1,0c0,0,0,0,0,0
			c0,0,0,0,0,0l0,0c0,0,0,0,0,0c0.3,0,0.5-0.1,0.7-0.2c0.2-0.1,0.4-0.3,0.6-0.5c0.2-0.2,0.3-0.4,0.5-0.6c0,0.1,0,0.2,0.1,0.3
			c0,0.3,0.1,0.5,0.2,0.7c0.1,0.2,0.2,0.4,0.4,0.4s0.4,0,0.6-0.2c0.1-0.1,0.1-0.2,0.2-0.2c0.1-0.1,0.1-0.2,0.2-0.3c0,0,0,0,0,0
			c0.1,0.1,0.3,0.2,0.4,0.3s0.4,0.1,0.7,0.1c0.4,0,0.6-0.1,0.8-0.2c0.2-0.2,0.3-0.3,0.4-0.6c0.1-0.2,0.1-0.5,0-0.7
			C628.2,11.3,628.1,11.1,628,10.9z M618,11.7c-0.3-0.4-0.4-0.7-0.5-0.9c-0.1-0.2-0.1-0.4-0.1-0.6c0-0.1,0-0.2,0-0.3
			c0-0.2,0.1-0.4,0.2-0.5c0.1-0.1,0.2-0.1,0.3-0.1c0,0,0.1,0,0.1,0c0.2,0.1,0.4,0.2,0.4,0.4s0.1,0.4,0.1,0.5
			C618.6,10.8,618.4,11.2,618,11.7z"/>
		<path class="st6" d="M632.6,9.8c-0.1-0.1-0.2-0.2-0.4-0.3c-0.1,0-0.3-0.1-0.4,0s-0.3,0.1-0.4,0.1l0.2,0.3
			c-0.2,0.1-0.4,0.2-0.6,0.4c-0.2,0.2-0.4,0.4-0.5,0.6s-0.2,0.5-0.3,0.8c0,0.4,0.1,0.7,0.3,0.9c0.2,0.2,0.5,0.4,0.8,0.4
			c0.3,0.1,0.7,0.1,1,0s0.6-0.3,0.8-0.5c0.2-0.3,0.3-0.6,0.2-1.1C633.2,10.9,632.9,10.4,632.6,9.8z M632.1,12.5
			c-0.1,0.2-0.3,0.2-0.5,0.2c-0.2-0.1-0.3-0.2-0.4-0.4c0-0.2,0-0.4,0.1-0.7c0.1-0.2,0.2-0.4,0.3-0.5c0.1-0.2,0.2-0.3,0.3-0.4
			c0.1,0.1,0.2,0.3,0.2,0.5c0.1,0.2,0.1,0.5,0.1,0.7C632.2,12.1,632.2,12.3,632.1,12.5z"/>
		<path class="st6" d="M634.8,10.8c-0.1,0-0.3,0.1-0.3,0.2c0,0.2-0.2,0.5-0.3,0.9c-0.2,0.5-0.4,0.9-0.6,1.4c-0.2,0.5-0.3,0.8-0.4,1
			c0.1,0.1,0.3,0.2,0.5,0.2c0.2,0.1,0.4,0.1,0.5,0c0.2-0.3,0.4-0.8,0.7-1.4c0.3-0.7,0.5-1.3,0.7-2c-0.1-0.1-0.2-0.1-0.3-0.2
			C635.1,10.9,635,10.8,634.8,10.8z"/>
		<path class="st6" d="M637.1,9c-0.2,0-0.3,0-0.5,0.1c0,0.1-0.1,0.3-0.1,0.7s-0.1,0.8-0.1,1.3c0,0.5,0,0.9,0,1.3c0,0.4,0,0.6,0,0.7
			c0,0,0,0,0,0c0.2,0,0.3,0.1,0.5,0.1s0.3,0,0.5-0.1c0-0.1,0-0.2,0-0.3c0-0.3,0-0.8,0.1-1.3c0-0.5,0.1-1,0.1-1.4c0-0.4,0-0.7,0-0.9
			C637.4,9,637.3,9,637.1,9z"/>
		<path class="st6" d="M641.1,10.5c0.1,0,0.2,0,0.3-0.1c0.2-0.1,0.3-0.2,0.3-0.3c0-0.1,0-0.2,0-0.3c0-0.1,0-0.2-0.1-0.3
			c-0.1-0.2-0.2-0.3-0.3-0.4c-0.1,0-0.2,0-0.3,0c-0.1,0-0.2,0-0.3,0.1c-0.2,0.1-0.3,0.2-0.3,0.4c0,0.1,0,0.1,0,0.2
			c0,0.1,0,0.2,0.1,0.3C640.7,10.3,640.9,10.5,641.1,10.5z"/>
		<path class="st6" d="M647,9.2c0,0.2,0.1,0.3,0.2,0.4c0.1,0.1,0.3,0.2,0.4,0.2c0.2,0,0.3-0.1,0.4-0.2c0.1-0.1,0.2-0.3,0.2-0.4
			s-0.1-0.3-0.2-0.4c-0.1-0.1-0.3-0.2-0.4-0.2c-0.2,0-0.3,0.1-0.4,0.2C647.1,8.9,647,9.1,647,9.2z"/>
		<path class="st6" d="M646.3,9.9c0.2,0,0.3-0.1,0.4-0.2c0.1-0.1,0.2-0.3,0.2-0.4s-0.1-0.3-0.2-0.4c-0.1-0.1-0.3-0.2-0.4-0.2
			c-0.2,0-0.3,0.1-0.4,0.2c-0.1,0.1-0.2,0.3-0.2,0.4s0.1,0.3,0.2,0.4C646,9.8,646.2,9.9,646.3,9.9z"/>
		<path class="st6" d="M647,8.7c0.2,0,0.3-0.1,0.4-0.2c0.1-0.1,0.2-0.3,0.2-0.4c0-0.2-0.1-0.3-0.2-0.4c-0.1-0.1-0.3-0.2-0.4-0.2
			c-0.2,0-0.3,0.1-0.4,0.2c-0.1,0.1-0.2,0.3-0.2,0.4c0,0.2,0.1,0.3,0.2,0.4C646.7,8.7,646.8,8.7,647,8.7z"/>
		<path class="st6" d="M654.7,10.7c-0.1-0.3-0.3-0.5-0.6-0.6s-0.6-0.2-1-0.3c-0.4,0-0.7,0-1.1,0c-0.2,0-0.3,0.1-0.4,0.2s0,0.1,0,0.2
			c0.1,0.1,0.2,0.1,0.3,0.1c0.1,0,0.3,0,0.5-0.1c0,0,0,0,0,0c0.3,0,0.5,0,0.8,0c0.2,0.1,0.3,0.2,0.4,0.4c0.1,0.2,0,0.5-0.1,0.8
			c-0.1,0.3-0.3,0.5-0.5,0.7c-0.2,0.2-0.5,0.3-0.8,0.4s-0.6,0.1-0.9,0.2c0,0,0,0,0,0c0,0,0,0,0,0h-1.3c-0.1,0-0.3,0-0.4-0.1
			c-0.1-0.1-0.2-0.2-0.3-0.3c-0.1-0.1-0.2-0.3-0.2-0.5c0,0,0,0,0,0l0,0c-0.1-0.5-0.3-0.8-0.5-1c-0.3-0.2-0.5-0.2-0.8-0.1
			c0,0,0,0.1,0.1,0.3c0.1,0.2,0.2,0.4,0.2,0.7c0.1,0.3,0.1,0.5,0,0.8c0,0.2-0.1,0.3-0.2,0.4c-0.1,0.1-0.2,0.1-0.3,0.1
			c-0.1,0-0.2-0.2-0.3-0.4c-0.1-0.3-0.1-0.6-0.1-0.9c0-0.3-0.1-0.6-0.1-0.8c0,0,0,0,0-0.1c0-0.1,0-0.1,0-0.1c0,0,0-0.1-0.1-0.1
			c0,0-0.1,0-0.2,0c0,0,0,0,0,0l-0.4-0.1c0,0-0.1,0-0.1,0c-0.1,0-0.1,0-0.1,0c0,0,0,0,0,0.1c0,0,0,0,0,0.1c0,0.2,0,0.4,0,0.7
			c0,0.3-0.1,0.6-0.2,0.9l-0.4-1.7c0,0,0-0.1,0-0.1c0-0.1,0-0.1,0-0.1c0,0,0,0-0.1-0.1s-0.1,0-0.2-0.1c0,0,0,0,0,0
			c-0.1,0-0.3-0.1-0.5-0.1c-0.1,0-0.1,0-0.1,0.1s0,0.1,0,0.2c0,0,0,0.1,0,0.1c0,0.1-0.1,0.3-0.1,0.4c-0.1,0.3-0.1,0.6-0.2,0.9
			c-0.1,0.3-0.2,0.5-0.4,0.7c-0.2,0.2-0.4,0.3-0.7,0.3c-0.1,0-0.3,0-0.4-0.1c-0.2-0.1-0.3-0.3-0.4-0.5c-0.1-0.2-0.2-0.5-0.2-0.8
			l0-0.1c0-0.3-0.1-0.4-0.2-0.5c-0.1,0-0.3-0.1-0.4-0.1c-0.1,0-0.3,0-0.5,0.1c0,0.1,0,0.2,0,0.3c0,0.2,0,0.5-0.1,0.7
			c-0.1,0.4-0.1,0.7-0.3,0.9c-0.1,0.1-0.2,0.1-0.3,0.1c0,0-0.1,0-0.1,0c0.1-0.3,0.2-0.6,0.2-0.7c0-0.2,0-0.3,0-0.3
			c0-0.3-0.1-0.5-0.2-0.7c-0.1-0.2-0.3-0.4-0.6-0.6c-0.3-0.1-0.6-0.2-0.9-0.2c-0.1,0-0.3,0-0.4,0c-0.4,0.1-0.6,0.3-0.8,0.5
			c-0.2,0.3-0.3,0.6-0.3,0.9c0,0.4,0.1,0.7,0.4,1c0.1,0.2,0.3,0.3,0.5,0.4s0.4,0.1,0.7,0.1c0,0.1-0.1,0.2-0.1,0.4
			c-0.1,0.1-0.1,0.2-0.2,0.3L639,14c-0.1,0.1-0.1,0.2-0.2,0.3c-0.1,0.2-0.2,0.4-0.3,0.6l0.2,0.1c0,0,0.1,0,0.1,0c0,0,0.1,0,0.1,0
			l0,0c0.1,0,0.2,0,0.3,0c0.1,0,0.2,0,0.2,0c0.1,0,0.2-0.2,0.4-0.6c0.2-0.4,0.4-0.8,0.6-1.3c0.1,0,0.2,0,0.2,0l0,0
			c0.2,0,0.5-0.1,0.7-0.2c0.2-0.1,0.4-0.3,0.5-0.5c0.2,0.2,0.4,0.4,0.6,0.5c0.2,0.1,0.5,0.2,0.7,0.2c0,0,0,0,0,0c0,0,0,0,0,0
			c0,0,0,0,0,0c0,0,0,0,0,0l0,0c0,0,0,0,0,0c0.4,0,0.8-0.1,1.1-0.3c0.3-0.2,0.6-0.5,0.7-0.8c0,0.1,0,0.2,0.1,0.3
			c0,0.3,0.1,0.5,0.2,0.7c0.1,0.2,0.2,0.4,0.4,0.5s0.4,0,0.6-0.2c0.1-0.1,0.1-0.1,0.2-0.2c0.1-0.1,0.1-0.2,0.2-0.3c0,0,0,0,0,0
			c0.1,0.1,0.3,0.2,0.4,0.3c0.1,0.1,0.4,0.1,0.7,0.1c0.3,0,0.5,0,0.7-0.1c0.2-0.1,0.3-0.2,0.4-0.4c0.1,0.1,0.3,0.2,0.4,0.2
			c0.1,0.1,0.3,0.1,0.5,0.1c0,0,0,0,0,0h1.3c0,0,0,0,0,0c0,0,0,0,0,0h0l0.3,0c0.4,0,0.8-0.1,1.3-0.2c0.4-0.1,0.7-0.3,1-0.5
			c0.3-0.2,0.5-0.5,0.6-0.7C654.8,11.3,654.9,10.9,654.7,10.7z M639.7,12.5c-0.3,0-0.4-0.1-0.6-0.3s-0.2-0.3-0.2-0.4
			c0-0.1,0-0.2,0-0.3c0-0.1,0-0.3,0.1-0.4c0.1-0.3,0.2-0.4,0.4-0.4c0.1,0,0.2,0,0.2,0.1c0.1,0.1,0.2,0.3,0.2,0.4
			c0,0.2,0.1,0.3,0.1,0.5C639.9,12.1,639.8,12.3,639.7,12.5z"/>
		<path class="st6" d="M652.8,13.5c-0.2,0-0.3,0.1-0.5,0.2c-0.1,0.1-0.2,0.3-0.2,0.5c0,0.2,0.1,0.3,0.2,0.5c0.1,0.1,0.3,0.2,0.5,0.2
			c0.2,0,0.3-0.1,0.5-0.2c0.1-0.1,0.2-0.3,0.2-0.5c0-0.2-0.1-0.3-0.2-0.5C653.2,13.5,653,13.5,652.8,13.5z"/>
	</g>
</g>
</svg>
