<?xml version="1.0" encoding="utf-8"?>
<!-- Generator: Adobe Illustrator 27.1.1, SVG Export Plug-In . SVG Version: 6.00 Build 0)  -->
<svg version="1.1" id="Layer_1" xmlns="http://www.w3.org/2000/svg" xmlns:xlink="http://www.w3.org/1999/xlink" x="0px" y="0px"
	 viewBox="0 0 1080 56" style="enable-background:new 0 0 1080 56;" xml:space="preserve">
<style type="text/css">
	.st0{fill:#0B7F7F;}
	.st1{fill:#F87046;}
	.st2{fill:#8583F2;}
	.st3{opacity:0.61;}
	.st4{opacity:0.44;fill:#00D8EE;enable-background:new    ;}
	.st5{opacity:0.5;fill:#00D8EE;enable-background:new    ;}
	.st6{fill:#FFFFFF;}
	.st7{clip-path:url(#SVGID_00000094606494709734285550000004319711129774095002_);fill:none;}
	.st8{opacity:0.3;clip-path:url(#SVGID_00000129905906821810756340000012788160110805337736_);fill:#19297C;}
	.st9{opacity:0.3;clip-path:url(#SVGID_00000030452645322392887130000005557724769228145056_);fill:#132D9B;}
	
		.st10{opacity:0.44;clip-path:url(#SVGID_00000180352759402347341340000012384618613420306589_);fill:#00D8EE;enable-background:new    ;}
	.st11{clip-path:url(#SVGID_00000082364666819023903540000008098913718841292938_);}
	.st12{opacity:0.3;fill:#1336A5;}
	.st13{opacity:0.22;fill:#8583F2;enable-background:new    ;}
	.st14{fill:none;stroke:#151F38;stroke-width:0.5;stroke-miterlimit:10;}
	.st15{opacity:0.26;fill:#FFFFFF;enable-background:new    ;}
	.st16{fill:none;stroke:#8482F1;stroke-width:0.5;stroke-miterlimit:10;}
	.st17{fill:none;stroke:#00D7ED;stroke-width:0.5;stroke-linecap:round;stroke-miterlimit:10;}
	.st18{clip-path:url(#SVGID_00000171708325539585166410000003032063171268057530_);}
	.st19{opacity:0.1;fill:#8583F2;enable-background:new    ;}
	.st20{fill:#FFB388;}
	.st21{opacity:0.46;fill:#F87046;enable-background:new    ;}
	.st22{fill:#DEA013;}
	.st23{opacity:0.33;fill:#E16305;enable-background:new    ;}
	.st24{fill:#E16305;}
	.st25{fill:#4E67C2;}
	.st26{opacity:0.5;fill:#4E67C2;enable-background:new    ;}
	.st27{opacity:0.56;fill:none;stroke:#FFFFFF;stroke-width:0.4033;stroke-miterlimit:10;enable-background:new    ;}
	.st28{fill:#151F38;}
	.st29{opacity:0.19;fill:#151F38;enable-background:new    ;}
	.st30{fill:#FDBC0F;}
	.st31{fill:#00D8EE;}
	.st32{opacity:0.53;fill:none;stroke:#151F38;stroke-width:0.5;stroke-miterlimit:10;enable-background:new    ;}
	.st33{opacity:0.54;fill:#151F38;enable-background:new    ;}
	.st34{opacity:0.28;fill:#FFFFFF;enable-background:new    ;}
	.st35{fill:none;stroke:#F77046;stroke-width:0.5;stroke-miterlimit:10;}
	.st36{opacity:0.12;fill:#8583F2;enable-background:new    ;}
	.st37{fill:#F9A12D;stroke:#0C0F0F;stroke-width:0.25;stroke-miterlimit:10;}
	.st38{fill:#161616;stroke:#141414;stroke-width:0.25;stroke-miterlimit:10;}
	.st39{fill:#0C1111;}
	.st40{opacity:0.9;}
	.st41{fill:#FF551A;stroke:#0F0F0F;stroke-width:0.25;stroke-miterlimit:10;}
	.st42{fill:#034944;}
	.st43{fill:none;stroke:#FFFFFF;stroke-width:0.25;stroke-miterlimit:10;}
	.st44{fill-rule:evenodd;clip-rule:evenodd;fill:#FFFFFF;}
	.st45{fill-rule:evenodd;clip-rule:evenodd;fill:#024F49;}
	.st46{fill:#0F0F0F;}
	.st47{fill:#F91616;}
	.st48{fill:#A03607;}
</style>
<g>
	<g>
		<rect x="-1.3" y="-1.1" class="st0" width="1082.7" height="58.3"/>
		<path class="st1" d="M911.2,22.3c0,0.7-0.6,1.2-1.2,1.2s-1.2-0.6-1.2-1.2c0-0.7,0.6-1.2,1.2-1.2S911.2,21.6,911.2,22.3z"/>
		<path class="st2" d="M955.7,33.2c0,0.7-0.6,1.3-1.3,1.3s-1.3-0.6-1.3-1.3s0.6-1.3,1.3-1.3C955.1,31.8,955.7,32.4,955.7,33.2z"/>
		<g class="st3">
			<path class="st4" d="M483,46.8c0,0,4-2.8,4.6-3.5s3.5,4.3,5.2,5c0,0-3.5,3.9-4.4,4.4C487.5,53.3,483.9,48.5,483,46.8z"/>
			<polygon class="st5" points="484.7,47.5 485.8,49 487.4,47.5 486.1,46 			"/>
			<polygon class="st5" points="486.7,49.8 489.9,46.8 490.2,47.5 487.2,50.2 			"/>
			<polygon class="st5" points="487.7,50.8 490.8,47.8 491.2,48.5 488.2,51.2 			"/>
			<path class="st5" d="M488,44.8l-1.3,1.2l0.5,0.5l1.2-1.2C488.3,45.2,488.2,45,488,44.8z"/>
			<path class="st5" d="M488.9,45.8l-1.2,1.1l0.5,0.5l1.1-1C489.2,46.2,489,46,488.9,45.8z"/>
		</g>
		<polygon class="st6" points="481.7,7.3 482.1,8.2 483,8.7 482.1,9.2 481.7,10 481.2,9.2 480.3,8.7 481.2,8.2 		"/>
		<polygon class="st6" points="3.5,49.5 3.7,49.9 4.1,50.2 3.7,50.4 3.5,50.8 3.3,50.4 2.9,50.2 3.3,49.9 		"/>
		<path class="st1" d="M168.3,37.2c0,0.4-0.3,0.6-0.6,0.6c-0.4,0-0.6-0.3-0.6-0.6c0-0.4,0.3-0.6,0.6-0.6
			C168,36.5,168.3,36.8,168.3,37.2z"/>
		<polygon class="st6" points="665,10.4 664.1,10.9 664.8,11.3 662,14.8 661.7,14.3 661.4,14.9 661.4,15 654.8,12.3 655.1,12.1 
			654.5,11.8 654.2,11.2 653.9,11.8 653.3,12.1 653.9,12.4 653.9,12.4 650.1,17.4 649.7,16.7 649.3,17.6 648.4,18.1 649.3,18.5 
			649.7,19.4 650.2,18.5 651.1,18 650.2,17.6 650.2,17.5 650.3,17.6 654,12.7 654.2,13 654.5,12.5 661.1,15.1 660.9,15.2 
			661.4,15.5 661.7,16.1 662.1,15.5 662.6,15.2 662.2,15 665,11.4 665.5,12.2 666,11.4 666.9,10.9 666,10.4 665.5,9.5 		"/>
		<g>
			<g>
				<g>
					<defs>
						<path id="SVGID_1_" d="M671.1,42.4c-5.8-8.6-16.2-13.2-23.7-6c-4.4,4.2-9,6.2-12,7.1l0,0l0,0c-0.5,0.2-0.9,0.3-1.2,0.4
							c-0.7,0.2-1.7,0.3-2.7,0.3c-2.2,0-4.6,0.8-6.9,3l-0.3,0.3l-1.1,1.1l-0.5,0.5l-0.5,0.6l-2.5,3.5l-0.3,0.5l-0.3,0.5l-0.3,0.6
							l-0.3,0.6l-0.2,0.6l-0.3,0.9h28.8h52.2C682.1,55.7,676.9,51.2,671.1,42.4z"/>
					</defs>
					<clipPath id="SVGID_00000016068134162459263960000012382680076229393538_">
						<use xlink:href="#SVGID_1_"  style="overflow:visible;"/>
					</clipPath>
					
						<rect x="-29.3" y="25.4" style="clip-path:url(#SVGID_00000016068134162459263960000012382680076229393538_);fill:none;" width="1033.2" height="31.5"/>
				</g>
				<g>
					<defs>
						<path id="SVGID_00000086676845374786272940000006258676730713636026_" d="M671.1,42.4c-5.8-8.6-16.2-13.2-23.7-6
							c-4.4,4.2-9,6.2-12,7.1l0,0l0,0c-0.5,0.2-0.9,0.3-1.2,0.4c-0.7,0.2-1.7,0.3-2.7,0.3c-2.2,0-4.6,0.8-6.9,3l-0.3,0.3l-1.1,1.1
							l-0.5,0.5l-0.5,0.6l-2.5,3.5l-0.3,0.5l-0.3,0.5l-0.3,0.6l-0.3,0.6l-0.2,0.6l-0.3,0.9h28.8h52.2
							C682.1,55.7,676.9,51.2,671.1,42.4z"/>
					</defs>
					<clipPath id="SVGID_00000065033863385823330870000007794707659433905322_">
						<use xlink:href="#SVGID_00000086676845374786272940000006258676730713636026_"  style="overflow:visible;"/>
					</clipPath>
					<path style="opacity:0.3;clip-path:url(#SVGID_00000065033863385823330870000007794707659433905322_);fill:#19297C;" d="
						M678.4,39.4c-6.5-10.5-18.4-16-26.9-7.3c-5,5.1-10.2,7.6-13.7,8.6l0,0l0,0c-0.5,0.2-1,0.3-1.4,0.4c-0.8,0.3-2,0.4-3.1,0.4
						c-2.6,0.1-5.3,0.9-7.2,3l-1.3,1.3l-0.9,1l-0.6,0.6l0,0l0,0c-0.4,0.4-0.7,1-1.1,1.4l-2.3,3.5l0,0l-0.3,0.6l-0.3,0.6l-0.4,0.8
						l-0.3,0.8l-0.2,0.7l0,0l-0.3,1.1h32.7h49.9c0.6,0,0.7-1.2,0.1-1.3C688.6,53.2,683.7,47.9,678.4,39.4z"/>
				</g>
				<g>
					<defs>
						<path id="SVGID_00000085941932354537808440000014079545008435312574_" d="M671.1,42.4c-5.8-8.6-16.2-13.2-23.7-6
							c-4.4,4.2-9,6.2-12,7.1l0,0l0,0c-0.5,0.2-0.9,0.3-1.2,0.4c-0.7,0.2-1.7,0.3-2.7,0.3c-2.2,0-4.6,0.8-6.9,3l-0.3,0.3l-1.1,1.1
							l-0.5,0.5l-0.5,0.6l-2.5,3.5l-0.3,0.5l-0.3,0.5l-0.3,0.6l-0.3,0.6l-0.2,0.6l-0.3,0.9h28.8h52.2
							C682.1,55.7,676.9,51.2,671.1,42.4z"/>
					</defs>
					<clipPath id="SVGID_00000098902550241782035250000010526579513602246304_">
						<use xlink:href="#SVGID_00000085941932354537808440000014079545008435312574_"  style="overflow:visible;"/>
					</clipPath>
					<path style="opacity:0.3;clip-path:url(#SVGID_00000098902550241782035250000010526579513602246304_);fill:#132D9B;" d="
						M703.4,49.3c-0.8,0.1-1.5,0.8-2.3,0.9c-1.5,0.3-2.7-1.1-4.2-1.2c-2.5-0.3-4.7,1.8-7.2,2c-2.5,0.2-4.6-1.9-7.1-2.1
						c-2.7-0.2-5.3,1.9-8,1.2c-1.4-0.4-2.6-1.5-3.9-2.2c-1.2-0.6-2.2-0.6-3.4-0.4c-0.2,0-0.2,0.1-0.4,0.1l0,0l0,0
						c-0.7,0.3-1.3,0.6-2,0.7c-1.7,0.3-3.2-1.1-4.9-1.2c-2.9-0.3-5.5,1.8-8.4,2c-2.9,0.2-5.4-1.9-8.2-2.1c-3.2-0.2-6.2,1.9-9.4,1.2
						c-1.6-0.4-2.6-1.2-4-2c-1.5-0.7-2.8-0.8-4.3-0.4c-0.6,0.5-1.2,1-2.2,2.2c-2.1,2.4-5,5.5-6.3,9.6l43.7,0.2
						c-0.2,0.6,1.2-0.8,1.1-0.2l64.9,0.4L704,49.1C703.8,49.3,703.6,49.3,703.4,49.3z"/>
				</g>
				<g>
					<defs>
						<path id="SVGID_00000125601839559435996350000002577397174779779245_" d="M671.1,42.4c-5.8-8.6-16.2-13.2-23.7-6
							c-4.4,4.2-9,6.2-12,7.1l0,0l0,0c-0.5,0.2-0.9,0.3-1.2,0.4c-0.7,0.2-1.7,0.3-2.7,0.3c-2.2,0-4.6,0.8-6.9,3l-0.3,0.3l-1.1,1.1
							l-0.5,0.5l-0.5,0.6l-2.5,3.5l-0.3,0.5l-0.3,0.5l-0.3,0.6l-0.3,0.6l-0.2,0.6l-0.3,0.9h28.8h52.2
							C682.1,55.7,676.9,51.2,671.1,42.4z"/>
					</defs>
					<clipPath id="SVGID_00000165202593657683279860000007163020353563472572_">
						<use xlink:href="#SVGID_00000125601839559435996350000002577397174779779245_"  style="overflow:visible;"/>
					</clipPath>
					
						<path style="opacity:0.44;clip-path:url(#SVGID_00000165202593657683279860000007163020353563472572_);fill:#00D8EE;enable-background:new    ;" d="
						M668,47.9c-0.2,0-0.3,0.1-0.5,0.1c-0.7,0.2-1.5,0.7-2.2,0.8c-1.7,0.3-3.2-1.1-4.9-1.2c-2.9-0.3-5.5,1.8-8.4,2
						c-2.9,0.2-5.3-1.9-8.2-2.1c-3.2-0.2-6.2,1.9-9.3,1.2c-1.6-0.4-3-1.5-4.5-2.2c-1.4-0.7-3.4-0.5-4.9-0.2c-0.1,0,0.4-0.2,0.3-0.3
						c0.1,0,0.1-0.1,0.2-0.1c1.5-0.4,3-0.4,4.4,0.3c1.5,0.7,2.9,1.9,4.5,2.2c3.2,0.6,6.2-1.4,9.3-1.2c2.9,0.2,5.3,2.2,8.2,2.1
						c2.9-0.2,5.4-2.2,8.4-2c1.7,0.2,3.1,1.4,4.9,1.2c0.7-0.1,1.3-0.5,2-0.7l0,0l0,0c0.2-0.1,0.2-0.1,0.4-0.1
						c1.2-0.3,2.2-0.3,3.3,0.4c1.3,0.7,2.5,1.9,3.9,2.2c2.7,0.6,5.3-1.4,8-1.2c2.5,0.2,4.5,2.2,7.1,2.1c2.5-0.2,4.7-2.2,7.2-2
						c1.5,0.2,2.7,1.4,4.2,1.2c0.8-0.1,1.5-0.8,2.3-0.9c0.2,0,0.4,0,0.6,0v0.3c-0.2,0-0.4-0.1-0.6,0c-0.8,0.1-1.5,0.8-2.3,0.9
						c-1.5,0.3-2.7-1.1-4.2-1.2c-2.5-0.3-4.7,1.8-7.2,2c-2.5,0.2-4.6-1.9-7.1-2.1c-2.7-0.2-5.3,1.9-8,1.2c-1.4-0.4-2.6-1.5-3.9-2.2
						c-0.7-0.4-1.6-0.5-2.5-0.4L668,47.9z"/>
				</g>
				<g>
					<defs>
						<path id="SVGID_00000080171904095365100800000017899450090237058476_" d="M671.1,42.4c-5.8-8.6-16.2-13.2-23.7-6
							c-4.4,4.2-9,6.2-12,7.1l0,0l0,0c-0.5,0.2-0.9,0.3-1.2,0.4c-0.7,0.2-1.7,0.3-2.7,0.3c-2.2,0-4.6,0.8-6.9,3l-0.3,0.3l-1.1,1.1
							l-0.5,0.5l-0.5,0.6l-2.5,3.5l-0.3,0.5l-0.3,0.5l-0.3,0.6l-0.3,0.6l-0.2,0.6l-0.3,0.9h28.8h52.2
							C682.1,55.7,676.9,51.2,671.1,42.4z"/>
					</defs>
					<clipPath id="SVGID_00000032632265953927382950000002733778992225117594_">
						<use xlink:href="#SVGID_00000080171904095365100800000017899450090237058476_"  style="overflow:visible;"/>
					</clipPath>
					<g style="clip-path:url(#SVGID_00000032632265953927382950000002733778992225117594_);">
						<path class="st12" d="M706,52.3c-1.8-0.5-4.8-0.6-6.7-0.4c-1.6,0.2-3.2,0.6-4.9,0.7c-1.7,0.1-3.4-0.2-5.1-0.3
							c-3-0.1-5.8,1.1-8.8,1.3c-3,0.3-6-1-9.1-1c-3,0-5.9,1.5-9,1.2c-1.4-0.2-2.7-0.7-4-1.2c-1.6-0.5-3.2-0.7-4.9-0.6
							c-3,0.3-5.8,1.1-8.8,0.8c-3-0.2-5.8-1.6-8.8-2.1c-2.9-0.4-5.5,0.6-8.3,0.9c-2.1,0.2-4.2-0.1-5.9-1.2c-1.7,2.2-3.2,4.3-4,6.6
							h81.8l4.5-1.3l9.6-0.9l-1.8-0.4C709.1,53.8,706.2,52.4,706,52.3z"/>
						<path class="st4" d="M706,52.3c-1.8-0.5-3.8-0.6-5.7-0.4c-1.6,0.2-3.3,0.6-4.9,0.7c-1.7,0.1-3.5-0.2-5.2-0.3
							c-3-0.1-5.9,1.1-9,1.3c-3.1,0.3-6-1-9.1-1c-3,0-6,1.5-9,1.2c-1.4-0.2-2.7-0.7-4.1-1.2c-1.6-0.5-3.2-0.7-5-0.6
							c-3,0.3-5.9,1.1-8.9,0.8c-3.1-0.2-5.9-1.6-9-2.1c-2.9-0.4-5.5,0.6-8.4,0.9c-2.1,0.2-4.2-0.2-5.9-1.2c-0.1,0.1-0.1,0.1-0.2,0.2
							l0.2,0.1c1.7,1.1,3.9,1.3,5.9,1.2c2.9-0.3,5.5-1.3,8.4-0.9c3,0.4,5.8,1.9,9,2.1c3,0.2,5.9-0.5,8.9-0.8
							c1.7-0.2,3.3,0.2,4.9,0.7c1.3,0.4,2.8,1.1,4.2,1.3c3,0.4,5.9-1.4,9-1.4c3.1,0,5.8,1.5,9,1.3c3-0.2,6.1-1.6,9.1-1.5
							c1.7,0.1,3.5,0.4,5.2,0.3c1.6-0.1,3.3-0.5,4.9-0.7c1.9-0.2,3.8-0.1,5.7,0.4c0.2,0.1,1.7,0.4,1.9,0.5l-1.4-0.5
							C706.4,52.5,706.2,52.4,706,52.3z"/>
					</g>
				</g>
			</g>
			<polygon class="st6" points="651.8,33.6 652.4,34.6 653.4,35.1 652.4,35.7 651.8,36.7 651.3,35.7 650.3,35.1 651.3,34.6 			"/>
			<path class="st2" d="M665.1,35.1c0,0.4-0.3,0.6-0.6,0.6c-0.4,0-0.6-0.3-0.6-0.6c0-0.4,0.3-0.6,0.6-0.6
				C664.8,34.5,665.1,34.8,665.1,35.1z"/>
			<g>
				<path class="st6" d="M657.3,24.3c-0.4-0.6-1.1-1.1-1.4-1.8c-0.1-0.1-0.2-0.3-0.2-0.4c0,0,0,0,0-0.1l-0.7,1.5
					c0,0,2.4,2.2,3.4,2.7C658.1,25.7,657.8,25,657.3,24.3z"/>
				<path class="st13" d="M657.3,24.3c-0.4-0.6-1.1-1.1-1.4-1.8c-0.1-0.1-0.2-0.3-0.2-0.4c0,0,0,0,0-0.1l-0.7,1.5
					c0,0,2.4,2.2,3.4,2.7C658.1,25.7,657.8,25,657.3,24.3z"/>
				<polygon class="st6" points="654.1,24.1 654.7,22.4 658,25.7 663.2,25.5 661.9,28.8 653.5,25.6 				"/>
				<polygon class="st6" points="651.5,29.6 654.4,22.5 658,26.1 663.4,25.7 660.7,33.3 655.7,33.3 				"/>
				<path class="st1" d="M657.1,25.8c0,0,0.5,0.7,2,0.5l-2.6,7.5c0,0-1.5,0.2-2-1L657.1,25.8z"/>
				<polygon class="st1" points="659.1,26.3 663.6,26.1 660.9,33.7 656.5,33.8 				"/>
				<polygon class="st1" points="657.3,26 653.7,22.5 651,29.8 654.9,33.3 				"/>
				<line class="st14" x1="658.9" y1="26.8" x2="656.6" y2="33.3"/>
				<line class="st14" x1="656.9" y1="26.1" x2="654.6" y2="32.6"/>
				<path class="st14" d="M657.1,26.3c0,0,0.5,0.5,1.3,0.4"/>
				<path class="st14" d="M654.9,32.9c0,0,0.6,0.8,1.3,0.4"/>
				<polygon class="st15" points="659.4,27 663.1,26.7 660.8,33.3 657.2,33.5 				"/>
				<polygon class="st15" points="656.5,25.8 653.8,23.3 651.3,29.7 654.4,32.4 				"/>
				<path class="st15" d="M656.1,31.5L656.1,31.5c-0.2-0.1-0.3-0.3-0.2-0.4l1-2.9c0.1-0.2,0.3-0.3,0.4-0.2l0,0
					c0.2,0.1,0.3,0.3,0.2,0.4l-1,2.9C656.4,31.5,656.2,31.6,656.1,31.5z"/>
				<polyline class="st16" points="654.6,22.7 658,26.1 663.1,25.8 				"/>
			</g>
			<g>
				<path class="st17" d="M668.8,50.2c0,0,1.6-1.3,4.4,0.2"/>
				<path class="st17" d="M630,52.3c0,0,1.5,0.8,3.5-0.3c2.1-1.1,4.7,0.2,4.7,0.2"/>
				<path class="st17" d="M626.6,47.2c0,0,2.6,1.9,4.8,0.5"/>
				<path class="st17" d="M642.2,46.7c0,0,2-0.5,4,1.2"/>
				<path class="st17" d="M639.1,49.1c0,0,2.3-1,4.1,0.2"/>
			</g>
			<g>
				<g>
					<defs>
						<path id="SVGID_00000095319105778562374080000013611335123064884145_" d="M636.3,49.2c5.5,0.4,5.9,1,8.3,1.5
							c2.8,0.5,5.8,0.4,8.4,0.1c2.4-0.3,2.9-0.7,5.2-0.6c0.6,0,1.3,0.1,1.9,0.2c2.3-3.5,5.3-8.9,5.2-12.4l-17.6,1.6
							c0,0-2.1-2.2-3.4-2.4c-1.3-0.3-3.6,2.5-3.6,2.5l-3.9-0.4c0,0,0.5-3.5,0-4.1c-0.6-0.6,2.2-3.4,1.3-4.9s-2.3-3.4-2.8-3.6
							c-0.4-0.2-3,0.4-3.4,0.4c-0.4-0.1-1.8,1.1-2,1.3c-0.2,0.2-2.2-0.7-2.2-0.7l-1.3-1.1c0,0-0.8-0.4-1-0.5
							c-0.2-0.1-0.8-0.6-1.2-0.5s-1.3,0.9-1.3,1.3c0.1,0.4,0.4,1.3,0.6,1.6c0.3,0.4,1.7,1.7,1.9,1.8c0.2,0.1,0.5,0.3,0.6,0.4
							c0.1,0.2,0.3,1.4,0.3,1.4l-4.7,6.5c0,0,2.8,7,5.6,11.7c0.6-0.2,1.4-0.3,2-0.4C630.8,49.5,634.7,49.1,636.3,49.2z"/>
					</defs>
					<clipPath id="SVGID_00000083797650447285798510000014303078810882427539_">
						<use xlink:href="#SVGID_00000095319105778562374080000013611335123064884145_"  style="overflow:visible;"/>
					</clipPath>
					<g style="clip-path:url(#SVGID_00000083797650447285798510000014303078810882427539_);">
						<g>
							<polygon class="st6" points="665,38.3 644.4,41.7 622.9,38.5 643.5,50.1 							"/>
							<polygon class="st13" points="665,38.3 644.4,41.7 622.9,38.5 643.5,50.1 							"/>
							<path class="st6" d="M650.9,46.5c0,0-6.1-7.8-6.7-8.4c-0.6-0.6-6.8,8.7-6.8,8.7l6.5,2.4L650.9,46.5z"/>
							<path class="st19" d="M644.2,38c0,0.4-0.1,0.7-0.1,1c0,0.6,0,1.3,0,2c0,1.2-0.1,2.4-0.1,3.6c-0.1,1.5-0.2,3.1-0.3,4.5
								l-6.4-2.3C637.4,46.7,643.6,37.5,644.2,38z"/>
							<path class="st6" d="M656.9,53L644,48.1l-12.9,5C631.1,53.1,655.8,53.5,656.9,53z"/>
						</g>
						<g>
							<path class="st20" d="M628.4,28.6c0,0-0.1-0.1-0.2,0.1l0.2,0.2V28.6z"/>
							<g>
								<g>
									<path class="st20" d="M627.5,31.4l0.1-0.8l0.1-1.1c0.2-0.2,1.2-0.1,1.2-0.1L629,30c0,0.8-0.4,0.8-0.4,0.8v0.4L627.5,31.4z"
										/>
								</g>
								<path class="st20" d="M628.4,30.9c0,0,0.4-0.1,0.5-0.4c0.2-0.3,0.5-0.4,0.6-0.5c0.1-0.1-0.6-0.1-0.8,0.3
									C628.6,30.6,628.4,30.8,628.4,30.9z"/>
							</g>
							<path class="st1" d="M627.5,30.6h1.5l0.8,3.9l0,0l0,0c0.4,0.1,1.6,0.4,2.1,0.5c0.1,0,0.2,0.1,0.3,0.1c0.6,0.3,0.9,1,0.6,1.6
								c-0.1,0.3-0.4,0.4-0.6,0.6l0,0c0,0-0.1,0-0.3,0.1c-0.1,0-0.3,0-0.4,0c-0.6,0-1.9-0.3-3.7-1.7l0,0c-0.3-0.3-0.4-0.6-0.4-1.1
								C627.5,34.1,627.3,32,627.5,30.6z"/>
							<path class="st21" d="M627.5,30.6h1.5l0.8,3.9l0,0l0,0c0.4,0.1,1.6,0.4,2.1,0.5c0.1,0,0.2,0.1,0.3,0.1c0.6,0.3,0.9,1,0.6,1.6
								c-0.1,0.3-0.4,0.4-0.6,0.6l0,0c0,0-0.1,0-0.3,0.1c-0.1,0-0.3,0-0.4,0c-0.6,0-1.9-0.3-3.7-1.7l0,0c-0.3-0.3-0.4-0.6-0.4-1.1
								C627.5,34.1,627.3,32,627.5,30.6z"/>
							<g>
								<path class="st22" d="M636.1,33.3c0.1,0.3,0,0.6-0.2,0.8c-0.2,0.2-0.5,0.3-0.8,0.2c0,0.1-0.1,0.2-0.2,0.3
									c-0.1,0.1-0.3,0.1-0.4,0c-0.4-0.1-0.5-0.4-0.4-0.8c0-0.4,0.2-0.6,0.4-0.9c0.2-0.2,0.4-0.4,0.5-0.4c0.3-0.1,0.5-0.1,0.7,0.1
									c0.2,0.2,0.2,0.4,0.3,0.5L636.1,33.3z"/>
							</g>
							<path class="st20" d="M634.8,33.3c0,0-0.3,1.4-0.2,1.8c0,0-1.3,0.7-2.2-0.1c0,0,0.2-0.9,0.2-1.2
								C632.6,33.6,634.8,33.3,634.8,33.3z"/>
							<path class="st23" d="M633.8,34.7c-0.4,0.3-0.8,0.3-1.3,0.1c0.1-0.3,0.1-0.7,0.1-0.9s1.1-0.4,1.8-0.4
								C634.3,34,634.1,34.4,633.8,34.7z"/>
							<path class="st22" d="M633.7,29.1c0.2,0.6-0.2,1.3-0.9,1.5s-1.4-0.1-1.6-0.7c-0.2-0.6,0.2-1.3,0.9-1.5
								C632.8,28.2,633.5,28.5,633.7,29.1z"/>
							<path class="st20" d="M631.1,30.9c0.1-0.2,0.2-0.4,0.3-0.5c0.4-1.3,1.6-2.2,3-1.9c1.3,0.3,2.2,1.6,2,3
								c-0.2,0.8-0.7,1.4-1.3,1.8l0.1,0.1l-0.4,0.9c-1.4,0.4-2.9-0.3-2.9-0.3C630,32.9,630.9,31.2,631.1,30.9z"/>
							<path class="st20" d="M634.8,33c-0.3,0.3-0.3,0.7,0,0.9s0.6,0.1,0.8-0.3c0.3-0.3,0.3-0.7,0-0.9
								C635.5,32.5,635.1,32.6,634.8,33z"/>
							<path class="st23" d="M635,33.1c-0.2,0.2-0.2,0.4,0,0.5c0.2,0.1,0.4,0.1,0.5-0.2c0.2-0.3,0.2-0.4,0-0.5S635.2,32.9,635,33.1z
								"/>
							<g>
								<path class="st22" d="M633.6,31.2c-0.2-0.1-0.4-0.2-0.5-0.2c-0.3-0.1-0.1-0.4,0.2-0.3c0.2,0.1,0.4,0.2,0.5,0.2
									C634,31.1,633.8,31.4,633.6,31.2L633.6,31.2z"/>
							</g>
							<g>
								<path class="st22" d="M631.7,30.5c-0.1,0-0.2-0.1-0.3-0.1c-0.1,0-0.2-0.1-0.1-0.2c0-0.1,0.1-0.1,0.2-0.1s0.2,0.1,0.4,0.1
									c0.1,0,0.1,0.2,0.1,0.2C631.9,30.5,631.8,30.5,631.7,30.5L631.7,30.5z"/>
							</g>
							<path class="st24" d="M631.8,31.3c-0.1,0.1-0.1,0.2-0.2,0.3l-0.1,0.1h-0.1c0,0-0.1,0-0.1,0.1c0,0-0.1,0.1-0.1,0.2
								c0,0.1,0.1,0.1,0.1,0.2c0.1,0.1,0.2,0.1,0.4,0.1h-0.1h-0.1h-0.1c0,0,0,0-0.1,0l-0.1-0.1c0,0,0-0.1,0.1-0.1c0,0,0,0,0.1-0.1
								c0,0,0,0,0.1,0s0.1-0.1,0.1-0.1C631.7,31.5,631.8,31.4,631.8,31.3z"/>
							<path class="st22" d="M631.6,29.7c0,0,1.6,1,2.4-1.3c0,0-0.7-0.9-2.2,0C632,28.5,631.2,29.5,631.6,29.7z"/>
							<path class="st25" d="M635.3,42.3c0,0,0.2,1.5-0.1,2.2c0,0-3-0.4-3.5-0.3L630,44l0.3-2.4L635.3,42.3z"/>
							<path class="st26" d="M631.6,43.5L631.6,43.5L631.6,43.5L631.6,43.5c0.2,0,0.3,0,0.3,0.1c0,0.2-0.1,0.4-0.1,0.5v0.1h-0.1
								h-0.1C631.6,44,631.6,43.8,631.6,43.5z"/>
							<polyline class="st27" points="631.9,42.2 631.6,43.4 631.9,43.5 							"/>
							<path class="st1" d="M632.5,34.9c0,0-0.4-0.1-0.7,0c-0.3,0.1-1,1.5-1.1,2.9c0,1.3-0.9,3.6-0.5,4.1c0.4,0.5,4,1.6,5.2,0.8
								c0,0,0.6-0.5,0.5-1c-0.2-0.4-0.4-2.6-0.2-3.5c0.3-0.9,0.4-2.7-1.1-3.1C634.7,35.1,632.7,35.6,632.5,34.9z"/>
							<path class="st21" d="M630.9,40.8c0.7,0.5,1.7,0.7,2.6,0.4c1-0.3,1.8-0.8,2.3-1.7c0-0.1,0.1-0.2,0.1-0.2
								c-0.1,0.9-0.2,1.9,0,2.2c0.2,0.4-0.5,1-0.5,1c-1.3,0.7-4.9-0.3-5.2-0.8c-0.2-0.3-0.1-0.9,0.1-1.6
								C630.4,40.4,630.7,40.6,630.9,40.8z"/>
							<g>
								<path class="st22" d="M635.5,32.5c-0.2-0.1-0.4,0.1-0.5,0.3c-0.1,0.2-0.3,0.4-0.4,0.4s-0.3-0.2-0.3-0.3c0-0.2,0-0.3,0.1-0.4
									c0.2-0.3,0.4-0.4,0.6-0.6c-0.3-0.1-0.4-0.4-0.4-0.6s0.2-0.6,0.3-0.9c-0.5,0.1-1.1-0.1-1.4-0.4c-0.3-0.4-0.2-1.1,0.2-1.4
									c0.1-0.1,0.3-0.1,0.4,0c0.1-0.3,0.4-0.4,0.6-0.4s0.5,0.2,0.6,0.4c0,0.1,0.1,0.2,0.1,0.2s0.1,0.1,0.2,0.1
									c0.4,0.1,0.7,0.2,1,0.4c0.3,0.2,0.4,0.6,0.2,0.9c0.4,0.2,0.7,0.5,0.8,1c0.1,0.4-0.3,0.9-0.7,1c0.3,0.4,0,1.2-0.4,1.3
									c0,0-0.2,0.1-0.3,0.1l0.1-0.1c-0.1-0.2-0.3-0.2-0.4-0.4L635.5,32.5z"/>
							</g>
							<g>
								<path class="st22" d="M634,28.4c0-0.2,0-0.4-0.1-0.4c-0.1-0.2-0.3-0.3-0.4-0.3s-0.4,0.2-0.4,0.3c-0.2-0.2-0.4-0.2-0.6-0.2
									c-0.2,0-0.4,0.2-0.5,0.4c0,0,0,0.1-0.1,0.1h-0.1c-0.2,0-0.4,0.1-0.5,0.3c-0.1,0.2-0.2,0.4-0.1,0.6c-0.2,0-0.4,0.2-0.4,0.4
									s0.1,0.4,0.3,0.4c0,0,0.1,0,0.2,0s0.1-0.1,0.1-0.2c0.1-0.4,0.4-0.7,0.9-0.9c0.4-0.2,0.9-0.2,1.3-0.2c0.2,0,0.4,0,0.5,0
									L634,28.4z"/>
							</g>
							<path class="st28" d="M633.5,31.9c0,0-0.3-0.4-1.1-0.2c0,0,0.4-0.5,0.8-0.3C633.2,31.5,633.5,31.6,633.5,31.9z"/>
							<path class="st28" d="M631.1,30.7c0.4,0.1,0.4,0.6,0.4,0.6c-0.2-0.3-0.4-0.4-0.4-0.4C631.1,30.9,631.1,30.8,631.1,30.7z"/>
							<path class="st14" d="M632.3,32.7c0,0-0.3,0.3-0.9,0.1"/>
							<path class="st14" d="M632.5,32.9c0,0-0.3-0.1-0.2-0.4"/>
							<g>
								<path class="st25" d="M631.1,31.8l-0.2-0.1c-0.1-0.1-0.1-0.4,0.1-0.6c0.2-0.3,0.4-0.5,0.4-0.4l0.2,0.1l0,0l0,0l0,0l0,0
									c0.1,0.1,0.1,0.4-0.1,0.6C631.4,31.6,631.1,31.8,631.1,31.8L631.1,31.8L631.1,31.8L631.1,31.8L631.1,31.8z"/>
								<path class="st25" d="M629.5,30.8l0.3-0.5v-0.1l0.3-0.5l1.4,1.1l0,0c0,0,0,0.2-0.1,0.4c-0.1,0.2-0.2,0.3-0.2,0.3l0,0
									L629.5,30.8z"/>
								<path class="st29" d="M629.6,30.6c0.2,0.1,0.4,0.3,0.5,0.4c0.4,0.2,0.8,0.2,1.1-0.1l0.1,0.1l0,0c0,0,0,0.2-0.1,0.4
									c-0.1,0.2-0.2,0.3-0.2,0.3l0,0l-1.6-0.6L629.6,30.6z"/>
								<path class="st30" d="M629.4,30.8l-0.2-0.1c-0.1-0.1-0.1-0.4,0.1-0.6c0.2-0.3,0.4-0.5,0.4-0.4l0.2,0.1l0,0l0,0l0,0l0,0
									c0.1,0.1,0.1,0.4-0.1,0.6C629.7,30.7,629.5,30.9,629.4,30.8L629.4,30.8L629.4,30.8L629.4,30.8L629.4,30.8z"/>
								<path class="st25" d="M626.8,29.6l0.4-0.7v-0.1l0.4-0.7l2.2,1.7l0,0c0.1,0,0,0.3-0.1,0.5c-0.1,0.3-0.3,0.4-0.4,0.4l0,0
									L626.8,29.6z"/>
								<path class="st29" d="M626.9,29.3c0.4,0.2,0.6,0.4,1,0.6c0.4,0.2,1.1,0.4,1.4-0.2l0.1-0.1l0.3,0.2l0,0c0.1,0,0,0.3-0.1,0.5
									c-0.1,0.3-0.3,0.4-0.4,0.4l0,0l-2.6-1.1L626.9,29.3z"/>
								<path class="st30" d="M626.7,29.6l-0.2-0.1c-0.1-0.1,0-0.4,0.2-0.9c0.2-0.4,0.4-0.7,0.5-0.6l0.2,0.1l0,0l0,0l0,0l0,0
									c0.1,0.1,0,0.4-0.2,0.9C627.2,29.3,626.9,29.6,626.7,29.6L626.7,29.6L626.7,29.6L626.7,29.6L626.7,29.6z"/>
								<path class="st25" d="M624.1,28.4l0.4-1l0.1-0.1l0.4-1l2.2,1.9l0,0c0.1,0,0,0.4-0.2,0.7s-0.4,0.5-0.4,0.5l0,0L624.1,28.4z"
									/>
								<path class="st29" d="M624.2,28.1c0.3,0.2,0.5,0.4,0.9,0.4c0.4,0.2,1.3,0.3,1.6-0.6c0-0.1,0-0.2,0.1-0.3l0.5,0.4l0,0
									c0.1,0,0,0.4-0.2,0.7s-0.4,0.5-0.4,0.5l0,0l-2.6-1L624.2,28.1z"/>
								<path class="st30" d="M624,28.4l-0.2-0.1c-0.1-0.1,0-0.6,0.4-1.2c0.3-0.6,0.6-1.1,0.7-1l0.2,0.1l0,0l0,0l0,0l0,0
									c0.1,0.1-0.1,0.6-0.4,1.2C624.5,28,624.2,28.4,624,28.4L624,28.4L624,28.4C624.1,28.4,624.1,28.4,624,28.4L624,28.4z"/>
								<path class="st31" d="M624,28.1c-0.4-0.2-0.4-0.8-0.3-1.3c0.3-0.5,0.7-0.7,1.1-0.5l0,0l0,0l0,0c0.1,0-0.1,0.4-0.3,1
									C624.3,27.8,624,28.1,624,28.1L624,28.1L624,28.1L624,28.1z"/>
								<path class="st29" d="M624,28.1c-0.2-0.1-0.4-0.4-0.4-0.7c0.5-0.1,1-0.5,1.3-1.1c0,0.1-0.1,0.5-0.4,0.9
									C624.3,27.8,624,28.1,624,28.1L624,28.1L624,28.1L624,28.1z"/>
								<path class="st6" d="M623.9,26.9c0,0.1,0.2,0,0.4-0.1c0.2-0.2,0.3-0.3,0.3-0.4c0-0.1-0.2,0-0.4,0.1
									C624,26.6,623.9,26.8,623.9,26.9z"/>
								<line class="st32" x1="624.9" y1="27.3" x2="627.3" y2="28.7"/>
								<line class="st32" x1="627.5" y1="28.8" x2="629.7" y2="30.1"/>
								<line class="st32" x1="630" y1="30.3" x2="631.3" y2="31.1"/>
								<path class="st33" d="M625.4,27.9C625.4,27.9,625.5,27.9,625.4,27.9C625.5,27.9,625.5,27.9,625.4,27.9L625.4,27.9
									C625.4,27.9,625.4,27.9,625.4,27.9z"/>
								<path class="st33" d="M626.7,28.8C626.7,28.8,626.8,28.8,626.7,28.8C626.8,28.7,626.8,28.7,626.7,28.8L626.7,28.8
									C626.7,28.8,626.7,28.8,626.7,28.8z"/>
								<path class="st33" d="M627.8,29.4C627.9,29.5,627.9,29.4,627.8,29.4C627.9,29.3,627.9,29.3,627.8,29.4L627.8,29.4
									C627.8,29.4,627.8,29.4,627.8,29.4z"/>
								<path class="st33" d="M629.3,30.3C629.3,30.3,629.4,30.3,629.3,30.3C629.4,30.2,629.4,30.2,629.3,30.3L629.3,30.3
									C629.3,30.3,629.3,30.3,629.3,30.3z"/>
								<path class="st33" d="M630.2,30.8L630.2,30.8C630.3,30.7,630.3,30.7,630.2,30.8L630.2,30.8
									C630.2,30.7,630.2,30.8,630.2,30.8z"/>
								<path class="st33" d="M631.1,31.3C631.1,31.4,631.1,31.3,631.1,31.3C631.1,31.2,631.1,31.2,631.1,31.3L631.1,31.3
									C631,31.3,631.1,31.3,631.1,31.3z"/>
								<path class="st34" d="M624.9,26.1l0.2,0.1c0,0-0.3,1.2-0.8,1.6C624.3,27.9,625,26.6,624.9,26.1z"/>
								<path class="st34" d="M627.4,28c0,0,0.1,0.3-0.3,1C627.1,29,627.5,28.8,627.4,28L627.4,28z"/>
							</g>
							<g>
								<g>
									<path class="st20" d="M629.3,32.7l-0.2-0.8l-0.2-1.1c0.2-0.3,1.1-0.4,1.1-0.4l0.2,0.5c0.2,0.8-0.2,0.9-0.2,0.9l0.1,0.4
										L629.3,32.7z"/>
									<path class="st20" d="M629.9,30.6c0,0-0.2-1-0.4-1c0,0-0.1,0-0.1,0.1s0.3,1.1,0.3,1.1S630,30.8,629.9,30.6z"/>
									<path class="st20" d="M629.3,30.6c0,0-0.3-1-0.4-0.9c0,0-0.1,0-0.1,0.1c0,0.1,0.3,1.1,0.3,1.1S629.3,30.9,629.3,30.6z"/>
									<path class="st20" d="M629,30.7c0,0-0.2-0.7-0.4-0.6c0,0-0.1,0-0.1,0.1c0,0.1,0.3,0.7,0.3,0.7S629.1,30.9,629,30.7z"/>
									<path class="st20" d="M629.6,30.6c0,0-0.3-1.2-0.4-1.1c0,0-0.1,0-0.1,0.1s0.4,1.2,0.4,1.2S629.6,30.8,629.6,30.6z"/>
								</g>
								<path class="st20" d="M629.9,32.1c0,0,0.4-0.2,0.4-0.5c0.1-0.4,0.4-0.6,0.4-0.7s-0.6,0.1-0.7,0.4S629.8,32,629.9,32.1z"/>
							</g>
							<path class="st1" d="M630.6,36.8c-0.3-0.5-1.4-2.7-1.8-4.1l1.4-0.5l2.4,3.5l0,0l0,0c0.4-0.1,1.6-0.4,2.1-0.4
								c0.1,0,0.2,0,0.3,0c0.6,0,1.2,0.5,1.2,1.2c0,0.3-0.1,0.6-0.3,0.8l0,0c0,0-0.1,0.1-0.2,0.2c-0.1,0.1-0.2,0.1-0.4,0.2
								c-0.6,0.3-1.8,0.5-4,0l0,0C631.1,37.6,630.7,37.3,630.6,36.8z"/>
							<g>
								<path class="st20" d="M628.8,29l0.1,0.2C628.9,29.2,628.7,29.3,628.8,29c-0.2,0-0.2-0.2-0.2-0.2S628.8,28.8,628.8,29z"/>
								<path class="st20" d="M628.7,28.9l0.1,0.3c0,0-0.2,0.1-0.2,0C628.5,29,628.6,28.8,628.7,28.9
									C628.6,28.8,628.6,28.8,628.7,28.9z"/>
								<path class="st20" d="M628.5,28.8v0.3c0,0-0.2,0.1-0.2-0.1c0-0.2,0-0.4,0-0.4S628.5,28.7,628.5,28.8z"/>
								<path class="st20" d="M628.4,28.8V29c0,0-0.2,0-0.2-0.1c0-0.2,0.1-0.4,0.1-0.4S628.4,28.6,628.4,28.8z"/>
								<line class="st35" x1="628.6" y1="28.8" x2="628.7" y2="29.1"/>
								<line class="st35" x1="628.5" y1="28.8" x2="628.5" y2="29.1"/>
								<line class="st35" x1="628.4" y1="28.7" x2="628.4" y2="28.9"/>
							</g>
							<path class="st14" d="M635,37.8c0,0-3.5,0.5-4.3-0.6"/>
							<path class="st14" d="M632.6,35.7c0,0,0.1,0.5-0.2,0.8"/>
							<path class="st14" d="M634.7,35.4c0,0-1.9,0.4-2.2,0.3l-0.5-0.9"/>
							<path class="st14" d="M630.3,32.6c0,0-1,0.4-1.3,0.4"/>
							<path class="st14" d="M628.7,30.8c0,0-0.9,0.1-1.1,0"/>
						</g>
						<g>
							<path class="st6" d="M665,38.3c0,0-25,12.1-33.6,14.8l25.6-0.1C656.9,53,663.8,43.1,665,38.3z"/>
							<path class="st6" d="M622.9,38.5c0,0,25.1,11.9,33.7,14.6l-25.6,0.1C631.1,53.1,624.1,43.2,622.9,38.5z"/>
							<path class="st36" d="M656.9,53L644,48.1l-12.9,5C631.1,53.1,655.8,53.5,656.9,53z"/>
						</g>
					</g>
				</g>
			</g>
		</g>
		<g>
			<path class="st6" d="M540.5,13c-0.2,0.2-0.3,0.5-0.3,0.8c0,0.3,0.1,0.5,0.3,0.8c0.2,0.2,0.5,0.3,0.8,0.3s0.6-0.1,0.8-0.3
				c0.2-0.2,0.3-0.5,0.3-0.8c0-0.3-0.1-0.6-0.3-0.8c-0.2-0.2-0.5-0.3-0.8-0.3S540.7,12.8,540.5,13z"/>
			<path class="st6" d="M548.7,10.8c0.3,0,0.5-0.1,0.7-0.3c0.2-0.2,0.3-0.4,0.3-0.7c0-0.3-0.1-0.5-0.3-0.7c-0.2-0.2-0.4-0.3-0.7-0.3
				c-0.3,0-0.5,0.1-0.7,0.3c-0.2,0.2-0.3,0.4-0.3,0.7c0,0.3,0.1,0.5,0.3,0.7C548.2,10.7,548.4,10.8,548.7,10.8z"/>
			<path class="st6" d="M546.6,10.8c0.3,0,0.5-0.1,0.7-0.3c0.2-0.2,0.3-0.4,0.3-0.7c0-0.3-0.1-0.5-0.3-0.7c-0.2-0.2-0.4-0.3-0.7-0.3
				c-0.3,0-0.5,0.1-0.7,0.3c-0.2,0.2-0.3,0.4-0.3,0.7c0,0.3,0.1,0.5,0.3,0.7C546.1,10.7,546.4,10.8,546.6,10.8z"/>
			<path class="st6" d="M551.9,9.5c0.3,0,0.5-0.1,0.7-0.3c0.2-0.2,0.3-0.4,0.3-0.7c0-0.3-0.1-0.5-0.3-0.7c-0.2-0.2-0.4-0.3-0.7-0.3
				c-0.3,0-0.5,0.1-0.7,0.3c-0.2,0.2-0.3,0.4-0.3,0.7c0,0.3,0.1,0.5,0.3,0.7C551.4,9.4,551.6,9.5,551.9,9.5z"/>
			<path class="st6" d="M553.9,10.4c-0.4-0.2-0.9-0.3-1.4-0.4c-0.5-0.1-1,0-1.6,0.1c-0.3,0.1-0.5,0.1-0.6,0.3s0,0.2,0.1,0.3
				c0.1,0.1,0.2,0.1,0.4,0.1c0.2,0,0.5,0,0.7-0.1c0,0,0,0,0,0c0.4-0.1,0.8,0,1.1,0.1s0.5,0.3,0.6,0.6c0.1,0.3,0.1,0.6-0.1,1.1
				c-0.2,0.4-0.4,0.7-0.7,0.9c-0.3,0.3-0.7,0.5-1.2,0.6c-0.4,0.1-0.8,0.2-1.2,0.2c-0.2,0-0.4-0.1-0.6-0.2c-0.2-0.2-0.4-0.4-0.6-0.7
				c-0.2-0.3-0.2-0.7-0.2-1.2c0,0,0-0.1,0-0.1v0c0-0.4-0.2-0.6-0.4-0.7s-0.6-0.1-1.1,0.1c0,0.1,0,0.2,0,0.4c0,0.1,0,0.2,0,0.3
				c0,0.2,0,0.5-0.1,0.7c0,0.2-0.1,0.5-0.1,0.7c-0.1,0.2-0.2,0.4-0.3,0.5c-0.1,0.1-0.2,0.2-0.4,0.2c-0.2,0-0.4-0.1-0.5-0.2
				c-0.3-0.2-0.5-0.5-0.6-0.8s-0.2-0.5-0.2-0.7c-0.1-0.4-0.2-0.9-0.4-1.3c-0.5-0.2-0.9-0.2-1.1-0.2c-0.2,0-0.3,0.1-0.3,0.3
				c0,0.2,0,0.4,0.1,0.6c0,0.2,0.1,0.3,0.1,0.5c0,0.2,0.1,0.4,0,0.6c0,0.6-0.2,1.2-0.5,1.8c-0.3,0.5-0.7,0.9-1.1,1.2
				s-0.9,0.3-1.4,0.2c-0.3-0.1-0.5-0.3-0.8-0.6c-0.2-0.3-0.3-0.7-0.4-1.1c-0.1-0.4,0-0.9,0.1-1.3c0.1-0.5,0.4-0.9,0.8-1.4
				c0.2-0.2,0.3-0.4,0.4-0.4c0.1-0.1,0.2-0.2,0.3-0.2c0,0,0.1-0.1,0.1-0.1c0.1,0,0.1-0.1,0.2-0.2c0,0,0,0,0,0c0,0,0,0,0,0s0,0,0,0
				c0,0,0,0,0,0c0,0,0,0,0,0c0,0,0,0,0,0c0,0,0,0,0,0c0,0,0,0,0,0c-0.1-0.1-0.2-0.2-0.4-0.3s-0.4-0.1-0.6-0.1c-0.2,0-0.4,0-0.5,0.1
				c-0.1,0.1-0.3,0.2-0.4,0.3c0,0-0.1,0.1-0.1,0.1c-0.6,0.5-1.1,1.1-1.4,1.7c-0.3,0.8-0.4,1.4-0.3,2c0.1,0.6,0.4,1.1,0.9,1.5
				c0.5,0.4,1,0.6,1.7,0.8c0.6,0.1,1.3,0.1,1.9,0c0.7-0.2,1.2-0.5,1.8-0.9c0.4-0.4,0.7-0.9,0.8-1.5c0.2,0.1,0.4,0.2,0.6,0.3
				c0.2,0.1,0.4,0.1,0.7,0.1c0,0,0,0,0,0c0,0,0,0,0,0c0,0,0,0,0,0c0,0,0,0,0,0c0,0,0,0,0,0c0.3,0,0.6-0.1,0.9-0.3
				c0.3-0.2,0.6-0.4,0.8-0.7c0,0,0.1,0.1,0.1,0.1c0.2,0.3,0.5,0.5,0.9,0.7c0.3,0.2,0.7,0.2,1.1,0.2c0,0,0,0,0,0h0l0,0v0c0,0,0,0,0,0
				l0.3,0c0.5,0,1.2-0.1,1.9-0.3c0.6-0.2,1.1-0.4,1.5-0.8c0.4-0.3,0.7-0.7,0.9-1c0.2-0.6,0.3-1,0.1-1.4
				C554.6,10.9,554.3,10.6,553.9,10.4z"/>
			<path class="st6" d="M568.7,10.8c-0.4-0.4-0.9-0.6-1.4-0.6c-0.4,0-0.8,0-1.1,0.1c-0.3,0.1-0.5,0.3-0.6,0.5
				c-0.2,0.2-0.3,0.4-0.4,0.7c0,0.1-0.1,0.2-0.1,0.3c-0.1,0.2-0.1,0.4-0.2,0.6s-0.2,0.4-0.3,0.6c-0.1,0.2-0.2,0.4-0.3,0.6
				c-0.1,0.2-0.3,0.3-0.4,0.4c-0.1,0.1-0.3,0.2-0.5,0.2h0c0,0,0,0,0,0s0,0,0,0h-1.9h-1.8h0c0,0-0.1,0-0.1,0c0.1-0.5,0.2-0.9,0.2-1.3
				c0-0.4-0.1-0.8-0.2-1.2c-0.2-0.3-0.5-0.6-0.9-0.8c-0.7-0.3-1.3-0.3-1.8-0.2c-0.5,0.1-0.9,0.4-1.2,0.8c-0.3,0.4-0.4,0.8-0.4,1.3
				c0,0.5,0.2,0.9,0.6,1.4c0.2,0.2,0.4,0.4,0.7,0.5c0.3,0.1,0.6,0.2,1,0.2c0,0.2-0.1,0.4-0.2,0.5c-0.1,0.2-0.2,0.3-0.3,0.5
				c0,0.1-0.1,0.2-0.1,0.2c-0.1,0.1-0.2,0.3-0.3,0.4c-0.2,0.2-0.3,0.5-0.4,0.8l0.3,0.2c0,0,0.1,0,0.2,0c0.1,0,0.1,0,0.2,0
				c0,0,0,0,0,0c0.1,0,0.3,0,0.4,0c0.1,0,0.2,0,0.4,0c0.1-0.1,0.3-0.3,0.6-0.8s0.6-1.1,0.9-1.8c0.1,0,0.2,0,0.2,0c0,0,0,0,0,0h1.9
				h1.9c0,0,0,0,0,0h0v0c0.4,0,0.7-0.1,1-0.2s0.5-0.4,0.8-0.6c0,0,0,0,0,0c0,0,0,0,0,0c0,0,0,0,0,0s0,0,0,0c0,0,0,0,0,0c0,0,0,0,0,0
				c0,0,0,0,0,0c0,0,0,0,0,0c0,0,0,0,0,0c0,0,0,0,0,0c0,0,0.1,0.1,0.1,0.1c0,0,0.1,0.1,0.1,0.1c0.3,0.3,0.7,0.5,1.1,0.7
				c0.5,0.1,0.9,0.1,1.4,0c0.5-0.1,0.9-0.3,1.2-0.7c0.3-0.3,0.5-0.8,0.5-1.4c0-0.4-0.1-0.8-0.3-1.2C569.2,11.3,569,11,568.7,10.8z
				 M558.4,13.2c0,0.3-0.1,0.6-0.3,0.8c-0.4,0-0.6-0.2-0.8-0.4s-0.3-0.5-0.3-0.8c0-0.3,0-0.6,0.1-0.8c0.1-0.3,0.2-0.4,0.4-0.5
				c0.2-0.1,0.4-0.1,0.6,0.1c0.2,0.2,0.3,0.4,0.3,0.7C558.4,12.5,558.4,12.9,558.4,13.2z M568,13.7c-0.1,0.3-0.3,0.5-0.5,0.6
				c-0.2,0.1-0.4,0-0.6-0.3c-0.2-0.2-0.3-0.6-0.4-1c-0.1-0.4,0-0.9,0.1-1.4c0.1-0.2,0.1-0.3,0.2-0.5c0-0.1,0.1-0.1,0.1-0.2
				c0,0,0-0.1,0-0.1c0,0,0.1,0,0.1,0c0.3,0.2,0.6,0.4,0.8,0.7c0.2,0.3,0.3,0.7,0.3,1.1S568.1,13.4,568,13.7z"/>
			<path class="st6" d="M571.8,8.9c-0.2,0-0.5,0-0.8,0.1c0,0.1-0.1,0.4-0.1,1c0,0.5-0.1,1.2-0.1,1.8c0,0.7-0.1,1.3-0.1,1.9
				c0,0.6,0,0.9,0,1c0,0,0,0,0,0c0.2,0.1,0.4,0.1,0.7,0.1s0.5,0,0.8-0.1c0-0.1,0-0.3,0-0.5c0-0.5,0.1-1.1,0.1-1.8
				c0-0.7,0.1-1.4,0.1-2c0-0.6,0-1.1,0-1.3C572.2,9,572,9,571.8,8.9z"/>
			<path class="st6" d="M575.5,7.4c0.2-0.3,0.3-0.6,0.3-0.8c-0.1-0.2-0.3-0.3-0.6-0.4C575.1,6,574.8,6,574.4,6
				c-0.1,0.1-0.1,0.3-0.2,0.4c-0.1,0.3-0.2,0.5-0.3,0.7s-0.3,0.4-0.5,0.5c-0.2,0.1-0.4,0.1-0.7,0c-0.2-0.1-0.4-0.3-0.7-0.5
				c-0.2-0.2-0.4-0.4-0.7-0.6c-0.3-0.2-0.5-0.3-0.9-0.3c-0.3-0.1-0.7,0-1.1,0.2c-0.3,0.1-0.6,0.4-0.8,0.7c-0.2,0.3-0.3,0.6-0.4,1
				c0.2,0.1,0.4,0.3,0.6,0.3s0.5,0,0.8,0c0-0.1,0-0.1,0.1-0.2c0.1-0.4,0.3-0.7,0.4-0.9c0.1-0.2,0.3-0.3,0.6-0.2
				c0.2,0.1,0.6,0.4,1.1,0.8c0.3,0.3,0.6,0.5,1,0.6c0.4,0.1,0.8,0.2,1.2,0.1c0.4-0.1,0.7-0.3,1.1-0.7C575.2,7.9,575.3,7.7,575.5,7.4
				z"/>
			<path class="st6" d="M580.5,9.8c0.1,0.1,0.3,0.1,0.4,0.1c0.1,0,0.2,0,0.3-0.1c0.2-0.1,0.4-0.2,0.5-0.4c0.1-0.2,0.1-0.3,0.1-0.5
				c0-0.1,0-0.2,0-0.2c-0.1-0.2-0.2-0.4-0.5-0.5C581.1,8,581,8,580.8,8c-0.1,0-0.2,0-0.3,0.1c-0.2,0.1-0.4,0.2-0.4,0.4
				C580,8.6,580,8.8,580,8.9C580,9.3,580.2,9.6,580.5,9.8z"/>
			<path class="st6" d="M578.6,10.2c0.2,0.1,0.3,0.1,0.5,0.1c0.1,0,0.2,0,0.3-0.1c0.2-0.1,0.3-0.2,0.4-0.4c0.1-0.2,0.1-0.3,0.1-0.4
				c0-0.1,0-0.2-0.1-0.3c-0.1-0.2-0.2-0.4-0.5-0.5c-0.2-0.1-0.3-0.1-0.4-0.1c-0.1,0-0.2,0-0.3,0.1c-0.2,0.1-0.3,0.3-0.4,0.4
				c-0.1,0.2-0.1,0.3-0.1,0.5C578,9.8,578.2,10,578.6,10.2z"/>
			<path class="st6" d="M587.5,9.1c0.2,0.1,0.3,0.1,0.5,0.1h0c0.2,0,0.3-0.1,0.4-0.1c0.1-0.1,0.2-0.2,0.3-0.3l0.1-0.2
				c0.3-0.4,0.5-0.7,0.7-1.1c0.2-0.3,0.4-0.7,0.5-1c-0.1-0.1-0.3-0.2-0.4-0.3c-0.2-0.1-0.4-0.1-0.6-0.1h-0.1c-0.2,0-0.3,0-0.3,0.1
				s-0.2,0.2-0.2,0.3c0,0.1-0.1,0.2-0.3,0.5c-0.4,0.5-0.6,0.9-0.8,1.3c-0.1,0.2-0.2,0.4-0.2,0.5v0C587.1,8.9,587.3,9,587.5,9.1z"/>
			<path class="st6" d="M585,8.3c0.1,0,0.3,0,0.5-0.1c0.2-0.1,0.4-0.3,0.4-0.4c0-0.2,0.1-0.3,0.1-0.4c0-0.1,0-0.3-0.1-0.4
				c-0.1-0.3-0.3-0.5-0.4-0.5s-0.3-0.1-0.4-0.1c-0.1,0-0.3,0-0.4,0.1c-0.2,0.1-0.4,0.3-0.5,0.5c0,0.1,0,0.2,0,0.3
				c0,0.1,0,0.3,0.1,0.4C584.4,8.1,584.7,8.3,585,8.3z"/>
			<path class="st6" d="M601.8,11.7c-0.1-0.3-0.3-0.5-0.5-0.6c-0.4-0.2-0.7-0.2-1.1-0.1c0,0,0,0.2,0.1,0.4c0.1,0.3,0.2,0.6,0.3,1
				c0.1,0.4,0.1,0.8,0.1,1.1c-0.1,0.2-0.2,0.4-0.3,0.5c-0.1,0.1-0.3,0.2-0.4,0.1s-0.3-0.2-0.4-0.5c-0.1-0.4-0.2-0.8-0.2-1.2
				c0-0.4-0.1-0.8-0.2-1.2c0,0,0-0.1,0-0.1c0-0.1,0-0.2-0.1-0.2c0,0-0.1-0.1-0.1-0.1c0,0-0.1,0-0.2,0c0,0,0,0,0,0l-0.6-0.1
				c-0.1,0-0.1,0-0.1,0c-0.1,0-0.1,0-0.1,0c0,0,0,0.1,0,0.2c0,0,0,0.1,0,0.1c0,0.3,0,0.6,0,1c0,0.4-0.1,0.8-0.3,1.3l-0.6-2.4
				c0-0.1,0-0.1,0-0.1c0-0.1,0-0.1,0-0.2c0,0,0-0.1-0.1-0.1s-0.1,0-0.2-0.1c0,0,0,0,0,0c-0.2-0.1-0.4-0.1-0.7-0.1
				c-0.1,0-0.2,0-0.2,0.1s-0.1,0.1-0.1,0.2c0,0.1,0,0.1,0,0.2c-0.1,0.2-0.1,0.4-0.2,0.6c-0.1,0.4-0.2,0.8-0.3,1.2
				c-0.1,0.4-0.3,0.8-0.6,1.1c-0.3,0.3-0.6,0.5-1,0.5h-1.7c-0.5,0-0.9-0.4-1.2-1.1c-0.1-0.3-0.2-0.6-0.3-0.9
				c-0.1-0.6-0.3-1.2-0.6-1.8l-0.1-0.3c0.3-0.4,0.6-0.9,1-1.4c0.5-0.7,0.9-1.2,1.2-1.7c-0.4-0.2-0.6-0.3-0.7-0.3s-0.2,0-0.2,0
				c-0.2,0-0.3,0-0.5,0.1c-0.1,0.1-0.3,0.2-0.4,0.4c-0.2,0.3-0.4,0.6-0.7,0.9c-0.3,0.3-0.5,0.7-0.7,1c-0.2,0.3-0.4,0.6-0.6,0.9
				c0.2,0.3,0.4,0.7,0.6,1.4c0.2,0.7,0.4,1.3,0.4,1.9c0,0.4-0.1,0.7-0.4,0.9c-0.2,0.2-0.5,0.2-0.8,0.2c-0.4,0-0.7-0.1-1-0.3
				c-0.3-0.2-0.4-0.3-0.5-0.6c0.7-0.7,1.1-1.3,1.3-1.7c0.2-0.5,0.2-0.9,0.2-1.1c0-0.3-0.1-0.7-0.2-1c-0.3-0.5-0.9-0.9-1.7-1.1
				c-0.3-0.1-0.6-0.1-0.9-0.1c-0.3,0-0.6,0-0.8,0.1c-0.4,0.2-0.7,0.4-0.9,0.7c-0.2,0.3-0.3,0.6-0.3,0.8c0,0.2,0,0.4,0,0.4
				c0,0.4,0.1,0.7,0.2,1.1c0.1,0.4,0.3,0.7,0.6,1c0.2,0.3,0.5,0.5,0.7,0.8c-0.1,0.1-0.2,0.2-0.3,0.3c-0.2,0.1-0.3,0.2-0.6,0.3
				c-0.2,0.1-0.5,0.1-0.7,0.1c-0.2,0-0.4-0.1-0.5-0.2c-0.2-0.2-0.4-0.4-0.6-0.7c-0.2-0.3-0.2-0.7-0.2-1.2l0-0.2
				c0-0.4-0.1-0.6-0.3-0.7c-0.2-0.1-0.4-0.1-0.5-0.1c-0.2,0-0.4,0-0.7,0.1c0,0.1,0,0.2,0,0.4c0,0.3,0,0.7-0.1,1
				c-0.1,0.6-0.2,1-0.4,1.2c-0.1,0.1-0.3,0.2-0.4,0.2c-0.1,0-0.2,0-0.2,0.1s-0.1,0.1-0.1,0.2c0,0.1,0,0.2,0.1,0.2
				c0.1,0.1,0.1,0.1,0.2,0.1l0.1,0l0.1,0c0.2,0,0.5,0,0.7,0.1s0.5,0.1,0.8,0.3c0.2,0.1,0.4,0.3,0.5,0.5c0.1,0.2,0.2,0.4,0.2,0.5
				c0,0.1,0,0.2,0,0.2c0,0.2,0,0.4-0.1,0.5c-0.2,0.4-0.4,0.7-0.8,1c-0.4,0.3-0.7,0.5-1.1,0.6c-0.4,0.1-0.7,0.1-0.9,0.1
				c-0.2,0-0.4,0-0.6-0.1c-0.4-0.1-0.8-0.3-1.1-0.7c-0.3-0.4-0.5-0.9-0.5-1.7v-0.1c0-0.6,0.1-1.2,0.4-1.8c0.3-0.5,0.6-0.9,0.9-1.3
				c0.3-0.4,0.7-0.7,1-1c0.4-0.4,0.7-0.7,0.8-0.9c-0.5-0.2-0.8-0.4-0.9-0.4c-0.1,0-0.2,0-0.2,0c-0.2,0-0.4,0.1-0.6,0.2
				c-0.5,0.3-1,0.8-1.5,1.5s-0.9,1.3-1.2,2c-0.2,0.6-0.3,1.1-0.3,1.5c0,0.2,0,0.3,0,0.5c0.1,0.6,0.3,1.1,0.7,1.5
				c0.4,0.4,0.8,0.8,1.4,1c0.6,0.2,1.2,0.3,1.8,0.3c0.2,0,0.4,0,0.6,0c0.8-0.1,1.6-0.4,2.2-0.8c0.4-0.3,0.7-0.6,0.9-0.9
				c0.2-0.3,0.3-0.7,0.3-1c0-0.1,0-0.1,0-0.2c0-0.4-0.3-0.8-0.7-1.2c-0.3-0.3-0.9-0.6-1.8-0.9c0.2-0.1,0.3-0.3,0.5-0.5
				c0.3,0.3,0.6,0.6,0.9,0.8c0.3,0.1,0.6,0.2,1,0.2c0,0,0,0,0,0l0,0c0,0,0.1,0,0.1,0c0,0,0,0,0,0h0c0,0,0,0,0,0c0,0,0,0,0,0
				c0,0,0.1,0,0.2,0c0.4,0,0.8-0.1,1.2-0.2c0.4-0.1,0.8-0.3,1.3-0.6c0.3,0.5,0.7,0.7,1.2,0.9c0.5,0.1,0.8,0.2,1.2,0.2
				c0.3,0,0.5,0,0.8-0.1c0.6-0.1,1-0.4,1.4-0.9c0.4,0.4,1,0.6,1.6,0.6c0,0,0,0,0,0h1.9c0,0,0,0,0,0c0.4,0,0.8-0.1,1.1-0.3
				c0.3-0.2,0.6-0.4,0.9-0.6c0.3-0.3,0.5-0.5,0.7-0.8c0,0.1,0.1,0.3,0.1,0.5c0.1,0.4,0.2,0.7,0.3,1c0.1,0.3,0.4,0.6,0.6,0.6
				c0.3,0.1,0.6,0,0.8-0.4c0.1-0.1,0.2-0.2,0.2-0.3c0.1-0.1,0.2-0.3,0.3-0.4c0,0,0,0,0,0c0.2,0.2,0.4,0.3,0.6,0.4
				c0.2,0.1,0.5,0.2,1,0.2c0.5,0,0.9-0.1,1.2-0.3c0.3-0.2,0.5-0.5,0.5-0.8c0.1-0.3,0.1-0.7,0-1C602,12.3,601.9,12,601.8,11.7z
				 M585.4,12.8c-0.4-0.5-0.6-0.9-0.7-1.3c-0.1-0.4-0.1-0.6-0.1-0.9c0-0.1,0-0.3,0-0.4c0.1-0.3,0.2-0.6,0.4-0.7s0.3-0.2,0.5-0.2
				c0,0,0.1,0,0.1,0c0.3,0.1,0.5,0.3,0.6,0.6c0.1,0.3,0.1,0.5,0.1,0.8C586.3,11.4,586,12.1,585.4,12.8z"/>
			<path class="st6" d="M598.6,9.3c0,0.2,0.1,0.5,0.3,0.6c0.2,0.2,0.4,0.3,0.6,0.3c0.2,0,0.5-0.1,0.6-0.3c0.2-0.2,0.3-0.4,0.3-0.6
				c0-0.2-0.1-0.5-0.3-0.6c-0.2-0.2-0.4-0.3-0.6-0.3c-0.2,0-0.5,0.1-0.6,0.3S598.6,9.1,598.6,9.3z"/>
			<path class="st6" d="M598.6,8.6c0.2,0,0.5-0.1,0.6-0.3c0.2-0.2,0.3-0.4,0.3-0.6c0-0.2-0.1-0.5-0.3-0.6c-0.2-0.2-0.4-0.3-0.6-0.3
				c-0.2,0-0.5,0.1-0.6,0.3c-0.2,0.2-0.3,0.4-0.3,0.6c0,0.2,0.1,0.5,0.3,0.6S598.3,8.6,598.6,8.6z"/>
			<path class="st6" d="M597.7,10.2c0.2,0,0.5-0.1,0.6-0.3c0.2-0.2,0.3-0.4,0.3-0.6c0-0.2-0.1-0.5-0.3-0.6c-0.2-0.2-0.4-0.3-0.6-0.3
				c-0.2,0-0.5,0.1-0.6,0.3c-0.2,0.2-0.3,0.4-0.3,0.6c0,0.2,0.1,0.5,0.3,0.6C597.2,10.1,597.4,10.2,597.7,10.2z"/>
			<path class="st6" d="M608.1,10.1c-0.2-0.2-0.3-0.4-0.6-0.4c-0.2-0.1-0.4-0.1-0.6,0c-0.2,0-0.4,0.1-0.5,0.2l0.2,0.5
				c-0.3,0.1-0.6,0.3-0.9,0.5c-0.3,0.2-0.5,0.5-0.8,0.9c-0.2,0.3-0.4,0.7-0.4,1.1c0,0.5,0.1,0.9,0.4,1.2c0.3,0.3,0.7,0.5,1.2,0.6
				c0.5,0.1,0.9,0.1,1.4-0.1c0.5-0.1,0.9-0.4,1.1-0.8c0.3-0.4,0.4-0.9,0.4-1.5C608.9,11.6,608.6,10.9,608.1,10.1z M607.4,13.9
				c-0.1,0.2-0.4,0.3-0.8,0.2c-0.3-0.1-0.5-0.3-0.5-0.6c-0.1-0.3,0-0.6,0.1-1c0.1-0.3,0.2-0.5,0.4-0.8c0.2-0.3,0.3-0.4,0.5-0.6
				c0.1,0.1,0.2,0.4,0.3,0.7c0.1,0.3,0.2,0.7,0.2,1.1C607.6,13.4,607.5,13.7,607.4,13.9z"/>
			<path class="st6" d="M611.5,11.6c-0.2,0-0.4,0.1-0.5,0.2c-0.1,0.2-0.2,0.7-0.5,1.3c-0.3,0.7-0.5,1.3-0.8,2
				c-0.3,0.7-0.5,1.1-0.6,1.4c0.2,0.1,0.4,0.2,0.7,0.3c0.3,0.1,0.5,0.1,0.7,0c0.3-0.4,0.6-1.1,1-2c0.4-1,0.8-1.9,1-2.8
				c-0.1-0.1-0.3-0.2-0.5-0.2S611.7,11.6,611.5,11.6z"/>
			<path class="st6" d="M614.9,8.9c-0.2,0-0.5,0-0.8,0.1c0,0.1-0.1,0.4-0.1,1c0,0.5-0.1,1.2-0.1,1.8c0,0.7-0.1,1.3-0.1,1.9
				c0,0.6,0,0.9,0,1c0,0,0,0,0,0c0.2,0.1,0.4,0.1,0.7,0.1s0.5,0,0.8-0.1c0-0.1,0-0.3,0-0.5c0-0.5,0.1-1.1,0.1-1.8
				c0-0.7,0.1-1.4,0.1-2c0-0.6,0-1.1,0-1.3C615.3,9,615.1,9,614.9,8.9z"/>
			<path class="st6" d="M620.7,11c0.2,0,0.3,0,0.5-0.1c0.2-0.1,0.4-0.3,0.4-0.4s0.1-0.3,0.1-0.4c0-0.1,0-0.3-0.1-0.4
				c-0.1-0.3-0.3-0.5-0.4-0.5c-0.2,0-0.3-0.1-0.4-0.1c-0.1,0-0.3,0-0.4,0.1c-0.2,0.1-0.4,0.3-0.5,0.5c0,0.1,0,0.2,0,0.3
				c0,0.1,0,0.3,0.1,0.4C620,10.8,620.3,11,620.7,11z"/>
			<path class="st6" d="M628.2,10.2c0.2,0,0.5-0.1,0.6-0.3c0.2-0.2,0.3-0.4,0.3-0.6c0-0.2-0.1-0.5-0.3-0.6s-0.4-0.3-0.6-0.3
				c-0.2,0-0.5,0.1-0.6,0.3s-0.3,0.4-0.3,0.6c0,0.2,0.1,0.5,0.3,0.6C627.8,10.1,628,10.2,628.2,10.2z"/>
			<path class="st6" d="M629.2,8.6c0.2,0,0.5-0.1,0.6-0.3c0.2-0.2,0.3-0.4,0.3-0.6c0-0.2-0.1-0.5-0.3-0.6s-0.4-0.3-0.6-0.3
				c-0.2,0-0.5,0.1-0.6,0.3c-0.2,0.2-0.3,0.4-0.3,0.6c0,0.2,0.1,0.5,0.3,0.6C628.7,8.5,628.9,8.6,629.2,8.6z"/>
			<path class="st6" d="M629.2,9.3c0,0.2,0.1,0.5,0.3,0.6c0.2,0.2,0.4,0.3,0.6,0.3c0.2,0,0.5-0.1,0.6-0.3c0.2-0.2,0.3-0.4,0.3-0.6
				s-0.1-0.5-0.3-0.6c-0.2-0.2-0.4-0.3-0.6-0.3c-0.2,0-0.5,0.1-0.6,0.3C629.3,8.8,629.2,9,629.2,9.3z"/>
			<path class="st6" d="M642.5,11.3c-0.2-0.4-0.4-0.7-0.8-0.9s-0.9-0.3-1.4-0.4c-0.5-0.1-1,0-1.6,0.1c-0.3,0.1-0.5,0.1-0.6,0.3
				s0,0.2,0.1,0.3c0.1,0.1,0.2,0.1,0.4,0.1c0.2,0,0.5,0,0.7-0.1c0,0,0,0,0,0c0.4-0.1,0.8,0,1.1,0.1s0.5,0.3,0.6,0.6
				c0.1,0.3,0.1,0.6-0.1,1.1c-0.2,0.4-0.4,0.7-0.7,0.9c-0.3,0.3-0.7,0.5-1.2,0.6c-0.4,0.1-0.8,0.2-1.2,0.2c0,0,0,0,0,0c0,0,0,0,0,0
				h-1.9h-0.2H634h-0.2c-0.2,0-0.4-0.1-0.5-0.2c-0.2-0.1-0.3-0.3-0.4-0.5s-0.2-0.4-0.3-0.7c0,0,0,0,0-0.1l0,0
				c-0.2-0.7-0.4-1.1-0.7-1.4c-0.4-0.2-0.7-0.3-1.1-0.1c0,0,0,0.2,0.1,0.4c0.1,0.3,0.2,0.6,0.3,1c0.1,0.4,0.1,0.8,0.1,1.1
				c-0.1,0.2-0.2,0.4-0.3,0.5c-0.1,0.1-0.3,0.1-0.4,0.1c-0.1-0.1-0.3-0.2-0.4-0.6c-0.1-0.4-0.2-0.8-0.2-1.2c0-0.4-0.1-0.8-0.2-1.2
				c0,0,0-0.1,0-0.1c0-0.1,0-0.2-0.1-0.2c0,0-0.1-0.1-0.1-0.1c0,0-0.1,0-0.2-0.1c0,0,0,0,0,0l-0.6-0.1c-0.1,0-0.1,0-0.1,0
				c-0.1,0-0.1,0-0.1,0s0,0.1,0,0.2c0,0,0,0.1,0,0.1c0,0.3,0,0.6,0,1c0,0.4-0.1,0.8-0.3,1.3l-0.6-2.4c0-0.1,0-0.1,0-0.2
				c0-0.1,0-0.1,0-0.2s0-0.1-0.1-0.1c0,0-0.1,0-0.2-0.1c0,0,0,0,0,0c-0.2-0.1-0.4-0.1-0.7-0.1c-0.1,0-0.2,0-0.2,0.1
				c0,0.1-0.1,0.1-0.1,0.2c0,0.1,0,0.1,0,0.2c-0.1,0.2-0.1,0.4-0.2,0.6c-0.1,0.4-0.2,0.8-0.3,1.2c-0.1,0.4-0.3,0.8-0.6,1
				c-0.2,0.3-0.6,0.4-1,0.4c-0.2,0-0.4-0.1-0.6-0.2c-0.2-0.2-0.4-0.4-0.6-0.7c-0.2-0.3-0.2-0.7-0.2-1.2l0-0.1c0-0.4-0.1-0.6-0.3-0.7
				c-0.2-0.1-0.4-0.1-0.5-0.1c-0.2,0-0.4,0-0.7,0.1c0,0.1,0,0.2,0,0.4c0,0.3,0,0.7-0.1,1c-0.1,0.6-0.2,1-0.4,1.2
				c-0.1,0.1-0.3,0.2-0.4,0.2c0,0-0.1,0-0.1,0c0.1-0.5,0.2-0.8,0.2-1s0-0.4,0-0.4c0-0.4-0.1-0.7-0.2-1c-0.2-0.3-0.5-0.6-0.9-0.8
				c-0.5-0.2-0.9-0.3-1.2-0.3c-0.2,0-0.4,0-0.5,0.1c-0.5,0.1-0.9,0.4-1.2,0.8s-0.4,0.8-0.4,1.2c0,0.5,0.2,1,0.6,1.4
				c0.2,0.2,0.4,0.4,0.7,0.5c0.3,0.1,0.6,0.2,1,0.2c0,0.2-0.1,0.4-0.2,0.5c-0.1,0.2-0.2,0.3-0.3,0.5l-0.1,0.2
				c-0.1,0.1-0.2,0.3-0.3,0.4c-0.2,0.2-0.3,0.5-0.4,0.8l0.3,0.2c0,0,0.1,0,0.2,0c0.1,0,0.1,0,0.2,0l0,0c0.1,0,0.3,0,0.4,0
				c0.1,0,0.2,0,0.4,0c0.1-0.1,0.3-0.4,0.6-0.9s0.6-1.1,0.9-1.8c0.1,0,0.2,0,0.4,0l0,0c0.3,0,0.7-0.1,1-0.3c0.3-0.2,0.6-0.4,0.8-0.7
				c0.3,0.3,0.6,0.6,0.9,0.8c0.3,0.2,0.7,0.2,1.1,0.2c0,0,0,0,0,0c0,0,0,0,0,0c0,0,0,0,0,0c0,0,0,0,0,0l0,0c0,0,0,0,0,0
				c0.6,0,1.1-0.2,1.6-0.5c0.5-0.3,0.8-0.7,1.1-1.1c0,0.1,0.1,0.3,0.1,0.5c0.1,0.4,0.2,0.7,0.3,1.1c0.1,0.4,0.4,0.6,0.6,0.6
				c0.3,0.1,0.6,0,0.8-0.3c0.1-0.1,0.2-0.2,0.2-0.3c0.1-0.1,0.2-0.3,0.3-0.4c0,0,0,0,0,0c0.2,0.2,0.4,0.4,0.6,0.5
				c0.2,0.1,0.5,0.2,1,0.2c0.4,0,0.8,0,1-0.2c0.3-0.1,0.4-0.3,0.6-0.6c0.2,0.1,0.4,0.2,0.6,0.3c0.2,0.1,0.5,0.1,0.7,0.1c0,0,0,0,0,0
				h0.2h1.7h0.2h1.9c0,0,0,0,0,0c0,0,0,0,0,0h0l0.4,0c0.5,0,1.2-0.1,1.9-0.3c0.6-0.2,1.1-0.4,1.5-0.8c0.4-0.3,0.7-0.7,0.9-1
				C642.6,12.2,642.6,11.7,642.5,11.3z M618.6,14c-0.4,0-0.6-0.2-0.8-0.4s-0.3-0.4-0.3-0.6c0-0.2,0-0.3,0-0.4c0-0.2,0-0.4,0.1-0.6
				c0.1-0.4,0.3-0.6,0.6-0.6c0.1,0,0.2,0.1,0.3,0.2c0.2,0.2,0.3,0.4,0.3,0.6s0.1,0.5,0.1,0.7C618.9,13.3,618.8,13.7,618.6,14z"/>
			<path class="st6" d="M639.7,15.3c-0.3,0-0.5,0.1-0.7,0.3c-0.2,0.2-0.3,0.4-0.3,0.7c0,0.3,0.1,0.5,0.3,0.7
				c0.2,0.2,0.4,0.3,0.7,0.3c0.3,0,0.5-0.1,0.7-0.3s0.3-0.4,0.3-0.7c0-0.3-0.1-0.5-0.3-0.7S640,15.3,639.7,15.3z"/>
		</g>
		<g>
			<g>
				<g>
					<g>
						<g>
							<path class="st37" d="M529.2,52.1h-30c-2.8,0-5-2-5-4.5l0,0c0-2.5,2.2-4.5,5-4.5h30c2.8,0,5,2,5,4.5l0,0
								C534.2,50,532,52.1,529.2,52.1z"/>
						</g>
					</g>
				</g>
				<g>
					<g>
						<g>
							<g>
								<g>
									<g>
										<path class="st6" d="M535,46c-0.3,0.1-0.5,0.3-0.5,0.7l-0.1-0.5c-0.1-0.3-0.4-0.5-0.7-0.4c-0.3,0.1-0.5,0.4-0.4,0.7
											l-0.1-0.4c-0.1-0.3-0.4-0.4-0.7-0.4c-0.3,0.1-0.5,0.4-0.4,0.7l-0.4-1.6c-0.1-0.3-0.4-0.4-0.7-0.3
											c-0.3,0.1-0.4,0.3-0.4,0.6l1.1,4.1l-0.8-1c-0.4-0.4-1-0.5-1.4-0.1l0,0c-0.1,0.1-0.1,0.2,0,0.2l1.8,2.2
											c0.7,0.9,1.9,1.2,2.9,1l0.8-0.2c1.1-0.3,1.7-1.4,1.4-2.5l-0.6-2.4C535.6,46.1,535.3,46,535,46z"/>
									</g>
									<g>
										<path class="st6" d="M532,46.2l0.4,1.7L532,46.2z"/>
									</g>
									<g>
										<path class="st6" d="M533.2,46.1l0.4,1.4L533.2,46.1z"/>
									</g>
									<g>
										<g>
											<path class="st6" d="M534.4,46.2l0.3,1.1L534.4,46.2z"/>
										</g>
										<path class="st38" d="M536.4,48.8l-0.6-2.4c-0.1-0.3-0.4-0.5-0.8-0.4c-0.2,0-0.4,0.2-0.5,0.3l0-0.1
											c-0.1-0.3-0.5-0.6-0.8-0.5c-0.2,0-0.3,0.2-0.4,0.3l0,0c-0.1-0.3-0.5-0.5-0.8-0.4c-0.2,0-0.3,0.2-0.4,0.3l-0.3-1.2
											c-0.1-0.3-0.5-0.5-0.8-0.4c-0.3,0.1-0.5,0.4-0.5,0.7l1,3.7l-0.6-0.7c-0.4-0.5-1.1-0.5-1.5-0.1c-0.1,0.1-0.1,0.3,0,0.4
											l1.8,2.2c0.4,0.5,0.9,0.8,1.5,1c0,0,0.1,0,0.1,0c0.5,0.1,1,0.1,1.4,0l0.8-0.2c0.5-0.1,1-0.5,1.3-1
											C536.5,49.9,536.6,49.3,536.4,48.8z M531.6,49.2c0,0,0.1-0.1,0-0.1l-1.1-4.1c0-0.2,0.1-0.5,0.4-0.5c0.2-0.1,0.5,0,0.6,0.3
											l0.8,3.1c0,0,0,0.1,0.1,0.1c0,0,0,0,0.1,0c0,0,0,0,0.1,0c0,0,0,0,0-0.1l-0.4-1.5c0-0.2,0.1-0.5,0.3-0.5
											c0.2-0.1,0.5,0.1,0.6,0.3l0.4,1.5c0,0,0,0.1,0.1,0.1c0,0,0,0,0,0c0,0,0,0,0.1,0c0,0,0,0,0-0.1l-0.3-1.1
											c-0.1-0.3,0.1-0.5,0.3-0.6c0.2-0.1,0.5,0.1,0.6,0.3l0.3,1.1c0,0,0,0.1,0.1,0.1c0,0,0,0,0.1,0c0,0,0,0,0.1,0c0,0,0,0,0-0.1
											l-0.2-0.6c0-0.3,0.1-0.5,0.4-0.6c0.2,0,0.5,0.1,0.5,0.3l0.6,2.4c0.1,0.5,0.1,1-0.2,1.5c-0.3,0.4-0.7,0.8-1.2,0.9l-0.8,0.2
											c-1,0.3-2.2-0.1-2.8-0.9l-1.8-2.2c0,0,0-0.1,0-0.1c0.2-0.2,0.5-0.3,0.8-0.2c0,0,0,0,0,0c0.2,0,0.3,0.1,0.4,0.3l0.8,1
											C531.5,49.2,531.6,49.2,531.6,49.2z"/>
									</g>
								</g>
							</g>
						</g>
					</g>
					<g>
						<path class="st6" d="M530.4,42.2C530.4,42.1,530.4,42.1,530.4,42.2c-0.1-0.1-0.1-0.1-0.1-0.1c0,0,0,0-0.1,0c0,0,0,0.1,0,0.1
							l0.4,1.3c0,0,0,0.1,0.1,0.1l0,0c0,0,0,0,0,0c0,0,0,0,0,0c0,0,0,0,0.1,0c0,0,0-0.1,0-0.1L530.4,42.2z"/>
						<path class="st6" d="M530.1,43.8l-1-1c0,0-0.1,0-0.1,0c0,0,0,0,0,0.1c0,0,0,0.1,0,0.1l1,1c0,0,0,0,0,0c0,0,0,0,0,0
							c0,0,0.1,0,0.1,0C530.2,44,530.2,43.9,530.1,43.8C530.2,43.9,530.2,43.8,530.1,43.8z"/>
						<path class="st6" d="M531.8,42C531.8,42,531.7,42,531.8,42c-0.1,0-0.1,0-0.1,0.1l-0.3,1.4c0,0.1,0,0.1,0.1,0.1l0,0
							c0,0,0,0,0,0c0.1,0,0.1,0,0.1-0.1l0.3-1.4C531.9,42.1,531.9,42.1,531.8,42C531.8,42.1,531.8,42.1,531.8,42z"/>
						<path class="st6" d="M533,42.9C533,42.9,533,42.9,533,42.9c-0.1-0.1-0.1-0.1-0.2-0.1l-1,1c0,0,0,0,0,0.1c0,0,0,0.1,0,0.1
							c0,0,0,0,0,0l0,0c0,0,0,0,0,0c0,0,0.1,0,0.1,0L533,42.9C533,43,533,42.9,533,42.9z"/>
						<path class="st6" d="M529.8,44.5l-1.4-0.3c-0.1,0-0.1,0-0.1,0.1c0,0.1,0,0.1,0.1,0.1l1.4,0.3c0,0,0,0,0,0c0,0,0.1,0,0.1,0
							c0,0,0,0,0-0.1C529.9,44.5,529.9,44.5,529.8,44.5z"/>
					</g>
				</g>
			</g>
			<g>
				<path class="st39" d="M502.8,50.1c-0.1,0-0.2,0-0.3,0.1s-0.1,0.2-0.1,0.3c0,0.1,0,0.2,0.1,0.3s0.2,0.1,0.3,0.1
					c0.1,0,0.2,0,0.3-0.1c0.1-0.1,0.1-0.2,0.1-0.3c0-0.1,0-0.2-0.1-0.3C503,50.2,502.9,50.1,502.8,50.1z"/>
				<path class="st39" d="M501.7,50.1c-0.1,0-0.2,0-0.3,0.1c-0.1,0.1-0.1,0.2-0.1,0.3c0,0.1,0,0.2,0.1,0.3c0.1,0.1,0.2,0.1,0.3,0.1
					c0.1,0,0.2,0,0.3-0.1c0.1-0.1,0.1-0.2,0.1-0.3c0-0.1,0-0.2-0.1-0.3C501.9,50.2,501.8,50.1,501.7,50.1z"/>
				<path class="st39" d="M505,46.2c0.1,0,0.2,0,0.3-0.1c0.1-0.1,0.1-0.2,0.1-0.3c0-0.1,0-0.2-0.1-0.3s-0.2-0.1-0.3-0.1
					c-0.1,0-0.2,0-0.3,0.1s-0.1,0.2-0.1,0.3c0,0.1,0,0.2,0.1,0.3C504.8,46.2,504.9,46.2,505,46.2z"/>
				<path class="st39" d="M510.5,44.3l-2.6,1.3l0,0.7c0.1,0,0.1,0.1,0.3,0.2s0.2,0.2,0.3,0.3c0.1,0.1,0.2,0.3,0.4,0.4
					c0.1,0.1,0.2,0.3,0.3,0.4c0.1,0.1,0.2,0.3,0.3,0.4c0.1,0.1,0.1,0.2,0.1,0.3c0,0.1,0,0.1-0.1,0.1c0,0-0.1,0.1-0.1,0.1
					s-0.1,0-0.2,0c-0.1,0-0.1,0-0.1,0l-1.6,0c0,0,0,0,0,0l-1.2,0v0l-0.2,0c0,0,0,0-0.1,0c0,0-0.1,0-0.1,0c0,0-0.1,0-0.1,0
					c0,0-0.1,0-0.1-0.1c0,0-0.1-0.1-0.1-0.1c0,0,0-0.1,0-0.2l0-1l-0.6,0l0,1.1c0,0,0,0.1,0,0.1c0,0,0,0.1-0.1,0.1
					c0,0-0.1,0.1-0.2,0.1c-0.1,0-0.2,0-0.3,0l-0.4,0v0l-0.5,0c0,0,0,0-0.1,0s-0.1,0-0.1,0s-0.1,0-0.1,0c0,0-0.1,0-0.1-0.1
					c0,0-0.1-0.1-0.1-0.1s0-0.1,0-0.2l0-1l-0.6,0l0,1.1c0,0,0,0.1,0,0.1s0,0.1-0.1,0.1c0,0-0.1,0.1-0.2,0.1c-0.1,0-0.2,0-0.3,0
					l-0.9,0v0l0,0l0,0c-0.1,0-0.1,0-0.2-0.1c-0.1-0.1-0.2-0.1-0.2-0.2c-0.1-0.1-0.1-0.2-0.2-0.3c-0.1-0.1-0.1-0.2-0.2-0.3
					c-0.1-0.2-0.2-0.4-0.4-0.6c-0.1-0.2-0.2-0.3-0.3-0.5s-0.1-0.2-0.2-0.3l-0.1-0.1L499,46l-0.5,0.4l0.2,0.3l0,0c0,0,0,0,0,0.1
					c0,0.1,0.1,0.2,0.2,0.3s0.2,0.3,0.3,0.5c0.1,0.2,0.3,0.4,0.4,0.7c0.1,0.1,0.1,0.2,0.1,0.2l0,0c0,0.1,0,0.1-0.1,0.2
					c-0.1,0-0.1,0.1-0.3,0.1c-0.1,0-0.2,0-0.4,0c-0.1,0-0.2,0-0.2,0c-0.1,0-0.1,0-0.2,0c-0.1,0-0.1,0-0.2,0c-0.1,0-0.1,0-0.2-0.1
					l-0.3-0.2l-0.3,0.6l0.3,0.2c0.1,0,0.1,0.1,0.2,0.1c0.1,0,0.1,0.1,0.2,0.1c0.1,0,0.1,0,0.2,0c0.1,0,0.1,0,0.2,0
					c0.1,0,0.2,0,0.3,0c0.1,0,0.2,0,0.2,0c0.1,0,0.1,0,0.2,0c0.2,0,0.4-0.1,0.5-0.2c0.1-0.1,0.2-0.1,0.2-0.2
					c0.2,0.2,0.5,0.3,0.7,0.4l0,0l0,0c0,0,0,0,0,0l0,0l1,0c0.2,0,0.4,0,0.5-0.1c0.1-0.1,0.3-0.1,0.4-0.2c0.1,0.1,0.2,0.2,0.3,0.2
					c0.1,0,0.3,0.1,0.5,0.1l0.3,0v0l0.5,0c0.2,0,0.4,0,0.5-0.1c0.1-0.1,0.3-0.1,0.4-0.2c0.1,0.1,0.2,0.2,0.3,0.2
					c0.1,0,0.3,0.1,0.5,0.1l0.2,0c0,0,0,0,0,0l1.1,0v0l1.7,0c0.2,0,0.3,0,0.4-0.1c0.1,0,0.2-0.1,0.3-0.1c0.1-0.1,0.1-0.1,0.2-0.2
					c0-0.1,0.1-0.1,0.1-0.2c0,0,0-0.1,0-0.2c0-0.1,0-0.1,0-0.2c0-0.1,0-0.1,0-0.2s0-0.2-0.1-0.2c0-0.1-0.1-0.2-0.2-0.3
					c-0.1-0.1-0.1-0.2-0.2-0.4c-0.1-0.1-0.2-0.2-0.3-0.4c-0.1-0.1-0.2-0.2-0.3-0.3c-0.1-0.1-0.2-0.2-0.3-0.3s-0.2-0.2-0.2-0.3
					l2.2-1.1L510.5,44.3z"/>
				<path class="st39" d="M519.6,50c-0.1,0-0.2,0-0.3,0.1s-0.1,0.2-0.1,0.3c0,0.1,0,0.2,0.1,0.3s0.2,0.1,0.3,0.1
					c0.1,0,0.2,0,0.3-0.1s0.1-0.2,0.1-0.3c0-0.1,0-0.2-0.1-0.3S519.7,50,519.6,50z"/>
				<path class="st39" d="M518.5,50c-0.1,0-0.2,0-0.3,0.1c-0.1,0.1-0.1,0.2-0.1,0.3c0,0.1,0,0.2,0.1,0.3c0.1,0.1,0.2,0.1,0.3,0.1
					c0.1,0,0.2,0,0.3-0.1c0.1-0.1,0.1-0.2,0.1-0.3c0-0.1,0-0.2-0.1-0.3C518.7,50.1,518.6,50,518.5,50z"/>
				<path class="st39" d="M526.4,47.8c0-0.1-0.1-0.2-0.2-0.3c-0.1-0.1-0.1-0.2-0.2-0.4c-0.1-0.1-0.2-0.2-0.3-0.4
					c-0.1-0.1-0.2-0.2-0.3-0.3s-0.2-0.2-0.3-0.3c-0.1-0.1-0.2-0.2-0.2-0.3l2.2-1.1l-0.2-0.6l-2.6,1.3l0,0.7c0.1,0,0.1,0.1,0.3,0.2
					c0.1,0.1,0.2,0.2,0.3,0.3c0.1,0.1,0.2,0.3,0.4,0.4c0.1,0.1,0.2,0.3,0.3,0.4c0.1,0.1,0.2,0.3,0.3,0.4c0.1,0.1,0.1,0.2,0.1,0.3
					c0,0.1,0,0.1-0.1,0.1c0,0-0.1,0.1-0.1,0.1s-0.1,0-0.2,0c-0.1,0-0.1,0-0.1,0l-1.6,0c0,0,0,0,0,0l-1.2,0v0l-0.1,0
					c-0.1,0-0.1,0-0.2-0.1c-0.1,0-0.1-0.1-0.1-0.1s-0.1-0.1-0.1-0.2c0-0.1,0-0.1,0-0.2l0-3.3l-0.6,0l0,3.3c0,0.1,0,0.1,0,0.2
					c0,0.1,0,0.1-0.1,0.2c0,0.1-0.1,0.1-0.2,0.1c-0.1,0-0.3,0.1-0.5,0.1l-0.3,0c0,0,0,0-0.1,0c0,0-0.1,0-0.1,0s-0.1,0-0.1,0
					c0,0-0.1,0-0.1-0.1s-0.1-0.1-0.1-0.1c0,0,0-0.1,0-0.2l0-1l-0.6,0l0,1.1c0,0,0,0.1,0,0.1c0,0,0,0.1-0.1,0.1c0,0-0.1,0.1-0.2,0.1
					c-0.1,0-0.2,0-0.3,0l-0.9,0v0l0,0l0,0c-0.1,0-0.2,0-0.3,0c-0.1,0-0.1,0-0.2-0.1c-0.1,0-0.1-0.1-0.2-0.1
					c-0.1-0.1-0.1-0.1-0.2-0.2c-0.1-0.1-0.1-0.2-0.2-0.3c-0.1-0.1-0.2-0.3-0.3-0.4c-0.1-0.2-0.3-0.4-0.3-0.5
					c-0.1-0.1-0.2-0.3-0.2-0.4c-0.1-0.1-0.1-0.2-0.2-0.3s-0.1-0.2-0.2-0.3l2.3-1.2l-0.3-0.6l-2.6,1.4l-0.1,0.5
					c0.1,0.1,0.2,0.2,0.3,0.4c0.1,0.1,0.2,0.3,0.3,0.4c0.1,0.2,0.3,0.4,0.4,0.6c0.1,0.1,0.1,0.2,0.2,0.3c0,0.1,0.1,0.2,0.1,0.3
					c0,0,0,0.1,0,0.1c0,0,0,0.1,0,0.1c0,0-0.1,0.1-0.1,0.1c-0.1,0-0.1,0.1-0.2,0.1c-0.1,0-0.2,0.1-0.2,0.1c-0.1,0-0.2,0-0.3,0
					l-2.2,0c0,0-0.1,0-0.1,0c0,0-0.1,0-0.1-0.1c0,0-0.1-0.1-0.1-0.2c0-0.1-0.1-0.2-0.1-0.3c0-0.1,0-0.1,0-0.2c0-0.1,0-0.2,0-0.3
					c0-0.1,0-0.2,0.1-0.3c0-0.1,0-0.1,0-0.2l-0.3-0.1l-0.3-0.1c0,0,0,0.1,0,0.2c0,0.1,0,0.2-0.1,0.3c0,0.1,0,0.2-0.1,0.4
					c0,0.1,0,0.2,0,0.3c0,0.1,0,0.2,0,0.3c0,0.1,0,0.2,0.1,0.3s0.1,0.1,0.1,0.2c0,0.1,0.1,0.1,0.1,0.1c0.1,0.1,0.2,0.2,0.3,0.2
					s0.3,0.1,0.4,0.1l2.2,0c0.2,0,0.3,0,0.4,0c0.1,0,0.3-0.1,0.4-0.1c0.1-0.1,0.2-0.1,0.3-0.2c0.1-0.1,0.2-0.2,0.2-0.3
					c0.1,0.1,0.2,0.2,0.3,0.3c0.1,0.1,0.2,0.2,0.3,0.2c0.1,0.1,0.2,0.1,0.3,0.1c0.1,0,0.2,0,0.4,0l0,0l0,0c0,0,0,0,0,0l0,0l0.9,0
					c0.2,0,0.4,0,0.5-0.1c0.1-0.1,0.3-0.1,0.4-0.2c0.1,0.1,0.2,0.2,0.3,0.2c0.1,0,0.3,0.1,0.5,0.1l0.3,0v0c0,0,0,0,0,0l0.1,0l0,0
					c0.1,0,0.2,0,0.2,0c0.1,0,0.2,0,0.3-0.1c0.1,0,0.2-0.1,0.2-0.1c0.1,0,0.1-0.1,0.2-0.2c0.1,0.1,0.1,0.1,0.2,0.2s0.1,0.1,0.2,0.1
					c0.1,0,0.1,0.1,0.2,0.1c0.1,0,0.2,0,0.2,0l0,0c0,0,0,0,0,0l1.1,0v0l1.7,0c0.2,0,0.3,0,0.4-0.1c0.1,0,0.2-0.1,0.3-0.1
					s0.1-0.1,0.2-0.2c0-0.1,0.1-0.1,0.1-0.2c0,0,0-0.1,0-0.2c0-0.1,0-0.1,0-0.2c0-0.1,0-0.1,0-0.2S526.4,47.9,526.4,47.8z"/>
			</g>
		</g>
		<g>
			<g class="st40">
				<g>
					<g>
						<g>
							<path class="st41" d="M583.7,51.3h-36.3c-3,0-5.4-2.3-5.4-5.1l0,0c0-2.8,2.4-5.1,5.4-5.1h36.3c3,0,5.4,2.3,5.4,5.1l0,0
								C589.1,49,586.7,51.3,583.7,51.3z"/>
						</g>
					</g>
				</g>
			</g>
			<g>
				<path class="st6" d="M552.9,45l-1.1,0.3c0,0.1,0,0.2,0.1,0.4l0,0.1l0,0.1c0,0.1,0,0.1,0,0.1c0,0.1,0,0.2,0.1,0.4
					c0,0,0,0.1,0,0.1c0,0.1,0,0.2-0.1,0.3c-0.1,0.1-0.2,0.1-0.4,0.1l-0.7,0l0,0l-2.3,0l0,1c0.6,0.1,1,0.3,1.3,0.4
					c0,0.1,0,0.1-0.1,0.2c-0.2,0.1-0.5,0.2-1,0.2l-0.9,0c-0.4,0-0.7-0.2-0.9-0.5c-0.1-0.1-0.1-0.2-0.1-0.4c0-0.1,0-0.1,0-0.2
					c0,0,0-0.1,0-0.1c0-0.4,0.1-0.9,0.4-1.5l-1-0.5c-0.1,0.2-0.2,0.4-0.3,0.6c-0.2,0.5-0.2,0.9-0.2,1.4c0,0.6,0.2,1.1,0.5,1.5
					c0.4,0.5,1,0.8,1.7,0.8l0.9,0c0.9,0,1.5-0.2,1.9-0.7c0.1-0.1,0.2-0.3,0.3-0.5c0-0.1,0-0.1,0-0.2c0-0.1,0-0.1,0-0.2
					c0-0.1,0-0.3-0.1-0.3l0.5,0l0.2,0c0,0,0,0,0,0l0.1,0l0,0c0.6,0,1-0.2,1.3-0.6c0.2-0.2,0.3-0.5,0.3-0.8c0-0.1,0-0.2,0-0.3
					C553.1,45.7,553,45.3,552.9,45z"/>
				<path class="st6" d="M551.9,44.3c0.2,0,0.3-0.1,0.4-0.2s0.2-0.3,0.2-0.4c0-0.2-0.1-0.3-0.2-0.4c-0.1-0.1-0.3-0.2-0.4-0.2
					s-0.3,0.1-0.4,0.2s-0.2,0.3-0.2,0.4c0,0.2,0.1,0.3,0.2,0.4C551.6,44.2,551.7,44.3,551.9,44.3z"/>
				<path class="st6" d="M558,44.9l-1.1,0.3c0,0.1,0,0.2,0.1,0.4l0,0.1l0,0.1c0,0.1,0,0.1,0,0.1c0,0.1,0,0.2,0.1,0.4
					c0,0,0,0.1,0,0.1c0,0.1,0,0.2-0.1,0.3c-0.1,0.1-0.2,0.1-0.4,0.1l-1.1,0v0l-0.3,0c-0.1,0-0.2,0-0.3-0.1c-0.1-0.1-0.1-0.1-0.1-0.3
					l0-3.5l-1.1,0l0,3.5c0,0.3,0,0.5,0.1,0.7c0.1,0.2,0.2,0.3,0.3,0.4c0.1,0.1,0.2,0.2,0.4,0.3c0.2,0.1,0.4,0.1,0.7,0.1l0.1,0v0
					l1.3,0c0.6,0,1.1-0.2,1.4-0.6c0.2-0.2,0.3-0.5,0.3-0.8c0-0.1,0-0.2,0-0.3C558.1,45.7,558.1,45.3,558,44.9z"/>
				<path class="st6" d="M557.5,48.6c-0.2,0-0.3,0.1-0.4,0.2c-0.1,0.1-0.2,0.3-0.2,0.4c0,0.2,0.1,0.3,0.2,0.4s0.3,0.2,0.4,0.2
					c0.2,0,0.3-0.1,0.4-0.2s0.2-0.3,0.2-0.4c0-0.2-0.1-0.3-0.2-0.4S557.6,48.6,557.5,48.6z"/>
				<path class="st6" d="M556,48.6c-0.2,0-0.3,0.1-0.4,0.2s-0.2,0.3-0.2,0.4c0,0.2,0.1,0.3,0.2,0.4s0.3,0.2,0.4,0.2
					c0.2,0,0.3-0.1,0.4-0.2c0.1-0.1,0.2-0.3,0.2-0.4c0-0.2-0.1-0.3-0.2-0.4C556.3,48.6,556.2,48.6,556,48.6z"/>
				<path class="st6" d="M561.8,49.1c0-0.2-0.1-0.3-0.2-0.4c-0.1-0.1-0.3-0.2-0.4-0.2c-0.2,0-0.3,0.1-0.4,0.2
					c-0.1,0.1-0.2,0.3-0.2,0.4c0,0.2,0.1,0.3,0.2,0.4c0.1,0.1,0.3,0.2,0.4,0.2c0.2,0,0.3-0.1,0.4-0.2
					C561.7,49.4,561.8,49.2,561.8,49.1z"/>
				<path class="st6" d="M562.7,48.5c-0.2,0-0.3,0.1-0.4,0.2c-0.1,0.1-0.2,0.3-0.2,0.4c0,0.2,0.1,0.3,0.2,0.4
					c0.1,0.1,0.3,0.2,0.4,0.2c0.2,0,0.3-0.1,0.4-0.2c0.1-0.1,0.2-0.3,0.2-0.4c0-0.2-0.1-0.3-0.2-0.4C563,48.5,562.8,48.5,562.7,48.5
					z"/>
				<path class="st6" d="M561.9,49.5c-0.1,0-0.3,0.1-0.4,0.2c-0.1,0.1-0.2,0.2-0.2,0.4s0.1,0.3,0.2,0.4c0.1,0.1,0.2,0.2,0.4,0.2
					s0.3-0.1,0.4-0.2s0.2-0.2,0.2-0.4s-0.1-0.3-0.2-0.4C562.2,49.6,562.1,49.5,561.9,49.5z"/>
				<path class="st6" d="M563.1,44.9l-1.1,0.3c0,0.1,0,0.2,0.1,0.4l0,0.1l0,0.1c0,0.1,0,0.1,0,0.1c0,0.1,0,0.2,0.1,0.4
					c0,0,0,0.1,0,0.1c0,0.1,0,0.2-0.1,0.3c-0.1,0.1-0.2,0.1-0.4,0.1l-1.1,0v0l-0.3,0c-0.1,0-0.2,0-0.3-0.1c-0.1-0.1-0.1-0.1-0.1-0.3
					l0-3.5l-1.1,0l0,3.5c0,0.3,0,0.5,0.1,0.7c0.1,0.2,0.2,0.3,0.3,0.4c0.1,0.1,0.2,0.2,0.4,0.3c0.2,0.1,0.4,0.1,0.7,0.1l0.1,0v0
					l1.3,0c0.6,0,1.1-0.2,1.4-0.6c0.2-0.3,0.3-0.5,0.3-0.8c0-0.1,0-0.2,0-0.3C563.2,45.6,563.2,45.2,563.1,44.9z"/>
				<path class="st6" d="M568.1,45.1c0.2,0,0.3-0.1,0.4-0.2s0.2-0.3,0.2-0.4c0-0.2-0.1-0.3-0.2-0.4c-0.1-0.1-0.3-0.2-0.4-0.2
					c-0.2,0-0.3,0.1-0.4,0.2c-0.1,0.1-0.2,0.3-0.2,0.4c0,0.2,0.1,0.3,0.2,0.4C567.8,45.1,568,45.1,568.1,45.1z"/>
				<path class="st6" d="M569.6,45.1c0.2,0,0.3-0.1,0.4-0.2s0.2-0.3,0.2-0.4c0-0.2-0.1-0.3-0.2-0.4s-0.3-0.2-0.4-0.2
					c-0.2,0-0.3,0.1-0.4,0.2c-0.1,0.1-0.2,0.3-0.2,0.4c0,0.2,0.1,0.3,0.2,0.4S569.4,45.1,569.6,45.1z"/>
				<path class="st6" d="M571.9,45.1l-1.1,0.3c0,0.1,0,0.1,0,0.2l0,0.1l0,0.1c0,0.1,0,0.1,0,0.1c0,0.1,0,0.2,0.1,0.4
					c0,0,0,0.1,0,0.1c0,0.1,0,0.2-0.1,0.3c-0.1,0.1-0.2,0.1-0.4,0.1l-3.7,0c-0.1,0-0.1,0-0.1-0.1c0,0,0-0.1,0-0.1c0,0,0,0,0-0.1
					c0-0.3,0.1-0.6,0.2-1l-1.1-0.3c0,0,0,0,0,0c0,0,0,0.1,0,0.1c0,0.1,0,0.2-0.1,0.3c-0.1,0.3-0.1,0.5-0.1,0.6c0,0.1,0,0.2,0,0.3
					c0,0.1,0,0.2,0,0.3c0,0.2,0.1,0.4,0.2,0.6c0.2,0.3,0.5,0.5,0.8,0.5c0.2,0,0.6,0,1.2,0l2.7,0c0.6,0,1.1-0.2,1.4-0.6
					c0.2-0.2,0.3-0.5,0.3-0.8c0-0.1,0-0.2,0-0.3C572,45.7,571.9,45.4,571.9,45.1z"/>
				<path class="st6" d="M576.2,45.5L576.2,45.5c0.3,0,0.6,0.2,1,0.4l0.6-1l-0.1,0c-0.3-0.2-0.5-0.3-0.7-0.3
					c-0.3-0.1-0.5-0.1-0.8-0.1c-0.6,0-1,0.2-1.3,0.5c-0.3,0.3-0.4,0.7-0.4,1.1c0,0.2,0,0.4,0.1,0.6l-0.6,0v0l-0.1,0
					c-0.1,0-0.2,0-0.3-0.1c-0.1-0.1-0.1-0.1-0.1-0.3l0-3.5l-1.1,0l0,3.5c0,0.3,0,0.5,0.1,0.7c0.1,0.2,0.2,0.3,0.3,0.4
					c0.1,0.1,0.2,0.2,0.4,0.3c0.2,0.1,0.4,0.1,0.7,0.1l0.3,0v0l3.4,0l0-1.1l-0.7,0c-0.4,0-0.7-0.1-0.9-0.2c-0.2-0.1-0.4-0.3-0.4-0.5
					c0-0.1,0-0.3,0.1-0.3C575.9,45.5,576,45.5,576.2,45.5z"/>
				<path class="st6" d="M585.9,45.9c-0.1-0.4-0.2-0.8-0.3-1.1l-1.1,0.3c0,0.2,0.1,0.5,0.3,1.1c0,0,0,0.1,0,0.1
					c0,0.2-0.1,0.3-0.4,0.3c-0.2,0-0.3,0-0.3-0.1c-0.1-0.1-0.1-0.2-0.1-0.3l0-0.8l-1.1,0l0,0.8c0,0.2,0,0.3-0.1,0.3
					c-0.1,0-0.2,0.1-0.3,0.1c-0.1,0-0.2,0-0.3-0.1c-0.1-0.1-0.1-0.2-0.1-0.3l0-0.8l-1.1,0l0,0.8c0,0.1,0,0.2-0.1,0.3
					c-0.1,0.1-0.2,0.1-0.3,0.1l-0.7,0v0l-0.1,0c-0.1,0-0.2,0-0.3-0.1c-0.1-0.1-0.1-0.1-0.1-0.3l0-3.5l-1.1,0l0,3.5
					c0,0.3,0,0.5,0.1,0.7c0.1,0.2,0.2,0.3,0.3,0.4c0.1,0.1,0.2,0.2,0.4,0.3c0.2,0.1,0.4,0.1,0.7,0.1l0.3,0v0l0.5,0
					c0.5,0,0.8-0.1,1-0.3c0.3,0.2,0.6,0.3,1,0.3c0.3,0,0.7-0.1,0.9-0.3c0.1,0.1,0.2,0.2,0.4,0.2c0.2,0.1,0.4,0.1,0.7,0.1
					c0.5,0,0.9-0.2,1.2-0.6c0.1-0.2,0.2-0.4,0.2-0.6c0-0.1,0-0.2,0-0.3C585.9,46.1,585.9,46,585.9,45.9z"/>
			</g>
		</g>
	</g>
	<g>
		<g>
			<path class="st42" d="M527.1,17.4c0.2-0.1,0.4-0.2,0.6-0.3c0.9-0.3,2-0.5,3.1-0.5l0.1,0c1.2,0,2.3,0.2,3.3,0.6
				c0.5,0.2,0.9,0.4,1.3,0.7c-0.1-0.2-0.3-0.4-0.5-0.6c-0.7-0.8-1.6-1.4-2.6-1.9c-1-0.4-2.1-0.6-3.3-0.6l-0.1,0
				c-0.7,0-1.3,0.1-1.9,0.2V17.4z"/>
			<path class="st42" d="M489.1,34.8V21.6c0-0.7,0.2-1.4,0.7-2c-0.5-0.6-0.7-1.2-0.7-2v-3.8c0-1.7,1.4-3.1,3.2-3.1h31.7
				c0.4,0,0.8,0.1,1.1,0.2c-0.5-1.2-1.6-2-3-2h-31.7c-1.8,0-3.2,1.4-3.2,3.1v3.8c0,0.7,0.2,1.4,0.7,2c-0.5,0.6-0.7,1.3-0.7,2V33
				c0,1.4,0.9,2.5,2.1,3C489.2,35.6,489.1,35.2,489.1,34.8z"/>
		</g>
		<path class="st43" d="M539.5,34.8c0,0-0.1-0.2-0.2-0.9c-0.1-0.6-0.2-1.3-0.3-2.2c-0.1-0.9-0.2-1.9-0.2-3.1
			c-0.1-1.2-0.1-2.5-0.1-3.9c0-1-0.2-2-0.5-2.9c-0.3-1-0.8-1.9-1.5-2.7c-0.7-0.8-1.6-1.4-2.6-1.9c-1-0.4-2.1-0.6-3.3-0.6l-0.1,0
			c-1.1,0-2.1,0.2-3.1,0.5c-0.2,0.1-0.4,0.2-0.6,0.3l0-3.5c0-1.7-1.4-3.1-3.2-3.1h-31.7c-1.8,0-3.2,1.4-3.2,3.1v3.8
			c0,0.7,0.2,1.4,0.7,2c-0.5,0.6-0.7,1.3-0.7,2v13.2c0,1.8,1.5,3.2,3.3,3.2h17.9l1.6,1.2c0.5,0.4,1.1,0.6,1.8,0.6l0.1,0l0.1,0
			c0.8,0,1.6-0.4,2.1-1c0.2-0.3,0.5-0.5,0.7-0.9h4.7c0.2,0.3,0.5,0.6,0.7,0.8c0.6,0.6,1.4,1,2.2,1c0.7,0,1.3-0.2,1.8-0.6l1.6-1.2
			h2.8c0.2,0,0.4,0,0.6,0l0,0c0.5,1.1,1.5,1.8,2.8,1.8c0.3,0,0.7-0.1,1-0.2l2.9-1c0.8-0.3,1.4-0.9,1.7-1.6
			C539.8,36.3,539.8,35.5,539.5,34.8z"/>
		<g>
			<g>
				<g>
					<path class="st44" d="M524.1,18.9h-32.3c-0.8,0-1.4-0.6-1.4-1.4v-3.8c0-0.8,0.6-1.4,1.4-1.4h32.3c0.8,0,1.4,0.6,1.4,1.4v3.8
						C525.5,18.3,524.9,18.9,524.1,18.9z"/>
					<g>
						<path class="st45" d="M530.8,36.5h-38.9c-0.8,0-1.5-0.7-1.5-1.5V21.6c0-0.8,0.7-1.5,1.5-1.5h38.9c3.5,0,6.3,2.8,6.3,6.3v3.8
							C537.2,33.6,534.3,36.5,530.8,36.5z"/>
						<g>
							<path class="st6" d="M494,27.4c0.2-0.1,0.4-0.2,0.6-0.4c0.2-0.2,0.3-0.3,0.4-0.6c0.1-0.2,0.1-0.5,0.1-0.8v-1.9h-0.6v1.9
								c0,0.2,0,0.4-0.1,0.6c0,0.2-0.1,0.3-0.2,0.4c-0.1,0.1-0.2,0.2-0.4,0.2c-0.2,0-0.3,0.1-0.6,0.1h-0.4v0.6h0.4
								C493.5,27.5,493.8,27.5,494,27.4z"/>
							<rect x="495.9" y="21.6" class="st6" width="0.6" height="4.3"/>
							<path class="st6" d="M498.2,23.1c0.1,0,0.3,0,0.3-0.1c0.1-0.1,0.1-0.2,0.1-0.3c0-0.1,0-0.2-0.1-0.3c-0.1-0.1-0.2-0.1-0.3-0.1
								c-0.1,0-0.3,0-0.3,0.1c-0.1,0.1-0.1,0.2-0.1,0.3c0,0.1,0,0.2,0.1,0.3S498.1,23.1,498.2,23.1z"/>
							<path class="st6" d="M498.4,26.5c0.1-0.2,0.1-0.5,0.1-0.7c0.2,0.1,0.4,0.1,0.6,0.1h0h0.1h1.2h0.1h1.2h0.1h1.2h0.1h1.2h0.1
								h0.4c0.3,0,0.6,0,0.9,0c0.3,0,0.5-0.1,0.7-0.1c0,0,0.1,0,0.1,0c0,0,0.1,0,0.1,0c0,0,0.1,0,0.1,0.1c0.2,0.1,0.3,0.1,0.5,0.2
								s0.3,0.1,0.4,0.1c0.2,0,0.3,0,0.4-0.1c0.1,0,0.2-0.1,0.4-0.2c0.1-0.1,0.2-0.1,0.3-0.2c0.1-0.1,0.1-0.2,0.2-0.3
								c0-0.1,0.1-0.2,0.1-0.2c0-0.1,0-0.1,0-0.1c0-0.1,0-0.1,0-0.2c0-0.1,0-0.2-0.1-0.2c0-0.1-0.1-0.2-0.1-0.3c0,0-0.1-0.1-0.1-0.2
								c-0.1-0.1-0.1-0.1-0.2-0.2c-0.1-0.1-0.2-0.2-0.2-0.2c-0.1-0.1-0.2-0.2-0.3-0.3c-0.2-0.2-0.4-0.4-0.6-0.6l-0.4,0.4
								c0.1,0.1,0.3,0.2,0.4,0.4c0.1,0.1,0.3,0.3,0.4,0.4c0.1,0.1,0.2,0.2,0.3,0.4c0.1,0.1,0.2,0.2,0.3,0.3c0.1,0.1,0.1,0.2,0.1,0.3
								c0,0.1,0,0.1,0,0.1c0,0.1,0,0.1,0,0.2c0,0.1-0.1,0.1-0.1,0.2c0,0-0.1,0.1-0.2,0.1c-0.1,0-0.1,0-0.2,0c-0.1,0-0.1,0-0.2,0
								c-0.1,0-0.2,0-0.3,0c-0.1,0-0.2,0-0.3-0.1c0.2-0.1,0.3-0.3,0.4-0.4c0.1-0.2,0.1-0.3,0.1-0.6c0-0.1,0-0.1,0-0.2
								c0-0.1-0.1-0.2-0.1-0.2c0-0.1-0.1-0.2-0.2-0.2c-0.1-0.1-0.1-0.1-0.2-0.2c-0.1-0.1-0.2-0.1-0.3-0.1c-0.1,0-0.2-0.1-0.3-0.1
								c-0.2,0-0.3,0-0.5,0.1c-0.1,0.1-0.3,0.1-0.4,0.2c-0.1,0.1-0.2,0.2-0.2,0.3c-0.1,0.1-0.1,0.3-0.1,0.4c0,0.2,0,0.4,0.1,0.5
								c0.1,0.2,0.2,0.3,0.3,0.4c-0.1,0-0.2,0-0.4,0c-0.1,0-0.3,0-0.4,0h-0.4h-0.1h-1.2H503h-1.2h-0.1h-1.2h-0.1h-1.2h-0.1h0
								c0,0-0.1,0-0.1,0c-0.1,0-0.1,0-0.2-0.1c-0.1,0-0.1-0.1-0.2-0.1c0-0.1-0.1-0.1-0.1-0.3v-1h-0.6v1.9c0,0.2,0,0.4-0.1,0.6
								c0,0.2-0.1,0.3-0.2,0.4c-0.1,0.1-0.2,0.2-0.4,0.2c-0.2,0-0.3,0.1-0.6,0.1h-0.4v0.6h0.4c0.3,0,0.6,0,0.8-0.1
								c0.2-0.1,0.4-0.2,0.6-0.3C498.2,26.9,498.3,26.7,498.4,26.5z M505.8,24.1c0-0.1,0.1-0.1,0.1-0.2c0.1,0,0.1-0.1,0.2-0.1
								c0.1,0,0.2,0,0.2,0c0,0,0.1,0,0.2,0c0.1,0,0.1,0,0.2,0.1c0.1,0,0.1,0.1,0.2,0.2c0,0.1,0.1,0.2,0.1,0.3c0,0.1,0,0.2,0,0.2
								c0,0.1-0.1,0.1-0.1,0.2c0,0.1-0.1,0.1-0.2,0.2c-0.1,0-0.1,0.1-0.2,0.1c-0.1-0.1-0.2-0.1-0.3-0.2c-0.1-0.1-0.1-0.1-0.2-0.2
								c-0.1-0.1-0.1-0.1-0.1-0.2c0-0.1,0-0.1,0-0.2C505.7,24.3,505.7,24.2,505.8,24.1z"/>
							<path class="st6" d="M496.4,33.1c0,0.2,0,0.3,0,0.4c0,0.1-0.1,0.2-0.2,0.3c-0.1,0.1-0.2,0.2-0.4,0.2c-0.2,0-0.4,0.1-0.6,0.1
								h-0.7c-0.2,0-0.4,0-0.6-0.1c-0.2-0.1-0.3-0.2-0.4-0.4c-0.1-0.1-0.1-0.3-0.2-0.4c0-0.1,0-0.3,0-0.4c0-0.1,0-0.1,0-0.2
								c0-0.2,0.1-0.4,0.1-0.6c0.1-0.2,0.2-0.4,0.3-0.7l-0.5-0.2c-0.1,0.3-0.2,0.5-0.3,0.8c-0.1,0.3-0.1,0.5-0.1,0.6
								c0,0.1,0,0.2,0,0.3c0,0.2,0,0.3,0.1,0.5c0,0.2,0.1,0.4,0.2,0.6c0.2,0.2,0.4,0.4,0.6,0.6c0.3,0.1,0.6,0.2,0.9,0.2h0.7
								c0.6,0,1-0.1,1.3-0.4c0.3-0.3,0.4-0.7,0.4-1.2V31h-0.6V33.1z"/>
							<path class="st6" d="M494.7,30.4c-0.1,0.1-0.1,0.2-0.1,0.3c0,0.1,0,0.2,0.1,0.3c0.1,0.1,0.2,0.1,0.3,0.1c0.1,0,0.3,0,0.3-0.1
								c0.1-0.1,0.1-0.2,0.1-0.3c0-0.1,0-0.2-0.1-0.3c-0.1-0.1-0.2-0.1-0.3-0.1C494.9,30.3,494.8,30.3,494.7,30.4z"/>
							<path class="st6" d="M501.9,30.9c-0.1-0.1-0.2-0.2-0.4-0.3c-0.2-0.1-0.3-0.1-0.5-0.1c-0.2,0-0.3,0-0.5,0.1
								c-0.1,0.1-0.2,0.1-0.3,0.2c-0.1,0.1-0.2,0.2-0.2,0.3c-0.1,0.1-0.1,0.2-0.1,0.4c0,0.1-0.1,0.2-0.1,0.4c0,0.1-0.1,0.2-0.1,0.3
								c0,0.1-0.1,0.2-0.1,0.2c-0.1,0.1-0.1,0.1-0.2,0.1H499c-0.2,0-0.3,0-0.4,0c-0.1,0-0.2-0.1-0.2-0.1c0-0.1-0.1-0.1-0.1-0.2
								c0-0.1,0-0.2,0-0.4v-2.9h-0.6v2.9c0,0.2,0,0.3,0,0.4c0,0.1,0,0.2,0.1,0.3c0,0.1,0.1,0.2,0.1,0.3c0.1,0.1,0.1,0.1,0.2,0.2
								c0.1,0.1,0.2,0.1,0.4,0.1c0.1,0,0.3,0,0.4,0v0h0.4c0.3,0,0.5-0.1,0.7-0.3c0.1,0.1,0.3,0.1,0.4,0.2c0.1,0.1,0.2,0.1,0.3,0.1
								c0.1,0,0.2,0.1,0.3,0.1c0.1,0,0.2,0,0.3,0c0,0,0.1,0,0.2,0c0.1,0,0.1,0,0.2-0.1c0.1,0,0.1-0.1,0.2-0.1
								c0.1-0.1,0.1-0.1,0.2-0.2c0.1-0.1,0.1-0.2,0.1-0.4c0-0.1,0.1-0.3,0.1-0.5c0-0.2,0-0.3-0.1-0.5C502,31.2,502,31,501.9,30.9z
								 M501.6,32.1c0,0.1,0,0.2-0.1,0.2c0,0.1-0.1,0.1-0.1,0.1c0,0-0.1,0.1-0.1,0.1c0,0-0.1,0-0.1,0c0,0,0,0-0.1,0
								c-0.1,0-0.1,0-0.2,0c-0.1,0-0.1,0-0.2-0.1c-0.1,0-0.2-0.1-0.3-0.1c-0.1,0-0.2-0.1-0.3-0.1c0-0.1,0.1-0.2,0.1-0.3
								c0-0.1,0.1-0.2,0.1-0.3c0-0.1,0.1-0.2,0.1-0.2c0-0.1,0.1-0.1,0.1-0.2c0-0.1,0.1-0.1,0.2-0.1c0.1,0,0.1,0,0.2,0
								c0.1,0,0.2,0,0.3,0c0.1,0,0.1,0.1,0.2,0.1c0,0.1,0.1,0.1,0.1,0.2c0,0.1,0.1,0.1,0.1,0.2c0,0.1,0,0.1,0,0.2c0,0,0,0.1,0,0.1
								C501.6,32,501.6,32.1,501.6,32.1z"/>
							<path class="st6" d="M509.1,29.1c-0.1-0.1-0.2-0.1-0.3-0.1c-0.1,0-0.2,0-0.3,0.1c-0.1,0.1-0.1,0.2-0.1,0.3
								c0,0.1,0,0.2,0.1,0.3c0.1,0.1,0.2,0.1,0.3,0.1c0.1,0,0.2,0,0.3-0.1c0.1-0.1,0.1-0.2,0.1-0.3
								C509.3,29.3,509.2,29.2,509.1,29.1z"/>
							<path class="st6" d="M509.1,31.4c0-0.1,0-0.2-0.1-0.3c0-0.1,0-0.2-0.1-0.3c0-0.1,0-0.1,0-0.2c0-0.1,0-0.1,0-0.1l-0.6,0.2
								c0,0,0,0.1,0,0.1c0,0.1,0,0.1,0,0.2c0,0.1,0,0.1,0,0.2c0,0.1,0,0.2,0,0.2c0,0.1,0,0.1,0,0.2c0,0.1,0,0.1,0,0.2
								c0,0.1,0,0.2-0.1,0.3c0,0.1-0.1,0.1-0.2,0.2c-0.1,0-0.1,0.1-0.2,0.1c-0.1,0-0.1,0-0.1,0h-1.2h-0.1h-1.2h-0.1H505v-0.6
								c0-0.5-0.1-0.9-0.4-1.2c-0.1-0.1-0.2-0.2-0.4-0.2c-0.1,0-0.3-0.1-0.4-0.1c-0.2,0-0.3,0-0.5,0.1c-0.2,0.1-0.3,0.1-0.4,0.3
								c0,0-0.1,0.1-0.1,0.2c0,0.1-0.1,0.1-0.1,0.2c0,0.1-0.1,0.2-0.1,0.3c0,0.1,0,0.2,0,0.4c0,0.2,0,0.4,0.1,0.6
								c0.1,0.2,0.2,0.3,0.3,0.4c0.1,0.1,0.3,0.2,0.4,0.2c0.2,0,0.3,0.1,0.5,0.1h0.6c0,0.2,0,0.4-0.1,0.5c-0.1,0.1-0.1,0.2-0.2,0.3
								c-0.1,0.1-0.3,0.2-0.5,0.2c-0.2,0-0.5,0.1-0.8,0.1v0.6c0.4,0,0.7,0,1-0.1c0.3-0.1,0.5-0.2,0.7-0.3c0.2-0.1,0.3-0.3,0.4-0.5
								c0.1-0.2,0.1-0.4,0.1-0.7h0.4h0.1h1.2h0.1h1.2c0.1,0,0.3,0,0.4-0.1c0.1,0,0.3-0.1,0.4-0.2c0.1-0.1,0.2-0.2,0.3-0.3
								c0.1-0.1,0.1-0.3,0.1-0.5c0-0.1,0-0.1,0-0.2C509.1,31.6,509.1,31.5,509.1,31.4z M504.4,32.4h-0.6c0,0,0,0-0.1,0
								c0,0-0.1,0-0.1,0c0,0-0.1,0-0.1,0c0,0-0.1,0-0.1-0.1c-0.2-0.1-0.2-0.3-0.2-0.5c0-0.3,0.1-0.4,0.2-0.6
								c0.1-0.1,0.3-0.2,0.5-0.2c0,0,0.1,0,0.1,0c0,0,0.1,0,0.1,0c0,0,0.1,0,0.1,0.1c0,0,0.1,0.1,0.1,0.2c0,0.1,0.1,0.1,0.1,0.2
								c0,0.1,0,0.2,0,0.4V32.4z"/>
							<path class="st6" d="M507.6,29c-0.1,0-0.2,0-0.3,0.1c-0.1,0.1-0.1,0.2-0.1,0.3c0,0.1,0,0.2,0.1,0.3c0.1,0.1,0.2,0.1,0.3,0.1
								c0.1,0,0.2,0,0.3-0.1c0.1-0.1,0.1-0.2,0.1-0.3c0-0.1,0-0.2-0.1-0.3C507.9,29.1,507.8,29,507.6,29z"/>
						</g>
					</g>
					<g>
						<path class="st46" d="M498.3,14.1c0,0.1,0,0.2,0.1,0.2c0.1,0.1,0.2,0.1,0.3,0.1c0.1,0,0.2,0,0.3-0.1c0.1-0.1,0.1-0.2,0.1-0.2
							c0-0.1,0-0.2-0.1-0.3c-0.1-0.1-0.2-0.1-0.3-0.1c-0.1,0-0.2,0-0.3,0.1C498.3,14,498.3,14,498.3,14.1z"/>
						<path class="st46" d="M497.6,14.5c0.1,0,0.2,0,0.3-0.1c0.1-0.1,0.1-0.2,0.1-0.2c0-0.1,0-0.2-0.1-0.3c-0.1-0.1-0.2-0.1-0.3-0.1
							c-0.1,0-0.2,0-0.3,0.1c-0.1,0.1-0.1,0.2-0.1,0.3c0,0.1,0,0.2,0.1,0.2C497.4,14.5,497.5,14.5,497.6,14.5z"/>
						<path class="st46" d="M498.1,13.7c0.1,0,0.2,0,0.2-0.1c0.1-0.1,0.1-0.1,0.1-0.2c0-0.1,0-0.2-0.1-0.2c-0.1-0.1-0.2-0.1-0.2-0.1
							c-0.1,0-0.2,0-0.2,0.1c-0.1,0.1-0.1,0.1-0.1,0.2c0,0.1,0,0.2,0.1,0.2C497.9,13.7,498,13.7,498.1,13.7z"/>
						<path class="st46" d="M499.7,16.4c0.1-0.1,0.1-0.3,0.1-0.4c0-0.1,0-0.1,0-0.2c0-0.1,0-0.2,0-0.2c0-0.1,0-0.2,0-0.2
							c0-0.1,0-0.1,0-0.2c0-0.1,0-0.1,0-0.2c0,0,0-0.1,0-0.1L499,15c0,0,0,0.1,0,0.1c0,0,0,0.1,0,0.2c0,0.1,0,0.1,0,0.2
							c0,0.1,0,0.1,0,0.2c0,0.1,0,0.1,0,0.2s0,0.1,0,0.1c0,0.1,0,0.2,0,0.2c0,0.1-0.1,0.1-0.1,0.1c0,0-0.1,0.1-0.1,0.1s-0.1,0-0.1,0
							c-0.2,0-0.3,0-0.4-0.1c-0.1-0.1-0.1-0.2-0.1-0.3v-0.8h-0.6V16c0,0.1,0,0.2,0,0.2c0,0.1-0.1,0.1-0.1,0.1c0,0-0.1,0.1-0.1,0.1
							c-0.1,0-0.1,0-0.1,0c-0.1,0-0.1,0-0.2,0c-0.1,0-0.1,0-0.2-0.1c0,0-0.1-0.1-0.1-0.2c0-0.1,0-0.2,0-0.4v-0.5h-0.6V17
							c0,0.1,0,0.2,0,0.3c0,0.1-0.1,0.2-0.1,0.2c-0.1,0.1-0.2,0.1-0.3,0.2c-0.1,0-0.3,0.1-0.5,0.1h-0.5c-0.1,0-0.3,0-0.4-0.1
							c-0.1-0.1-0.2-0.1-0.3-0.2c-0.1-0.1-0.2-0.2-0.2-0.3c0-0.1-0.1-0.3-0.1-0.4c0-0.2,0-0.4,0.1-0.6c0.1-0.2,0.2-0.4,0.3-0.7
							l-0.5-0.2c-0.1,0.3-0.2,0.5-0.3,0.8c-0.1,0.2-0.1,0.5-0.1,0.7c0,0.2,0,0.5,0.1,0.6c0.1,0.2,0.2,0.4,0.3,0.5
							c0.1,0.1,0.3,0.2,0.5,0.3c0.2,0.1,0.4,0.1,0.6,0.1h0.5c0.5,0,0.9-0.1,1.1-0.3s0.4-0.6,0.4-1v-0.2c0,0,0.1,0.1,0.1,0.1
							c0,0,0.1,0,0.1,0c0,0,0.1,0,0.1,0c0,0,0.1,0,0.1,0c0.1,0,0.1,0,0.2,0c0.1,0,0.1,0,0.2,0c0.1,0,0.1,0,0.2-0.1
							c0.1,0,0.1-0.1,0.2-0.1c0.1,0.1,0.2,0.2,0.3,0.2c0.1,0,0.3,0.1,0.5,0.1c0.1,0,0.2,0,0.3-0.1c0.1,0,0.2-0.1,0.3-0.2
							C499.5,16.6,499.6,16.5,499.7,16.4z"/>
						<path class="st46" d="M500.7,16.8c0,0.2,0,0.3-0.1,0.5c0,0.1-0.1,0.2-0.2,0.3c-0.1,0.1-0.2,0.1-0.3,0.2
							c-0.1,0-0.3,0.1-0.5,0.1h-0.4v0.6h0.4c0.2,0,0.5,0,0.7-0.1c0.2-0.1,0.4-0.2,0.5-0.3c0.1-0.1,0.2-0.3,0.3-0.5
							c0.1-0.2,0.1-0.4,0.1-0.6v-1.6h-0.6V16.8z"/>
						<path class="st46" d="M501,13.7c-0.1,0-0.2,0-0.3,0.1c-0.1,0.1-0.1,0.2-0.1,0.3c0,0.1,0,0.2,0.1,0.3c0.1,0.1,0.2,0.1,0.3,0.1
							c0.1,0,0.2,0,0.3-0.1c0.1-0.1,0.1-0.2,0.1-0.3c0-0.1,0-0.2-0.1-0.3C501.2,13.8,501.1,13.7,501,13.7z"/>
						<path class="st46" d="M509,15.2c-0.1-0.1-0.2-0.2-0.3-0.3c-0.1-0.1-0.3-0.1-0.5-0.1c-0.1,0-0.2,0-0.3,0
							c-0.1,0-0.2,0.1-0.2,0.1c-0.1,0.1-0.1,0.1-0.2,0.2c-0.1,0.1-0.1,0.1-0.1,0.2c0,0.1-0.1,0.2-0.1,0.2c0,0.1-0.1,0.2-0.1,0.2
							c0,0.1,0,0.1-0.1,0.2c0,0.1,0,0.1-0.1,0.2s-0.1,0.1-0.1,0.1c0,0-0.1,0-0.1,0h-0.3h0h-1.1c0,0,0,0,0,0c0,0,0,0,0,0h-1.1h-0.1
							h-0.4V16c0-0.2,0-0.4-0.1-0.6c-0.1-0.2-0.2-0.3-0.3-0.4c-0.1-0.1-0.2-0.1-0.3-0.2c-0.1,0-0.2-0.1-0.4-0.1
							c-0.1,0-0.3,0-0.4,0.1c-0.1,0.1-0.2,0.1-0.3,0.2c0,0-0.1,0.1-0.1,0.1c0,0.1-0.1,0.1-0.1,0.2c0,0.1-0.1,0.2-0.1,0.2
							c0,0.1,0,0.2,0,0.3c0,0.2,0,0.4,0.1,0.5c0.1,0.1,0.2,0.2,0.3,0.3c0.1,0.1,0.2,0.1,0.4,0.2c0.1,0,0.3,0.1,0.4,0.1h0.4
							c0,0.1,0,0.1,0,0.2c0,0.1,0,0.1,0,0.2c0,0,0,0.1-0.1,0.1c0,0-0.1,0.1-0.1,0.1c-0.1,0.1-0.2,0.1-0.4,0.2
							c-0.2,0-0.4,0.1-0.7,0.1v0.6c0.2,0,0.3,0,0.5,0c0.1,0,0.3,0,0.4-0.1c0.1,0,0.2-0.1,0.3-0.1c0.1,0,0.2-0.1,0.3-0.2
							c0.2-0.1,0.3-0.3,0.3-0.4c0.1-0.2,0.1-0.4,0.1-0.6h0.4h0.1h1.1c0,0,0,0,0,0c0,0,0,0,0,0h1.1h0h0.4c0.1,0,0.2,0,0.3-0.1
							c0.1,0,0.2-0.1,0.3-0.2c0.1,0.1,0.2,0.1,0.3,0.1c0.1,0,0.2,0.1,0.3,0.1c0.1,0,0.2,0.1,0.2,0.1c0.1,0,0.2,0,0.2,0
							c0,0,0.1,0,0.2,0c0.1,0,0.1,0,0.2,0s0.1-0.1,0.2-0.1c0.1,0,0.1-0.1,0.2-0.2c0-0.1,0.1-0.2,0.1-0.3c0-0.1,0-0.3,0-0.4
							c0-0.2,0-0.3-0.1-0.4C509.2,15.4,509.1,15.3,509,15.2z M503.2,16.4h-0.4c0,0,0,0-0.1,0c0,0-0.1,0-0.1,0c0,0-0.1,0-0.1,0
							c0,0-0.1,0-0.1,0c-0.1,0-0.1-0.1-0.1-0.2s0-0.1,0-0.2c0-0.2,0-0.4,0.1-0.5c0.1-0.1,0.2-0.2,0.4-0.2c0,0,0,0,0.1,0
							c0,0,0.1,0,0.1,0c0,0,0.1,0,0.1,0.1c0,0,0.1,0.1,0.1,0.1c0,0.1,0.1,0.1,0.1,0.2c0,0.1,0,0.2,0,0.3V16.4z M508.7,16.3
							c0,0.1-0.1,0.1-0.1,0.2c0,0-0.1,0.1-0.1,0.1s-0.1,0-0.1,0c-0.1,0-0.1,0-0.2,0s-0.1,0-0.2-0.1c-0.1,0-0.1-0.1-0.2-0.1
							c-0.1,0-0.1-0.1-0.2-0.1c0-0.1,0-0.1,0.1-0.2s0-0.1,0.1-0.2s0-0.1,0.1-0.2c0-0.1,0.1-0.1,0.1-0.2c0,0,0.1-0.1,0.1-0.1
							c0.1,0,0.1,0,0.2,0c0.1,0,0.1,0,0.2,0c0.1,0,0.1,0.1,0.1,0.1s0.1,0.1,0.1,0.1c0,0,0,0.1,0.1,0.1c0,0,0,0.1,0,0.1
							c0,0,0,0.1,0,0.1C508.8,16.1,508.8,16.2,508.7,16.3z"/>
						<path class="st46" d="M510.1,12.9c-0.1,0-0.2,0-0.3,0.1c-0.1,0.1-0.2,0.1-0.3,0.2c-0.1,0.1-0.1,0.2-0.2,0.4l0.5,0.1
							c0-0.1,0.1-0.1,0.1-0.2c0,0,0.1-0.1,0.1-0.1c0,0,0.1,0,0.2-0.1c0.1,0,0.2,0,0.3,0h1.3v-0.5h-1.3
							C510.3,12.8,510.2,12.8,510.1,12.9z"/>
						<rect x="510.3" y="13.7" class="st46" width="0.6" height="3.3"/>
						<path class="st46" d="M521.8,15.9c0-0.1,0-0.2-0.1-0.3s-0.1-0.2-0.1-0.2c0,0-0.1-0.1-0.1-0.1c0-0.1-0.1-0.1-0.1-0.2
							c-0.1-0.1-0.1-0.1-0.2-0.2c-0.1-0.1-0.1-0.1-0.2-0.2c-0.1-0.2-0.3-0.3-0.4-0.5l-0.5,0.3c0.2,0.2,0.3,0.4,0.5,0.6
							c0.1,0.2,0.3,0.3,0.4,0.5c0.1,0.1,0.2,0.3,0.2,0.4c0,0.1,0.1,0.2,0.1,0.2c0,0,0,0.1,0,0.1c0,0.1-0.1,0.1-0.1,0.2
							c0,0-0.1,0.1-0.2,0.1c-0.1,0-0.1,0-0.2,0.1c-0.1,0-0.1,0-0.2,0c-0.1,0-0.1,0-0.2,0c-0.1,0-0.1,0-0.2-0.1
							c0.1-0.1,0.2-0.2,0.3-0.4c0.1-0.1,0.1-0.3,0.1-0.5c0-0.1,0-0.1,0-0.2c0-0.1-0.1-0.1-0.1-0.2c0-0.1-0.1-0.1-0.1-0.2
							c-0.1-0.1-0.1-0.1-0.2-0.2s-0.2-0.1-0.3-0.1c-0.1,0-0.2,0-0.3,0c-0.1,0-0.3,0-0.4,0.1c-0.1,0-0.2,0.1-0.3,0.2
							c-0.1,0.1-0.2,0.2-0.2,0.3c-0.1,0.1-0.1,0.2-0.1,0.4c0,0.2,0,0.3,0.1,0.4c0.1,0.1,0.1,0.2,0.2,0.3c-0.1,0-0.2,0-0.3,0
							c-0.1,0-0.2,0-0.3,0h-0.2h0H517c0,0,0,0,0,0c0,0,0,0,0,0h-1.1h0h0c0,0,0,0-0.1,0c0,0-0.1,0-0.1-0.1c0,0-0.1-0.1-0.1-0.1
							c0-0.1-0.1-0.1-0.1-0.2v-0.8h-0.6v1.6c0,0.2,0,0.3-0.1,0.5c0,0.1-0.1,0.2-0.2,0.3c-0.1,0.1-0.2,0.1-0.3,0.2
							c-0.1,0-0.3,0.1-0.5,0.1h-0.4v0.6h0.4c0.2,0,0.5,0,0.7-0.1c0.2-0.1,0.4-0.2,0.5-0.3c0.1-0.1,0.2-0.3,0.3-0.5
							c0.1-0.2,0.1-0.4,0.1-0.6c0.1,0.1,0.1,0.1,0.2,0.1c0.1,0,0.1,0,0.2,0h0h0h1.1c0,0,0,0,0,0c0,0,0,0,0,0h1.1h0h0.2
							c0.5,0,0.9,0,1.2-0.1c0,0,0,0,0.1,0c0,0,0.1,0,0.1,0c0,0,0.1,0,0.1,0c0.1,0.1,0.3,0.1,0.4,0.1c0.1,0,0.3,0,0.4,0
							c0.1,0,0.3,0,0.4,0c0.1,0,0.2-0.1,0.3-0.1c0.1-0.1,0.2-0.1,0.2-0.2c0.1-0.1,0.1-0.2,0.1-0.3c0-0.1,0-0.1,0-0.2
							c0-0.1,0-0.1,0-0.1C521.8,16,521.8,15.9,521.8,15.9z M520.1,15.8c0,0.1-0.1,0.1-0.1,0.2c0,0.1-0.1,0.1-0.1,0.1
							c-0.1,0-0.1,0.1-0.2,0.1c-0.2-0.1-0.3-0.2-0.4-0.3c-0.1-0.1-0.1-0.2-0.1-0.4c0-0.1,0-0.1,0-0.2c0,0,0.1-0.1,0.1-0.1
							c0,0,0.1-0.1,0.2-0.1c0.1,0,0.1,0,0.2,0c0,0,0.1,0,0.2,0c0.1,0,0.1,0,0.2,0.1c0,0,0.1,0.1,0.1,0.1c0,0.1,0.1,0.1,0.1,0.2
							C520.1,15.7,520.1,15.7,520.1,15.8z"/>
					</g>
				</g>
			</g>
			<g>
				<g>
					<path class="st6" d="M513.7,37.2l-2.4-1.8c0.9-1,1.7-2.1,2.5-3.4c0.7-1.3,1.4-2.8,2-4.5c0.3-0.7,0.5-1.4,0.7-2.1
						c0.2-0.7,0.4-1.4,0.6-2.1c0.2-0.7,0.3-1.3,0.4-1.9c0.1-0.6,0.1-1.1,0.1-1.6l3.1,0c0,0.5,0,1,0.1,1.6c0.1,0.6,0.2,1.2,0.4,1.9
						c0.2,0.7,0.3,1.4,0.6,2.1c0.2,0.7,0.5,1.4,0.7,2.1c0.6,1.6,1.3,3.1,2.1,4.4s1.6,2.5,2.5,3.5l-2.4,1.9c-0.5-0.6-1.1-1.3-1.6-2.1
						s-1-1.6-1.4-2.5c-0.5-0.9-0.9-1.8-1.3-2.8c-0.4-1-0.8-1.9-1.1-2.9c-0.3,0.9-0.7,1.9-1.1,2.9c-0.4,1-0.8,1.9-1.3,2.8
						c-0.5,0.9-0.9,1.8-1.4,2.6S514.2,36.5,513.7,37.2 M513.7,38.4c0.3,0,0.7-0.1,0.9-0.4c0.6-0.7,1.2-1.4,1.7-2.3
						c0.5-0.8,1-1.7,1.5-2.7c0.5-0.9,0.9-1.9,1.3-2.8c0.4,1,0.8,1.9,1.3,2.8c0.5,0.9,1,1.8,1.5,2.6c0.5,0.8,1.1,1.6,1.7,2.2
						c0.2,0.3,0.6,0.4,0.9,0.4c0.3,0,0.5-0.1,0.8-0.3l2.4-1.9c0.3-0.2,0.4-0.5,0.5-0.8c0-0.3-0.1-0.6-0.3-0.9
						c-0.8-0.9-1.6-2-2.3-3.2c-0.7-1.3-1.4-2.7-2-4.2c-0.2-0.7-0.5-1.4-0.7-2c-0.2-0.7-0.4-1.4-0.5-2c-0.2-0.6-0.3-1.3-0.4-1.8
						c-0.1-0.5-0.1-1-0.1-1.4c0-0.7-0.6-1.2-1.2-1.2l-3.1,0c-0.7,0-1.2,0.5-1.2,1.2c0,0.4,0,0.9-0.1,1.4c-0.1,0.6-0.2,1.2-0.3,1.8
						c-0.1,0.6-0.3,1.3-0.5,2c-0.2,0.7-0.4,1.4-0.7,2.1c-0.6,1.6-1.3,3.1-2,4.3c-0.7,1.2-1.4,2.3-2.3,3.2c-0.2,0.2-0.3,0.6-0.3,0.9
						c0,0.3,0.2,0.6,0.5,0.8l2.4,1.8C513.1,38.3,513.4,38.4,513.7,38.4L513.7,38.4L513.7,38.4z"/>
					<path class="st6" d="M531.1,19.4c0.8,0,1.6,0.1,2.2,0.4c0.6,0.3,1.1,0.6,1.6,1.1c0.4,0.5,0.7,1,0.9,1.7
						c0.2,0.7,0.3,1.4,0.3,2.1c0,1.5,0,2.8,0.1,4c0.1,1.2,0.1,2.3,0.2,3.3c0.1,1,0.2,1.8,0.3,2.5c0.1,0.7,0.3,1.2,0.4,1.6l-2.9,1
						c-0.2-0.4-0.3-1-0.5-1.6c-0.1-0.6-0.2-1.3-0.3-2c-0.1-0.7-0.2-1.5-0.2-2.3c-0.1-0.8-0.1-1.6-0.1-2.4l-1.8,0
						c-0.6,0-1.3-0.1-1.9-0.2c-0.6-0.1-1.2-0.4-1.7-0.7c-0.5-0.3-0.9-0.8-1.2-1.3c-0.3-0.6-0.5-1.2-0.5-2.1s0.1-1.5,0.4-2.2
						c0.2-0.6,0.6-1.2,1-1.6c0.5-0.4,1-0.8,1.6-1S530.4,19.4,531.1,19.4 M531.3,26l1.7,0c0-0.2,0-0.4,0-0.6l0-0.6
						c0-0.6-0.1-1-0.2-1.4c-0.2-0.3-0.3-0.6-0.5-0.8c-0.2-0.2-0.4-0.3-0.6-0.3c-0.2,0-0.4-0.1-0.5-0.1c-0.3,0-0.6,0.1-0.9,0.1
						c-0.3,0.1-0.5,0.2-0.7,0.4c-0.2,0.2-0.3,0.4-0.5,0.7s-0.2,0.6-0.2,1c0,0.3,0.1,0.5,0.2,0.7c0.2,0.2,0.4,0.3,0.6,0.5
						s0.5,0.2,0.7,0.2C530.8,26,531,26,531.3,26 M531.1,18.2c-0.9,0-1.7,0.2-2.5,0.4c-0.8,0.3-1.5,0.7-2,1.3c-0.6,0.6-1,1.2-1.3,2
						c-0.3,0.8-0.4,1.6-0.4,2.6c0,1,0.2,1.9,0.6,2.6c0.4,0.7,0.9,1.3,1.6,1.7c0.6,0.4,1.3,0.7,2.1,0.9c0.7,0.2,1.4,0.2,2.2,0.2
						l0.6,0c0,0.4,0.1,0.9,0.1,1.3c0.1,0.8,0.1,1.6,0.2,2.4c0.1,0.8,0.2,1.5,0.4,2.1c0.1,0.7,0.3,1.3,0.5,1.8
						c0.2,0.5,0.7,0.8,1.2,0.8c0.1,0,0.3,0,0.4-0.1l2.9-1c0.3-0.1,0.6-0.3,0.7-0.6c0.1-0.3,0.1-0.6,0-0.9c-0.1-0.2-0.2-0.6-0.3-1.3
						c-0.1-0.7-0.2-1.5-0.3-2.4c-0.1-0.9-0.2-2-0.2-3.2c-0.1-1.2-0.1-2.6-0.1-4c0-0.9-0.1-1.7-0.4-2.5c-0.3-0.8-0.7-1.5-1.2-2.1
						c-0.5-0.6-1.2-1.1-2-1.4C533,18.3,532.1,18.2,531.1,18.2L531.1,18.2L531.1,18.2z M530.2,24.5C530.2,24.5,530.2,24.5,530.2,24.5
						c0-0.3,0-0.5,0.1-0.6c0-0.1,0.1-0.2,0.2-0.3c0.1-0.1,0.1-0.1,0.2-0.1c0.1,0,0.3-0.1,0.4-0.1c0,0,0.1,0,0.2,0c0,0,0,0,0.1,0.1
						c0,0,0.1,0.1,0.2,0.4c0,0.1,0.1,0.4,0.1,0.9l0,0l-0.5,0c-0.1,0-0.3,0-0.5,0c-0.1,0-0.3-0.1-0.4-0.1
						C530.3,24.6,530.2,24.5,530.2,24.5L530.2,24.5L530.2,24.5z"/>
				</g>
				<g>
					<path class="st47" d="M511.3,35.3c0.9-1,1.7-2.1,2.5-3.4c0.7-1.3,1.4-2.8,2-4.5c0.3-0.7,0.5-1.4,0.7-2.1
						c0.2-0.7,0.4-1.4,0.6-2.1c0.2-0.7,0.3-1.3,0.4-1.9c0.1-0.6,0.1-1.1,0.1-1.6h3.1c0,0.5,0,1,0.1,1.6c0.1,0.6,0.2,1.2,0.4,1.9
						c0.2,0.7,0.3,1.4,0.6,2.1c0.2,0.7,0.5,1.4,0.7,2.1c0.6,1.6,1.3,3.1,2.1,4.4c0.7,1.3,1.6,2.5,2.5,3.5l-2.4,1.9
						c-0.5-0.6-1.1-1.3-1.6-2.1s-1-1.6-1.4-2.5c-0.5-0.9-0.9-1.8-1.3-2.8c-0.4-1-0.8-1.9-1.1-2.9c-0.3,0.9-0.7,1.9-1.1,2.9
						c-0.4,1-0.8,1.9-1.3,2.8c-0.5,0.9-0.9,1.8-1.4,2.6s-1,1.5-1.6,2.1L511.3,35.3L511.3,35.3z"/>
					<path class="st47" d="M534.3,37.1c-0.2-0.4-0.3-1-0.5-1.6c-0.1-0.6-0.2-1.3-0.3-2c-0.1-0.7-0.2-1.5-0.2-2.3
						c-0.1-0.8-0.1-1.6-0.1-2.4l-1.8,0c-0.6,0-1.3-0.1-1.9-0.2c-0.6-0.1-1.2-0.4-1.7-0.7c-0.5-0.3-0.9-0.8-1.2-1.3
						c-0.3-0.6-0.5-1.2-0.5-2.1c0-0.8,0.1-1.5,0.4-2.2c0.2-0.6,0.6-1.2,1-1.6c0.5-0.4,1-0.8,1.6-1c0.6-0.2,1.3-0.4,2.1-0.4
						c0.8,0,1.6,0.1,2.2,0.4c0.6,0.3,1.1,0.6,1.6,1.1c0.4,0.5,0.7,1,0.9,1.7c0.2,0.7,0.3,1.4,0.3,2.1c0,1.5,0,2.8,0.1,4
						c0.1,1.2,0.1,2.3,0.2,3.3c0.1,1,0.2,1.8,0.3,2.5c0.1,0.7,0.3,1.2,0.4,1.6L534.3,37.1L534.3,37.1z M533,26c0-0.2,0-0.4,0-0.6
						l0-0.6c0-0.6-0.1-1-0.2-1.4c-0.2-0.3-0.3-0.6-0.5-0.8c-0.2-0.2-0.4-0.3-0.6-0.3c-0.2,0-0.4-0.1-0.5-0.1c-0.3,0-0.6,0.1-0.9,0.1
						s-0.5,0.2-0.7,0.4c-0.2,0.2-0.3,0.4-0.5,0.7s-0.2,0.6-0.2,1c0,0.3,0.1,0.5,0.2,0.7s0.4,0.3,0.6,0.5c0.2,0.1,0.5,0.2,0.7,0.2
						c0.3,0,0.5,0.1,0.7,0.1L533,26L533,26z"/>
				</g>
			</g>
		</g>
	</g>
	<g>
		<g>
			<g>
				<path class="st42" d="M573.4,26.1c0.2-1.4,1.4-2.6,3-2.6h38.8c0.4,0,0.8,0.1,1.2,0.3c-0.5-1-1.5-1.7-2.7-1.7h-38.8
					c-1.3,0-2.5,0.9-2.8,2.1C572.7,24.6,573.3,25.3,573.4,26.1z"/>
				<path class="st42" d="M546.1,35l-0.6-6.2c-0.1-0.7,0.2-1.5,0.7-2.1c0.5-0.6,1.2-1,2-1l22.1-2c0.1,0,0.2,0,0.3,0
					c0.4,0,0.8,0.1,1.2,0.3c-0.5-1-1.5-1.7-2.7-1.7c-0.1,0-0.2,0-0.3,0l-22.1,2c-0.8,0.1-1.5,0.5-2,1c-0.5,0.6-0.7,1.4-0.7,2.1
					l0.6,6.2c0.1,1.1,0.8,1.9,1.7,2.3C546.2,35.6,546.1,35.4,546.1,35z"/>
				<path class="st42" d="M573.4,35.4v-0.8c0,0,0,0,0,0c-0.3,0.3-0.7,0.6-1.1,0.8c0.3,0.5,0.8,0.9,1.3,1.2
					C573.5,36.2,573.4,35.8,573.4,35.4z"/>
			</g>
			<path class="st43" d="M614.9,23.5h-38.5c-1.5,0-2.8,1.1-3,2.6c-0.3-1.4-1.5-2.4-2.9-2.4c-0.1,0-0.2,0-0.3,0l-22.1,2
				c-0.8,0.1-1.5,0.5-2,1c-0.5,0.6-0.7,1.4-0.7,2.1l0.6,6.2c0.2,1.5,1.4,2.6,2.9,2.6c0.1,0,0.2,0,0.3,0l22.1-2c0.8-0.1,1.5-0.4,2-1
				c0,0,0,0,0,0v0.8c0,1.6,1.3,2.9,3,2.9l36.5,1.2l0.2,0h0c1.1,0,2.1-0.5,2.7-1.3c1.2-0.4,2.1-1.5,2.1-2.8v-8.9
				C617.9,24.8,616.6,23.5,614.9,23.5z"/>
		</g>
		<g>
			<path class="st48" d="M576.8,37l34.8,1.2c1,0,2-0.3,2.6-0.8l0.5-0.4l-37.9,0L576.8,37z"/>
			<path class="st47" d="M614.3,37H577c-1.3,0-2.3-0.7-2.3-1.6v-8.9c0-0.9,1-1.6,2.3-1.6h37.3c1.3,0,2.3,0.7,2.3,1.6v8.9
				C616.6,36.2,615.6,37,614.3,37z"/>
			<g>
				<path class="st6" d="M548.3,27l22.1-2c0.9-0.1,1.7,0.6,1.8,1.5l0.6,6.1c0.1,0.9-0.6,1.7-1.5,1.8l-22.1,2
					c-0.9,0.1-1.7-0.6-1.8-1.4l-0.6-6.2C546.7,27.9,547.4,27.1,548.3,27z"/>
				<g>
					<path d="M557.8,32.1c0.1-0.2,0.1-0.4,0.1-0.6c0-0.1,0-0.2,0-0.2c0-0.1,0-0.2-0.1-0.3c0-0.1-0.1-0.2-0.1-0.3
						c0-0.1-0.1-0.2-0.1-0.3s0-0.1-0.1-0.2c0-0.1,0-0.1,0-0.1l-0.7,0.3c0,0,0,0.1,0,0.1c0,0.1,0,0.1,0.1,0.2c0,0.1,0,0.2,0.1,0.2
						s0,0.2,0.1,0.2c0,0.1,0,0.2,0.1,0.2c0,0.1,0,0.1,0,0.2c0,0.1,0,0.2,0,0.3c0,0.1-0.1,0.1-0.1,0.2s-0.1,0.1-0.2,0.1
						c-0.1,0-0.1,0-0.1,0c-0.2,0-0.4,0-0.5-0.1c-0.1-0.1-0.2-0.2-0.2-0.4l-0.1-1l-0.7,0.1l0.1,1c0,0.1,0,0.2,0,0.3s-0.1,0.1-0.1,0.2
						c-0.1,0-0.1,0.1-0.2,0.1c-0.1,0-0.1,0-0.2,0c-0.1,0-0.2,0-0.3,0c-0.1,0-0.2-0.1-0.2-0.1c-0.1-0.1-0.1-0.1-0.2-0.3
						c0-0.1-0.1-0.3-0.1-0.5l-0.1-0.6l-0.8,0.1l0.2,2.3c0,0.2,0,0.3,0,0.4s-0.1,0.2-0.2,0.3s-0.2,0.2-0.4,0.2
						c-0.2,0.1-0.4,0.1-0.6,0.1l-0.7,0.1c-0.2,0-0.4,0-0.5-0.1c-0.2-0.1-0.3-0.1-0.4-0.2c-0.1-0.1-0.2-0.2-0.3-0.4s-0.1-0.3-0.1-0.5
						c0-0.2,0-0.5,0.1-0.7c0.1-0.3,0.2-0.5,0.3-0.9l-0.7-0.3c-0.1,0.4-0.3,0.7-0.3,1c-0.1,0.3-0.1,0.6-0.1,0.9
						c0,0.3,0.1,0.6,0.2,0.8c0.1,0.2,0.3,0.4,0.5,0.6c0.2,0.2,0.4,0.3,0.7,0.3c0.3,0.1,0.5,0.1,0.8,0.1l0.7-0.1
						c0.7-0.1,1.1-0.2,1.4-0.5c0.3-0.3,0.4-0.7,0.4-1.3l0-0.2c0.1,0,0.1,0.1,0.2,0.1c0.1,0,0.1,0,0.2,0c0.1,0,0.1,0,0.2,0
						c0.1,0,0.1,0,0.2,0c0.1,0,0.2,0,0.2,0c0.1,0,0.2,0,0.2-0.1c0.1,0,0.2-0.1,0.2-0.1c0.1-0.1,0.1-0.1,0.2-0.2
						c0.1,0.1,0.3,0.2,0.5,0.2c0.2,0,0.4,0.1,0.6,0c0.2,0,0.3-0.1,0.4-0.1c0.1-0.1,0.3-0.2,0.4-0.3
						C557.7,32.4,557.8,32.2,557.8,32.1z"/>
					<polygon points="556.3,29.7 556.8,29.2 556.2,28.7 555.7,29.3 					"/>
					<polygon points="556,28.3 555.4,27.9 555,28.4 555.5,28.8 					"/>
					<polygon points="555.3,29.3 554.7,28.8 554.2,29.4 554.8,29.9 					"/>
					<polygon points="559.8,28.9 559.2,28.4 558.7,29 559.3,29.5 					"/>
					<path d="M559,30.4l0.2,2c0,0.2,0,0.4,0,0.6c0,0.2-0.1,0.3-0.2,0.4c-0.1,0.1-0.2,0.2-0.4,0.2c-0.2,0.1-0.4,0.1-0.6,0.1l-0.5,0
						l0.1,0.7l0.5,0c0.3,0,0.6-0.1,0.8-0.2c0.2-0.1,0.4-0.3,0.6-0.4c0.2-0.2,0.3-0.4,0.4-0.6s0.1-0.5,0.1-0.8l-0.2-2.1L559,30.4z"/>
					<path d="M566.9,29.7c-0.1-0.1-0.3-0.2-0.5-0.3c-0.2-0.1-0.4-0.1-0.6-0.1c-0.2,0-0.3,0-0.4,0.1c-0.1,0-0.2,0.1-0.3,0.2
						c-0.1,0.1-0.2,0.2-0.2,0.3c-0.1,0.1-0.1,0.2-0.2,0.3c0,0.1-0.1,0.2-0.1,0.3c0,0.1-0.1,0.2-0.1,0.3c0,0.1,0,0.2-0.1,0.3
						c0,0.1,0,0.2-0.1,0.2c0,0.1-0.1,0.1-0.1,0.2c0,0-0.1,0.1-0.2,0.1l-0.4,0v0l-0.6,0l0-0.5c0-0.3-0.1-0.6-0.2-0.8
						c-0.1-0.2-0.2-0.4-0.4-0.5c-0.1-0.1-0.3-0.2-0.4-0.2c-0.2,0-0.3,0-0.5,0c-0.2,0-0.4,0.1-0.5,0.1s-0.3,0.2-0.4,0.3
						c0,0.1-0.1,0.1-0.1,0.2c0,0.1-0.1,0.2-0.1,0.2c0,0.1-0.1,0.2-0.1,0.3c0,0.1,0,0.3,0,0.4c0,0.3,0.1,0.5,0.2,0.6
						c0.1,0.2,0.2,0.3,0.4,0.4c0.1,0.1,0.3,0.2,0.5,0.2c0.2,0,0.3,0,0.5,0l0.6,0c0,0.1,0,0.2,0,0.2s0,0.1,0,0.2
						c0,0.1-0.1,0.1-0.1,0.2s-0.1,0.1-0.1,0.1c-0.1,0.1-0.3,0.2-0.5,0.3c-0.2,0.1-0.5,0.1-0.9,0.1l0.1,0.7c0.2,0,0.4,0,0.6-0.1
						c0.2,0,0.3-0.1,0.5-0.1c0.1,0,0.3-0.1,0.4-0.2c0.1-0.1,0.2-0.1,0.3-0.2c0.2-0.2,0.3-0.4,0.4-0.6c0.1-0.2,0.1-0.5,0.1-0.8l0.6,0
						v0l0.4,0c0.1,0,0.3,0,0.4-0.1c0.1-0.1,0.2-0.1,0.3-0.3c0.1,0.1,0.3,0.1,0.4,0.2c0.1,0,0.2,0.1,0.3,0.1c0.1,0,0.2,0.1,0.3,0.1
						c0.1,0,0.2,0,0.3,0c0.1,0,0.1,0,0.2,0c0.1,0,0.2,0,0.2-0.1s0.2-0.1,0.2-0.2c0.1-0.1,0.1-0.2,0.2-0.3c0.1-0.1,0.1-0.2,0.1-0.4
						c0-0.2,0-0.3,0-0.6c0-0.2-0.1-0.4-0.1-0.6C567.1,30,567,29.9,566.9,29.7z M561.9,31.7C561.8,31.7,561.8,31.7,561.9,31.7
						c-0.1,0-0.2,0-0.2,0c0,0-0.1,0-0.1,0c0,0-0.1,0-0.1,0c-0.1,0-0.2-0.1-0.2-0.2c0-0.1-0.1-0.2-0.1-0.3c0-0.3,0-0.5,0.1-0.6
						c0.1-0.1,0.3-0.2,0.5-0.2c0,0,0.1,0,0.1,0s0.1,0,0.1,0c0,0,0.1,0,0.1,0.1c0,0,0.1,0.1,0.1,0.1c0,0.1,0.1,0.1,0.1,0.2
						c0,0.1,0.1,0.2,0.1,0.4l0,0.5L561.9,31.7z M566.6,31.2c0,0.1-0.1,0.2-0.1,0.2c0,0-0.1,0.1-0.1,0.1c0,0-0.1,0-0.1,0
						c-0.1,0-0.1,0-0.2,0c-0.1,0-0.2,0-0.3-0.1c-0.1,0-0.2-0.1-0.3-0.1c-0.1,0-0.2-0.1-0.3-0.1c0-0.1,0-0.1,0.1-0.2
						c0-0.1,0-0.2,0.1-0.3c0-0.1,0-0.2,0.1-0.2c0-0.1,0.1-0.2,0.1-0.2c0-0.1,0.1-0.1,0.2-0.2c0.1,0,0.1-0.1,0.2-0.1
						c0.1,0,0.2,0,0.3,0c0.1,0,0.1,0.1,0.2,0.1c0.1,0,0.1,0.1,0.1,0.2c0,0.1,0.1,0.1,0.1,0.2c0,0.1,0,0.1,0.1,0.2c0,0,0,0.1,0,0.1
						C566.7,31,566.7,31.1,566.6,31.2z"/>
					<path d="M570.2,27.1l0-0.6l-1.7,0.1c-0.2,0-0.3,0-0.5,0.1c-0.1,0-0.3,0.1-0.4,0.1c-0.1,0.1-0.2,0.2-0.3,0.3s-0.2,0.3-0.2,0.5
						l0.6,0.1c0-0.1,0.1-0.2,0.1-0.3c0-0.1,0.1-0.1,0.2-0.2c0.1,0,0.1-0.1,0.2-0.1c0.1,0,0.2,0,0.4,0L570.2,27.1z"/>
					<polygon points="568.4,27.7 568.7,31.9 569.5,31.8 569.1,27.6 					"/>
				</g>
			</g>
			<g>
				<g>
					<g>
						<path class="st6" d="M578.9,26.5c0,0,0.1,0.1,0.2,0.2s0.3,0.2,0.5,0.4c0.2,0.2,0.4,0.4,0.6,0.6c0.2,0.2,0.5,0.5,0.7,0.8
							c0.2,0.3,0.5,0.6,0.7,0.9c0.2,0.3,0.4,0.7,0.6,1c0.2,0.3,0.3,0.7,0.4,1.1s0.2,0.7,0.1,1.1c0,0.2,0,0.4-0.1,0.6
							c0,0.2-0.1,0.3-0.2,0.5c-0.1,0.1-0.1,0.3-0.2,0.4c-0.1,0.1-0.2,0.2-0.3,0.2h0c-0.2,0.1-0.4,0.2-0.6,0.3
							c-0.2,0.1-0.4,0.1-0.6,0.1h0c-0.2,0-0.4,0-0.6-0.1c-0.2-0.1-0.4-0.2-0.6-0.3c-0.2,0.2-0.4,0.3-0.7,0.4c-0.2,0-0.3,0.1-0.5,0.1
							c-0.1,0-0.3,0-0.4-0.1c-0.2,0-0.4-0.1-0.6-0.3c-0.2-0.2-0.4-0.4-0.6-0.6c-0.1-0.1-0.1-0.3-0.2-0.4s-0.1-0.3-0.1-0.4
							s0-0.2,0-0.3c0-0.1,0-0.2,0-0.2c0-0.3,0-0.7,0.1-1c0.1-0.3,0.2-0.6,0.3-0.9c0.1-0.3,0.3-0.6,0.4-0.9c0.2-0.3,0.3-0.5,0.5-0.8
							c0.2-0.2,0.3-0.4,0.5-0.6c0.2-0.2,0.3-0.4,0.4-0.5l-0.4-0.4L578.9,26.5z M581.2,33.4c0.1-0.1,0.2-0.2,0.3-0.3
							c0.1-0.1,0.1-0.3,0.1-0.5c0-0.2,0-0.5-0.1-0.7c-0.1-0.2-0.1-0.5-0.3-0.7c-0.1-0.2-0.2-0.5-0.4-0.7c-0.1-0.2-0.3-0.5-0.5-0.7
							c-0.2-0.2-0.3-0.4-0.5-0.6c-0.2-0.2-0.3-0.4-0.5-0.5c-0.1,0.1-0.2,0.3-0.4,0.4c-0.1,0.2-0.3,0.4-0.4,0.6s-0.3,0.4-0.4,0.7
							c-0.1,0.2-0.3,0.5-0.4,0.7c-0.1,0.3-0.2,0.5-0.3,0.8c-0.1,0.3-0.1,0.5-0.1,0.8c0,0.2,0,0.3,0.1,0.5s0.2,0.3,0.3,0.4
							c0.1,0.1,0.3,0.2,0.4,0.2l0,0c0.2,0,0.3-0.1,0.5-0.2c0.1,0,0.1-0.1,0.1-0.2c0-0.1,0-0.1,0.1-0.2c0-0.1,0-0.2,0-0.2
							s0-0.2,0-0.2c0-0.1,0-0.2,0-0.3c0-0.1,0-0.1,0-0.2l1.2-0.2c0,0.1,0,0.2,0,0.3c0,0.1,0,0.2,0,0.3c0,0.1,0,0.2,0,0.3
							c0,0.1,0,0.2,0,0.3c0,0,0,0,0,0.1s0,0.1,0.1,0.1c0.1,0.1,0.1,0.1,0.2,0.2s0.2,0.1,0.3,0.1h0.1c0.1,0,0.2,0,0.3,0
							C581,33.5,581.1,33.4,581.2,33.4z"/>
						<path class="st6" d="M585.7,26.6c0,0,0.1,0.1,0.2,0.2s0.3,0.2,0.5,0.4c0.2,0.2,0.4,0.4,0.6,0.6c0.2,0.2,0.5,0.5,0.7,0.8
							c0.2,0.3,0.5,0.6,0.7,0.9c0.2,0.3,0.4,0.7,0.6,1c0.2,0.3,0.3,0.7,0.4,1.1c0.1,0.4,0.2,0.7,0.1,1.1c0,0.2,0,0.4-0.1,0.6
							c0,0.2-0.1,0.3-0.2,0.5c-0.1,0.1-0.1,0.3-0.2,0.4c-0.1,0.1-0.2,0.2-0.3,0.2h0c-0.2,0.1-0.4,0.2-0.6,0.3
							c-0.2,0.1-0.4,0.1-0.6,0.1l0,0c-0.2,0-0.4,0-0.6-0.1c-0.2-0.1-0.4-0.2-0.6-0.3c-0.2,0.2-0.4,0.3-0.7,0.4
							c-0.2,0-0.3,0.1-0.5,0.1c-0.1,0-0.3,0-0.4-0.1c-0.2,0-0.4-0.1-0.6-0.3c-0.2-0.2-0.4-0.4-0.6-0.6c-0.1-0.1-0.1-0.3-0.2-0.4
							c0-0.1-0.1-0.3-0.1-0.4s0-0.2,0-0.3s0-0.2,0-0.2c0-0.3,0-0.7,0.1-1c0.1-0.3,0.2-0.6,0.3-0.9c0.1-0.3,0.3-0.6,0.4-0.9
							c0.2-0.3,0.3-0.5,0.5-0.8c0.2-0.2,0.3-0.4,0.5-0.6c0.2-0.2,0.3-0.4,0.4-0.5l-0.4-0.4L585.7,26.6z M588,33.4
							c0.1-0.1,0.2-0.2,0.3-0.3s0.1-0.3,0.1-0.5c0-0.2,0-0.5-0.1-0.7c-0.1-0.2-0.1-0.5-0.3-0.7c-0.1-0.2-0.2-0.5-0.4-0.7
							c-0.1-0.2-0.3-0.5-0.5-0.7c-0.2-0.2-0.3-0.4-0.5-0.6c-0.2-0.2-0.3-0.4-0.5-0.5c-0.1,0.1-0.2,0.3-0.4,0.4
							c-0.1,0.2-0.3,0.4-0.4,0.6s-0.3,0.4-0.4,0.7c-0.1,0.2-0.3,0.5-0.4,0.7c-0.1,0.3-0.2,0.5-0.3,0.8c-0.1,0.3-0.1,0.5-0.1,0.8
							c0,0.2,0,0.3,0.1,0.5c0.1,0.2,0.2,0.3,0.3,0.4c0.1,0.1,0.3,0.2,0.4,0.2h0c0.2,0,0.3-0.1,0.5-0.2c0.1,0,0.1-0.1,0.1-0.1
							c0-0.1,0-0.1,0.1-0.2c0-0.1,0-0.2,0-0.2c0-0.1,0-0.2,0-0.2c0-0.1,0-0.2,0-0.3c0-0.1,0-0.1,0-0.2l1.2-0.2c0,0.1,0,0.2,0,0.3
							s0,0.2,0,0.3c0,0.1,0,0.2,0,0.3s0,0.2,0,0.3c0,0,0,0,0,0.1c0,0,0,0.1,0.1,0.1c0.1,0.1,0.1,0.1,0.2,0.2s0.2,0.1,0.3,0.1h0.1
							c0.1,0,0.2,0,0.3,0C587.8,33.5,587.9,33.5,588,33.4z"/>
						<path class="st6" d="M592.3,33.8c-0.3,0-0.6-0.1-0.8-0.2s-0.5-0.3-0.7-0.5c-0.2-0.2-0.3-0.4-0.4-0.7c-0.1-0.3-0.2-0.5-0.2-0.8
							c0-0.3,0.1-0.6,0.2-0.8c0.1-0.2,0.3-0.5,0.4-0.7c0.2-0.2,0.4-0.3,0.7-0.4c0.3-0.1,0.5-0.2,0.8-0.2s0.6,0.1,0.8,0.2
							c0.3,0.1,0.5,0.3,0.7,0.5c0.2,0.2,0.3,0.4,0.4,0.7c0.1,0.3,0.2,0.5,0.2,0.8c0,0.3-0.1,0.6-0.2,0.8c-0.1,0.3-0.3,0.5-0.5,0.7
							s-0.4,0.3-0.7,0.4C592.8,33.7,592.6,33.8,592.3,33.8z M592.3,30.7c-0.1,0-0.3,0-0.4,0.1c-0.1,0-0.2,0.1-0.3,0.2
							c-0.1,0.1-0.2,0.2-0.2,0.3c0,0.1-0.1,0.2-0.1,0.4c0,0.1,0,0.3,0.1,0.4c0,0.1,0.1,0.2,0.2,0.3c0.1,0.1,0.2,0.2,0.3,0.2
							c0.1,0.1,0.2,0.1,0.4,0.1s0.3,0,0.4-0.1c0.1-0.1,0.2-0.1,0.3-0.2s0.2-0.2,0.2-0.3s0.1-0.2,0.1-0.4c0-0.1,0-0.3-0.1-0.4
							s-0.1-0.2-0.2-0.3c-0.1-0.1-0.2-0.2-0.3-0.2C592.6,30.7,592.4,30.7,592.3,30.7z"/>
					</g>
					<g>
						<path class="st6" d="M598.7,30.9l2.2,0l0,1.3l-2.2,0l0,2.5l-1.3,0l0-2.5l-2.2,0l0-1.3l2.2,0l0-2.3l1.3,0L598.7,30.9z"/>
					</g>
					<g>
						<path class="st6" d="M602.2,34.8c0-0.1,0-0.3,0-0.4c0-0.2,0-0.3,0-0.5v0c0-0.2,0-0.3,0-0.5c0-0.2,0-0.4,0-0.6
							c0-0.4,0-0.8,0-1.2c0-0.4,0-0.9-0.1-1.3c0-0.5-0.1-0.9-0.2-1.4c-0.1-0.5-0.2-1-0.4-1.5l1.1-0.3c0.2,0.6,0.3,1.1,0.4,1.6
							c0.1,0.5,0.2,1,0.2,1.5c0,0.5,0.1,1,0.1,1.4c0,0.5,0,0.9,0,1.3c0,0.2,0,0.4,0,0.6c0,0.2,0,0.4,0,0.5c0,0.1,0,0.3,0,0.4
							c0,0.2,0,0.3,0,0.4L602.2,34.8z"/>
						<path class="st6" d="M606.8,26.7c0,0,0.1,0.1,0.2,0.2c0.1,0.1,0.3,0.2,0.5,0.4c0.2,0.2,0.4,0.4,0.6,0.6
							c0.2,0.2,0.5,0.5,0.7,0.8c0.2,0.3,0.5,0.6,0.7,0.9c0.2,0.3,0.4,0.7,0.6,1c0.2,0.3,0.3,0.7,0.4,1.1c0.1,0.4,0.2,0.7,0.1,1.1
							c0,0.2,0,0.4-0.1,0.6c0,0.2-0.1,0.3-0.2,0.5s-0.1,0.3-0.2,0.4c-0.1,0.1-0.2,0.2-0.3,0.2h0c-0.2,0.1-0.4,0.2-0.6,0.3
							c-0.2,0.1-0.4,0.1-0.6,0.1h0c-0.2,0-0.4,0-0.6-0.1c-0.2-0.1-0.4-0.2-0.6-0.3c-0.2,0.2-0.4,0.3-0.7,0.4c-0.2,0-0.3,0.1-0.5,0.1
							c-0.1,0-0.3,0-0.4-0.1c-0.2,0-0.4-0.1-0.6-0.3c-0.2-0.2-0.4-0.4-0.6-0.6c-0.1-0.1-0.1-0.3-0.2-0.4c0-0.1-0.1-0.3-0.1-0.4
							c0-0.1,0-0.2,0-0.3c0-0.1,0-0.2,0-0.2c0-0.3,0-0.7,0.1-1c0.1-0.3,0.2-0.6,0.3-0.9s0.3-0.6,0.4-0.9c0.2-0.3,0.3-0.5,0.5-0.8
							c0.2-0.2,0.3-0.4,0.5-0.6c0.2-0.2,0.3-0.4,0.4-0.5l-0.4-0.4L606.8,26.7z M609.1,33.5c0.1-0.1,0.2-0.2,0.3-0.3s0.1-0.3,0.1-0.5
							c0-0.2,0-0.5-0.1-0.7c-0.1-0.2-0.1-0.5-0.3-0.7c-0.1-0.2-0.2-0.5-0.4-0.7s-0.3-0.5-0.5-0.7c-0.2-0.2-0.3-0.4-0.5-0.6
							s-0.3-0.4-0.5-0.5c-0.1,0.1-0.2,0.3-0.4,0.4c-0.1,0.2-0.3,0.4-0.4,0.6s-0.3,0.4-0.4,0.7c-0.1,0.2-0.3,0.5-0.4,0.7
							c-0.1,0.3-0.2,0.5-0.3,0.8c-0.1,0.3-0.1,0.5-0.1,0.8c0,0.2,0,0.3,0.1,0.5c0.1,0.2,0.2,0.3,0.3,0.4c0.1,0.1,0.3,0.2,0.4,0.2
							l0,0c0.2,0,0.3-0.1,0.5-0.2c0.1,0,0.1-0.1,0.1-0.1c0-0.1,0-0.1,0.1-0.2c0-0.1,0-0.2,0-0.2c0-0.1,0-0.2,0-0.2
							c0-0.1,0-0.2,0-0.3c0-0.1,0-0.1,0-0.2l1.2-0.2c0,0.1,0,0.2,0,0.3c0,0.1,0,0.2,0,0.3c0,0.1,0,0.2,0,0.3c0,0.1,0,0.2,0,0.3
							c0,0,0,0,0,0.1c0,0,0,0.1,0.1,0.1c0.1,0.1,0.1,0.1,0.2,0.2c0.1,0,0.2,0.1,0.3,0.1h0.1c0.1,0,0.2,0,0.3,0
							C608.9,33.6,609,33.6,609.1,33.5z"/>
						<path class="st6" d="M613.4,33.8c-0.3,0-0.6-0.1-0.8-0.2s-0.5-0.3-0.7-0.5c-0.2-0.2-0.3-0.4-0.4-0.7c-0.1-0.3-0.2-0.5-0.2-0.8
							c0-0.3,0.1-0.6,0.2-0.8c0.1-0.2,0.3-0.5,0.4-0.7c0.2-0.2,0.4-0.3,0.7-0.4c0.3-0.1,0.5-0.2,0.8-0.2c0.3,0,0.6,0.1,0.8,0.2
							c0.3,0.1,0.5,0.3,0.7,0.5s0.3,0.4,0.4,0.7c0.1,0.3,0.2,0.5,0.2,0.8c0,0.3-0.1,0.6-0.2,0.8c-0.1,0.3-0.3,0.5-0.5,0.7
							s-0.4,0.3-0.7,0.4C613.9,33.8,613.6,33.8,613.4,33.8z M613.4,30.8c-0.1,0-0.3,0-0.4,0.1c-0.1,0-0.2,0.1-0.3,0.2
							c-0.1,0.1-0.2,0.2-0.2,0.3c0,0.1-0.1,0.2-0.1,0.4c0,0.1,0,0.3,0.1,0.4c0,0.1,0.1,0.2,0.2,0.3c0.1,0.1,0.2,0.2,0.3,0.2
							c0.1,0.1,0.2,0.1,0.4,0.1s0.3,0,0.4-0.1c0.1-0.1,0.2-0.1,0.3-0.2c0.1-0.1,0.2-0.2,0.2-0.3s0.1-0.2,0.1-0.4s0-0.3-0.1-0.4
							s-0.1-0.2-0.2-0.3c-0.1-0.1-0.2-0.2-0.3-0.2C613.6,30.8,613.5,30.8,613.4,30.8z"/>
					</g>
				</g>
			</g>
		</g>
	</g>
</g>
</svg>
