<?xml version="1.0" encoding="utf-8"?>
<!-- Generator: Adobe Illustrator 27.1.1, SVG Export Plug-In . SVG Version: 6.00 Build 0)  -->
<svg version="1.1" id="Layer_1" xmlns="http://www.w3.org/2000/svg" xmlns:xlink="http://www.w3.org/1999/xlink" x="0px" y="0px"
	 viewBox="0 0 1080 56" style="enable-background:new 0 0 1080 56;" xml:space="preserve">
<style type="text/css">
	.st0{fill:#0B7F7F;}
	.st1{fill:#FFFFFF;}
	.st2{fill:#8583F2;}
	.st3{fill:#F87046;}
	.st4{fill:#FDBC0F;}
	.st5{clip-path:url(#SVGID_00000030445431853975609700000014639698908982923150_);fill:none;}
	.st6{opacity:0.3;clip-path:url(#SVGID_00000168822930680742393890000009214974085360850854_);fill:#19297C;}
	.st7{opacity:0.3;clip-path:url(#SVGID_00000088836135164079056260000010812310820801370548_);fill:#132D9B;}
	
		.st8{opacity:0.44;clip-path:url(#SVGID_00000098943881726925949030000017727159430998245249_);fill:#00D8EE;enable-background:new    ;}
	.st9{clip-path:url(#SVGID_00000036948690391722343060000010961219056306163593_);}
	.st10{opacity:0.3;fill:#1336A5;}
	.st11{opacity:0.44;fill:#00D8EE;enable-background:new    ;}
	.st12{opacity:0.22;fill:#8583F2;enable-background:new    ;}
	.st13{fill:none;stroke:#151F38;stroke-width:0.5;stroke-miterlimit:10;}
	.st14{opacity:0.26;fill:#FFFFFF;enable-background:new    ;}
	.st15{fill:none;stroke:#8482F1;stroke-width:0.5;stroke-miterlimit:10;}
	.st16{fill:none;stroke:#00D7ED;stroke-width:0.5;stroke-linecap:round;stroke-miterlimit:10;}
	.st17{clip-path:url(#SVGID_00000088121864337820747650000006975466487375338904_);}
	.st18{opacity:0.1;fill:#8583F2;enable-background:new    ;}
	.st19{fill:#FFB388;}
	.st20{opacity:0.46;fill:#F87046;enable-background:new    ;}
	.st21{fill:#DEA013;}
	.st22{opacity:0.33;fill:#E16305;enable-background:new    ;}
	.st23{fill:#E16305;}
	.st24{fill:#4E67C2;}
	.st25{opacity:0.5;fill:#4E67C2;enable-background:new    ;}
	.st26{opacity:0.56;fill:none;stroke:#FFFFFF;stroke-width:0.4033;stroke-miterlimit:10;enable-background:new    ;}
	.st27{fill:#151F38;}
	.st28{opacity:0.19;fill:#151F38;enable-background:new    ;}
	.st29{fill:#00D8EE;}
	.st30{opacity:0.53;fill:none;stroke:#151F38;stroke-width:0.5;stroke-miterlimit:10;enable-background:new    ;}
	.st31{opacity:0.54;fill:#151F38;enable-background:new    ;}
	.st32{opacity:0.28;fill:#FFFFFF;enable-background:new    ;}
	.st33{fill:none;stroke:#F77046;stroke-width:0.5;stroke-miterlimit:10;}
	.st34{opacity:0.12;fill:#8583F2;enable-background:new    ;}
	.st35{fill:#034944;}
	.st36{fill:none;stroke:#FFFFFF;stroke-width:0.25;stroke-miterlimit:10;}
	.st37{fill:#A03607;}
	.st38{fill:#F91616;}
	.st39{fill-rule:evenodd;clip-rule:evenodd;fill:#FFFFFF;}
	.st40{fill-rule:evenodd;clip-rule:evenodd;fill:#024F49;}
	.st41{fill:#0F0F0F;}
	.st42{fill:#F9A12D;stroke:#041414;stroke-width:0.25;stroke-miterlimit:10;}
	.st43{fill:#191919;stroke:#191919;stroke-width:0.25;stroke-miterlimit:10;}
	.st44{fill:#131414;}
	.st45{opacity:0.9;fill:#FF551A;}
</style>
<g>
	<g>
		<g>
			<g>
				<g>
					<g>
						<g>
							<g>
								<rect x="-0.2" y="-0.4" class="st0" width="1080.5" height="56.6"/>
								<polygon class="st1" points="807.4,25.1 807.7,25.7 808.3,26.1 807.7,26.4 807.4,27 807.1,26.4 806.5,26.1 807.1,25.7 
																	"/>
								<path class="st2" d="M848.9,26.2c0,0.3-0.2,0.5-0.5,0.5s-0.5-0.2-0.5-0.5c0-0.3,0.2-0.5,0.5-0.5S848.9,25.9,848.9,26.2z"/>
							</g>
							<path class="st3" d="M942.7,19.6c0,0.4-0.3,0.7-0.7,0.7c-0.4,0-0.7-0.3-0.7-0.7c0-0.4,0.3-0.7,0.7-0.7
								C942.4,18.9,942.7,19.2,942.7,19.6z"/>
							<path class="st2" d="M990.9,31c0,0.4-0.3,0.7-0.7,0.7s-0.7-0.3-0.7-0.7c0-0.4,0.3-0.7,0.7-0.7S990.9,30.6,990.9,31z"/>
							<polygon class="st1" points="882.6,11.1 882.9,11.7 883.5,12 882.9,12.3 882.6,12.9 882.3,12.3 881.7,12 882.3,11.7 							
								"/>
							<path class="st4" d="M815.5,8.3c0,0.3-0.2,0.5-0.5,0.5c-0.3,0-0.5-0.2-0.5-0.5c0-0.3,0.2-0.5,0.5-0.5
								C815.2,7.9,815.5,8.1,815.5,8.3z"/>
							<polygon class="st1" points="43.6,38.4 44.3,39.6 45.6,40.3 44.3,41 43.6,42.2 42.9,41 41.6,40.3 42.9,39.6 							"/>
							<path class="st3" d="M182.8,20.3c0,0.3-0.3,0.6-0.6,0.6c-0.4,0-0.6-0.3-0.6-0.6c0-0.3,0.3-0.6,0.6-0.6
								C182.6,19.7,182.8,20,182.8,20.3z"/>
							<path class="st4" d="M427.7,10.1c0,0.4-0.3,0.7-0.7,0.7c-0.4,0-0.7-0.3-0.7-0.7c0-0.4,0.3-0.7,0.7-0.7
								C427.4,9.4,427.7,9.7,427.7,10.1z"/>
							<path class="st2" d="M379.7,41.8c0,0.4-0.3,0.7-0.7,0.7c-0.4,0-0.7-0.3-0.7-0.7c0-0.4,0.3-0.7,0.7-0.7
								C379.3,41.1,379.7,41.4,379.7,41.8z"/>
							<polygon class="st1" points="438.2,38.4 437.4,38.9 438.1,39.2 435.3,42.5 435.1,42.1 434.8,42.6 434.7,42.7 428.4,40.2 
								428.7,40 428.1,39.7 427.8,39.2 427.5,39.7 427,40 427.5,40.3 427.5,40.3 423.9,45 423.5,44.3 423,45.1 422.2,45.6 423,46 
								423.5,46.8 424,46 424.8,45.6 424,45.1 423.9,45 424.1,45.1 427.6,40.6 427.8,40.9 428.1,40.3 434.4,42.8 434.2,42.9 
								434.8,43.2 435.1,43.8 435.4,43.2 435.9,42.9 435.5,42.7 438.3,39.3 438.7,40.1 439.2,39.3 440,38.9 439.2,38.4 438.7,37.6 
															"/>
						</g>
						<g>
							<g>
								<g>
									<defs>
										<path id="SVGID_1_" d="M729.7,40.3c-7.2-9.6-20.2-14.6-29.5-6.7c-5.5,4.7-11.2,6.9-14.9,7.9l0,0l0,0
											c-0.6,0.2-1.1,0.3-1.5,0.4c-0.9,0.2-2.2,0.3-3.4,0.3c-2.8,0-5.7,0.9-8.6,3.3l-0.4,0.3l-1.3,1.2l-0.6,0.6l-0.6,0.7
											l-3.1,3.9l-0.4,0.6l-0.4,0.6l-0.4,0.7l-0.4,0.7l-0.3,0.7l-0.4,1h35.8h64.9C743.3,55,736.9,49.9,729.7,40.3z"/>
									</defs>
									<clipPath id="SVGID_00000096029403677137651810000000438288881385907591_">
										<use xlink:href="#SVGID_1_"  style="overflow:visible;"/>
									</clipPath>
									
										<rect x="-142" y="21.5" style="clip-path:url(#SVGID_00000096029403677137651810000000438288881385907591_);fill:none;" width="1285.7" height="34.8"/>
								</g>
								<g>
									<defs>
										<path id="SVGID_00000003826957325355523720000000170953119548182968_" d="M729.7,40.3c-7.2-9.6-20.2-14.6-29.5-6.7
											c-5.5,4.7-11.2,6.9-14.9,7.9l0,0l0,0c-0.6,0.2-1.1,0.3-1.5,0.4c-0.9,0.2-2.2,0.3-3.4,0.3c-2.8,0-5.7,0.9-8.6,3.3l-0.4,0.3
											l-1.3,1.2l-0.6,0.6l-0.6,0.7l-3.1,3.9l-0.4,0.6l-0.4,0.6l-0.4,0.7l-0.4,0.7l-0.3,0.7l-0.4,1h35.8h64.9
											C743.3,55,736.9,49.9,729.7,40.3z"/>
									</defs>
									<clipPath id="SVGID_00000133515058280980566200000018072348802531673260_">
										<use xlink:href="#SVGID_00000003826957325355523720000000170953119548182968_"  style="overflow:visible;"/>
									</clipPath>
									<path style="opacity:0.3;clip-path:url(#SVGID_00000133515058280980566200000018072348802531673260_);fill:#19297C;" d="
										M738.7,36.9c-8.1-11.6-22.9-17.7-33.5-8.1c-6.2,5.7-12.7,8.4-17,9.6l0,0l0,0c-0.6,0.2-1.2,0.3-1.7,0.5
										c-1,0.3-2.5,0.4-3.9,0.4c-3.2,0.1-6.6,1-9,3.3l-1.6,1.5l-1.1,1.1l-0.7,0.7l0,0l0,0c-0.5,0.5-0.9,1.1-1.3,1.6l-2.9,3.9l0,0
										l-0.4,0.7l-0.4,0.7l-0.5,0.9l-0.4,0.9l-0.3,0.8l0,0l-0.4,1.2h40.7h62c0.7,0,0.8-1.3,0.1-1.4
										C751.4,52.2,745.4,46.4,738.7,36.9z"/>
								</g>
								<g>
									<defs>
										<path id="SVGID_00000016063281970678332180000014747288903347556784_" d="M729.7,40.3c-7.2-9.6-20.2-14.6-29.5-6.7
											c-5.5,4.7-11.2,6.9-14.9,7.9l0,0l0,0c-0.6,0.2-1.1,0.3-1.5,0.4c-0.9,0.2-2.2,0.3-3.4,0.3c-2.8,0-5.7,0.9-8.6,3.3l-0.4,0.3
											l-1.3,1.2l-0.6,0.6l-0.6,0.7l-3.1,3.9l-0.4,0.6l-0.4,0.6l-0.4,0.7l-0.4,0.7l-0.3,0.7l-0.4,1h35.8h64.9
											C743.3,55,736.9,49.9,729.7,40.3z"/>
									</defs>
									<clipPath id="SVGID_00000143590894950472030520000013646826387928328847_">
										<use xlink:href="#SVGID_00000016063281970678332180000014747288903347556784_"  style="overflow:visible;"/>
									</clipPath>
									<path style="opacity:0.3;clip-path:url(#SVGID_00000143590894950472030520000013646826387928328847_);fill:#132D9B;" d="
										M769.8,47.8c-1,0.1-1.8,0.9-2.9,1c-1.8,0.3-3.4-1.2-5.2-1.3c-3.1-0.3-5.8,2-8.9,2.2s-5.7-2.1-8.8-2.3
										c-3.4-0.2-6.6,2.1-9.9,1.3c-1.7-0.4-3.2-1.7-4.8-2.5c-1.4-0.7-2.8-0.7-4.2-0.4c-0.2,0-0.3,0.1-0.5,0.1l0,0l0,0
										c-0.8,0.3-1.6,0.7-2.5,0.8c-2.2,0.3-4-1.2-6-1.3c-3.6-0.3-6.9,2-10.4,2.2c-3.6,0.2-6.8-2.1-10.2-2.3
										c-4-0.2-7.7,2.1-11.7,1.3c-2-0.4-3.2-1.3-5-2.2c-1.8-0.8-3.5-0.9-5.3-0.5c-0.7,0.6-1.4,1.1-2.8,2.5
										c-2.6,2.7-6.2,6.1-7.8,10.6l54.4,0.2c-0.2,0.7,1.5-0.9,1.3-0.2l80.8,0.4l-28.8-9.9C770.4,47.8,770,47.8,769.8,47.8z"/>
								</g>
								<g>
									<defs>
										<path id="SVGID_00000163053399995841721600000013898139899668406967_" d="M729.7,40.3c-7.2-9.6-20.2-14.6-29.5-6.7
											c-5.5,4.7-11.2,6.9-14.9,7.9l0,0l0,0c-0.6,0.2-1.1,0.3-1.5,0.4c-0.9,0.2-2.2,0.3-3.4,0.3c-2.8,0-5.7,0.9-8.6,3.3l-0.4,0.3
											l-1.3,1.2l-0.6,0.6l-0.6,0.7l-3.1,3.9l-0.4,0.6l-0.4,0.6l-0.4,0.7l-0.4,0.7l-0.3,0.7l-0.4,1h35.8h64.9
											C743.3,55,736.9,49.9,729.7,40.3z"/>
									</defs>
									<clipPath id="SVGID_00000010285843272380034540000014586689342841252269_">
										<use xlink:href="#SVGID_00000163053399995841721600000013898139899668406967_"  style="overflow:visible;"/>
									</clipPath>
									
										<path style="opacity:0.44;clip-path:url(#SVGID_00000010285843272380034540000014586689342841252269_);fill:#00D8EE;enable-background:new    ;" d="
										M725.8,46.4c-0.2,0-0.4,0.1-0.6,0.1c-0.9,0.2-1.8,0.8-2.8,0.9c-2.2,0.3-4-1.2-6-1.3c-3.6-0.3-6.9,2-10.4,2.2
										c-3.6,0.2-6.7-2.1-10.2-2.3c-4-0.2-7.7,2.1-11.6,1.3c-2-0.4-3.8-1.7-5.6-2.5c-1.7-0.8-4.2-0.6-6-0.2
										c-0.1,0,0.5-0.2,0.4-0.3c0.1,0,0.1-0.1,0.2-0.1c1.8-0.4,3.7-0.5,5.4,0.3c1.8,0.8,3.6,2.1,5.6,2.5c4,0.7,7.7-1.6,11.6-1.3
										c3.6,0.2,6.7,2.5,10.2,2.3c3.6-0.2,6.8-2.5,10.4-2.2c2.2,0.2,3.9,1.6,6,1.3c0.9-0.1,1.6-0.6,2.5-0.8l0,0l0,0
										c0.2-0.1,0.3-0.1,0.5-0.1c1.4-0.3,2.8-0.3,4.1,0.4c1.6,0.8,3.1,2.1,4.8,2.5c3.4,0.7,6.6-1.6,9.9-1.3
										c3.1,0.2,5.6,2.5,8.8,2.3c3.1-0.2,5.8-2.5,8.9-2.2c1.8,0.2,3.4,1.6,5.2,1.3c1-0.1,1.8-0.9,2.9-1c0.2,0,0.5,0,0.7,0v0.3
										c-0.2,0-0.5-0.1-0.7,0c-1,0.1-1.8,0.9-2.9,1c-1.8,0.3-3.4-1.2-5.2-1.3c-3.1-0.3-5.8,2-8.9,2.2s-5.7-2.1-8.8-2.3
										c-3.4-0.2-6.6,2.1-9.9,1.3c-1.7-0.4-3.2-1.7-4.8-2.5c-0.9-0.5-2-0.6-3.1-0.5L725.8,46.4z"/>
								</g>
								<g>
									<defs>
										<path id="SVGID_00000158731255635979235570000005366397908318615446_" d="M729.7,40.3c-7.2-9.6-20.2-14.6-29.5-6.7
											c-5.5,4.7-11.2,6.9-14.9,7.9l0,0l0,0c-0.6,0.2-1.1,0.3-1.5,0.4c-0.9,0.2-2.2,0.3-3.4,0.3c-2.8,0-5.7,0.9-8.6,3.3l-0.4,0.3
											l-1.3,1.2l-0.6,0.6l-0.6,0.7l-3.1,3.9l-0.4,0.6l-0.4,0.6l-0.4,0.7l-0.4,0.7l-0.3,0.7l-0.4,1h35.8h64.9
											C743.3,55,736.9,49.9,729.7,40.3z"/>
									</defs>
									<clipPath id="SVGID_00000039817203317581725790000005090503888003850151_">
										<use xlink:href="#SVGID_00000158731255635979235570000005366397908318615446_"  style="overflow:visible;"/>
									</clipPath>
									<g style="clip-path:url(#SVGID_00000039817203317581725790000005090503888003850151_);">
										<path class="st10" d="M773.1,51.2c-2.3-0.6-5.9-0.7-8.3-0.5c-2,0.2-4,0.7-6,0.8c-2.2,0.1-4.2-0.2-6.3-0.3
											c-3.7-0.1-7.3,1.2-11,1.4c-3.8,0.3-7.5-1.1-11.3-1.1s-7.4,1.7-11.2,1.3c-1.7-0.2-3.4-0.8-5-1.3c-2-0.6-4-0.8-6.1-0.7
											c-3.7,0.3-7.3,1.2-11,0.9c-3.8-0.2-7.3-1.8-11-2.3c-3.6-0.5-6.9,0.7-10.3,1c-2.6,0.2-5.2-0.1-7.4-1.3
											c-2.2,2.4-4,4.8-5,7.3H765l5.6-1.4l12-1l-2.3-0.5C776.9,52.8,773.3,51.3,773.1,51.2z"/>
										<path class="st11" d="M773.1,51.2c-2.3-0.6-4.7-0.7-7.1-0.5c-2,0.2-4.1,0.7-6.1,0.8c-2.2,0.1-4.3-0.2-6.5-0.3
											c-3.8-0.1-7.4,1.2-11.2,1.4c-3.9,0.3-7.5-1.1-11.4-1.1c-3.8,0-7.5,1.7-11.3,1.3c-1.7-0.2-3.4-0.8-5.1-1.3
											c-2-0.6-4-0.8-6.2-0.7c-3.7,0.3-7.4,1.2-11.1,0.9c-3.9-0.2-7.4-1.8-11.2-2.3c-3.6-0.5-6.9,0.7-10.4,1
											c-2.6,0.2-5.2-0.2-7.4-1.3c-0.1,0.1-0.1,0.1-0.2,0.2l0.3,0.1c2.2,1.2,4.8,1.5,7.4,1.3c3.6-0.3,6.9-1.4,10.4-1
											c3.8,0.5,7.3,2.1,11.2,2.3c3.8,0.2,7.4-0.6,11.1-0.9c2.2-0.2,4.1,0.2,6.1,0.8c1.6,0.5,3.5,1.2,5.2,1.5
											c3.8,0.5,7.4-1.6,11.2-1.6c3.9,0,7.3,1.7,11.2,1.4c3.8-0.2,7.6-1.8,11.4-1.7c2.2,0.1,4.3,0.4,6.5,0.3
											c2-0.1,4.1-0.6,6.1-0.8c2.4-0.2,4.7-0.1,7.1,0.5c0.2,0.1,2.2,0.5,2.4,0.6l-1.7-0.6C773.5,51.4,773.3,51.3,773.1,51.2z"/>
									</g>
								</g>
							</g>
							<polygon class="st1" points="696.8,28 697.1,28.5 697.6,28.8 697.1,29 696.8,29.6 696.5,29 696,28.8 696.5,28.5 							"/>
							<path class="st2" d="M715.5,33.4c0,0.4-0.3,0.7-0.7,0.7s-0.7-0.3-0.7-0.7s0.3-0.7,0.7-0.7C715.2,32.8,715.5,33.1,715.5,33.4z
								"/>
							<g>
								<path class="st1" d="M706.3,24c-0.5-0.7-1.2-1.1-1.6-1.9c-0.1-0.1-0.2-0.3-0.2-0.4c0,0,0,0,0-0.1l-0.8,1.6
									c0,0,2.7,2.4,3.8,2.8C707.2,25.4,706.8,24.7,706.3,24z"/>
								<path class="st12" d="M706.3,24c-0.5-0.7-1.2-1.1-1.6-1.9c-0.1-0.1-0.2-0.3-0.2-0.4c0,0,0,0,0-0.1l-0.8,1.6
									c0,0,2.7,2.4,3.8,2.8C707.2,25.4,706.8,24.7,706.3,24z"/>
								<polygon class="st1" points="702.7,23.7 703.4,21.9 707.1,25.4 712.7,25.3 711.4,28.7 702,25.3 								"/>
								<polygon class="st1" points="699.8,29.5 703,22 707,25.8 712.9,25.4 710,33.5 704.5,33.5 								"/>
								<path class="st3" d="M706.1,25.5c0,0,0.6,0.8,2.2,0.6l-2.9,7.8c0,0-1.7,0.2-2.2-1L706.1,25.5z"/>
								<polygon class="st3" points="708.3,26.1 713.2,25.8 710.3,33.9 705.4,33.9 								"/>
								<polygon class="st3" points="706.3,25.7 702.3,22 699.3,29.8 703.6,33.5 								"/>
								<line class="st13" x1="708" y1="26.6" x2="705.5" y2="33.5"/>
								<line class="st13" x1="705.8" y1="25.9" x2="703.3" y2="32.7"/>
								<path class="st13" d="M706.1,26.1c0,0,0.6,0.6,1.5,0.4"/>
								<path class="st13" d="M703.6,33c0,0,0.7,0.9,1.5,0.5"/>
								<polygon class="st14" points="708.6,26.8 712.6,26.5 710.2,33.5 706.2,33.7 								"/>
								<polygon class="st14" points="705.4,25.5 702.4,22.9 699.6,29.6 703,32.4 								"/>
								<path class="st14" d="M704.9,31.6L704.9,31.6c-0.2-0.1-0.3-0.3-0.2-0.5l1.1-3c0.1-0.2,0.3-0.3,0.5-0.2l0,0
									c0.2,0.1,0.3,0.3,0.2,0.5l-1.1,3C705.3,31.5,705.1,31.7,704.9,31.6z"/>
								<polyline class="st15" points="703.3,22.3 707.1,25.8 712.6,25.5 								"/>
							</g>
							<g>
								<path class="st16" d="M725,49.2c0,0,2-1.3,5.3,0.2"/>
								<path class="st16" d="M678.1,51.5c0,0,1.8,0.9,4.3-0.3c2.5-1.1,5.7,0.2,5.7,0.2"/>
								<path class="st16" d="M673.9,46.1c0,0,3.1,2,5.8,0.6"/>
								<path class="st16" d="M692.8,45.6c0,0,2.4-0.6,4.9,1.2"/>
								<path class="st16" d="M689.1,48.1c0,0,2.8-1,5,0.2"/>
							</g>
							<g>
								<g>
									<defs>
										<path id="SVGID_00000137825691605455010590000013583810075268634528_" d="M683.7,48.2c6.1,0.5,6.6,1,9.1,1.6
											c3.1,0.6,6.5,0.5,9.2,0.1c2.7-0.3,3.2-0.8,5.8-0.7c0.7,0,1.4,0.1,2.1,0.2c2.6-3.7,5.9-9.4,5.8-13l-19.5,1.7
											c0,0-2.3-2.4-3.8-2.6c-1.5-0.3-4,2.6-4,2.6l-4.3-0.4c0,0,0.6-3.7,0-4.3c-0.7-0.7,2.5-3.6,1.4-5.1s-2.6-3.6-3.1-3.8
											c-0.4-0.2-3.3,0.5-3.8,0.4c-0.4-0.1-2,1.1-2.2,1.4c-0.2,0.2-2.4-0.8-2.4-0.8l-1.5-1.1c0,0-0.9-0.5-1.1-0.6
											s-0.9-0.7-1.3-0.6c-0.4,0.1-1.4,0.9-1.4,1.3c0.1,0.4,0.4,1.3,0.7,1.7c0.3,0.4,1.9,1.8,2.1,1.9c0.2,0.1,0.6,0.3,0.7,0.5
											c0.1,0.2,0.3,1.5,0.3,1.5l-5.2,6.8c0,0,3.1,7.4,6.2,12.3c0.7-0.2,1.6-0.3,2.2-0.4C677.7,48.6,682,48.1,683.7,48.2z"/>
									</defs>
									<clipPath id="SVGID_00000017510878363454754180000004794128644301989035_">
										<use xlink:href="#SVGID_00000137825691605455010590000013583810075268634528_"  style="overflow:visible;"/>
									</clipPath>
									<g style="clip-path:url(#SVGID_00000017510878363454754180000004794128644301989035_);">
										<g>
											<polygon class="st1" points="715.4,36.7 692.7,40.3 668.9,36.9 691.7,49.1 											"/>
											<polygon class="st12" points="715.4,36.7 692.7,40.3 668.9,36.9 691.7,49.1 											"/>
											<path class="st1" d="M699.9,45.3c0,0-6.8-8.2-7.5-8.8c-0.7-0.7-7.6,9.2-7.6,9.2l7.2,2.6L699.9,45.3z"/>
											<path class="st18" d="M692.5,36.5c0,0.4-0.1,0.8-0.1,1c0,0.7,0,1.4,0,2.1c0,1.2-0.1,2.6-0.1,3.8
												c-0.1,1.6-0.2,3.2-0.3,4.7l-7.1-2.5C684.9,45.6,691.8,35.9,692.5,36.5z"/>
											<path class="st1" d="M706.5,52.2L692.3,47l-14.2,5.3C678,52.3,705.3,52.7,706.5,52.2z"/>
										</g>
										<g>
											<path class="st19" d="M675,26.5c0,0-0.1-0.1-0.2,0.1l0.2,0.2V26.5z"/>
											<g>
												<g>
													<path class="st19" d="M674.1,29.5l0.1-0.9l0.1-1.1c0.2-0.2,1.3-0.1,1.3-0.1l0.1,0.7c0,0.9-0.4,0.9-0.4,0.9v0.5
														L674.1,29.5z"/>
												</g>
												<path class="st19" d="M675.1,29c0,0,0.4-0.1,0.6-0.5c0.2-0.3,0.6-0.5,0.7-0.6c0.1-0.1-0.7-0.1-0.9,0.3
													S675,28.9,675.1,29z"/>
											</g>
											<path class="st3" d="M674.1,28.6h1.7l0.9,4.1l0,0l0,0c0.5,0.1,1.8,0.4,2.3,0.6c0.1,0,0.2,0.1,0.3,0.1
												c0.7,0.3,1,1,0.7,1.7c-0.1,0.3-0.4,0.5-0.7,0.7l0,0c0,0-0.1,0-0.3,0.1c-0.1,0-0.3,0-0.4,0c-0.7,0-2.1-0.3-4.1-1.8l0,0
												c-0.3-0.3-0.5-0.7-0.5-1.1C674,32.3,673.8,30.1,674.1,28.6z"/>
											<path class="st20" d="M674.1,28.6h1.7l0.9,4.1l0,0l0,0c0.5,0.1,1.8,0.4,2.3,0.6c0.1,0,0.2,0.1,0.3,0.1
												c0.7,0.3,1,1,0.7,1.7c-0.1,0.3-0.4,0.5-0.7,0.7l0,0c0,0-0.1,0-0.3,0.1c-0.1,0-0.3,0-0.4,0c-0.7,0-2.1-0.3-4.1-1.8l0,0
												c-0.3-0.3-0.5-0.7-0.5-1.1C674,32.3,673.8,30.1,674.1,28.6z"/>
											<g>
												<path class="st21" d="M683.5,31.5c0.1,0.3,0,0.7-0.2,0.9s-0.6,0.3-0.9,0.2c0,0.1-0.1,0.2-0.2,0.3s-0.3,0.1-0.4,0
													c-0.4-0.1-0.6-0.5-0.5-0.9c0-0.4,0.2-0.7,0.5-0.9c0.2-0.2,0.4-0.4,0.6-0.5c0.3-0.1,0.6-0.1,0.8,0.1s0.2,0.4,0.3,0.6
													L683.5,31.5z"/>
											</g>
											<path class="st19" d="M682.1,31.5c0,0-0.3,1.5-0.2,1.9c0,0-1.5,0.8-2.5-0.1c0,0,0.2-0.9,0.2-1.2
												C679.7,31.8,682.1,31.5,682.1,31.5z"/>
											<path class="st22" d="M681,33c-0.4,0.3-0.9,0.3-1.4,0.1c0.1-0.3,0.1-0.8,0.1-0.9s1.2-0.4,2-0.5
												C681.5,32.2,681.3,32.7,681,33z"/>
											<path class="st21" d="M680.9,27.1c0.2,0.7-0.2,1.3-1,1.6c-0.8,0.3-1.6-0.1-1.8-0.8c-0.2-0.7,0.2-1.3,1-1.6
												C679.9,26.2,680.7,26.4,680.9,27.1z"/>
											<path class="st19" d="M678,29c0.1-0.2,0.2-0.5,0.3-0.6c0.4-1.3,1.8-2.3,3.3-2c1.5,0.3,2.5,1.7,2.2,3.1
												c-0.2,0.9-0.8,1.5-1.5,1.9l0.1,0.1l-0.5,0.9c-1.6,0.5-3.2-0.3-3.2-0.3C676.8,31.1,677.8,29.3,678,29z"/>
											<path class="st19" d="M682.1,31.2c-0.3,0.3-0.3,0.8,0,0.9c0.3,0.2,0.7,0.1,0.9-0.3c0.3-0.3,0.3-0.8,0-0.9
												C682.8,30.7,682.4,30.8,682.1,31.2z"/>
											<path class="st22" d="M682.3,31.3c-0.2,0.2-0.2,0.5,0,0.6s0.4,0.1,0.6-0.2c0.2-0.3,0.2-0.5,0-0.6
												C682.7,31,682.5,31.1,682.3,31.3z"/>
											<g>
												<path class="st21" d="M680.8,29.3c-0.2-0.1-0.4-0.2-0.6-0.2c-0.3-0.1-0.1-0.4,0.2-0.3c0.2,0.1,0.4,0.2,0.6,0.2
													C681.2,29.2,681.1,29.5,680.8,29.3L680.8,29.3z"/>
											</g>
											<g>
												<path class="st21" d="M678.7,28.5c-0.1,0-0.2-0.1-0.3-0.1c-0.1,0-0.2-0.1-0.1-0.2c0-0.1,0.1-0.1,0.2-0.1
													c0.1,0,0.2,0.1,0.4,0.1c0.1,0,0.1,0.2,0.1,0.2C678.9,28.5,678.8,28.5,678.7,28.5L678.7,28.5z"/>
											</g>
											<path class="st23" d="M678.8,29.4c-0.1,0.1-0.1,0.2-0.2,0.3l-0.1,0.1h-0.1c0,0-0.1,0-0.1,0.1c0,0-0.1,0.1-0.1,0.2
												s0.1,0.1,0.1,0.2c0.1,0.1,0.2,0.1,0.4,0.1h-0.1h-0.1h-0.1c0,0,0,0-0.1,0l-0.1-0.1c0,0,0-0.1,0.1-0.1c0,0,0,0,0.1-0.1
												c0,0,0,0,0.1,0c0.1,0,0.1-0.1,0.1-0.1C678.7,29.6,678.8,29.5,678.8,29.4z"/>
											<path class="st21" d="M678.6,27.7c0,0,1.8,1,2.7-1.3c0,0-0.8-0.9-2.4,0C679,26.4,678.2,27.5,678.6,27.7z"/>
											<path class="st24" d="M682.6,41c0,0,0.2,1.6-0.1,2.4c0,0-3.3-0.5-3.9-0.3l-1.9-0.4l0.3-2.6L682.6,41z"/>
											<path class="st25" d="M678.6,42.2L678.6,42.2L678.6,42.2L678.6,42.2c0.2,0,0.3,0,0.3,0.1c0,0.2-0.1,0.4-0.1,0.6V43h-0.1
												h-0.1C678.6,42.8,678.6,42.5,678.6,42.2z"/>
											<polyline class="st26" points="678.9,40.8 678.6,42.1 678.9,42.2 											"/>
											<path class="st3" d="M679.6,33.2c0,0-0.5-0.1-0.8,0c-0.3,0.1-1.1,1.6-1.2,3c0,1.4-1,3.8-0.6,4.3c0.4,0.6,4.4,1.7,5.8,0.9
												c0,0,0.7-0.6,0.6-1c-0.2-0.5-0.4-2.7-0.2-3.7c0.3-0.9,0.4-2.8-1.2-3.2C681.9,33.4,679.8,33.9,679.6,33.2z"/>
											<path class="st20" d="M677.8,39.4c0.8,0.6,1.9,0.8,2.9,0.5c1.1-0.3,2-0.9,2.6-1.8c0-0.1,0.1-0.2,0.1-0.2
												c-0.1,0.9-0.2,2,0,2.4c0.2,0.5-0.6,1-0.6,1c-1.4,0.8-5.4-0.3-5.8-0.9c-0.2-0.3-0.1-0.9,0.1-1.7
												C677.3,39,677.6,39.2,677.8,39.4z"/>
											<g>
												<path class="st21" d="M682.8,30.7c-0.2-0.1-0.4,0.1-0.6,0.3c-0.1,0.2-0.3,0.4-0.5,0.4s-0.3-0.2-0.3-0.3
													c0-0.2,0-0.3,0.1-0.5c0.2-0.3,0.4-0.5,0.7-0.7c-0.3-0.1-0.5-0.4-0.5-0.7c0-0.3,0.2-0.7,0.3-0.9
													c-0.6,0.1-1.2-0.1-1.6-0.5c-0.3-0.5-0.2-1.1,0.2-1.5c0.1-0.1,0.3-0.1,0.4,0c0.1-0.3,0.4-0.5,0.7-0.5
													c0.3,0,0.6,0.2,0.7,0.5c0,0.1,0.1,0.2,0.1,0.2s0.1,0.1,0.2,0.1c0.4,0.1,0.8,0.2,1.1,0.4c0.3,0.2,0.4,0.7,0.2,0.9
													c0.5,0.2,0.8,0.6,0.9,1c0.1,0.5-0.3,0.9-0.8,1c0.3,0.5,0,1.2-0.5,1.3c0,0-0.2,0.1-0.3,0.1l0.1-0.1
													c-0.1-0.2-0.3-0.2-0.4-0.4L682.8,30.7z"/>
											</g>
											<g>
												<path class="st21" d="M681.2,26.3c0-0.2,0-0.4-0.1-0.5c-0.1-0.2-0.3-0.3-0.5-0.3s-0.4,0.2-0.4,0.3
													c-0.2-0.2-0.4-0.2-0.7-0.2c-0.2,0-0.5,0.2-0.6,0.4c0,0,0,0.1-0.1,0.1h-0.1c-0.2,0-0.5,0.1-0.6,0.3s-0.2,0.5-0.1,0.7
													c-0.2,0-0.4,0.2-0.4,0.4s0.1,0.4,0.3,0.5c0,0,0.1,0,0.2,0c0.1,0,0.1-0.1,0.1-0.2c0.1-0.5,0.5-0.8,1-0.9
													c0.4-0.2,1-0.2,1.4-0.2c0.2,0,0.4,0,0.6,0L681.2,26.3z"/>
											</g>
											<path class="st27" d="M680.7,30c0,0-0.3-0.5-1.2-0.2c0,0,0.4-0.6,0.9-0.3C680.4,29.6,680.7,29.8,680.7,30z"/>
											<path class="st27" d="M678.1,28.8c0.4,0.1,0.4,0.7,0.4,0.7c-0.2-0.3-0.4-0.4-0.5-0.5C678,29,678,28.9,678.1,28.8z"/>
											<path class="st13" d="M679.4,30.9c0,0-0.3,0.3-1,0.1"/>
											<path class="st13" d="M679.6,31.1c0,0-0.3-0.1-0.2-0.5"/>
											<g>
												<path class="st24" d="M678,29.9l-0.2-0.1c-0.1-0.1-0.1-0.4,0.1-0.7c0.2-0.3,0.4-0.6,0.5-0.5l0.2,0.1l0,0l0,0l0,0l0,0
													c0.1,0.1,0.1,0.4-0.1,0.7C678.4,29.8,678.1,29.9,678,29.9L678,29.9L678,29.9L678,29.9L678,29.9z"/>
												<path class="st24" d="M676.3,28.9l0.3-0.6v-0.1l0.3-0.6l1.6,1.1l0,0c0,0,0,0.2-0.1,0.4c-0.1,0.2-0.2,0.3-0.2,0.3l0,0
													L676.3,28.9z"/>
												<path class="st28" d="M676.4,28.6c0.2,0.1,0.4,0.3,0.6,0.4c0.4,0.2,0.9,0.2,1.2-0.1l0.1,0.1l0,0c0,0,0,0.2-0.1,0.4
													c-0.1,0.2-0.2,0.3-0.2,0.3l0,0l-1.8-0.7L676.4,28.6z"/>
												<path class="st4" d="M676.2,28.9l-0.2-0.1c-0.1-0.1-0.1-0.4,0.1-0.7c0.2-0.3,0.4-0.6,0.5-0.5l0.2,0.1l0,0l0,0l0,0l0,0
													c0.1,0.1,0.1,0.4-0.1,0.7C676.5,28.8,676.3,29,676.2,28.9L676.2,28.9L676.2,28.9L676.2,28.9L676.2,28.9z"/>
												<path class="st24" d="M673.3,27.6l0.4-0.8v-0.1l0.4-0.8l2.5,1.8l0,0c0.1,0,0,0.3-0.1,0.6c-0.1,0.3-0.3,0.4-0.4,0.4l0,0
													L673.3,27.6z"/>
												<path class="st28" d="M673.4,27.3c0.4,0.2,0.7,0.5,1.1,0.7c0.4,0.2,1.2,0.4,1.6-0.2l0.1-0.1l0.3,0.2l0,0
													c0.1,0,0,0.3-0.1,0.6c-0.1,0.3-0.3,0.4-0.4,0.4l0,0l-2.9-1.1L673.4,27.3z"/>
												<path class="st4" d="M673.2,27.6l-0.2-0.1c-0.1-0.1,0-0.5,0.2-0.9c0.2-0.5,0.5-0.8,0.6-0.7L674,26l0,0l0,0l0,0l0,0
													c0.1,0.1,0,0.5-0.2,0.9C673.7,27.3,673.4,27.6,673.2,27.6L673.2,27.6L673.2,27.6L673.2,27.6L673.2,27.6z"/>
												<path class="st24" d="M670.3,26.3l0.5-1l0.1-0.1l0.5-1l2.5,2l0,0c0.1,0,0,0.4-0.2,0.8c-0.2,0.4-0.4,0.6-0.5,0.6l0,0
													L670.3,26.3z"/>
												<path class="st28" d="M670.4,26.1c0.3,0.2,0.6,0.4,1,0.5c0.5,0.2,1.5,0.3,1.8-0.7c0-0.1,0-0.2,0.1-0.3l0.6,0.5l0,0
													c0.1,0,0,0.4-0.2,0.8c-0.2,0.4-0.4,0.6-0.5,0.6l0,0l-2.9-1L670.4,26.1z"/>
												<path class="st4" d="M670.2,26.3l-0.2-0.1c-0.1-0.1,0-0.7,0.4-1.2c0.3-0.7,0.7-1.1,0.8-1l0.2,0.1l0,0l0,0l0,0l0,0
													c0.1,0.1-0.1,0.7-0.4,1.2C670.7,26,670.4,26.3,670.2,26.3L670.2,26.3L670.2,26.3C670.3,26.3,670.3,26.3,670.2,26.3
													L670.2,26.3z"/>
												<path class="st29" d="M670.1,26.1c-0.4-0.2-0.5-0.9-0.3-1.3c0.3-0.6,0.8-0.8,1.2-0.6l0,0l0,0l0,0c0.1,0-0.1,0.5-0.3,1
													C670.5,25.7,670.2,26.1,670.1,26.1L670.1,26.1L670.1,26.1L670.1,26.1z"/>
												<path class="st28" d="M670.1,26.1c-0.2-0.1-0.4-0.4-0.4-0.8c0.6-0.1,1.1-0.6,1.4-1.1c0,0.1-0.1,0.6-0.4,0.9
													C670.5,25.7,670.2,26.1,670.1,26.1L670.1,26.1L670.1,26.1L670.1,26.1z"/>
												<path class="st1" d="M670,24.7c0,0.1,0.2,0,0.4-0.1c0.2-0.2,0.3-0.3,0.3-0.4s-0.2,0-0.4,0.1
													C670.1,24.5,670,24.6,670,24.7z"/>
												<line class="st30" x1="671.1" y1="25.2" x2="673.8" y2="26.6"/>
												<line class="st30" x1="674" y1="26.7" x2="676.5" y2="28.1"/>
												<line class="st30" x1="676.8" y1="28.3" x2="678.3" y2="29.2"/>
												<path class="st31" d="M671.7,25.9C671.7,25.9,671.8,25.9,671.7,25.9C671.8,25.8,671.8,25.8,671.7,25.9L671.7,25.9
													C671.7,25.9,671.7,25.9,671.7,25.9z"/>
												<path class="st31" d="M673.2,26.7C673.2,26.8,673.3,26.7,673.2,26.7C673.3,26.6,673.3,26.6,673.2,26.7L673.2,26.7
													C673.2,26.7,673.2,26.7,673.2,26.7z"/>
												<path class="st31" d="M674.4,27.4C674.5,27.5,674.5,27.4,674.4,27.4C674.5,27.3,674.5,27.3,674.4,27.4L674.4,27.4
													C674.4,27.4,674.4,27.4,674.4,27.4z"/>
												<path class="st31" d="M676.1,28.3C676.1,28.3,676.2,28.3,676.1,28.3C676.2,28.2,676.2,28.2,676.1,28.3L676.1,28.3
													C676,28.3,676.1,28.3,676.1,28.3z"/>
												<path class="st31" d="M677.1,28.9L677.1,28.9C677.2,28.8,677.2,28.8,677.1,28.9L677.1,28.9
													C677,28.8,677,28.9,677.1,28.9z"/>
												<path class="st31" d="M678,29.4C678,29.5,678.1,29.4,678,29.4C678.1,29.3,678.1,29.3,678,29.4L678,29.4
													C677.9,29.4,678,29.4,678,29.4z"/>
												<path class="st32" d="M671.2,24l0.2,0.1c0,0-0.3,1.2-0.9,1.7C670.5,25.8,671.3,24.5,671.2,24z"/>
												<path class="st32" d="M673.9,26c0,0,0.1,0.3-0.3,1C673.6,27,674,26.7,673.9,26L673.9,26z"/>
											</g>
											<g>
												<g>
													<path class="st19" d="M676,30.9l-0.2-0.9l-0.2-1.1c0.2-0.3,1.2-0.4,1.2-0.4l0.2,0.6c0.2,0.9-0.2,0.9-0.2,0.9l0.1,0.5
														L676,30.9z"/>
													<path class="st19" d="M676.7,28.6c0,0-0.2-1-0.4-1c0,0-0.1,0-0.1,0.1s0.3,1.1,0.3,1.1S676.8,28.9,676.7,28.6z"/>
													<path class="st19" d="M676,28.7c0,0-0.3-1-0.4-0.9c0,0-0.1,0-0.1,0.1s0.3,1.1,0.3,1.1S676.1,29,676,28.7z"/>
													<path class="st19" d="M675.7,28.8c0,0-0.2-0.8-0.4-0.7c0,0-0.1,0-0.1,0.1s0.3,0.8,0.3,0.8S675.8,29,675.7,28.8z"/>
													<path class="st19" d="M676.4,28.6c0,0-0.3-1.2-0.5-1.1c0,0-0.1,0-0.1,0.1s0.4,1.2,0.4,1.2S676.4,28.9,676.4,28.6z"/>
												</g>
												<path class="st19" d="M676.7,30.2c0,0,0.4-0.2,0.5-0.6c0.1-0.4,0.5-0.7,0.5-0.8c0-0.1-0.7,0.1-0.8,0.5
													C676.8,29.8,676.6,30.1,676.7,30.2z"/>
											</g>
											<path class="st3" d="M677.5,35.2c-0.3-0.6-1.6-2.8-2-4.3l1.6-0.6l2.7,3.7l0,0l0,0c0.5-0.1,1.8-0.4,2.3-0.5
												c0.1,0,0.2,0,0.3,0c0.7,0,1.3,0.6,1.3,1.2c0,0.3-0.1,0.7-0.3,0.9l0,0c0,0-0.1,0.1-0.2,0.2c-0.1,0.1-0.2,0.1-0.4,0.2
												c-0.7,0.3-2,0.6-4.5,0l0,0C678,36,677.6,35.7,677.5,35.2z"/>
											<g>
												<path class="st19" d="M675.5,27l0.1,0.2C675.6,27.2,675.4,27.3,675.5,27c-0.2,0-0.2-0.2-0.2-0.2S675.5,26.8,675.5,27z"
													/>
												<path class="st19" d="M675.4,26.9l0.1,0.3c0,0-0.2,0.1-0.2,0C675.2,27,675.3,26.8,675.4,26.9
													C675.3,26.8,675.3,26.7,675.4,26.9z"/>
												<path class="st19" d="M675.2,26.8v0.3c0,0-0.2,0.1-0.2-0.1s0-0.4,0-0.4S675.2,26.6,675.2,26.8z"/>
												<path class="st19" d="M675.1,26.7V27c0,0-0.2,0-0.2-0.1c0-0.2,0.1-0.4,0.1-0.4S675.1,26.5,675.1,26.7z"/>
												<line class="st33" x1="675.3" y1="26.8" x2="675.4" y2="27.1"/>
												<line class="st33" x1="675.2" y1="26.7" x2="675.2" y2="27.1"/>
												<line class="st33" x1="675" y1="26.6" x2="675" y2="26.9"/>
											</g>
											<path class="st13" d="M682.3,36.3c0,0-3.9,0.6-4.8-0.7"/>
											<path class="st13" d="M679.7,34c0,0,0.1,0.6-0.2,0.9"/>
											<path class="st13" d="M681.9,33.7c0,0-2.1,0.4-2.4,0.3l-0.6-0.9"/>
											<path class="st13" d="M677.2,30.8c0,0-1.1,0.5-1.5,0.5"/>
											<path class="st13" d="M675.4,28.9c0,0-1,0.1-1.2,0"/>
										</g>
										<g>
											<path class="st1" d="M715.4,36.7c0,0-27.6,12.7-37.2,15.6l28.2-0.1C706.5,52.2,714.1,41.8,715.4,36.7z"/>
											<path class="st1" d="M668.9,36.9c0,0,27.7,12.5,37.3,15.3L678,52.3C678,52.3,670.3,41.9,668.9,36.9z"/>
											<path class="st34" d="M706.5,52.2L692.3,47l-14.2,5.3C678,52.3,705.3,52.7,706.5,52.2z"/>
										</g>
									</g>
								</g>
							</g>
						</g>
					</g>
				</g>
				<g>
					<path class="st1" d="M563.1,17.4c-0.2,0.2-0.4,0.5-0.4,0.8c0,0.3,0.1,0.6,0.4,0.8c0.2,0.2,0.5,0.3,0.9,0.3s0.6-0.1,0.9-0.3
						c0.2-0.2,0.4-0.5,0.4-0.8c0-0.3-0.1-0.6-0.4-0.8c-0.2-0.2-0.5-0.3-0.9-0.3S563.3,17.2,563.1,17.4z"/>
					<path class="st1" d="M572.5,15.1c0.3,0,0.5-0.1,0.8-0.3c0.2-0.2,0.3-0.4,0.3-0.7c0-0.3-0.1-0.5-0.3-0.7
						c-0.2-0.2-0.5-0.3-0.8-0.3c-0.3,0-0.5,0.1-0.8,0.3c-0.2,0.2-0.3,0.4-0.3,0.7c0,0.3,0.1,0.5,0.3,0.7
						C571.9,15,572.2,15.1,572.5,15.1z"/>
					<path class="st1" d="M570.3,15.1c0.3,0,0.5-0.1,0.8-0.3c0.2-0.2,0.3-0.4,0.3-0.7c0-0.3-0.1-0.5-0.3-0.7
						c-0.2-0.2-0.5-0.3-0.8-0.3c-0.3,0-0.5,0.1-0.8,0.3c-0.2,0.2-0.3,0.4-0.3,0.7c0,0.3,0.1,0.5,0.3,0.7
						C569.7,15,570,15.1,570.3,15.1z"/>
					<path class="st1" d="M576.5,13.8c0.3,0,0.5-0.1,0.8-0.3s0.3-0.4,0.3-0.7c0-0.3-0.1-0.5-0.3-0.7c-0.2-0.2-0.5-0.3-0.8-0.3
						c-0.3,0-0.5,0.1-0.8,0.3c-0.2,0.2-0.3,0.4-0.3,0.7c0,0.3,0.1,0.5,0.3,0.7C575.9,13.7,576.2,13.8,576.5,13.8z"/>
					<path class="st1" d="M578.7,14.7c-0.4-0.2-0.9-0.4-1.5-0.4s-1.1,0-1.7,0.1c-0.3,0.1-0.5,0.2-0.6,0.3c-0.1,0.1,0,0.2,0.1,0.3
						c0.1,0.1,0.3,0.1,0.5,0.1c0.2,0,0.5,0,0.8-0.1c0,0,0,0,0,0c0.5-0.1,0.9,0,1.2,0.1c0.3,0.1,0.5,0.3,0.6,0.6s0.1,0.7-0.1,1.1
						c-0.2,0.4-0.4,0.7-0.8,1c-0.4,0.3-0.8,0.5-1.3,0.6c-0.5,0.1-0.9,0.2-1.3,0.2c-0.1,0-0.2,0-0.2,0.1c0,0,0,0,0,0c0,0,0,0,0,0
						c-0.1-0.1-0.2-0.1-0.2-0.1c-0.2,0-0.4-0.1-0.6-0.2c-0.2-0.2-0.4-0.4-0.6-0.7c-0.2-0.3-0.3-0.7-0.3-1.2c0-0.1,0-0.1,0-0.1v0
						c0-0.4-0.2-0.7-0.5-0.8c-0.3-0.1-0.7-0.1-1.2,0.1c0,0.1,0,0.2,0,0.4c0,0.1,0,0.2,0,0.3c0,0.2,0,0.5-0.1,0.7
						c0,0.3-0.1,0.5-0.2,0.7s-0.2,0.4-0.3,0.6c-0.1,0.1-0.3,0.2-0.5,0.2c-0.1,0-0.2,0-0.2,0.1c-0.1-0.1-0.1-0.1-0.2-0.1
						c-0.2,0-0.4-0.1-0.6-0.2c-0.3-0.2-0.5-0.5-0.6-0.8c-0.1-0.3-0.2-0.5-0.2-0.7c-0.1-0.5-0.2-0.9-0.4-1.3c-0.6-0.2-1-0.2-1.2-0.2
						c-0.2,0-0.3,0.1-0.3,0.3c0,0.2,0,0.4,0.1,0.7c0,0.2,0.1,0.4,0.1,0.6s0.1,0.4,0,0.6c0,0.7-0.2,1.3-0.5,1.8
						c-0.3,0.6-0.7,1-1.2,1.3c-0.5,0.3-1,0.4-1.5,0.2c-0.3-0.1-0.6-0.3-0.8-0.6c-0.2-0.3-0.4-0.7-0.4-1.1s0-0.9,0.1-1.4
						c0.2-0.5,0.4-1,0.9-1.4c0.2-0.2,0.4-0.4,0.5-0.5c0.1-0.1,0.2-0.2,0.3-0.2c0,0,0.1-0.1,0.2-0.1c0.1,0,0.1-0.1,0.2-0.2
						c0,0,0,0,0,0c0,0,0,0,0,0c0,0,0,0,0,0c0,0,0,0,0,0c0,0,0,0,0,0c0,0,0,0,0,0c0,0,0,0,0,0c0,0,0,0,0,0c-0.1-0.1-0.2-0.2-0.4-0.3
						c-0.2-0.1-0.4-0.1-0.7-0.1c-0.2,0-0.4,0-0.5,0.1c-0.1,0.1-0.3,0.2-0.4,0.3c0,0-0.1,0.1-0.1,0.1c-0.7,0.5-1.2,1.1-1.5,1.8
						c-0.4,0.8-0.5,1.5-0.3,2.1c0.2,0.6,0.5,1.1,1,1.5c0.5,0.4,1.1,0.7,1.8,0.8s1.4,0.1,2.1,0c0.7-0.2,1.3-0.5,1.9-1
						c0.4-0.4,0.7-0.9,0.9-1.6c0.2,0.1,0.4,0.3,0.7,0.3s0.5,0.1,0.8,0.1c0.1,0,0.2,0,0.2-0.1c0.1,0.1,0.2,0.1,0.2,0.1c0,0,0,0,0,0
						c0.4,0,0.7-0.1,1-0.3s0.6-0.4,0.9-0.7c0,0,0.1,0.1,0.1,0.1c0.3,0.3,0.6,0.5,0.9,0.7c0.4,0.2,0.8,0.3,1.2,0.3h0v0
						c0.1,0,0.2,0,0.2-0.1c0,0,0,0,0,0c0,0,0,0,0,0c0.1,0.1,0.2,0.1,0.2,0.1h0l0.4,0c0.6,0,1.3-0.1,2.1-0.3c0.6-0.2,1.2-0.5,1.6-0.8
						s0.8-0.7,0.9-1.1c0.2-0.6,0.3-1.1,0.1-1.5C579.4,15.2,579.1,14.9,578.7,14.7z"/>
					<path class="st1" d="M591.2,15.1c-0.5-0.4-1-0.6-1.5-0.7c-0.5,0-0.9,0-1.2,0.2c-0.3,0.1-0.5,0.3-0.7,0.5s-0.3,0.5-0.4,0.7
						c0,0.1-0.1,0.2-0.1,0.3c-0.1,0.2-0.1,0.4-0.2,0.6s-0.2,0.4-0.3,0.7c-0.1,0.2-0.2,0.4-0.4,0.6s-0.3,0.3-0.4,0.5
						c-0.2,0.1-0.3,0.2-0.5,0.2c0,0,0,0-0.1,0c0.2-0.5,0.2-0.9,0.3-1.4s-0.1-0.9-0.2-1.2c-0.2-0.4-0.5-0.6-1-0.8
						c-0.7-0.3-1.4-0.4-1.9-0.2c-0.5,0.1-1,0.4-1.3,0.8c-0.3,0.4-0.4,0.9-0.4,1.4c0,0.5,0.2,1,0.6,1.4c0.2,0.2,0.5,0.4,0.8,0.5
						c0.3,0.1,0.7,0.2,1.1,0.2c0,0.2-0.1,0.4-0.2,0.5s-0.2,0.3-0.3,0.5c-0.1,0.1-0.1,0.2-0.1,0.2c-0.1,0.1-0.2,0.3-0.3,0.4
						c-0.2,0.3-0.3,0.5-0.5,0.8l0.3,0.2c0,0,0.1,0,0.2,0c0.1,0,0.1,0,0.2,0c0,0,0,0,0,0c0.2,0,0.3,0,0.4,0c0.1,0,0.3,0,0.4,0
						c0.1-0.1,0.3-0.4,0.7-0.9c0.3-0.5,0.7-1.1,1-1.9c0.1,0,0.2,0,0.3,0v0c0,0,0,0,0,0c0,0,0.1,0,0.1,0v0c0,0,0,0,0,0
						c0.4,0,0.7-0.1,1-0.2c0.3-0.2,0.6-0.4,0.9-0.7c0,0,0,0,0,0c0,0,0,0,0,0s0,0,0,0s0,0,0,0c0,0,0,0,0,0s0,0,0,0c0,0,0,0,0,0
						c0,0,0,0,0,0c0,0,0,0,0,0c0,0,0,0,0,0c0,0,0.1,0.1,0.1,0.1c0,0,0.1,0.1,0.1,0.1c0.3,0.3,0.7,0.6,1.2,0.7c0.5,0.1,1,0.1,1.5,0
						c0.5-0.1,0.9-0.3,1.3-0.7c0.3-0.3,0.5-0.8,0.6-1.4c0-0.5-0.1-0.9-0.3-1.3C591.8,15.7,591.5,15.3,591.2,15.1z M584.1,17.6
						c0,0.3-0.2,0.6-0.3,0.8c-0.4,0-0.7-0.2-0.9-0.4c-0.2-0.2-0.3-0.5-0.3-0.8c0-0.3,0-0.6,0.1-0.9s0.2-0.4,0.4-0.5
						c0.3-0.1,0.5-0.1,0.6,0.1c0.2,0.2,0.3,0.4,0.4,0.7C584.1,16.9,584.1,17.3,584.1,17.6z M590.4,18.1c-0.1,0.3-0.3,0.5-0.5,0.6
						c-0.2,0.1-0.4,0-0.6-0.3c-0.2-0.3-0.3-0.6-0.4-1.1c-0.1-0.5,0-1,0.1-1.5c0.1-0.2,0.1-0.3,0.2-0.5c0-0.1,0.1-0.1,0.1-0.2
						c0,0,0-0.1,0-0.1c0,0,0.1,0,0.1,0c0.4,0.2,0.6,0.4,0.8,0.8s0.3,0.7,0.3,1.1C590.6,17.4,590.5,17.8,590.4,18.1z"/>
					<path class="st1" d="M595.1,13.2c-0.3,0-0.5,0-0.8,0.1c0,0.1-0.1,0.4-0.1,1c0,0.6-0.1,1.2-0.1,1.9c0,0.7-0.1,1.4-0.1,1.9
						c0,0.6,0,0.9,0,1.1c0,0,0,0,0,0c0.2,0.1,0.5,0.1,0.7,0.1c0.2,0,0.5,0,0.8-0.1c0-0.1,0-0.3,0-0.5c0-0.5,0.1-1.1,0.1-1.9
						c0-0.8,0.1-1.5,0.1-2.1c0-0.7,0-1.1,0-1.3C595.6,13.3,595.3,13.2,595.1,13.2z"/>
					<path class="st1" d="M599.1,11.5c0.2-0.3,0.3-0.6,0.4-0.9c-0.2-0.2-0.4-0.4-0.6-0.5c-0.3-0.1-0.6-0.1-0.9-0.1
						c-0.1,0.1-0.1,0.3-0.2,0.4c-0.1,0.3-0.2,0.5-0.3,0.8s-0.3,0.4-0.5,0.6c-0.2,0.1-0.5,0.1-0.7,0s-0.5-0.3-0.7-0.6
						c-0.2-0.2-0.5-0.4-0.7-0.6c-0.3-0.2-0.6-0.3-0.9-0.4c-0.3-0.1-0.7,0-1.2,0.2c-0.3,0.2-0.6,0.4-0.9,0.7c-0.2,0.3-0.4,0.7-0.4,1
						c0.2,0.2,0.4,0.3,0.7,0.3c0.3,0.1,0.6,0.1,0.9,0c0-0.1,0-0.1,0.1-0.2c0.1-0.4,0.3-0.7,0.4-1c0.1-0.2,0.3-0.3,0.6-0.2
						c0.3,0.1,0.6,0.4,1.1,0.8c0.3,0.3,0.7,0.5,1.1,0.7c0.4,0.1,0.8,0.2,1.3,0.1c0.4-0.1,0.8-0.3,1.1-0.7
						C598.8,12.1,599,11.8,599.1,11.5z"/>
					<path class="st1" d="M602.4,14.5c0.2,0.1,0.4,0.1,0.5,0.1c0.1,0,0.3,0,0.4-0.1c0.2-0.1,0.4-0.3,0.4-0.4s0.1-0.3,0.1-0.4
						c0-0.1,0-0.2-0.1-0.4c-0.1-0.2-0.3-0.4-0.5-0.5c-0.2-0.1-0.3-0.1-0.5-0.1c-0.1,0-0.3,0-0.4,0.1c-0.2,0.1-0.4,0.3-0.4,0.5
						c-0.1,0.2-0.1,0.3-0.1,0.5C601.9,14,602.1,14.3,602.4,14.5z"/>
					<path class="st1" d="M604.5,14c0.2,0.1,0.3,0.1,0.5,0.1c0.1,0,0.2,0,0.3-0.1c0.2-0.1,0.4-0.2,0.5-0.4s0.1-0.4,0.1-0.5
						c0-0.1,0-0.2,0-0.2c-0.1-0.2-0.2-0.4-0.5-0.6c-0.2-0.1-0.4-0.1-0.5-0.1c-0.1,0-0.2,0-0.3,0.1c-0.2,0.1-0.4,0.3-0.5,0.4
						c-0.1,0.2-0.1,0.3-0.1,0.5C604,13.6,604.1,13.9,604.5,14z"/>
					<path class="st1" d="M609.4,12.5c0.2,0,0.3,0,0.5-0.1c0.2-0.1,0.4-0.3,0.4-0.4c0-0.2,0.1-0.3,0.1-0.4c0-0.1,0-0.3-0.1-0.4
						c-0.1-0.3-0.3-0.5-0.5-0.5c-0.2,0-0.3-0.1-0.4-0.1c-0.2,0-0.3,0-0.5,0.1c-0.2,0.1-0.4,0.3-0.5,0.6c0,0.1,0,0.2,0,0.3
						c0,0.2,0,0.3,0.1,0.4C608.7,12.3,609,12.5,609.4,12.5z"/>
					<path class="st1" d="M612,13.3c0.2,0.1,0.4,0.1,0.5,0.1h0c0.2,0,0.3-0.1,0.4-0.1s0.2-0.2,0.3-0.3l0.1-0.2
						c0.3-0.4,0.5-0.8,0.8-1.1c0.2-0.4,0.4-0.7,0.5-1c-0.1-0.1-0.3-0.2-0.5-0.3s-0.4-0.1-0.6-0.2h-0.1c-0.2,0-0.3,0-0.4,0.1
						c-0.1,0.1-0.2,0.2-0.3,0.3c0,0.1-0.1,0.2-0.3,0.5c-0.4,0.5-0.7,1-0.9,1.4c-0.1,0.2-0.2,0.4-0.2,0.5v0
						C611.7,13.2,611.8,13.3,612,13.3z"/>
					<path class="st1" d="M622.1,13.6c0,0.3,0.1,0.5,0.3,0.7s0.4,0.3,0.7,0.3s0.5-0.1,0.7-0.3c0.2-0.2,0.3-0.4,0.3-0.7
						c0-0.3-0.1-0.5-0.3-0.7c-0.2-0.2-0.4-0.3-0.7-0.3s-0.5,0.1-0.7,0.3S622.1,13.3,622.1,13.6z"/>
					<path class="st1" d="M622.1,12.8c0.3,0,0.5-0.1,0.7-0.3c0.2-0.2,0.3-0.4,0.3-0.7c0-0.3-0.1-0.5-0.3-0.7
						c-0.2-0.2-0.4-0.3-0.7-0.3s-0.5,0.1-0.7,0.3s-0.3,0.4-0.3,0.7c0,0.3,0.1,0.5,0.3,0.7S621.8,12.8,622.1,12.8z"/>
					<path class="st1" d="M621.1,14.5c0.3,0,0.5-0.1,0.7-0.3c0.2-0.2,0.3-0.4,0.3-0.7c0-0.3-0.1-0.5-0.3-0.7
						c-0.2-0.2-0.4-0.3-0.7-0.3s-0.5,0.1-0.7,0.3c-0.2,0.2-0.3,0.4-0.3,0.7c0,0.3,0.1,0.5,0.3,0.7C620.6,14.4,620.8,14.5,621.1,14.5
						z"/>
					<path class="st1" d="M625.5,16c-0.2-0.3-0.3-0.5-0.5-0.6c-0.4-0.2-0.8-0.2-1.2-0.1c0,0,0,0.2,0.1,0.4c0.1,0.3,0.3,0.6,0.4,1
						s0.1,0.8,0.1,1.1c-0.1,0.2-0.2,0.4-0.3,0.5c-0.1,0.1-0.3,0.2-0.4,0.1c-0.2-0.1-0.3-0.2-0.4-0.6c-0.1-0.4-0.2-0.8-0.2-1.3
						c0-0.4-0.1-0.8-0.2-1.2c0,0,0-0.1,0-0.1c0-0.1,0-0.2-0.1-0.2s-0.1-0.1-0.1-0.1c0,0-0.1,0-0.2-0.1c0,0,0,0,0,0l-0.7-0.1
						c-0.1,0-0.1,0-0.2,0c-0.1,0-0.1,0-0.2,0c0,0,0,0.1,0,0.2c0,0,0,0.1,0,0.1c0,0.3,0,0.6,0,1c0,0.4-0.1,0.9-0.3,1.4l-0.6-2.5
						c0-0.1,0-0.1,0-0.2c0-0.1,0-0.1-0.1-0.2c0,0-0.1-0.1-0.1-0.1s-0.1,0-0.2-0.1c0,0,0,0,0,0c-0.2-0.1-0.5-0.1-0.7-0.1
						c-0.1,0-0.2,0-0.2,0.1c0,0.1-0.1,0.1-0.1,0.2c0,0.1,0,0.1,0,0.2c-0.1,0.2-0.1,0.4-0.2,0.7c-0.1,0.4-0.2,0.9-0.4,1.3
						s-0.4,0.8-0.6,1.1c-0.3,0.3-0.6,0.4-1.1,0.5c-0.5-0.1-1-0.4-1.3-1.2c-0.1-0.3-0.2-0.6-0.3-0.9c-0.1-0.6-0.3-1.2-0.6-1.9
						l-0.1-0.4c0.3-0.4,0.7-0.9,1.1-1.4c0.5-0.7,1-1.3,1.3-1.8c-0.4-0.2-0.7-0.3-0.8-0.3s-0.2,0-0.3,0c-0.2,0-0.4,0-0.5,0.1
						c-0.2,0.1-0.3,0.2-0.4,0.4c-0.2,0.3-0.5,0.6-0.8,1s-0.5,0.7-0.8,1c-0.3,0.3-0.5,0.7-0.6,0.9c0.2,0.3,0.4,0.8,0.7,1.5
						c0.3,0.7,0.4,1.4,0.5,2c0,0.4-0.1,0.7-0.4,0.9c-0.3,0.2-0.6,0.3-0.9,0.3c-0.4,0-0.8-0.1-1.1-0.3c-0.3-0.2-0.5-0.4-0.5-0.6
						c0.8-0.7,1.2-1.3,1.4-1.8c0.2-0.5,0.3-0.9,0.3-1.2c0-0.4-0.1-0.7-0.3-1c-0.3-0.5-0.9-0.9-1.8-1.1c-0.4-0.1-0.7-0.1-1-0.1
						c-0.3,0-0.6,0-0.9,0.1c-0.5,0.2-0.8,0.4-1,0.8c-0.2,0.3-0.3,0.6-0.3,0.9s0,0.4,0,0.4c0,0.4,0.1,0.8,0.2,1.1
						c0.2,0.4,0.4,0.7,0.6,1c0.3,0.3,0.5,0.5,0.8,0.8c-0.1,0.1-0.2,0.2-0.4,0.3c-0.2,0.1-0.4,0.2-0.6,0.3c-0.2,0.1-0.5,0.1-0.8,0.1
						c-0.2,0-0.4-0.1-0.6-0.2c-0.2-0.2-0.4-0.4-0.6-0.7c-0.2-0.3-0.3-0.7-0.3-1.2l0-0.2c0-0.4-0.1-0.6-0.3-0.7s-0.4-0.1-0.6-0.1
						c-0.2,0-0.5,0-0.7,0.1c0,0.1,0,0.2,0,0.4c0,0.3,0,0.7-0.1,1c-0.1,0.6-0.2,1-0.4,1.3c-0.1,0.1-0.3,0.2-0.5,0.2
						c-0.1,0-0.2,0-0.2,0.1c-0.1,0.1-0.1,0.1-0.1,0.2c0,0.1,0,0.2,0.1,0.2c0.1,0.1,0.2,0.1,0.3,0.1l0.1,0l0.1,0c0.2,0,0.5,0,0.8,0.1
						c0.3,0,0.6,0.1,0.8,0.3c0.3,0.1,0.5,0.3,0.6,0.5c0.1,0.2,0.2,0.4,0.2,0.5s0,0.2,0,0.2c0,0.2,0,0.4-0.1,0.6
						c-0.2,0.4-0.4,0.8-0.9,1.1s-0.8,0.5-1.2,0.6c-0.4,0.1-0.7,0.2-1,0.2c-0.2,0-0.4,0-0.7-0.1c-0.5-0.1-0.9-0.4-1.2-0.8
						c-0.3-0.4-0.5-1-0.5-1.7v-0.1c0-0.6,0.2-1.2,0.5-1.8c0.3-0.5,0.6-1,1-1.4c0.4-0.4,0.7-0.8,1.1-1.1c0.4-0.4,0.7-0.7,0.9-1
						c-0.5-0.2-0.8-0.4-1-0.4c-0.1,0-0.2,0-0.2,0c-0.2,0-0.4,0.1-0.6,0.2c-0.6,0.4-1.1,0.9-1.6,1.6c-0.5,0.7-1,1.4-1.3,2.1
						c-0.2,0.6-0.3,1.1-0.3,1.6c0,0.2,0,0.4,0,0.5c0.1,0.6,0.4,1.2,0.8,1.6c0.4,0.4,0.9,0.8,1.5,1c0.6,0.2,1.3,0.4,2,0.4
						c0.2,0,0.5,0,0.7,0c0.9-0.1,1.7-0.4,2.4-0.9c0.4-0.3,0.7-0.6,0.9-0.9c0.2-0.3,0.3-0.7,0.3-1c0-0.1,0-0.1,0-0.2
						c0-0.4-0.3-0.8-0.7-1.2c-0.3-0.3-1-0.6-2-1c0.2-0.2,0.4-0.3,0.5-0.5c0.3,0.3,0.6,0.6,1,0.8c0.3,0.1,0.7,0.2,1,0.3
						c0,0,0,0,0.1,0l0,0c0,0,0.1,0,0.1,0c0,0,0,0,0,0h0c0,0,0,0,0,0c0,0,0,0,0,0c0,0,0.1,0,0.2,0c0.4,0,0.8-0.1,1.3-0.2
						c0.4-0.1,0.9-0.3,1.4-0.6c0.4,0.5,0.8,0.8,1.3,0.9c0.5,0.1,0.9,0.2,1.3,0.2c0.3,0,0.6,0,0.9-0.1c0.6-0.1,1.1-0.4,1.5-0.9
						c0.5,0.4,1,0.6,1.7,0.6c0,0,0,0,0,0c0,0,0,0,0,0c0,0,0,0,0.1,0l0,0c0,0,0,0,0.1,0c0.4,0,0.8-0.1,1.1-0.2c0.4-0.2,0.7-0.4,1-0.7
						c0.3-0.3,0.5-0.6,0.7-0.9c0,0.1,0.1,0.3,0.1,0.5c0.1,0.4,0.2,0.7,0.3,1.1c0.2,0.4,0.4,0.6,0.7,0.6s0.6,0,0.9-0.4
						c0.1-0.1,0.2-0.2,0.3-0.3c0.1-0.1,0.2-0.3,0.3-0.4c0,0,0,0,0,0c0.2,0.2,0.4,0.3,0.6,0.5c0.2,0.1,0.6,0.2,1,0.2
						c0.6,0,1-0.1,1.3-0.4c0.3-0.2,0.5-0.5,0.6-0.9c0.1-0.3,0.1-0.7,0-1.1C625.8,16.7,625.7,16.3,625.5,16z M609.8,17.2
						c-0.4-0.5-0.7-1-0.8-1.3s-0.2-0.7-0.2-0.9c0-0.1,0-0.3,0-0.4c0.1-0.3,0.2-0.6,0.4-0.7c0.2-0.1,0.4-0.2,0.5-0.2c0,0,0.1,0,0.2,0
						c0.3,0.1,0.6,0.3,0.7,0.6s0.2,0.6,0.2,0.8C610.8,15.8,610.5,16.5,609.8,17.2z"/>
					<path class="st1" d="M632.9,14.4c-0.2-0.2-0.4-0.4-0.6-0.4c-0.2-0.1-0.5-0.1-0.7,0c-0.2,0-0.4,0.1-0.6,0.2l0.3,0.5
						c-0.3,0.1-0.6,0.3-0.9,0.5c-0.3,0.3-0.6,0.6-0.8,0.9c-0.2,0.4-0.4,0.8-0.4,1.2c0,0.5,0.1,1,0.4,1.3s0.7,0.5,1.3,0.6
						c0.5,0.1,1,0.1,1.5-0.1s0.9-0.4,1.2-0.8c0.3-0.4,0.4-0.9,0.4-1.6C633.8,16,633.5,15.2,632.9,14.4z M632.1,18.3
						c-0.2,0.2-0.4,0.3-0.8,0.2c-0.3-0.1-0.5-0.3-0.6-0.6c-0.1-0.3,0-0.6,0.1-1c0.1-0.3,0.3-0.5,0.5-0.8c0.2-0.3,0.4-0.5,0.5-0.6
						c0.1,0.1,0.3,0.4,0.4,0.7c0.1,0.4,0.2,0.7,0.2,1.1C632.4,17.8,632.3,18.1,632.1,18.3z"/>
					<path class="st1" d="M636.9,15.9c-0.2,0-0.4,0.1-0.5,0.2c-0.1,0.2-0.2,0.7-0.5,1.4c-0.3,0.7-0.6,1.4-0.9,2.1s-0.5,1.2-0.7,1.4
						c0.2,0.1,0.4,0.2,0.8,0.3c0.3,0.1,0.6,0.1,0.8,0c0.3-0.4,0.7-1.1,1.1-2.1c0.4-1,0.8-2,1.1-2.9c-0.1-0.1-0.3-0.2-0.5-0.2
						S637.1,15.9,636.9,15.9z"/>
					<path class="st1" d="M640.8,13.2c-0.3,0-0.5,0-0.8,0.1c0,0.1-0.1,0.4-0.1,1c0,0.6-0.1,1.2-0.1,1.9c0,0.7-0.1,1.4-0.1,1.9
						c0,0.6,0,0.9,0,1.1c0,0,0,0,0,0c0.2,0.1,0.5,0.1,0.7,0.1c0.2,0,0.5,0,0.8-0.1c0-0.1,0-0.3,0-0.5c0-0.5,0.1-1.1,0.1-1.9
						c0-0.8,0.1-1.5,0.1-2.1c0-0.7,0-1.1,0-1.3C641.3,13.3,641.1,13.2,640.8,13.2z"/>
					<path class="st1" d="M647.1,15.3c0.2,0,0.3,0,0.5-0.1c0.2-0.1,0.4-0.3,0.4-0.4c0-0.2,0.1-0.3,0.1-0.4c0-0.1,0-0.3-0.1-0.4
						c-0.1-0.3-0.3-0.5-0.5-0.5c-0.2,0-0.3-0.1-0.4-0.1c-0.2,0-0.3,0-0.5,0.1c-0.2,0.1-0.4,0.3-0.5,0.6c0,0.1,0,0.2,0,0.3
						c0,0.2,0,0.3,0.1,0.4C646.4,15.2,646.7,15.3,647.1,15.3z"/>
					<path class="st1" d="M658.6,12.8c0.3,0,0.5-0.1,0.7-0.3c0.2-0.2,0.3-0.4,0.3-0.7c0-0.3-0.1-0.5-0.3-0.7
						c-0.2-0.2-0.4-0.3-0.7-0.3s-0.5,0.1-0.7,0.3c-0.2,0.2-0.3,0.4-0.3,0.7c0,0.3,0.1,0.5,0.3,0.7C658.1,12.7,658.4,12.8,658.6,12.8
						z"/>
					<path class="st1" d="M658.7,13.5c0,0.3,0.1,0.5,0.3,0.7c0.2,0.2,0.4,0.3,0.7,0.3s0.5-0.1,0.7-0.3c0.2-0.2,0.3-0.4,0.3-0.7
						c0-0.3-0.1-0.5-0.3-0.7c-0.2-0.2-0.4-0.3-0.7-0.3s-0.5,0.1-0.7,0.3C658.8,13.1,658.7,13.3,658.7,13.5z"/>
					<path class="st1" d="M657.6,14.5c0.3,0,0.5-0.1,0.7-0.3c0.2-0.2,0.3-0.4,0.3-0.7c0-0.3-0.1-0.5-0.3-0.7
						c-0.2-0.2-0.4-0.3-0.7-0.3s-0.5,0.1-0.7,0.3c-0.2,0.2-0.3,0.4-0.3,0.7c0,0.3,0.1,0.5,0.3,0.7C657.2,14.4,657.4,14.5,657.6,14.5
						z"/>
					<path class="st1" d="M665.8,19.8c-0.3,0-0.5,0.1-0.8,0.3c-0.2,0.2-0.3,0.4-0.3,0.7c0,0.3,0.1,0.5,0.3,0.7
						c0.2,0.2,0.5,0.3,0.8,0.3c0.3,0,0.5-0.1,0.8-0.3c0.2-0.2,0.3-0.4,0.3-0.7c0-0.3-0.1-0.5-0.3-0.7
						C666.3,19.9,666.1,19.8,665.8,19.8z"/>
					<path class="st1" d="M668.8,15.6c-0.2-0.4-0.5-0.7-0.9-0.9c-0.4-0.2-0.9-0.4-1.5-0.4s-1.1,0-1.7,0.1c-0.3,0.1-0.5,0.2-0.6,0.3
						c-0.1,0.1,0,0.2,0.1,0.3c0.1,0.1,0.3,0.1,0.5,0.1c0.2,0,0.5,0,0.8-0.1c0,0,0,0,0,0c0.5-0.1,0.9,0,1.2,0.1
						c0.3,0.1,0.5,0.3,0.6,0.6s0.1,0.7-0.1,1.1c-0.2,0.4-0.4,0.7-0.8,1c-0.4,0.3-0.8,0.5-1.3,0.6c-0.5,0.1-0.9,0.2-1.3,0.2
						c-0.2,0-0.4-0.1-0.6-0.2c-0.2-0.1-0.3-0.3-0.5-0.5c-0.1-0.2-0.3-0.4-0.3-0.7c0,0,0,0,0-0.1l0,0c-0.2-0.7-0.4-1.2-0.8-1.4
						c-0.4-0.2-0.8-0.3-1.2-0.1c0,0,0,0.2,0.1,0.4c0.1,0.3,0.3,0.6,0.4,1s0.1,0.8,0.1,1.1c-0.1,0.2-0.2,0.4-0.3,0.5
						c-0.1,0.1-0.3,0.2-0.4,0.1c-0.2-0.1-0.3-0.3-0.4-0.6c-0.1-0.4-0.2-0.8-0.2-1.3c0-0.4-0.1-0.8-0.2-1.3c0,0,0-0.1,0-0.1
						c0-0.1,0-0.2-0.1-0.2c0,0-0.1-0.1-0.1-0.1c0,0-0.1,0-0.2-0.1c0,0,0,0,0,0l-0.7-0.1c-0.1,0-0.1,0-0.2,0c-0.1,0-0.1,0-0.2,0
						c0,0,0,0.1,0,0.2c0,0,0,0.1,0,0.1c0,0.3,0,0.6,0,1c0,0.4-0.1,0.8-0.3,1.4l-0.6-2.5c0-0.1,0-0.1,0-0.2c0-0.1,0-0.1-0.1-0.2
						c0,0-0.1-0.1-0.1-0.1c-0.1,0-0.1,0-0.2-0.1c0,0,0,0,0,0c-0.2-0.1-0.5-0.1-0.7-0.1c-0.1,0-0.2,0-0.2,0.1c0,0.1-0.1,0.1-0.1,0.2
						c0,0.1,0,0.1,0,0.2c-0.1,0.2-0.1,0.4-0.2,0.7c-0.1,0.4-0.2,0.9-0.4,1.3c-0.2,0.4-0.4,0.8-0.6,1.1c-0.3,0.3-0.7,0.4-1.1,0.5
						c0,0,0,0,0,0s0,0,0,0h-0.3h-1.7h-0.3c-0.2,0-0.4-0.1-0.6-0.2c-0.2-0.2-0.4-0.4-0.6-0.7c-0.2-0.3-0.3-0.7-0.3-1.2l0-0.2
						c0-0.4-0.1-0.6-0.3-0.7c-0.2-0.1-0.4-0.1-0.6-0.1c-0.2,0-0.5,0-0.7,0.1c0,0.1,0,0.2,0,0.4c0,0.3,0,0.7-0.1,1
						c-0.1,0.6-0.2,1-0.4,1.3c-0.1,0.1-0.3,0.2-0.5,0.2c0,0-0.1,0-0.1,0c0.2-0.5,0.2-0.8,0.3-1.1s0-0.4,0-0.4c0-0.4-0.1-0.7-0.3-1.1
						c-0.2-0.4-0.5-0.6-1-0.8c-0.5-0.2-0.9-0.3-1.4-0.3c-0.2,0-0.4,0-0.6,0.1c-0.5,0.1-1,0.4-1.3,0.8c-0.3,0.4-0.4,0.8-0.4,1.3
						c0,0.5,0.2,1,0.6,1.5c0.2,0.2,0.5,0.4,0.8,0.5c0.3,0.1,0.7,0.2,1.1,0.2c0,0.2-0.1,0.4-0.2,0.5s-0.2,0.3-0.3,0.5l-0.1,0.2
						c-0.1,0.1-0.2,0.3-0.3,0.4c-0.2,0.3-0.3,0.5-0.5,0.8l0.3,0.2c0,0,0.1,0,0.2,0c0.1,0,0.1,0,0.2,0l0,0c0.2,0,0.3,0,0.4,0
						c0.1,0,0.2,0,0.4,0c0.1-0.1,0.3-0.4,0.7-0.9c0.3-0.5,0.7-1.1,1-1.9c0.1,0,0.3,0,0.4,0l0,0c0.4,0,0.7-0.1,1-0.3s0.6-0.4,0.9-0.7
						c0.3,0.3,0.6,0.6,1,0.8c0.3,0.2,0.7,0.2,1.1,0.3c0,0,0,0,0,0h0.3h1.7h0.3c0,0,0,0,0,0c0,0,0,0,0,0c0,0,0,0,0,0
						c0.7,0,1.3-0.2,1.8-0.5c0.5-0.3,0.9-0.7,1.2-1.2c0,0.1,0.1,0.3,0.1,0.5c0.1,0.4,0.2,0.7,0.3,1.1c0.2,0.4,0.4,0.6,0.7,0.7
						c0.3,0.1,0.6,0,0.9-0.3c0.1-0.1,0.2-0.2,0.3-0.3c0.1-0.1,0.2-0.3,0.3-0.4c0,0,0,0,0,0c0.2,0.2,0.4,0.4,0.6,0.5
						c0.2,0.1,0.6,0.2,1,0.2c0.5,0,0.8,0,1.1-0.2c0.3-0.1,0.5-0.3,0.6-0.6c0.2,0.1,0.4,0.3,0.7,0.3c0.2,0.1,0.5,0.1,0.8,0.1
						c0,0,0,0,0,0h0l0,0c0,0,0,0,0,0c0,0,0,0,0,0l0.4,0c0.6,0,1.3-0.1,2.1-0.3c0.6-0.2,1.2-0.5,1.6-0.8s0.8-0.7,0.9-1.1
						C668.9,16.5,668.9,16,668.8,15.6z M644.8,18.4c-0.4,0-0.7-0.2-0.9-0.4c-0.2-0.2-0.3-0.5-0.3-0.7c0-0.2,0-0.3,0-0.4
						c0-0.2,0-0.4,0.1-0.6c0.1-0.4,0.4-0.6,0.7-0.6c0.1,0,0.3,0.1,0.4,0.2c0.2,0.2,0.3,0.4,0.4,0.7c0.1,0.3,0.1,0.5,0.1,0.7
						C645.2,17.7,645,18.1,644.8,18.4z"/>
				</g>
			</g>
			<g>
				<g>
					<g>
						<path class="st35" d="M602.4,32c0.2-1.9,1.9-3.5,4-3.5h52c0.6,0,1.1,0.1,1.6,0.3c-0.6-1.4-2-2.3-3.6-2.3h-52
							c-1.8,0-3.3,1.2-3.8,2.8C601.5,29.9,602.2,30.9,602.4,32z"/>
						<path class="st35" d="M565.8,44l-0.8-8.3c-0.1-1,0.2-2,0.9-2.8c0.7-0.8,1.6-1.3,2.6-1.4l29.6-2.7c0.1,0,0.3,0,0.4,0
							c0.6,0,1.1,0.1,1.6,0.3c-0.6-1.4-2-2.3-3.6-2.3c-0.1,0-0.3,0-0.4,0l-29.6,2.7c-1,0.1-2,0.6-2.6,1.4c-0.7,0.8-1,1.8-0.9,2.8
							l0.8,8.3c0.2,1.4,1.1,2.6,2.3,3.1C565.9,44.8,565.8,44.4,565.8,44z"/>
						<path class="st35" d="M602.3,44.4v-1.1c0,0,0,0,0,0c-0.4,0.5-0.9,0.8-1.4,1.1c0.4,0.7,1,1.3,1.8,1.6
							C602.5,45.5,602.3,45,602.3,44.4z"/>
					</g>
					<path class="st36" d="M658,28.6h-51.7c-2.1,0-3.7,1.5-4,3.5c-0.3-1.8-2-3.2-3.9-3.2c-0.1,0-0.3,0-0.4,0l-29.6,2.7
						c-1,0.1-2,0.6-2.6,1.4c-0.7,0.8-1,1.8-0.9,2.8l0.8,8.3c0.2,2,1.9,3.5,3.9,3.5c0.1,0,0.3,0,0.4,0l29.6-2.7
						c1.1-0.1,2-0.6,2.7-1.4c0,0,0,0,0,0v1.1c0,2.2,1.8,3.9,4,3.9l49,1.6l0.2,0h0c1.5,0,2.8-0.7,3.7-1.8c1.6-0.5,2.8-2,2.8-3.7V32.5
						C662,30.3,660.2,28.6,658,28.6z"/>
				</g>
				<g>
					<path class="st37" d="M606.9,46.6l46.6,1.6c1.4,0.1,2.7-0.4,3.5-1.1l0.6-0.5l-50.8,0L606.9,46.6z"/>
					<path class="st38" d="M657.2,46.6h-50c-1.7,0-3.1-0.9-3.1-2.2V32.5c0-1.2,1.4-2.2,3.1-2.2h50c1.7,0,3.1,0.9,3.1,2.2v11.9
						C660.3,45.6,658.9,46.6,657.2,46.6z"/>
					<g>
						<path class="st1" d="M568.7,33.2l29.6-2.7c1.2-0.1,2.3,0.8,2.4,2l0.8,8.2c0.1,1.2-0.8,2.2-2,2.4l-29.6,2.7
							c-1.2,0.1-2.2-0.8-2.4-1.9l-0.8-8.3C566.6,34.4,567.5,33.3,568.7,33.2z"/>
						<g>
							<polygon points="579,34.9 578.3,34.4 577.6,35.1 578.4,35.7 							"/>
							<polygon points="578.2,36.3 577.4,35.6 576.7,36.4 577.5,37 							"/>
							<path d="M581.5,40c0.1-0.2,0.1-0.5,0.1-0.8c0-0.1,0-0.2-0.1-0.3c0-0.1-0.1-0.3-0.1-0.4c0-0.1-0.1-0.3-0.1-0.4
								c0-0.1-0.1-0.3-0.1-0.4c0-0.1-0.1-0.2-0.1-0.3c0-0.1,0-0.1-0.1-0.1l-0.9,0.3c0,0,0,0.1,0.1,0.2c0,0.1,0.1,0.2,0.1,0.3
								s0.1,0.2,0.1,0.3s0.1,0.2,0.1,0.3c0,0.1,0.1,0.2,0.1,0.3c0,0.1,0,0.2,0,0.2c0,0.2,0,0.3,0,0.4c0,0.1-0.1,0.2-0.2,0.2
								s-0.1,0.1-0.2,0.1c-0.1,0-0.1,0-0.2,0c-0.3,0-0.5,0-0.6-0.1c-0.1-0.1-0.2-0.3-0.3-0.5l-0.1-1.4l-1,0.1l0.1,1.3
								c0,0.1,0,0.3-0.1,0.4c0,0.1-0.1,0.2-0.2,0.2c-0.1,0.1-0.2,0.1-0.2,0.1c-0.1,0-0.2,0-0.2,0.1c-0.1,0-0.2,0-0.3,0
								c-0.1,0-0.2-0.1-0.3-0.1c-0.1-0.1-0.2-0.2-0.2-0.3c-0.1-0.2-0.1-0.4-0.1-0.6l-0.1-0.8l-1,0.1l0.3,3.1c0,0.2,0,0.4,0,0.6
								c0,0.2-0.1,0.3-0.2,0.4c-0.1,0.1-0.3,0.2-0.5,0.3c-0.2,0.1-0.5,0.1-0.8,0.2l-0.9,0.1c-0.3,0-0.5,0-0.7-0.1
								c-0.2-0.1-0.4-0.2-0.6-0.3c-0.2-0.1-0.3-0.3-0.4-0.5c-0.1-0.2-0.2-0.4-0.2-0.7c0-0.3,0-0.6,0.1-1c0.1-0.3,0.2-0.7,0.4-1.2
								l-0.9-0.3c-0.2,0.5-0.3,1-0.4,1.4c-0.1,0.4-0.1,0.8-0.1,1.2c0,0.4,0.1,0.8,0.3,1.1c0.2,0.3,0.4,0.6,0.6,0.8
								c0.3,0.2,0.6,0.4,0.9,0.5s0.7,0.1,1.1,0.1l0.9-0.1c0.9-0.1,1.5-0.3,1.9-0.7c0.4-0.4,0.6-1,0.5-1.8l0-0.3
								c0.1,0.1,0.1,0.1,0.2,0.1s0.1,0,0.2,0.1c0.1,0,0.2,0,0.2,0c0.1,0,0.2,0,0.3,0c0.1,0,0.2,0,0.3,0c0.1,0,0.2-0.1,0.3-0.1
								s0.2-0.1,0.3-0.2s0.2-0.1,0.3-0.2c0.2,0.1,0.4,0.2,0.6,0.3c0.2,0.1,0.5,0.1,0.8,0.1c0.2,0,0.4-0.1,0.6-0.2
								c0.2-0.1,0.4-0.2,0.5-0.4C581.3,40.4,581.4,40.2,581.5,40z"/>
							<polygon points="579.5,36.8 580.1,36.1 579.3,35.5 578.6,36.2 							"/>
							<polygon points="584.2,35.8 583.4,35.1 582.7,35.9 583.5,36.6 							"/>
							<path d="M583.1,37.8l0.2,2.7c0,0.3,0,0.6,0,0.8c-0.1,0.2-0.1,0.4-0.3,0.5c-0.1,0.1-0.3,0.3-0.5,0.3c-0.2,0.1-0.5,0.1-0.8,0.2
								l-0.6,0l0.1,1l0.6,0c0.4,0,0.8-0.1,1.1-0.3s0.6-0.3,0.8-0.6s0.4-0.5,0.5-0.8c0.1-0.3,0.2-0.7,0.1-1.1l-0.2-2.8L583.1,37.8z"
								/>
							<path d="M594.1,37.5c-0.1-0.2-0.2-0.4-0.4-0.6c-0.2-0.2-0.4-0.3-0.6-0.4c-0.2-0.1-0.5-0.1-0.8-0.1c-0.2,0-0.4,0.1-0.5,0.1
								c-0.2,0.1-0.3,0.1-0.4,0.2c-0.1,0.1-0.2,0.2-0.3,0.3c-0.1,0.1-0.2,0.3-0.2,0.4c-0.1,0.1-0.1,0.3-0.1,0.4
								c0,0.1-0.1,0.3-0.1,0.4c0,0.1-0.1,0.3-0.1,0.4c0,0.1-0.1,0.2-0.1,0.3c0,0.1-0.1,0.2-0.1,0.2c-0.1,0.1-0.1,0.1-0.2,0.1
								l-0.7,0.1l0,0l-0.7,0.1l-0.1-0.7c0-0.4-0.1-0.7-0.2-1c-0.1-0.3-0.3-0.5-0.5-0.7c-0.2-0.1-0.4-0.2-0.6-0.3
								c-0.2-0.1-0.4-0.1-0.6,0c-0.3,0-0.5,0.1-0.7,0.2c-0.2,0.1-0.4,0.3-0.6,0.4c-0.1,0.1-0.1,0.2-0.2,0.2
								c-0.1,0.1-0.1,0.2-0.2,0.3c0,0.1-0.1,0.3-0.1,0.4c0,0.2,0,0.3,0,0.5c0,0.3,0.1,0.6,0.2,0.8c0.1,0.2,0.3,0.4,0.5,0.5
								c0.2,0.1,0.4,0.2,0.6,0.2c0.2,0,0.5,0.1,0.7,0l0.8-0.1c0,0.1,0,0.2,0,0.3c0,0.1,0,0.2-0.1,0.3c0,0.1-0.1,0.2-0.1,0.2
								c0,0.1-0.1,0.1-0.2,0.2c-0.2,0.2-0.4,0.3-0.7,0.4c-0.3,0.1-0.7,0.2-1.2,0.2l0.1,1c0.3,0,0.6-0.1,0.8-0.1s0.5-0.1,0.7-0.2
								c0.2-0.1,0.4-0.1,0.5-0.2s0.3-0.2,0.4-0.3c0.2-0.2,0.4-0.5,0.5-0.8c0.1-0.3,0.2-0.6,0.1-1l0.8-0.1l0,0l0.5,0
								c0.2,0,0.3-0.1,0.5-0.1c0.2-0.1,0.3-0.2,0.4-0.3c0.2,0.1,0.4,0.2,0.5,0.2c0.2,0.1,0.3,0.1,0.5,0.2c0.1,0,0.3,0.1,0.4,0.1
								c0.1,0,0.3,0,0.4,0c0.1,0,0.2,0,0.3,0c0.1,0,0.2-0.1,0.3-0.1c0.1-0.1,0.2-0.1,0.3-0.2c0.1-0.1,0.2-0.2,0.3-0.4
								c0.1-0.1,0.1-0.3,0.2-0.5c0-0.2,0-0.5,0-0.8C594.2,38,594.2,37.7,594.1,37.5z M586.9,39.5c0,0-0.1,0-0.1,0c0,0-0.1,0-0.2,0
								c-0.1,0-0.1,0-0.2,0c-0.1,0-0.1,0-0.2-0.1c-0.1-0.1-0.2-0.1-0.3-0.2c-0.1-0.1-0.1-0.2-0.1-0.4c0-0.3,0-0.6,0.2-0.8
								s0.4-0.3,0.6-0.3c0,0,0.1,0,0.1,0c0.1,0,0.1,0,0.2,0c0.1,0,0.1,0,0.2,0.1s0.1,0.1,0.2,0.2c0.1,0.1,0.1,0.2,0.1,0.3
								s0.1,0.3,0.1,0.5l0.1,0.7L586.9,39.5z M593.3,38.9c0,0.1-0.1,0.2-0.1,0.3c-0.1,0.1-0.1,0.1-0.2,0.1c-0.1,0-0.1,0-0.1,0
								c-0.1,0-0.2,0-0.3,0s-0.2,0-0.4-0.1c-0.1,0-0.3-0.1-0.4-0.1c-0.1-0.1-0.3-0.1-0.4-0.2c0-0.1,0.1-0.2,0.1-0.3
								c0-0.1,0-0.2,0.1-0.3c0-0.1,0.1-0.2,0.1-0.3c0-0.1,0.1-0.2,0.1-0.3c0.1-0.1,0.1-0.2,0.2-0.2c0.1-0.1,0.2-0.1,0.3-0.1
								c0.1,0,0.2,0,0.3,0s0.2,0.1,0.3,0.1c0.1,0.1,0.1,0.1,0.2,0.2c0,0.1,0.1,0.2,0.1,0.2c0,0.1,0.1,0.1,0.1,0.2c0,0.1,0,0.1,0,0.1
								C593.3,38.5,593.3,38.7,593.3,38.9z"/>
							<path d="M598.1,33.3l-0.1-0.8l-2.2,0.2c-0.2,0-0.4,0-0.6,0.1c-0.2,0-0.4,0.1-0.5,0.2c-0.2,0.1-0.3,0.2-0.4,0.4
								c-0.1,0.2-0.2,0.4-0.3,0.6l0.8,0.2c0-0.1,0.1-0.3,0.1-0.3c0.1-0.1,0.1-0.2,0.2-0.2c0.1,0,0.2-0.1,0.3-0.1
								c0.1,0,0.3,0,0.5-0.1L598.1,33.3z"/>
							<polygon points="595.6,34.1 596.1,39.8 597.1,39.7 596.6,34.1 							"/>
						</g>
					</g>
					<g>
						<path class="st1" d="M614,37.7c-0.2-0.5-0.5-0.9-0.8-1.3s-0.6-0.8-0.9-1.2s-0.6-0.7-0.9-1c-0.3-0.3-0.6-0.6-0.8-0.8
							c-0.2-0.2-0.4-0.4-0.6-0.5c-0.2-0.1-0.3-0.2-0.3-0.2l-1,1.2l0.6,0.5c-0.2,0.2-0.4,0.4-0.6,0.7c-0.2,0.3-0.4,0.5-0.7,0.9
							s-0.5,0.7-0.7,1s-0.4,0.7-0.6,1.2s-0.3,0.8-0.4,1.2c-0.1,0.4-0.2,0.9-0.2,1.3c0,0.1,0,0.1,0,0.3s0,0.2,0.1,0.4
							c0,0.2,0.1,0.3,0.1,0.5c0.1,0.2,0.1,0.4,0.2,0.5c0.2,0.3,0.5,0.6,0.8,0.8c0.3,0.2,0.6,0.3,0.9,0.4s0.5,0.1,0.6,0.1
							c0.2,0,0.4,0,0.6-0.1c0.4-0.1,0.7-0.3,1-0.5c0.2,0.2,0.5,0.3,0.8,0.4s0.6,0.1,0.8,0.1h0c0.3,0,0.6,0,0.9-0.1
							c0.3-0.1,0.5-0.2,0.8-0.4h0c0.1-0.1,0.2-0.2,0.3-0.3c0.1-0.1,0.2-0.3,0.3-0.5c0.1-0.2,0.2-0.4,0.2-0.7
							c0.1-0.2,0.1-0.5,0.1-0.8c0-0.5-0.1-1-0.2-1.5C614.5,38.6,614.3,38.2,614,37.7z M613.2,41.3c-0.1,0.2-0.2,0.3-0.4,0.4
							c-0.1,0.1-0.2,0.1-0.3,0.2c-0.1,0-0.2,0-0.3,0l-0.1,0c-0.1,0-0.3,0-0.4-0.1c-0.1-0.1-0.2-0.1-0.3-0.2c0,0,0-0.1-0.1-0.1
							c0-0.1,0-0.1,0-0.1c0-0.1,0-0.2,0-0.4c0-0.1,0-0.2,0-0.4c0-0.2,0-0.3,0-0.5s0-0.3,0-0.4l-1.6,0.3c0,0.1,0,0.2,0,0.3
							c0,0.1,0,0.2,0,0.4c0,0.1,0,0.2,0,0.3c0,0.1,0,0.2,0,0.3c0,0.1,0,0.2-0.1,0.3c0,0.1-0.1,0.2-0.2,0.2c-0.2,0.2-0.4,0.2-0.7,0.2
							h0c-0.2,0-0.4-0.1-0.6-0.2s-0.3-0.3-0.4-0.5c-0.1-0.2-0.1-0.4-0.1-0.7c0-0.3,0.1-0.7,0.1-1c0.1-0.4,0.2-0.7,0.4-1
							c0.2-0.3,0.3-0.7,0.5-1c0.2-0.3,0.4-0.6,0.6-0.9c0.2-0.3,0.4-0.5,0.6-0.8c0.2-0.2,0.4-0.4,0.5-0.6c0.2,0.2,0.4,0.5,0.7,0.7
							c0.2,0.3,0.4,0.5,0.7,0.8s0.4,0.6,0.6,0.9s0.4,0.6,0.5,1s0.3,0.6,0.3,1c0.1,0.3,0.1,0.6,0.1,1
							C613.3,40.9,613.3,41.1,613.2,41.3z"/>
						<path class="st1" d="M623.1,37.8c-0.2-0.5-0.5-0.9-0.8-1.3s-0.6-0.8-0.9-1.2c-0.3-0.4-0.6-0.7-0.9-1c-0.3-0.3-0.6-0.6-0.8-0.8
							s-0.4-0.4-0.6-0.5c-0.2-0.1-0.3-0.2-0.3-0.2l-1,1.2l0.6,0.5c-0.2,0.2-0.4,0.4-0.6,0.7s-0.4,0.5-0.7,0.9
							c-0.2,0.3-0.5,0.7-0.7,1c-0.2,0.4-0.4,0.8-0.6,1.2c-0.2,0.4-0.3,0.8-0.4,1.2c-0.1,0.4-0.2,0.9-0.2,1.3c0,0.1,0,0.1,0,0.3
							s0,0.2,0.1,0.4c0,0.2,0.1,0.3,0.1,0.5c0.1,0.2,0.1,0.4,0.2,0.5c0.2,0.3,0.5,0.6,0.8,0.8c0.3,0.2,0.6,0.3,0.9,0.4
							c0.3,0,0.5,0.1,0.6,0.1c0.2,0,0.4,0,0.6-0.1c0.4-0.1,0.7-0.3,1-0.5c0.2,0.2,0.5,0.3,0.8,0.4c0.3,0.1,0.6,0.1,0.8,0.1h0
							c0.3,0,0.6,0,0.9-0.1c0.3-0.1,0.5-0.2,0.8-0.4h0c0.1-0.1,0.2-0.2,0.3-0.3c0.1-0.1,0.2-0.3,0.3-0.5c0.1-0.2,0.2-0.4,0.2-0.7
							c0.1-0.2,0.1-0.5,0.1-0.8c0-0.5-0.1-1-0.2-1.5C623.5,38.7,623.4,38.2,623.1,37.8z M622.3,41.3c-0.1,0.2-0.2,0.3-0.4,0.4
							c-0.1,0.1-0.2,0.1-0.3,0.2c-0.1,0-0.2,0-0.3,0l-0.1,0c-0.1,0-0.3,0-0.4-0.1c-0.1-0.1-0.2-0.1-0.3-0.2c0,0,0-0.1-0.1-0.1
							c0-0.1,0-0.1,0-0.1c0-0.1,0-0.2,0-0.4c0-0.1,0-0.2,0-0.4c0-0.2,0-0.3,0-0.5c0-0.1,0-0.3,0-0.4l-1.6,0.3c0,0.1,0,0.2,0,0.3
							c0,0.1,0,0.2,0,0.4c0,0.1,0,0.2,0,0.3c0,0.1,0,0.2,0,0.3c0,0.1,0,0.2-0.1,0.3s-0.1,0.2-0.2,0.2c-0.2,0.2-0.4,0.2-0.7,0.2h0
							c-0.2,0-0.4-0.1-0.6-0.2c-0.2-0.1-0.3-0.3-0.4-0.5c-0.1-0.2-0.1-0.4-0.1-0.7c0-0.3,0.1-0.7,0.1-1c0.1-0.4,0.2-0.7,0.4-1
							s0.3-0.7,0.5-1s0.4-0.6,0.6-0.9c0.2-0.3,0.4-0.5,0.6-0.8c0.2-0.2,0.4-0.4,0.5-0.6c0.2,0.2,0.4,0.5,0.7,0.7
							c0.2,0.3,0.4,0.5,0.7,0.8s0.4,0.6,0.6,0.9c0.2,0.3,0.4,0.6,0.5,1s0.3,0.6,0.3,1c0.1,0.3,0.1,0.6,0.1,1
							C622.4,40.9,622.4,41.2,622.3,41.3z"/>
						<path class="st1" d="M629.7,37.5c-0.2-0.3-0.5-0.5-0.9-0.6s-0.7-0.2-1.1-0.2c-0.4,0-0.7,0.1-1.1,0.2c-0.3,0.1-0.6,0.3-0.9,0.6
							c-0.3,0.3-0.5,0.5-0.6,0.9s-0.2,0.7-0.2,1.1c0,0.4,0.1,0.7,0.2,1.1s0.3,0.6,0.6,0.9c0.2,0.3,0.5,0.5,0.9,0.6s0.7,0.2,1.1,0.2
							c0.4,0,0.7-0.1,1.1-0.2c0.3-0.1,0.6-0.3,0.9-0.6c0.3-0.2,0.5-0.5,0.6-0.9c0.1-0.3,0.2-0.7,0.2-1.1c0-0.4-0.1-0.7-0.2-1.1
							C630.1,38.1,629.9,37.8,629.7,37.5z M628.9,40c-0.1,0.2-0.2,0.3-0.3,0.4c-0.1,0.1-0.3,0.2-0.4,0.3c-0.2,0.1-0.3,0.1-0.5,0.1
							c-0.2,0-0.3,0-0.5-0.1c-0.2-0.1-0.3-0.2-0.4-0.3c-0.1-0.1-0.2-0.3-0.3-0.4c-0.1-0.2-0.1-0.3-0.1-0.5c0-0.2,0-0.3,0.1-0.5
							c0.1-0.2,0.2-0.3,0.3-0.4s0.2-0.2,0.4-0.3c0.2-0.1,0.3-0.1,0.5-0.1c0.2,0,0.3,0,0.5,0.1c0.2,0.1,0.3,0.2,0.4,0.3
							s0.2,0.3,0.3,0.4c0.1,0.2,0.1,0.3,0.1,0.5C629,39.6,628.9,39.8,628.9,40z"/>
						<polygon class="st1" points="636.3,35.4 634.6,35.4 634.5,38.5 631.6,38.4 631.6,40.1 634.5,40.1 634.5,43.4 636.3,43.5 
							636.3,40.2 639.2,40.2 639.2,38.5 636.3,38.5 						"/>
						<path class="st1" d="M642.5,37.4c-0.1-0.7-0.2-1.3-0.3-2.1c-0.1-0.7-0.3-1.4-0.5-2.2l-1.5,0.5c0.2,0.7,0.4,1.3,0.5,2
							c0.1,0.7,0.2,1.3,0.3,1.9c0.1,0.6,0.1,1.2,0.1,1.8c0,0.6,0,1.1,0,1.6c0,0.3,0,0.5,0,0.8c0,0.2,0,0.5,0,0.7v0
							c0,0.2,0,0.4,0,0.6c0,0.2,0,0.4,0,0.6l1.5,0c0-0.2,0-0.3,0-0.5s0-0.4,0-0.6c0-0.2,0-0.5,0-0.7s0-0.5,0-0.8c0-0.5,0-1.1,0-1.7
							C642.6,38.7,642.6,38,642.5,37.4z"/>
						<path class="st1" d="M651.4,37.9c-0.2-0.5-0.5-0.9-0.8-1.3c-0.3-0.4-0.6-0.8-0.9-1.2c-0.3-0.4-0.6-0.7-0.9-1s-0.6-0.6-0.8-0.8
							s-0.4-0.4-0.6-0.5c-0.2-0.1-0.3-0.2-0.3-0.2l-1,1.2l0.6,0.5c-0.2,0.2-0.4,0.4-0.6,0.7c-0.2,0.3-0.4,0.5-0.7,0.9
							s-0.5,0.7-0.7,1c-0.2,0.4-0.4,0.7-0.6,1.2s-0.3,0.8-0.4,1.2c-0.1,0.4-0.2,0.9-0.2,1.3c0,0.1,0,0.1,0,0.3c0,0.1,0,0.2,0.1,0.4
							c0,0.2,0.1,0.3,0.1,0.5c0.1,0.2,0.1,0.4,0.2,0.5c0.2,0.3,0.5,0.6,0.8,0.8c0.3,0.2,0.6,0.3,0.9,0.4c0.3,0,0.5,0.1,0.6,0.1
							c0.2,0,0.4,0,0.6-0.1c0.4-0.1,0.7-0.3,1-0.5c0.2,0.2,0.5,0.3,0.8,0.4c0.3,0.1,0.6,0.1,0.8,0.1l0,0c0.3,0,0.6,0,0.9-0.1
							c0.3-0.1,0.5-0.2,0.8-0.4h0c0.1-0.1,0.2-0.2,0.3-0.3c0.1-0.1,0.2-0.3,0.3-0.5c0.1-0.2,0.2-0.4,0.2-0.7
							c0.1-0.2,0.1-0.5,0.1-0.8c0-0.5-0.1-1-0.2-1.5C651.8,38.8,651.6,38.4,651.4,37.9z M650.5,41.5c-0.1,0.2-0.2,0.3-0.4,0.4
							c-0.1,0.1-0.2,0.1-0.3,0.2c-0.1,0-0.2,0-0.3,0l-0.1,0c-0.1,0-0.3,0-0.4-0.1c-0.1-0.1-0.2-0.1-0.3-0.2c0,0,0-0.1-0.1-0.1
							s0-0.1,0-0.1c0-0.1,0-0.2,0-0.4c0-0.1,0-0.2,0-0.4c0-0.2,0-0.3,0-0.5s0-0.3,0-0.4l-1.6,0.3c0,0.1,0,0.2,0,0.3
							c0,0.1,0,0.2,0,0.4c0,0.1,0,0.2,0,0.3c0,0.1,0,0.2,0,0.3c0,0.1,0,0.2-0.1,0.3s-0.1,0.2-0.2,0.2c-0.2,0.2-0.4,0.2-0.7,0.2l0,0
							c-0.2,0-0.4-0.1-0.6-0.2c-0.2-0.1-0.3-0.3-0.4-0.5c-0.1-0.2-0.1-0.4-0.1-0.7c0-0.3,0.1-0.7,0.1-1c0.1-0.4,0.2-0.7,0.4-1
							c0.2-0.3,0.3-0.7,0.5-1s0.4-0.6,0.6-0.9s0.4-0.5,0.6-0.8c0.2-0.2,0.4-0.4,0.5-0.6c0.2,0.2,0.4,0.5,0.7,0.7
							c0.2,0.3,0.4,0.5,0.7,0.8c0.2,0.3,0.4,0.6,0.6,0.9c0.2,0.3,0.4,0.6,0.5,1c0.1,0.3,0.3,0.6,0.3,1c0.1,0.3,0.1,0.6,0.1,1
							C650.7,41.1,650.6,41.3,650.5,41.5z"/>
						<path class="st1" d="M658.5,38.5c-0.1-0.3-0.3-0.6-0.6-0.9c-0.2-0.3-0.5-0.5-0.9-0.6c-0.3-0.1-0.7-0.2-1.1-0.2
							c-0.4,0-0.7,0.1-1.1,0.2c-0.3,0.1-0.6,0.3-0.9,0.6c-0.3,0.3-0.5,0.5-0.6,0.9c-0.1,0.3-0.2,0.7-0.2,1.1c0,0.4,0.1,0.7,0.2,1.1
							c0.1,0.3,0.3,0.6,0.6,0.9c0.2,0.3,0.5,0.5,0.9,0.6c0.3,0.1,0.7,0.2,1.1,0.2s0.7-0.1,1.1-0.2c0.3-0.1,0.6-0.3,0.9-0.6
							c0.3-0.3,0.5-0.5,0.6-0.9c0.1-0.3,0.2-0.7,0.2-1.1C658.7,39.2,658.7,38.9,658.5,38.5z M657.1,40.1c-0.1,0.2-0.2,0.3-0.3,0.4
							c-0.1,0.1-0.3,0.2-0.4,0.3c-0.2,0.1-0.3,0.1-0.5,0.1c-0.2,0-0.3,0-0.5-0.1c-0.2-0.1-0.3-0.2-0.4-0.3c-0.1-0.1-0.2-0.3-0.3-0.4
							c-0.1-0.2-0.1-0.3-0.1-0.5c0-0.2,0-0.3,0.1-0.5s0.2-0.3,0.3-0.4s0.2-0.2,0.4-0.3c0.2-0.1,0.3-0.1,0.5-0.1c0.2,0,0.3,0,0.5,0.1
							c0.2,0.1,0.3,0.2,0.4,0.3c0.1,0.1,0.2,0.3,0.3,0.4c0.1,0.2,0.1,0.3,0.1,0.5C657.2,39.8,657.2,39.9,657.1,40.1z"/>
					</g>
				</g>
			</g>
			<g>
				<g>
					<path class="st35" d="M539.6,19.3c0.3-0.1,0.6-0.3,0.9-0.4c1.3-0.5,2.8-0.8,4.4-0.8l0.1,0c1.7,0,3.3,0.3,4.7,0.9
						c0.6,0.3,1.2,0.6,1.8,1c-0.2-0.3-0.4-0.6-0.7-0.9c-1-1.2-2.3-2.1-3.7-2.7c-1.4-0.6-3-0.9-4.7-0.9l-0.1,0
						c-0.9,0-1.8,0.1-2.7,0.3L539.6,19.3z"/>
					<path class="st35" d="M485.4,44.1V25.3c0-1,0.4-2,1-2.9c-0.6-0.8-1-1.8-1-2.8v-5.4c0-2.5,2-4.5,4.5-4.5H535
						c0.6,0,1.1,0.1,1.6,0.3c-0.7-1.7-2.3-2.9-4.2-2.9h-45.2c-2.5,0-4.5,2-4.5,4.5v5.4c0,1,0.4,2,1,2.8c-0.6,0.8-1,1.8-1,2.9v18.8
						c0,1.9,1.2,3.6,2.9,4.3C485.5,45.3,485.4,44.7,485.4,44.1z"/>
				</g>
				<path class="st36" d="M557.3,44.1c0,0-0.1-0.3-0.3-1.3c-0.2-0.8-0.3-1.9-0.4-3.1c-0.1-1.3-0.2-2.8-0.3-4.4
					c-0.1-1.7-0.1-3.6-0.1-5.5c0-1.5-0.2-2.9-0.7-4.2c-0.5-1.4-1.2-2.7-2.1-3.8c-1-1.2-2.3-2.1-3.7-2.7c-1.4-0.6-3-0.9-4.7-0.9
					l-0.1,0c-1.6,0-3,0.3-4.4,0.8c-0.3,0.1-0.6,0.2-0.9,0.4l0-5c0-2.5-2-4.5-4.5-4.5h-45.2c-2.5,0-4.5,2-4.5,4.5v5.4
					c0,1,0.4,2,1,2.8c-0.6,0.8-1,1.8-1,2.9v18.8c0,2.5,2.1,4.6,4.7,4.6h25.6l2.3,1.7c0.7,0.6,1.6,0.9,2.5,0.9l0.1,0l0.1,0
					c1.2,0,2.3-0.5,3.1-1.4c0.3-0.4,0.7-0.8,1.1-1.2h6.7c0.3,0.5,0.7,0.8,1,1.2c0.8,0.9,2,1.4,3.2,1.4c0.9,0,1.9-0.3,2.6-0.9
					l2.2-1.7h3.9c0.3,0,0.6,0,0.9,0l0,0c0.6,1.6,2.2,2.6,4,2.6c0.5,0,0.9-0.1,1.4-0.2l4.1-1.5c1.1-0.4,2-1.2,2.5-2.3
					C557.7,46.3,557.7,45.1,557.3,44.1z"/>
				<g>
					<g>
						<g>
							<path class="st39" d="M535.3,21.5h-46c-1.1,0-2-0.9-2-2V14c0-1.1,0.9-2,2-2h46c1.1,0,2,0.9,2,2v5.5
								C537.3,20.6,536.4,21.5,535.3,21.5z"/>
							<g>
								<path class="st40" d="M544.9,46.5h-55.5c-1.2,0-2.2-1-2.2-2.2V25.2c0-1.2,1-2.2,2.2-2.2h55.5c5,0,9,4,9,9v5.3
									C553.9,42.5,549.9,46.5,544.9,46.5z"/>
								<g>
									<path class="st1" d="M492.4,33.6c0.3-0.1,0.6-0.3,0.8-0.5c0.2-0.2,0.4-0.5,0.5-0.8c0.1-0.3,0.2-0.7,0.2-1.1v-2.7H493v2.7
										c0,0.3,0,0.6-0.1,0.8c-0.1,0.2-0.2,0.4-0.3,0.6c-0.1,0.1-0.3,0.3-0.6,0.3c-0.2,0.1-0.5,0.1-0.8,0.1h-0.6v0.8h0.6
										C491.7,33.7,492.1,33.7,492.4,33.6z"/>
									<rect x="495.1" y="25.3" class="st1" width="0.9" height="6.1"/>
									<path class="st1" d="M498.4,27.4c0.2,0,0.4-0.1,0.5-0.2c0.1-0.1,0.2-0.3,0.2-0.5c0-0.2-0.1-0.3-0.2-0.5
										c-0.1-0.1-0.3-0.2-0.5-0.2c-0.2,0-0.4,0.1-0.5,0.2c-0.1,0.1-0.2,0.3-0.2,0.5c0,0.2,0.1,0.3,0.2,0.5S498.2,27.4,498.4,27.4z
										"/>
									<path class="st1" d="M498.7,32.3c0.1-0.3,0.2-0.7,0.2-1.1c0.2,0.1,0.5,0.2,0.8,0.2h0.1h0.1h1.7h0.1h1.8h0.1h1.8h0.1h1.7
										h0.1h0.5c0.4,0,0.9,0,1.2-0.1c0.4,0,0.7-0.1,1-0.2c0,0,0.1,0,0.1,0.1c0.1,0,0.1,0,0.2,0.1c0.1,0,0.1,0.1,0.2,0.1
										c0.2,0.1,0.5,0.2,0.7,0.2c0.2,0.1,0.4,0.1,0.6,0.1c0.2,0,0.4,0,0.6-0.1s0.4-0.1,0.5-0.2c0.1-0.1,0.3-0.2,0.4-0.3
										c0.1-0.1,0.2-0.3,0.2-0.4c0-0.1,0.1-0.3,0.1-0.3c0-0.1,0-0.2,0-0.2c0-0.1,0-0.1,0-0.2c0-0.1-0.1-0.2-0.1-0.4
										c-0.1-0.1-0.1-0.2-0.2-0.4c0-0.1-0.1-0.1-0.2-0.2c-0.1-0.1-0.2-0.2-0.3-0.3c-0.1-0.1-0.2-0.2-0.3-0.4
										c-0.1-0.1-0.2-0.2-0.4-0.4c-0.3-0.3-0.6-0.6-0.9-0.9l-0.6,0.6c0.2,0.2,0.4,0.4,0.6,0.5c0.2,0.2,0.4,0.4,0.6,0.5
										c0.2,0.2,0.3,0.4,0.5,0.5c0.1,0.2,0.3,0.3,0.4,0.5c0.1,0.2,0.2,0.3,0.2,0.4c0,0.1,0,0.2,0,0.2c0,0.1,0,0.2-0.1,0.3
										c0,0.1-0.1,0.2-0.2,0.2c-0.1,0.1-0.1,0.1-0.2,0.1c-0.1,0-0.2,0.1-0.3,0.1c-0.1,0-0.2,0-0.3,0c-0.1,0-0.3,0-0.4,0
										c-0.1,0-0.3-0.1-0.4-0.1c0.2-0.2,0.4-0.4,0.5-0.6c0.1-0.2,0.2-0.5,0.2-0.8c0-0.1,0-0.2,0-0.3c0-0.1-0.1-0.2-0.1-0.3
										c-0.1-0.1-0.1-0.2-0.2-0.3c-0.1-0.1-0.2-0.2-0.3-0.3c-0.1-0.1-0.3-0.1-0.4-0.2c-0.2,0-0.3-0.1-0.5-0.1
										c-0.2,0-0.5,0-0.7,0.1c-0.2,0.1-0.4,0.2-0.5,0.3c-0.1,0.1-0.3,0.3-0.4,0.5c-0.1,0.2-0.1,0.4-0.1,0.6c0,0.3,0.1,0.5,0.1,0.7
										c0.1,0.2,0.3,0.4,0.5,0.6c-0.2,0-0.3,0-0.6,0c-0.2,0-0.4,0-0.6,0h-0.5h-0.1h-1.7h-0.1h-1.8h-0.1h-1.8h-0.1h-1.7h-0.1h-0.1
										c0,0-0.1,0-0.2,0c-0.1,0-0.2,0-0.3-0.1c-0.1,0-0.2-0.1-0.2-0.2c-0.1-0.1-0.1-0.2-0.1-0.4v-1.4H498v2.7c0,0.3,0,0.6-0.1,0.8
										c-0.1,0.2-0.2,0.4-0.3,0.6c-0.1,0.1-0.3,0.3-0.6,0.3c-0.2,0.1-0.5,0.1-0.8,0.1h-0.6v0.8h0.6c0.4,0,0.8-0.1,1.1-0.2
										c0.3-0.1,0.6-0.3,0.8-0.5C498.4,32.8,498.6,32.6,498.7,32.3z M509.2,28.9c0-0.1,0.1-0.2,0.2-0.2c0.1-0.1,0.2-0.1,0.3-0.1
										c0.1,0,0.2-0.1,0.3-0.1c0.1,0,0.1,0,0.2,0c0.1,0,0.2,0.1,0.3,0.1c0.1,0.1,0.2,0.1,0.2,0.2c0.1,0.1,0.1,0.2,0.1,0.4
										c0,0.1,0,0.2-0.1,0.3c0,0.1-0.1,0.2-0.2,0.3c-0.1,0.1-0.2,0.2-0.2,0.2c-0.1,0.1-0.2,0.1-0.3,0.2c-0.2-0.1-0.3-0.2-0.4-0.2
										c-0.1-0.1-0.2-0.2-0.3-0.2c-0.1-0.1-0.1-0.2-0.2-0.3c0-0.1-0.1-0.2-0.1-0.3C509.1,29.1,509.1,29,509.2,28.9z"/>
									<path class="st1" d="M495.8,41.7c0,0.2,0,0.4-0.1,0.6c0,0.2-0.1,0.3-0.2,0.5c-0.1,0.1-0.3,0.2-0.5,0.3
										c-0.2,0.1-0.5,0.1-0.8,0.1h-1.1c-0.3,0-0.6-0.1-0.9-0.2c-0.3-0.1-0.5-0.3-0.6-0.5c-0.1-0.2-0.2-0.4-0.2-0.6
										c0-0.2-0.1-0.4-0.1-0.5c0-0.1,0-0.2,0-0.3c0-0.3,0.1-0.6,0.2-0.9c0.1-0.3,0.2-0.6,0.4-0.9l-0.8-0.3
										c-0.2,0.4-0.4,0.8-0.5,1.1s-0.2,0.7-0.2,0.9c0,0.2,0,0.3,0,0.4c0,0.2,0,0.5,0.1,0.7c0.1,0.3,0.2,0.6,0.3,0.8
										c0.2,0.4,0.5,0.6,0.9,0.8c0.4,0.2,0.8,0.3,1.3,0.3h1.1c0.8,0,1.5-0.2,1.9-0.6c0.4-0.4,0.6-0.9,0.6-1.7v-3h-0.9V41.7z"/>
									<path class="st1" d="M493.4,37.9c-0.1,0.1-0.2,0.3-0.2,0.5c0,0.2,0.1,0.3,0.2,0.5c0.1,0.1,0.3,0.2,0.5,0.2s0.4-0.1,0.5-0.2
										c0.1-0.1,0.2-0.3,0.2-0.5c0-0.2-0.1-0.3-0.2-0.5c-0.1-0.1-0.3-0.2-0.5-0.2S493.5,37.7,493.4,37.9z"/>
									<path class="st1" d="M503.6,38.6c-0.1-0.2-0.3-0.3-0.5-0.4c-0.2-0.1-0.5-0.2-0.8-0.2c-0.3,0-0.5,0-0.7,0.1
										c-0.2,0.1-0.3,0.2-0.5,0.3c-0.1,0.1-0.2,0.3-0.3,0.4c-0.1,0.2-0.2,0.3-0.2,0.5c-0.1,0.2-0.1,0.3-0.2,0.5
										c0,0.2-0.1,0.3-0.1,0.4c-0.1,0.1-0.1,0.2-0.2,0.3c-0.1,0.1-0.2,0.1-0.3,0.1h-0.3c-0.3,0-0.5,0-0.6,0
										c-0.1,0-0.3-0.1-0.3-0.2s-0.1-0.2-0.1-0.4c0-0.2,0-0.4,0-0.6v-4.1h-0.9v4.1c0,0.2,0,0.4,0,0.6c0,0.2,0,0.3,0.1,0.5
										c0,0.1,0.1,0.3,0.2,0.4c0.1,0.1,0.2,0.2,0.3,0.3c0.1,0.1,0.3,0.1,0.5,0.2c0.2,0,0.4,0,0.6,0.1v0h0.5c0.4,0,0.7-0.1,1-0.4
										c0.2,0.1,0.4,0.2,0.5,0.3c0.2,0.1,0.3,0.1,0.4,0.2c0.1,0.1,0.3,0.1,0.4,0.1c0.1,0,0.3,0,0.4,0c0.1,0,0.2,0,0.2,0
										c0.1,0,0.2,0,0.3-0.1c0.1,0,0.2-0.1,0.3-0.2c0.1-0.1,0.2-0.2,0.3-0.3c0.1-0.1,0.1-0.3,0.2-0.5c0-0.2,0.1-0.4,0.1-0.7
										c0-0.2,0-0.5-0.1-0.7C503.8,39,503.7,38.8,503.6,38.6z M503.2,40.4c0,0.1-0.1,0.2-0.1,0.3c0,0.1-0.1,0.1-0.1,0.2
										c0,0-0.1,0.1-0.1,0.1c0,0-0.1,0-0.1,0c0,0-0.1,0-0.1,0c-0.1,0-0.2,0-0.3,0c-0.1,0-0.2-0.1-0.3-0.1c-0.1,0-0.2-0.1-0.4-0.2
										c-0.1-0.1-0.3-0.1-0.4-0.2c0-0.1,0.1-0.3,0.1-0.4c0-0.1,0.1-0.3,0.1-0.4c0-0.1,0.1-0.2,0.1-0.3c0-0.1,0.1-0.2,0.2-0.3
										c0.1-0.1,0.1-0.1,0.2-0.2c0.1,0,0.2-0.1,0.3-0.1c0.1,0,0.3,0,0.4,0.1c0.1,0,0.2,0.1,0.3,0.2c0.1,0.1,0.1,0.2,0.2,0.2
										c0,0.1,0.1,0.2,0.1,0.3c0,0.1,0,0.2,0,0.2c0,0.1,0,0.1,0,0.1C503.2,40.1,503.2,40.2,503.2,40.4z"/>
									<path class="st1" d="M514,36.1c-0.1-0.1-0.3-0.2-0.5-0.2c-0.2,0-0.3,0.1-0.5,0.2c-0.1,0.1-0.2,0.3-0.2,0.4
										c0,0.2,0.1,0.3,0.2,0.4c0.1,0.1,0.3,0.2,0.5,0.2c0.2,0,0.3-0.1,0.5-0.2c0.1-0.1,0.2-0.3,0.2-0.4
										C514.2,36.3,514.1,36.2,514,36.1z"/>
									<path class="st1" d="M513.9,39.3c0-0.1,0-0.3-0.1-0.4c0-0.1-0.1-0.3-0.1-0.4c0-0.1,0-0.2-0.1-0.3c0-0.1,0-0.1,0-0.1
										l-0.8,0.2c0,0,0,0.1,0,0.2c0,0.1,0,0.2,0.1,0.3c0,0.1,0,0.2,0.1,0.3c0,0.1,0,0.2,0.1,0.3c0,0.1,0,0.2,0,0.3
										c0,0.1,0,0.2,0,0.2c0,0.2,0,0.3-0.1,0.4c-0.1,0.1-0.1,0.2-0.2,0.2c-0.1,0.1-0.2,0.1-0.2,0.1c-0.1,0-0.1,0-0.2,0h-1.7h-0.1
										h-1.7h-0.1h-0.5v-0.8c0-0.8-0.2-1.3-0.6-1.7c-0.1-0.1-0.3-0.2-0.5-0.3c-0.2-0.1-0.4-0.1-0.6-0.1c-0.2,0-0.5,0-0.7,0.1
										c-0.2,0.1-0.4,0.2-0.6,0.4c-0.1,0.1-0.1,0.1-0.2,0.2c-0.1,0.1-0.1,0.2-0.2,0.3c-0.1,0.1-0.1,0.3-0.1,0.4
										c0,0.2-0.1,0.3-0.1,0.5c0,0.3,0.1,0.6,0.2,0.8c0.1,0.2,0.3,0.4,0.4,0.5c0.2,0.1,0.4,0.2,0.6,0.3c0.2,0.1,0.4,0.1,0.6,0.1
										h0.8c0,0.3,0,0.5-0.1,0.7c-0.1,0.2-0.2,0.3-0.3,0.5c-0.2,0.1-0.4,0.2-0.7,0.3c-0.3,0.1-0.7,0.1-1.2,0.1v0.8
										c0.6,0,1,0,1.4-0.1c0.4-0.1,0.7-0.2,1-0.4c0.3-0.2,0.5-0.4,0.6-0.7c0.1-0.3,0.2-0.6,0.2-1h0.5h0.1h1.7h0.1h1.7
										c0.2,0,0.4,0,0.6-0.1c0.2-0.1,0.4-0.2,0.5-0.3c0.2-0.1,0.3-0.3,0.4-0.5c0.1-0.2,0.1-0.4,0.1-0.7c0-0.1,0-0.2,0-0.3
										C513.9,39.5,513.9,39.4,513.9,39.3z M507.2,40.7h-0.8c0,0-0.1,0-0.1,0c0,0-0.1,0-0.2,0c-0.1,0-0.1,0-0.2,0
										c-0.1,0-0.1,0-0.2-0.1c-0.2-0.1-0.4-0.4-0.4-0.8c0-0.4,0.1-0.6,0.2-0.8c0.2-0.2,0.4-0.3,0.7-0.3c0,0,0.1,0,0.1,0
										c0.1,0,0.1,0,0.2,0c0.1,0,0.1,0.1,0.2,0.1c0.1,0,0.1,0.1,0.2,0.2c0.1,0.1,0.1,0.2,0.1,0.4c0,0.1,0,0.3,0,0.5V40.7z"/>
									<path class="st1" d="M511.8,35.9c-0.2,0-0.3,0.1-0.5,0.2c-0.1,0.1-0.2,0.3-0.2,0.4c0,0.2,0.1,0.3,0.2,0.4
										c0.1,0.1,0.3,0.2,0.5,0.2c0.2,0,0.3-0.1,0.5-0.2c0.1-0.1,0.2-0.3,0.2-0.4c0-0.2-0.1-0.3-0.2-0.4
										C512.2,35.9,512,35.9,511.8,35.9z"/>
								</g>
							</g>
							<g>
								<path class="st41" d="M498.4,14.7c0,0.1,0.1,0.3,0.2,0.4c0.1,0.1,0.2,0.1,0.4,0.1c0.1,0,0.3,0,0.4-0.1
									c0.1-0.1,0.2-0.2,0.2-0.4c0-0.1-0.1-0.3-0.2-0.4c-0.1-0.1-0.2-0.1-0.4-0.1c-0.1,0-0.3,0-0.4,0.1
									C498.5,14.4,498.4,14.5,498.4,14.7z"/>
								<path class="st41" d="M497.5,15.2c0.1,0,0.3,0,0.4-0.1c0.1-0.1,0.2-0.2,0.2-0.4c0-0.1-0.1-0.3-0.2-0.4
									c-0.1-0.1-0.2-0.1-0.4-0.1c-0.1,0-0.3,0-0.4,0.1c-0.1,0.1-0.2,0.2-0.2,0.4c0,0.1,0.1,0.3,0.2,0.4
									C497.2,15.1,497.3,15.2,497.5,15.2z"/>
								<path class="st41" d="M498.2,14.1c0.1,0,0.3,0,0.3-0.1c0.1-0.1,0.1-0.2,0.1-0.3c0-0.1,0-0.2-0.1-0.3
									c-0.1-0.1-0.2-0.1-0.3-0.1c-0.1,0-0.3,0-0.4,0.1c-0.1,0.1-0.1,0.2-0.1,0.3c0,0.1,0,0.2,0.1,0.3
									C498,14,498.1,14.1,498.2,14.1z"/>
								<path class="st41" d="M500.5,17.9c0.1-0.2,0.1-0.4,0.1-0.6c0-0.1,0-0.2,0-0.3c0-0.1,0-0.2,0-0.3c0-0.1,0-0.2-0.1-0.3
									c0-0.1,0-0.2-0.1-0.3c0-0.1,0-0.2-0.1-0.2c0-0.1,0-0.1,0-0.1l-0.8,0.2c0,0,0,0.1,0,0.2c0,0.1,0,0.1,0.1,0.2
									c0,0.1,0,0.2,0.1,0.3c0,0.1,0,0.2,0.1,0.3c0,0.1,0,0.2,0,0.2c0,0.1,0,0.1,0,0.2c0,0.1,0,0.2-0.1,0.3c0,0.1-0.1,0.1-0.2,0.2
									c-0.1,0-0.1,0.1-0.2,0.1s-0.1,0-0.2,0c-0.2,0-0.4,0-0.5-0.1c-0.1-0.1-0.2-0.2-0.2-0.4v-1.1h-0.8v1.1c0,0.1,0,0.2-0.1,0.3
									c0,0.1-0.1,0.1-0.2,0.2c-0.1,0-0.1,0.1-0.2,0.1c-0.1,0-0.1,0-0.2,0c-0.1,0-0.2,0-0.3,0c-0.1,0-0.2-0.1-0.2-0.1
									c-0.1-0.1-0.1-0.2-0.2-0.3c0-0.1-0.1-0.3-0.1-0.5v-0.7h-0.8v2.5c0,0.2,0,0.3-0.1,0.5c0,0.1-0.1,0.3-0.2,0.3
									c-0.1,0.1-0.2,0.2-0.4,0.2c-0.2,0-0.4,0.1-0.7,0.1h-0.8c-0.2,0-0.4,0-0.6-0.1c-0.2-0.1-0.3-0.2-0.5-0.3
									c-0.1-0.1-0.2-0.3-0.3-0.5c-0.1-0.2-0.1-0.4-0.1-0.6c0-0.3,0.1-0.5,0.2-0.8c0.1-0.3,0.2-0.6,0.4-0.9l-0.7-0.3
									c-0.2,0.4-0.3,0.8-0.4,1.1c-0.1,0.3-0.1,0.7-0.1,1c0,0.3,0.1,0.6,0.2,0.9c0.1,0.3,0.3,0.5,0.5,0.7c0.2,0.2,0.4,0.3,0.7,0.4
									c0.3,0.1,0.6,0.2,0.9,0.2h0.7c0.7,0,1.3-0.2,1.6-0.5c0.4-0.3,0.5-0.8,0.5-1.4v-0.3c0.1,0,0.1,0.1,0.2,0.1
									c0.1,0,0.1,0.1,0.2,0.1c0.1,0,0.1,0,0.2,0c0.1,0,0.1,0,0.2,0c0.1,0,0.2,0,0.3,0c0.1,0,0.2,0,0.3-0.1c0.1,0,0.2-0.1,0.3-0.1
									s0.2-0.1,0.2-0.2c0.1,0.1,0.3,0.2,0.5,0.3c0.2,0.1,0.4,0.1,0.6,0.1c0.2,0,0.3,0,0.5-0.1c0.2-0.1,0.3-0.1,0.4-0.3
									C500.3,18.2,500.4,18.1,500.5,17.9z"/>
								<path class="st41" d="M501.9,18.5c0,0.3,0,0.5-0.1,0.6c-0.1,0.2-0.1,0.3-0.3,0.4c-0.1,0.1-0.3,0.2-0.4,0.2
									c-0.2,0.1-0.4,0.1-0.6,0.1H500v0.8h0.5c0.3,0,0.7,0,0.9-0.1c0.3-0.1,0.5-0.2,0.7-0.4c0.2-0.2,0.3-0.4,0.5-0.7
									c0.1-0.3,0.2-0.6,0.2-0.9v-2.3h-0.8V18.5z"/>
								<path class="st41" d="M502.3,14.1c-0.2,0-0.3,0.1-0.4,0.2c-0.1,0.1-0.2,0.2-0.2,0.4c0,0.1,0.1,0.3,0.2,0.4
									c0.1,0.1,0.2,0.2,0.4,0.2c0.2,0,0.3-0.1,0.4-0.2c0.1-0.1,0.2-0.2,0.2-0.4c0-0.1-0.1-0.3-0.2-0.4
									C502.6,14.2,502.5,14.1,502.3,14.1z"/>
								<path class="st41" d="M513.8,16.1c-0.1-0.2-0.3-0.3-0.5-0.4c-0.2-0.1-0.4-0.1-0.7-0.1c-0.2,0-0.3,0-0.5,0.1
									c-0.1,0-0.2,0.1-0.3,0.2c-0.1,0.1-0.2,0.2-0.3,0.3c-0.1,0.1-0.1,0.2-0.2,0.3c-0.1,0.1-0.1,0.2-0.1,0.3
									c0,0.1-0.1,0.2-0.1,0.3c0,0.1-0.1,0.2-0.1,0.3c0,0.1-0.1,0.2-0.1,0.2c0,0.1-0.1,0.1-0.1,0.2c0,0-0.1,0.1-0.2,0.1h-0.5h-0.1
									h-1.5c0,0,0,0,0,0c0,0,0,0,0,0h-1.5H507h-0.6v-0.6c0-0.3,0-0.6-0.1-0.9c-0.1-0.2-0.2-0.4-0.4-0.6c-0.1-0.1-0.3-0.2-0.4-0.2
									c-0.2-0.1-0.3-0.1-0.5-0.1c-0.2,0-0.4,0-0.6,0.1c-0.2,0.1-0.3,0.2-0.5,0.3c-0.1,0.1-0.1,0.1-0.2,0.2
									c-0.1,0.1-0.1,0.2-0.2,0.3c0,0.1-0.1,0.2-0.1,0.3c0,0.1,0,0.3,0,0.4c0,0.3,0,0.5,0.1,0.7c0.1,0.2,0.2,0.3,0.4,0.5
									c0.2,0.1,0.3,0.2,0.5,0.2c0.2,0,0.4,0.1,0.6,0.1h0.6c0,0.1,0,0.2,0,0.3c0,0.1,0,0.2-0.1,0.2c0,0.1-0.1,0.1-0.1,0.2
									c0,0.1-0.1,0.1-0.2,0.1c-0.1,0.1-0.3,0.2-0.6,0.2c-0.2,0.1-0.6,0.1-1,0.1v0.8c0.2,0,0.5,0,0.7,0c0.2,0,0.4-0.1,0.6-0.1
									c0.2,0,0.3-0.1,0.5-0.2c0.1-0.1,0.3-0.1,0.4-0.2c0.2-0.2,0.4-0.4,0.5-0.6c0.1-0.2,0.2-0.5,0.2-0.8h0.6h0.1h1.5c0,0,0,0,0,0
									c0,0,0,0,0,0h1.5h0.1h0.5c0.1,0,0.3,0,0.4-0.1c0.1-0.1,0.2-0.1,0.4-0.3c0.2,0.1,0.3,0.2,0.4,0.2c0.1,0.1,0.3,0.1,0.4,0.2
									c0.1,0,0.2,0.1,0.3,0.1c0.1,0,0.2,0,0.4,0c0.1,0,0.1,0,0.2,0c0.1,0,0.2,0,0.3-0.1c0.1,0,0.2-0.1,0.3-0.2
									c0.1-0.1,0.2-0.2,0.2-0.3c0.1-0.1,0.1-0.3,0.2-0.4c0-0.2,0.1-0.4,0.1-0.6c0-0.2,0-0.4-0.1-0.6
									C514.1,16.5,514,16.3,513.8,16.1z M505.6,17.9h-0.6c0,0-0.1,0-0.1,0c0,0-0.1,0-0.1,0c0,0-0.1,0-0.1,0c0,0-0.1,0-0.1-0.1
									c-0.1-0.1-0.2-0.1-0.2-0.2c0-0.1-0.1-0.2-0.1-0.4c0-0.3,0.1-0.5,0.2-0.7c0.1-0.2,0.3-0.2,0.5-0.2c0,0,0.1,0,0.1,0
									c0,0,0.1,0,0.1,0c0,0,0.1,0,0.1,0.1c0,0,0.1,0.1,0.1,0.2c0,0.1,0.1,0.2,0.1,0.3c0,0.1,0,0.3,0,0.4V17.9z M513.4,17.8
									c0,0.1-0.1,0.2-0.1,0.2c-0.1,0-0.1,0.1-0.2,0.1c-0.1,0-0.1,0-0.1,0c-0.1,0-0.2,0-0.2,0c-0.1,0-0.2-0.1-0.3-0.1
									c-0.1,0-0.2-0.1-0.3-0.1c-0.1-0.1-0.2-0.1-0.3-0.2c0-0.1,0.1-0.2,0.1-0.3c0-0.1,0.1-0.2,0.1-0.3c0-0.1,0.1-0.2,0.1-0.3
									c0-0.1,0.1-0.2,0.1-0.2c0.1-0.1,0.1-0.1,0.2-0.2c0.1,0,0.2-0.1,0.3-0.1c0.1,0,0.2,0,0.3,0.1c0.1,0,0.1,0.1,0.2,0.1
									c0.1,0.1,0.1,0.1,0.1,0.2c0,0.1,0.1,0.1,0.1,0.2c0,0.1,0,0.1,0,0.2c0,0.1,0,0.1,0,0.1C513.5,17.5,513.4,17.7,513.4,17.8z"/>
								<path class="st41" d="M515.3,12.8c-0.2,0-0.3,0.1-0.4,0.1c-0.2,0.1-0.3,0.2-0.4,0.3c-0.1,0.1-0.2,0.3-0.3,0.5l0.6,0.2
									c0-0.1,0.1-0.2,0.1-0.3c0-0.1,0.1-0.1,0.2-0.2c0.1,0,0.2-0.1,0.3-0.1c0.1,0,0.2,0,0.4,0h1.8v-0.7h-1.8
									C515.7,12.8,515.5,12.8,515.3,12.8z"/>
								<rect x="515.6" y="14" class="st41" width="0.8" height="4.7"/>
								<path class="st41" d="M532.1,17.1c0-0.1-0.1-0.2-0.1-0.4c0-0.1-0.1-0.2-0.2-0.3c0-0.1-0.1-0.1-0.2-0.2
									c-0.1-0.1-0.1-0.2-0.2-0.3c-0.1-0.1-0.2-0.2-0.2-0.3c-0.1-0.1-0.2-0.2-0.2-0.3c-0.2-0.2-0.4-0.5-0.6-0.7l-0.6,0.5
									c0.2,0.3,0.5,0.6,0.7,0.8c0.2,0.3,0.4,0.5,0.6,0.7c0.2,0.2,0.3,0.4,0.3,0.5c0.1,0.1,0.1,0.2,0.1,0.3c0,0,0,0.1,0,0.1
									c0,0.1-0.1,0.2-0.1,0.2c-0.1,0.1-0.1,0.1-0.2,0.1s-0.2,0.1-0.3,0.1c-0.1,0-0.2,0-0.3,0c-0.1,0-0.2,0-0.3,0
									c-0.1,0-0.2,0-0.3-0.1c0.2-0.2,0.3-0.3,0.4-0.5c0.1-0.2,0.1-0.4,0.1-0.7c0-0.1,0-0.2,0-0.3c0-0.1-0.1-0.2-0.1-0.3
									c-0.1-0.1-0.1-0.2-0.2-0.3s-0.2-0.2-0.3-0.2s-0.2-0.1-0.4-0.2c-0.1,0-0.3-0.1-0.4-0.1c-0.2,0-0.4,0-0.6,0.1
									c-0.2,0.1-0.3,0.2-0.5,0.3c-0.1,0.1-0.2,0.2-0.3,0.4c-0.1,0.2-0.1,0.3-0.1,0.5c0,0.2,0,0.4,0.1,0.6c0.1,0.2,0.2,0.3,0.4,0.5
									c-0.1,0-0.2,0-0.4,0c-0.1,0-0.3,0-0.4,0h-0.4h-0.1h-1.5c0,0,0,0,0,0c0,0,0,0,0,0h-1.6h-0.1h0c0,0-0.1,0-0.1,0
									c-0.1,0-0.1,0-0.2-0.1c-0.1,0-0.1-0.1-0.2-0.2c-0.1-0.1-0.1-0.2-0.1-0.3v-1.1h-0.8v2.3c0,0.3,0,0.5-0.1,0.6
									c-0.1,0.2-0.1,0.3-0.3,0.4c-0.1,0.1-0.3,0.2-0.4,0.2c-0.2,0.1-0.4,0.1-0.6,0.1h-0.5v0.8h0.5c0.3,0,0.7,0,0.9-0.1
									c0.3-0.1,0.5-0.2,0.7-0.4c0.2-0.2,0.3-0.4,0.5-0.7c0.1-0.3,0.2-0.6,0.2-0.9c0.1,0.1,0.2,0.1,0.3,0.1c0.1,0,0.2,0,0.3,0h0
									h0.1h1.6c0,0,0,0,0,0c0,0,0,0,0,0h1.5h0.1h0.4c0.7,0,1.3-0.1,1.8-0.2c0,0,0.1,0,0.1,0.1c0,0,0.1,0,0.1,0.1
									c0,0,0.1,0,0.1,0.1c0.2,0.1,0.4,0.2,0.6,0.2c0.2,0,0.4,0.1,0.5,0.1c0.2,0,0.4,0,0.6-0.1c0.2,0,0.3-0.1,0.5-0.2
									c0.1-0.1,0.2-0.2,0.3-0.3c0.1-0.1,0.2-0.2,0.2-0.4c0-0.1,0.1-0.2,0.1-0.3c0-0.1,0-0.1,0-0.2
									C532.1,17.3,532.1,17.2,532.1,17.1z M529.6,17c0,0.1-0.1,0.2-0.1,0.2c-0.1,0.1-0.1,0.1-0.2,0.2c-0.1,0.1-0.2,0.1-0.2,0.1
									c-0.3-0.1-0.4-0.3-0.6-0.4c-0.1-0.1-0.2-0.3-0.2-0.5c0-0.1,0-0.2,0.1-0.2c0-0.1,0.1-0.1,0.2-0.2c0.1-0.1,0.1-0.1,0.2-0.1
									c0.1,0,0.2,0,0.3,0c0.1,0,0.1,0,0.2,0c0.1,0,0.2,0.1,0.2,0.1c0.1,0.1,0.1,0.1,0.2,0.2c0,0.1,0.1,0.2,0.1,0.3
									C529.6,16.9,529.6,16.9,529.6,17z"/>
							</g>
						</g>
					</g>
					<g>
						<g>
							<path class="st1" d="M520.5,47.5l-3.4-2.6c1.3-1.4,2.5-3.1,3.5-4.9c1-1.8,2-4,2.9-6.4c0.4-1,0.7-2,1-3.1s0.6-2,0.8-3
								s0.4-1.9,0.5-2.7c0.1-0.9,0.2-1.6,0.2-2.3l4.4,0c0,0.6,0.1,1.4,0.2,2.3c0.1,0.9,0.3,1.8,0.5,2.7c0.2,1,0.5,2,0.8,3
								c0.3,1,0.6,2,1,3c0.9,2.3,1.9,4.4,2.9,6.3c1.1,1.9,2.2,3.5,3.5,4.9l-3.5,2.7c-0.8-0.9-1.5-1.8-2.2-3c-0.7-1.1-1.4-2.3-2-3.6
								c-0.6-1.3-1.3-2.6-1.8-4c-0.6-1.4-1.1-2.7-1.6-4.1c-0.5,1.4-1,2.7-1.6,4.1c-0.6,1.4-1.2,2.7-1.8,4c-0.6,1.3-1.3,2.5-2,3.6
								S521.2,46.6,520.5,47.5 M520.4,49.2c0.5,0,1-0.2,1.3-0.6c0.9-0.9,1.7-2,2.5-3.2c0.7-1.2,1.5-2.5,2.1-3.8
								c0.6-1.3,1.3-2.6,1.8-4c0.6,1.4,1.2,2.7,1.8,4c0.7,1.3,1.4,2.6,2.1,3.8c0.8,1.2,1.6,2.3,2.4,3.2c0.3,0.4,0.8,0.6,1.3,0.6
								c0.4,0,0.8-0.1,1.1-0.4l3.5-2.7c0.4-0.3,0.6-0.7,0.7-1.2s-0.1-0.9-0.4-1.3c-1.2-1.3-2.3-2.9-3.3-4.6c-1-1.8-2-3.8-2.8-6
								c-0.3-0.9-0.7-1.9-1-2.9c-0.3-1-0.6-2-0.8-2.9c-0.2-0.9-0.4-1.8-0.5-2.6c-0.1-0.8-0.2-1.5-0.2-2c0-0.9-0.8-1.7-1.8-1.7
								l-4.4,0c-1,0-1.8,0.8-1.8,1.7c0,0.6-0.1,1.3-0.2,2c-0.1,0.8-0.3,1.7-0.5,2.6c-0.2,0.9-0.5,1.9-0.8,2.9c-0.3,1-0.6,2-1,2.9
								c-0.9,2.3-1.8,4.4-2.8,6.1c-1,1.7-2.1,3.3-3.3,4.6c-0.3,0.3-0.5,0.8-0.4,1.3s0.3,0.9,0.7,1.2l3.4,2.6
								C519.7,49.1,520.1,49.2,520.4,49.2L520.4,49.2L520.4,49.2z"/>
							<path class="st1" d="M545.3,22.1c1.2,0,2.2,0.2,3.1,0.6c0.9,0.4,1.6,0.9,2.2,1.6c0.6,0.7,1,1.5,1.3,2.4
								c0.3,0.9,0.5,1.9,0.5,3c0,2.1,0.1,4,0.2,5.8c0.1,1.8,0.2,3.3,0.3,4.7s0.3,2.6,0.5,3.5c0.2,1,0.4,1.7,0.6,2.2l-4.1,1.5
								c-0.3-0.6-0.5-1.4-0.7-2.3s-0.4-1.9-0.5-2.9s-0.3-2.1-0.3-3.3c-0.1-1.2-0.2-2.3-0.2-3.4l-2.6,0c-0.9,0-1.8-0.1-2.7-0.3
								c-0.9-0.2-1.7-0.5-2.4-1c-0.7-0.5-1.3-1.1-1.7-1.9c-0.5-0.8-0.7-1.8-0.7-3s0.2-2.2,0.5-3.1c0.4-0.9,0.8-1.7,1.5-2.3
								c0.6-0.6,1.4-1.1,2.3-1.4C543.2,22.3,544.2,22.2,545.3,22.1 M545.5,31.6l2.5,0c0-0.3,0-0.6,0-0.9l0-0.8c0-0.8-0.1-1.5-0.3-2
								c-0.2-0.5-0.5-0.9-0.7-1.1c-0.3-0.3-0.6-0.4-0.9-0.5c-0.3-0.1-0.5-0.1-0.7-0.1c-0.5,0-0.9,0.1-1.3,0.2s-0.7,0.3-1,0.6
								c-0.3,0.3-0.5,0.6-0.6,1c-0.2,0.4-0.2,0.9-0.2,1.4c0,0.4,0.1,0.8,0.3,1.1s0.5,0.5,0.8,0.7c0.3,0.2,0.7,0.3,1.1,0.3
								C544.9,31.5,545.2,31.6,545.5,31.6 M545.3,20.4c-1.3,0-2.5,0.2-3.6,0.6c-1.1,0.4-2.1,1-2.9,1.8c-0.8,0.8-1.5,1.8-1.9,2.9
								c-0.4,1.1-0.6,2.3-0.6,3.7c0,1.5,0.3,2.7,0.9,3.8c0.6,1,1.3,1.9,2.3,2.5c0.9,0.6,1.9,1,3,1.3c1,0.2,2,0.3,3.1,0.3l0.9,0
								c0,0.6,0.1,1.2,0.1,1.8c0.1,1.2,0.2,2.3,0.4,3.4c0.1,1.1,0.3,2.1,0.5,3c0.2,1,0.5,1.8,0.8,2.6c0.3,0.7,0.9,1.1,1.7,1.1
								c0.2,0,0.4,0,0.6-0.1l4.1-1.5c0.4-0.2,0.8-0.5,1-0.9c0.2-0.4,0.2-0.9,0-1.3c-0.1-0.3-0.3-0.8-0.5-1.9
								c-0.2-0.9-0.3-2.1-0.4-3.4c-0.1-1.3-0.2-2.9-0.3-4.6c-0.1-1.7-0.1-3.7-0.2-5.7c0-1.3-0.2-2.5-0.5-3.5c-0.4-1.1-0.9-2.2-1.7-3
								c-0.8-0.9-1.7-1.6-2.9-2.1C548,20.7,546.7,20.4,545.3,20.4L545.3,20.4L545.3,20.4z M544,29.4C544,29.4,544,29.4,544,29.4
								c0-0.4,0-0.7,0.1-0.9c0.1-0.2,0.1-0.3,0.2-0.4c0.1-0.1,0.2-0.2,0.3-0.2c0.2-0.1,0.4-0.1,0.6-0.1c0,0,0.1,0,0.2,0
								c0,0,0.1,0,0.1,0.1c0,0,0.2,0.2,0.3,0.5c0.1,0.2,0.2,0.5,0.2,1.3l0,0l-0.7,0c-0.2,0-0.4,0-0.7-0.1c-0.2,0-0.4-0.1-0.6-0.2
								C544.1,29.6,544.1,29.5,544,29.4L544,29.4L544,29.4z"/>
						</g>
						<g>
							<path class="st38" d="M517,44.8c1.3-1.4,2.5-3.1,3.5-4.9c1-1.8,2-4,2.9-6.4c0.4-1,0.7-2,1-3.1c0.3-1,0.6-2,0.8-3
								c0.2-1,0.4-1.9,0.5-2.7c0.1-0.9,0.2-1.6,0.2-2.3l4.4,0c0,0.6,0.1,1.4,0.2,2.3c0.1,0.9,0.3,1.8,0.5,2.7c0.2,1,0.5,2,0.8,3
								c0.3,1,0.6,2,1,3c0.9,2.3,1.9,4.4,2.9,6.3c1.1,1.9,2.2,3.5,3.5,4.9l-3.5,2.7c-0.8-0.9-1.5-1.8-2.2-3c-0.7-1.1-1.4-2.3-2-3.6
								c-0.6-1.3-1.3-2.6-1.8-4c-0.6-1.4-1.1-2.7-1.6-4.1c-0.5,1.4-1,2.7-1.6,4.1c-0.6,1.4-1.2,2.7-1.8,4c-0.6,1.3-1.3,2.5-2,3.6
								c-0.7,1.1-1.5,2.1-2.3,3L517,44.8L517,44.8z"/>
							<path class="st38" d="M549.8,47.5c-0.3-0.6-0.5-1.4-0.7-2.3s-0.4-1.9-0.5-2.9s-0.3-2.1-0.3-3.3c-0.1-1.2-0.2-2.3-0.2-3.4
								l-2.6,0c-0.9,0-1.8-0.1-2.7-0.3c-0.9-0.2-1.7-0.5-2.4-1c-0.7-0.5-1.3-1.1-1.7-1.9c-0.4-0.8-0.7-1.8-0.7-3s0.2-2.2,0.5-3.1
								c0.4-0.9,0.8-1.7,1.5-2.3c0.6-0.6,1.4-1.1,2.3-1.4c0.9-0.3,1.9-0.5,2.9-0.5c1.2,0,2.2,0.2,3.1,0.6c0.9,0.4,1.6,0.9,2.2,1.6
								c0.6,0.7,1,1.5,1.3,2.4c0.3,0.9,0.5,1.9,0.5,3c0,2.1,0.1,4,0.2,5.8c0.1,1.8,0.2,3.3,0.3,4.7c0.1,1.4,0.3,2.6,0.5,3.5
								c0.2,1,0.4,1.7,0.6,2.2L549.8,47.5L549.8,47.5z M548,31.5c0-0.3,0-0.6,0-0.9l0-0.8c0-0.8-0.1-1.5-0.3-2
								c-0.2-0.5-0.5-0.9-0.7-1.1c-0.3-0.3-0.6-0.4-0.9-0.5s-0.5-0.1-0.7-0.1c-0.5,0-0.9,0.1-1.3,0.2c-0.4,0.1-0.7,0.3-1,0.6
								c-0.3,0.3-0.5,0.6-0.6,1c-0.2,0.4-0.2,0.9-0.2,1.4c0,0.4,0.1,0.8,0.3,1.1s0.5,0.5,0.8,0.7c0.3,0.2,0.7,0.3,1.1,0.3
								c0.4,0.1,0.7,0.1,1,0.1L548,31.5L548,31.5z"/>
						</g>
					</g>
				</g>
			</g>
		</g>
		<g>
			<g>
				<g>
					<g>
						<g>
							<path class="st42" d="M472.8,49.6h-27.1c-3,0-5.5-2.4-5.5-5.4l0,0c0-3,2.5-5.4,5.5-5.4h27.1c3,0,5.5,2.4,5.5,5.4l0,0
								C478.3,47.1,475.9,49.6,472.8,49.6z"/>
						</g>
					</g>
				</g>
				<g>
					<g>
						<g>
							<g>
								<g>
									<g>
										<path class="st1" d="M479.2,44.2c-0.3,0.1-0.6,0.3-0.5,0.6l-0.1-0.5c-0.1-0.3-0.5-0.5-0.8-0.4c-0.3,0.1-0.5,0.4-0.5,0.7
											l-0.1-0.4c-0.1-0.3-0.5-0.4-0.8-0.4c-0.3,0.1-0.5,0.4-0.5,0.6l-0.5-1.6c-0.1-0.3-0.5-0.4-0.8-0.3
											c-0.3,0.1-0.5,0.3-0.5,0.6l1.2,4l-0.9-0.9c-0.4-0.4-1.1-0.4-1.5-0.1l0,0c-0.1,0.1-0.1,0.2,0,0.2l2,2.2
											c0.8,0.8,2,1.2,3.2,0.9l0.9-0.2c1.2-0.3,1.9-1.3,1.6-2.4l-0.7-2.4C479.8,44.3,479.5,44.1,479.2,44.2z"/>
									</g>
									<g>
										<path class="st1" d="M475.9,44.3l0.5,1.6L475.9,44.3z"/>
									</g>
									<g>
										<path class="st1" d="M477.2,44.3l0.4,1.4L477.2,44.3z"/>
									</g>
									<g>
										<g>
											<path class="st1" d="M478.6,44.3l0.3,1.1L478.6,44.3z"/>
										</g>
										<path class="st43" d="M480.7,46.9l-0.7-2.4c-0.1-0.3-0.5-0.5-0.8-0.4c-0.2,0-0.4,0.2-0.5,0.3l0-0.1
											c-0.1-0.3-0.5-0.5-0.9-0.4c-0.2,0-0.4,0.2-0.5,0.3l0,0c-0.1-0.3-0.5-0.5-0.9-0.4c-0.2,0-0.3,0.2-0.4,0.3l-0.3-1.2
											c-0.2-0.3-0.5-0.5-0.9-0.4c-0.3,0.1-0.6,0.4-0.5,0.7l1,3.6l-0.6-0.6c-0.4-0.4-1.2-0.5-1.7-0.1c-0.1,0.1-0.1,0.3,0,0.4
											l2,2.2c0.4,0.5,1,0.8,1.6,1c0,0,0.1,0,0.1,0c0.5,0.1,1.1,0.1,1.6,0l0.9-0.2c0.6-0.1,1.1-0.5,1.4-1
											C480.8,48,480.9,47.4,480.7,46.9z M475.5,47.3c0,0,0.1-0.1,0.1-0.1l-1.2-4c0-0.2,0.1-0.4,0.4-0.5c0.2-0.1,0.5,0,0.6,0.2
											l0.9,3.1c0,0,0,0.1,0.1,0.1c0,0,0,0,0.1,0c0,0,0.1,0,0.1,0c0,0,0,0,0-0.1l-0.4-1.5c0-0.2,0.1-0.5,0.4-0.5
											c0.3-0.1,0.5,0.1,0.6,0.3l0.4,1.5c0,0,0,0.1,0.1,0.1c0,0,0,0,0.1,0c0,0,0.1,0,0.1,0c0,0,0,0,0-0.1l-0.3-1.1
											c-0.1-0.2,0.1-0.5,0.4-0.6c0.3-0.1,0.6,0.1,0.6,0.3l0.3,1.1c0,0,0,0.1,0.1,0.1c0,0,0,0,0.1,0c0,0,0.1,0,0.1,0
											c0,0,0,0,0-0.1l-0.2-0.6c0-0.3,0.2-0.5,0.4-0.5c0.2,0,0.5,0.1,0.6,0.3l0.7,2.4c0.1,0.5,0.1,1-0.2,1.4
											c-0.3,0.4-0.7,0.7-1.3,0.9l-0.9,0.2c-1.1,0.3-2.4-0.1-3.1-0.9l-2-2.2c0,0,0-0.1,0-0.1c0.2-0.2,0.6-0.3,0.9-0.2
											c0,0,0,0,0,0c0.2,0,0.4,0.1,0.5,0.3l0.9,0.9C475.4,47.3,475.4,47.3,475.5,47.3z"/>
									</g>
								</g>
							</g>
						</g>
					</g>
					<g>
						<path class="st1" d="M474.2,40.4C474.1,40.4,474.1,40.4,474.2,40.4c-0.1-0.1-0.1-0.1-0.1-0.1c0,0-0.1,0-0.1,0c0,0,0,0,0,0.1
							l0.4,1.3c0,0,0,0.1,0.1,0.1l0,0c0,0,0,0,0,0c0,0,0,0,0.1,0c0,0,0.1,0,0.1,0c0,0,0,0,0-0.1L474.2,40.4z"/>
						<path class="st1" d="M473.9,42l-1.1-0.9c0,0-0.1,0-0.2,0c0,0,0,0,0,0.1c0,0,0,0.1,0,0.1l1.1,0.9c0,0,0,0,0.1,0c0,0,0,0,0,0
							c0,0,0.1,0,0.1,0C473.9,42.2,473.9,42.1,473.9,42C473.9,42.1,473.9,42.1,473.9,42z"/>
						<path class="st1" d="M475.7,40.3C475.6,40.3,475.6,40.3,475.7,40.3c-0.1,0-0.1,0-0.1,0.1l-0.4,1.3c0,0.1,0,0.1,0.1,0.1l0,0
							c0,0,0,0,0,0c0.1,0,0.1,0,0.1-0.1l0.4-1.3C475.7,40.4,475.7,40.4,475.7,40.3C475.7,40.3,475.7,40.3,475.7,40.3z"/>
						<path class="st1" d="M477,41.1C477,41.1,477,41.1,477,41.1c-0.1-0.1-0.1-0.1-0.2-0.1l-1.1,1c0,0,0,0,0,0.1c0,0,0,0.1,0,0.1
							c0,0,0,0,0.1,0l0,0c0,0,0,0,0,0c0,0,0.1,0,0.1,0L477,41.1C477,41.2,477,41.2,477,41.1z"/>
						<path class="st1" d="M473.5,42.7l-1.5-0.3c-0.1,0-0.1,0-0.1,0.1c0,0.1,0,0.1,0.1,0.1l1.5,0.3c0,0,0,0,0,0c0,0,0.1,0,0.1,0
							c0,0,0,0,0.1-0.1C473.6,42.7,473.5,42.7,473.5,42.7z"/>
					</g>
				</g>
			</g>
			<g>
				<path class="st44" d="M446.7,46.8c-0.1,0-0.2,0-0.3,0.1c-0.1,0.1-0.1,0.2-0.1,0.3c0,0.1,0,0.2,0.1,0.3c0.1,0.1,0.2,0.1,0.3,0.1
					c0.1,0,0.2,0,0.3-0.1c0.1-0.1,0.1-0.2,0.1-0.3c0-0.1,0-0.2-0.1-0.3C446.9,46.8,446.8,46.8,446.7,46.8z"/>
				<path class="st44" d="M447.9,46.8c-0.1,0-0.2,0-0.3,0.1c-0.1,0.1-0.1,0.2-0.1,0.3c0,0.1,0,0.2,0.1,0.3c0.1,0.1,0.2,0.1,0.3,0.1
					c0.1,0,0.2,0,0.3-0.1c0.1-0.1,0.1-0.2,0.1-0.3c0-0.1,0-0.2-0.1-0.3C448.1,46.8,448,46.8,447.9,46.8z"/>
				<path class="st44" d="M450.4,42.7c0.1,0,0.2,0,0.3-0.1s0.1-0.2,0.1-0.3c0-0.1,0-0.2-0.1-0.3s-0.2-0.1-0.3-0.1
					c-0.1,0-0.2,0-0.3,0.1c-0.1,0.1-0.1,0.2-0.1,0.3c0,0.1,0,0.2,0.1,0.3C450.1,42.6,450.2,42.7,450.4,42.7z"/>
				<path class="st44" d="M455,40.7l-2.8,1.3l-0.1,0.7c0.1,0.1,0.2,0.1,0.3,0.2c0.1,0.1,0.2,0.2,0.4,0.4s0.3,0.3,0.4,0.4
					c0.1,0.2,0.3,0.3,0.4,0.5c0.1,0.2,0.2,0.3,0.3,0.4c0.1,0.1,0.1,0.3,0.1,0.3c0,0.1,0,0.1-0.1,0.1c0,0-0.1,0.1-0.1,0.1
					c-0.1,0-0.1,0-0.2,0c-0.1,0-0.1,0-0.1,0l-1.7,0l-0.2,0c0,0,0,0-0.1,0s-0.1,0-0.1,0s-0.1,0-0.1,0c0,0-0.1,0-0.1-0.1
					c0,0-0.1-0.1-0.1-0.1c0-0.1,0-0.1,0-0.2l0-1.1l-0.7,0l0,1.1c0,0,0,0.1,0,0.2c0,0.1,0,0.1-0.1,0.1s-0.1,0.1-0.2,0.1
					c-0.1,0-0.2,0-0.3,0l-0.4,0v0l-0.1,0l-0.1,0v0l-0.4,0c0,0,0,0-0.1,0s-0.1,0-0.1,0c0,0-0.1,0-0.1,0c0,0-0.1,0-0.1-0.1
					c0,0-0.1-0.1-0.1-0.1s0-0.1,0-0.2l0-1.1l-0.7,0l0,1.1c0,0,0,0.1,0,0.1s0,0.1-0.1,0.1c0,0-0.1,0.1-0.2,0.1c-0.1,0-0.2,0-0.3,0
					l-1.1,0c-0.1,0-0.2,0-0.2-0.1c-0.1-0.1-0.2-0.2-0.3-0.3c-0.1-0.1-0.2-0.2-0.2-0.3c-0.1-0.1-0.1-0.2-0.2-0.3
					c-0.1-0.2-0.3-0.4-0.4-0.6c-0.1-0.2-0.2-0.3-0.3-0.5S444,43,444,42.9l-0.1-0.1l-0.2-0.3l-0.6,0.4l0.2,0.3l0,0c0,0,0,0,0.1,0.1
					c0,0.1,0.1,0.2,0.2,0.3c0.1,0.1,0.2,0.3,0.3,0.5c0.1,0.2,0.3,0.4,0.5,0.7c0.1,0.1,0.1,0.2,0.1,0.3l0,0c0,0.1,0,0.1-0.1,0.2
					c-0.1,0-0.2,0.1-0.3,0.1c-0.1,0-0.3,0-0.4,0c-0.1,0-0.2,0-0.2,0c-0.1,0-0.2,0-0.2,0c-0.1,0-0.1,0-0.2-0.1c-0.1,0-0.1,0-0.2-0.1
					l-0.3-0.2l-0.3,0.6l0.3,0.2c0.1,0,0.1,0.1,0.2,0.1s0.1,0.1,0.2,0.1c0.1,0,0.1,0,0.2,0s0.1,0,0.2,0c0.1,0,0.2,0,0.4,0
					c0.1,0,0.2,0,0.3,0c0.1,0,0.2,0,0.2,0c0.2,0,0.4-0.1,0.6-0.2c0.1-0.1,0.2-0.1,0.2-0.2c0.3,0.2,0.5,0.4,0.8,0.4l0,0l0,0
					c0,0,0,0,0,0h0.1v0l1,0c0.2,0,0.4,0,0.5-0.1s0.3-0.1,0.4-0.2c0.1,0.1,0.2,0.2,0.4,0.2c0.1,0.1,0.3,0.1,0.5,0.1l0.4,0l0.5,0
					c0.2,0,0.4,0,0.5-0.1c0.2-0.1,0.3-0.1,0.4-0.2c0.1,0.1,0.2,0.2,0.4,0.2c0.1,0.1,0.3,0.1,0.5,0.1l0.1,0v0l1.8,0
					c0.2,0,0.4,0,0.5-0.1c0.1,0,0.2-0.1,0.3-0.2c0.1-0.1,0.2-0.1,0.2-0.2s0.1-0.1,0.1-0.2c0,0,0-0.1,0-0.2c0-0.1,0-0.1,0-0.2
					c0-0.1,0-0.1,0-0.2c0-0.1,0-0.2-0.1-0.3c0-0.1-0.1-0.2-0.2-0.3c-0.1-0.1-0.2-0.2-0.3-0.4s-0.2-0.3-0.3-0.4
					c-0.1-0.1-0.2-0.2-0.3-0.4c-0.1-0.1-0.2-0.2-0.3-0.3c-0.1-0.1-0.2-0.2-0.3-0.3l2.4-1.1L455,40.7z"/>
				<path class="st44" d="M465.2,46.7c-0.1,0-0.2,0-0.3,0.1c-0.1,0.1-0.1,0.2-0.1,0.3c0,0.1,0,0.2,0.1,0.3c0.1,0.1,0.2,0.1,0.3,0.1
					c0.1,0,0.2,0,0.3-0.1c0.1-0.1,0.1-0.2,0.1-0.3c0-0.1,0-0.2-0.1-0.3C465.4,46.7,465.3,46.7,465.2,46.7z"/>
				<path class="st44" d="M464,46.7c-0.1,0-0.2,0-0.3,0.1c-0.1,0.1-0.1,0.2-0.1,0.3c0,0.1,0,0.2,0.1,0.3c0.1,0.1,0.2,0.1,0.3,0.1
					c0.1,0,0.2,0,0.3-0.1c0.1-0.1,0.1-0.2,0.1-0.3c0-0.1,0-0.2-0.1-0.3C464.2,46.7,464.1,46.7,464,46.7z"/>
				<path class="st44" d="M471.4,44.4c0-0.1-0.1-0.2-0.2-0.3c-0.1-0.1-0.2-0.2-0.3-0.4c-0.1-0.1-0.2-0.3-0.3-0.4
					c-0.1-0.1-0.2-0.2-0.3-0.4c-0.1-0.1-0.2-0.2-0.3-0.3c-0.1-0.1-0.2-0.2-0.3-0.3l2.4-1.1l-0.3-0.6l-2.8,1.3l-0.1,0.7
					c0.1,0.1,0.2,0.1,0.3,0.2c0.1,0.1,0.2,0.2,0.4,0.4c0.1,0.1,0.3,0.3,0.4,0.4c0.1,0.2,0.3,0.3,0.4,0.5c0.1,0.2,0.2,0.3,0.3,0.4
					c0.1,0.1,0.1,0.3,0.1,0.3c0,0.1,0,0.1-0.1,0.1c0,0-0.1,0.1-0.1,0.1c-0.1,0-0.1,0-0.2,0c-0.1,0-0.1,0-0.1,0l-1.7,0l0,0h0l-0.1,0
					c-0.1,0-0.2,0-0.2-0.1c-0.1,0-0.1-0.1-0.2-0.1c0-0.1-0.1-0.1-0.1-0.2s0-0.1,0-0.2l0-3.4l-0.7,0l0,3.4c0,0.1,0,0.1,0,0.2
					c0,0.1,0,0.1-0.1,0.2c-0.1,0.1-0.1,0.1-0.3,0.2c-0.1,0-0.3,0.1-0.5,0.1l-0.4,0c0,0,0,0-0.1,0c0,0-0.1,0-0.1,0c0,0-0.1,0-0.1,0
					c0,0-0.1,0-0.1-0.1c0,0-0.1-0.1-0.1-0.1s0-0.1,0-0.2l0-1.1l-0.7,0l0,1.1c0,0,0,0.1,0,0.1s0,0.1-0.1,0.1c0,0-0.1,0.1-0.2,0.1
					c-0.1,0-0.2,0-0.3,0l-1,0v0h-0.1c-0.1,0-0.2,0-0.3,0c-0.1,0-0.2,0-0.2-0.1c-0.1,0-0.1-0.1-0.2-0.1c-0.1-0.1-0.1-0.1-0.2-0.2
					c-0.1-0.1-0.2-0.2-0.3-0.3c-0.1-0.1-0.2-0.3-0.3-0.4c-0.1-0.2-0.3-0.4-0.4-0.5c-0.1-0.1-0.2-0.3-0.3-0.4
					c-0.1-0.1-0.1-0.2-0.2-0.3c-0.1-0.1-0.1-0.2-0.2-0.3l2.5-1.2l-0.3-0.7l-2.9,1.4l-0.1,0.5c0.1,0.1,0.2,0.2,0.3,0.4
					c0.1,0.1,0.2,0.3,0.3,0.5c0.1,0.2,0.3,0.4,0.4,0.6c0.1,0.1,0.1,0.2,0.2,0.4c0.1,0.1,0.1,0.2,0.1,0.3c0,0,0,0.1,0,0.1
					c0,0,0,0.1,0,0.1c0,0.1-0.1,0.1-0.1,0.1c-0.1,0-0.1,0.1-0.2,0.1c-0.1,0-0.2,0.1-0.3,0.1c-0.1,0-0.2,0-0.3,0l-2.5,0
					c0,0-0.1,0-0.1,0c-0.1,0-0.1,0-0.2-0.1c-0.1,0-0.1-0.1-0.1-0.2c0-0.1-0.1-0.2-0.1-0.3c0-0.1,0-0.2,0-0.2c0-0.1,0-0.2,0.1-0.3
					c0-0.1,0-0.2,0.1-0.3c0-0.1,0-0.1,0.1-0.2l-0.3-0.1l-0.3-0.1c0,0,0,0.1,0,0.2s0,0.2-0.1,0.3c0,0.1,0,0.2-0.1,0.4s0,0.3,0,0.4
					c0,0.1,0,0.2,0,0.3c0,0.1,0.1,0.2,0.1,0.3c0,0.1,0.1,0.1,0.1,0.2c0,0.1,0.1,0.1,0.1,0.2c0.1,0.1,0.2,0.2,0.4,0.2
					c0.1,0.1,0.3,0.1,0.4,0.1l2.4,0c0.2,0,0.3,0,0.5,0c0.2,0,0.3-0.1,0.4-0.1c0.1-0.1,0.3-0.1,0.4-0.3c0.1-0.1,0.2-0.2,0.3-0.3
					c0.1,0.1,0.2,0.2,0.3,0.3c0.1,0.1,0.2,0.2,0.3,0.2c0.1,0.1,0.2,0.1,0.4,0.1c0.1,0,0.3,0,0.4,0l0,0l1.1,0c0.2,0,0.4,0,0.5-0.1
					s0.3-0.1,0.4-0.2c0.1,0.1,0.2,0.2,0.4,0.2c0.1,0.1,0.3,0.1,0.5,0.1l0.4,0v0c0,0,0,0,0,0l0.1,0l0,0c0.1,0,0.2,0,0.3,0
					c0.1,0,0.2,0,0.3-0.1c0.1,0,0.2-0.1,0.3-0.1s0.1-0.1,0.2-0.2c0.1,0.1,0.1,0.1,0.2,0.2c0.1,0,0.1,0.1,0.2,0.1
					c0.1,0,0.1,0.1,0.2,0.1c0.1,0,0.1,0,0.2,0l0,0l0.1,0c0,0,0,0,0,0l0.1,0l0,0l1.7,0c0.2,0,0.4,0,0.5-0.1c0.1,0,0.2-0.1,0.3-0.2
					c0.1-0.1,0.2-0.1,0.2-0.2s0.1-0.1,0.1-0.2c0,0,0-0.1,0-0.2c0-0.1,0-0.1,0-0.2c0-0.1,0-0.1,0-0.2
					C471.4,44.5,471.4,44.5,471.4,44.4z"/>
			</g>
		</g>
	</g>
	<g>
		<g>
			<g>
				<ellipse class="st45" cx="459.7" cy="22.2" rx="13.3" ry="12.8"/>
				<path class="st35" d="M445,22.2c0-7.9,6.7-14.3,14.9-14.3c2.6,0,5,0.6,7.1,1.7c-2.5-1.7-5.5-2.8-8.7-2.8
					c-8.2,0-14.9,6.5-14.9,14.3c0,5.5,3.2,10.2,7.8,12.6C447.3,31.1,445,27,445,22.2z"/>
				<ellipse class="st36" cx="459.7" cy="22.2" rx="14.9" ry="14.3"/>
			</g>
		</g>
		<g>
			<path class="st1" d="M452.9,17.9c0.2,0,0.3-0.1,0.4-0.2c0.1-0.1,0.2-0.3,0.2-0.4c0-0.2-0.1-0.3-0.2-0.4c-0.1-0.1-0.3-0.2-0.4-0.2
				c-0.2,0-0.3,0.1-0.4,0.2c-0.1,0.1-0.2,0.3-0.2,0.4c0,0.2,0.1,0.3,0.2,0.4C452.6,17.9,452.7,17.9,452.9,17.9z"/>
			<path class="st1" d="M451.1,20.6l2.8,0c0.6,0,1.1-0.2,1.4-0.6c0.2-0.2,0.3-0.5,0.3-0.8c0-0.1,0-0.2,0-0.3c-0.1-0.4-0.1-0.7-0.2-1
				l-1.1,0.3c0,0.1,0,0.1,0,0.2l0,0.1l0,0.1c0,0.1,0,0.1,0,0.1c0,0.1,0,0.2,0.1,0.4c0,0,0,0.1,0,0.1c0,0.1,0,0.2-0.1,0.2
				c-0.1,0.1-0.2,0.1-0.4,0.1l-3.8,0c-0.1,0-0.1,0-0.1-0.1c0,0,0-0.1,0-0.1c0,0,0,0,0-0.1c0-0.3,0.1-0.6,0.2-1l-1.1-0.3c0,0,0,0,0,0
				c0,0,0,0.1,0,0.1c0,0.1,0,0.2-0.1,0.3c-0.1,0.3-0.1,0.5-0.1,0.6c0,0.1,0,0.2,0,0.3c0,0.1,0,0.2,0,0.3c0,0.2,0.1,0.4,0.2,0.6
				c0.2,0.3,0.5,0.4,0.8,0.5C450,20.6,450.4,20.6,451.1,20.6z"/>
			<path class="st1" d="M451.5,17.9c0.2,0,0.3-0.1,0.4-0.2c0.1-0.1,0.2-0.3,0.2-0.4c0-0.2-0.1-0.3-0.2-0.4c-0.1-0.1-0.3-0.2-0.4-0.2
				c-0.2,0-0.3,0.1-0.4,0.2c-0.1,0.1-0.2,0.3-0.2,0.4c0,0.2,0.1,0.3,0.2,0.4C451.1,17.9,451.3,17.9,451.5,17.9z"/>
			<path class="st1" d="M461.5,20.5l0-1.1l-0.7,0c-0.4,0-0.7-0.1-0.9-0.2c-0.2-0.1-0.4-0.3-0.4-0.5c0-0.1,0-0.3,0.1-0.3
				c0.1-0.1,0.2-0.2,0.4-0.2l0.1,0c0.2,0,0.5,0.1,0.9,0.4l0.6-1l-0.1,0c-0.3-0.2-0.5-0.3-0.7-0.3c-0.3-0.1-0.5-0.1-0.8-0.1
				c-0.6,0-1,0.2-1.3,0.5c-0.3,0.3-0.4,0.7-0.4,1.1c0,0.2,0,0.4,0.1,0.6l-0.6,0v0l-0.1,0c-0.1,0-0.2,0-0.3-0.1
				c-0.1-0.1-0.1-0.1-0.1-0.3l0-3.4l-1.1,0l0,3.4c0,0.3,0,0.5,0.1,0.7c0.1,0.2,0.2,0.3,0.3,0.4c0.1,0.1,0.3,0.2,0.4,0.3
				c0.2,0.1,0.4,0.1,0.7,0.1l0.1,0v0L461.5,20.5z"/>
			<path class="st1" d="M470.2,18.7c-0.1-0.4-0.2-0.8-0.3-1.1l-1.1,0.3c0,0.2,0.1,0.5,0.3,1.1c0,0,0,0.1,0,0.1
				c0,0.2-0.1,0.3-0.4,0.3c-0.2,0-0.3,0-0.3-0.1c-0.1-0.1-0.1-0.2-0.1-0.3l0-0.8l-1.1,0l0,0.8c0,0.2,0,0.3-0.1,0.3
				c-0.1,0-0.2,0.1-0.3,0.1c-0.1,0-0.2,0-0.3-0.1c-0.1-0.1-0.1-0.2-0.1-0.3l0-0.8l-1.1,0l0,0.8c0,0.1,0,0.2-0.1,0.3
				c-0.1,0.1-0.2,0.1-0.3,0.1l-0.5,0v0l-0.3,0c-0.1,0-0.2,0-0.3-0.1c-0.1-0.1-0.1-0.1-0.1-0.3l0-3.4l-1.1,0l0,3.4
				c0,0.3,0,0.5,0.1,0.7c0.1,0.2,0.2,0.3,0.3,0.4c0.1,0.1,0.3,0.2,0.4,0.3c0.2,0.1,0.4,0.1,0.7,0.1l0.1,0v0l0.7,0
				c0.5,0,0.8-0.1,1-0.3c0.3,0.2,0.6,0.3,1,0.3c0.4,0,0.7-0.1,0.9-0.3c0.1,0.1,0.2,0.2,0.4,0.2c0.2,0.1,0.4,0.1,0.7,0.1
				c0.5,0,0.9-0.2,1.2-0.6c0.1-0.2,0.2-0.4,0.2-0.6c0-0.1,0-0.2,0-0.3C470.2,18.9,470.2,18.8,470.2,18.7z"/>
			<path class="st1" d="M457.4,25l-1.1,0.3c0,0.1,0,0.2,0.1,0.4l0,0.1l0,0.1c0,0.1,0,0.1,0,0.1c0,0.1,0,0.2,0.1,0.4c0,0,0,0.1,0,0.1
				c0,0.1,0,0.2-0.1,0.2c-0.1,0.1-0.2,0.1-0.4,0.1l-0.7,0l0,0l-2.3,0l0,1c0.6,0.1,1,0.2,1.4,0.4c0,0.1-0.1,0.1-0.1,0.2
				c-0.2,0.1-0.5,0.2-1,0.2l-1,0c-0.4,0-0.7-0.2-0.9-0.5c-0.1-0.1-0.1-0.2-0.1-0.4c0-0.1,0-0.1,0-0.2c0,0,0-0.1,0-0.1
				c0-0.4,0.1-0.9,0.4-1.5l-1-0.5c-0.1,0.2-0.2,0.4-0.3,0.6c-0.2,0.5-0.3,0.9-0.3,1.4c0,0.6,0.2,1.1,0.5,1.5c0.4,0.5,1,0.8,1.7,0.8
				l1,0c0.9,0,1.5-0.2,1.9-0.6c0.1-0.1,0.2-0.3,0.3-0.5c0-0.1,0-0.1,0-0.2c0-0.1,0-0.1,0-0.2c0-0.1,0-0.3-0.1-0.3l0.5,0l0.2,0
				c0,0,0,0,0,0l0.1,0l0,0c0.6,0,1-0.2,1.3-0.6c0.2-0.2,0.3-0.5,0.3-0.8c0-0.1,0-0.2,0-0.3C457.6,25.7,457.5,25.3,457.4,25z"/>
			<path class="st1" d="M456.4,24.3c0.2,0,0.3-0.1,0.4-0.2c0.1-0.1,0.2-0.3,0.2-0.4s-0.1-0.3-0.2-0.4c-0.1-0.1-0.3-0.2-0.4-0.2
				c-0.2,0-0.3,0.1-0.4,0.2c-0.1,0.1-0.2,0.3-0.2,0.4s0.1,0.3,0.2,0.4C456.1,24.3,456.3,24.3,456.4,24.3z"/>
			<path class="st1" d="M461,28.6c-0.2,0-0.3,0.1-0.4,0.2c-0.1,0.1-0.2,0.3-0.2,0.4c0,0.2,0.1,0.3,0.2,0.4c0.1,0.1,0.3,0.2,0.4,0.2
				c0.2,0,0.3-0.1,0.4-0.2s0.2-0.3,0.2-0.4c0-0.2-0.1-0.3-0.2-0.4S461.2,28.6,461,28.6z"/>
			<path class="st1" d="M463,25l-1.1,0.3c0,0.1,0,0.2,0.1,0.4l0,0.1l0,0.1c0,0.1,0,0.1,0,0.1c0,0.1,0,0.2,0.1,0.4c0,0,0,0.1,0,0.1
				c0,0.1,0,0.2-0.1,0.2c-0.1,0.1-0.2,0.1-0.4,0.1l-1.3,0v0l-0.1,0c-0.1,0-0.2,0-0.3-0.1c-0.1-0.1-0.1-0.1-0.1-0.3l0-3.4l-1.1,0
				l0,3.4c0,0.3,0,0.5,0.1,0.7c0.1,0.2,0.2,0.3,0.3,0.4c0.1,0.1,0.3,0.2,0.4,0.3c0.2,0.1,0.4,0.1,0.7,0.1l0.3,0v0l1.2,0
				c0.6,0,1.1-0.2,1.4-0.6c0.2-0.2,0.3-0.5,0.3-0.8c0-0.1,0-0.2,0-0.3C463.2,25.7,463.1,25.3,463,25z"/>
			<path class="st1" d="M462.5,28.6c-0.2,0-0.3,0.1-0.4,0.2c-0.1,0.1-0.2,0.3-0.2,0.4c0,0.2,0.1,0.3,0.2,0.4
				c0.1,0.1,0.3,0.2,0.4,0.2c0.2,0,0.3-0.1,0.4-0.2c0.1-0.1,0.2-0.3,0.2-0.4c0-0.2-0.1-0.3-0.2-0.4
				C462.8,28.6,462.7,28.6,462.5,28.6z"/>
			<path class="st1" d="M468.2,28.5c-0.2,0-0.3,0.1-0.4,0.2c-0.1,0.1-0.2,0.3-0.2,0.4c0,0.2,0.1,0.3,0.2,0.4
				c0.1,0.1,0.3,0.2,0.4,0.2c0.2,0,0.3-0.1,0.4-0.2c0.1-0.1,0.2-0.3,0.2-0.4c0-0.2-0.1-0.3-0.2-0.4
				C468.5,28.5,468.4,28.5,468.2,28.5z"/>
			<path class="st1" d="M468.6,24.9l-1.1,0.3c0,0.1,0,0.2,0.1,0.4l0,0.1l0,0.1c0,0.1,0,0.1,0,0.1c0,0.1,0,0.2,0.1,0.4
				c0,0,0,0.1,0,0.1c0,0.1,0,0.2-0.1,0.2c-0.1,0.1-0.2,0.1-0.4,0.1l-1.1,0v0l-0.3,0c-0.1,0-0.2,0-0.3-0.1c-0.1-0.1-0.1-0.1-0.1-0.3
				l0-3.4l-1.1,0l0,3.4c0,0.3,0,0.5,0.1,0.7c0.1,0.2,0.2,0.3,0.3,0.4c0.1,0.1,0.3,0.2,0.4,0.3c0.2,0.1,0.4,0.1,0.7,0.1l0.1,0v0
				l1.4,0c0.6,0,1.1-0.2,1.4-0.6c0.2-0.2,0.3-0.5,0.3-0.8c0-0.1,0-0.2,0-0.3C468.8,25.6,468.7,25.2,468.6,24.9z"/>
			<path class="st1" d="M467.4,29.5c-0.1,0-0.3,0.1-0.4,0.2c-0.1,0.1-0.2,0.2-0.2,0.4s0.1,0.3,0.2,0.4s0.2,0.2,0.4,0.2
				c0.1,0,0.3-0.1,0.4-0.2s0.2-0.2,0.2-0.4s-0.1-0.3-0.2-0.4C467.7,29.5,467.6,29.5,467.4,29.5z"/>
			<path class="st1" d="M467.3,29.1c0-0.2-0.1-0.3-0.2-0.4c-0.1-0.1-0.3-0.2-0.4-0.2c-0.2,0-0.3,0.1-0.4,0.2
				c-0.1,0.1-0.2,0.3-0.2,0.4c0,0.2,0.1,0.3,0.2,0.4c0.1,0.1,0.3,0.2,0.4,0.2c0.2,0,0.3-0.1,0.4-0.2S467.3,29.2,467.3,29.1z"/>
		</g>
	</g>
</g>
</svg>
