<svg width="90" height="91" viewBox="0 0 90 91" fill="none" xmlns="http://www.w3.org/2000/svg">
<path opacity="0.2" d="M30.114 70.7033C20.2093 70.461 11.8569 63.4073 8.94141 53.7344C12.9131 54.6285 16.6657 56.3081 19.9785 58.6744C25.536 62.4715 29.354 67.1702 30.114 70.7033Z" fill="url(#paint0_linear_1387_21327)"/>
<path opacity="0.2" d="M51.7988 55.35C51.6468 55.768 51.4758 56.1765 51.3048 56.5755C51.1338 56.9745 50.9438 57.383 50.7443 57.7725C49.5884 60.0932 48.0718 62.2159 46.2509 64.0615C44.4684 65.8656 42.4015 67.3644 40.1329 68.498C39.3727 68.8701 38.5925 69.2 37.7959 69.486C37.6249 69.3245 37.4444 69.163 37.2734 69.0015C34.8838 66.647 33.0078 63.8232 31.7634 60.708C31.2866 59.5448 30.8867 58.3516 30.5664 57.136V57.1265H30.6329C36.2569 57.1265 40.8264 52.2055 40.8264 46.1445C40.8282 44.3774 40.4287 42.633 39.6579 41.043H39.6674C43.8948 42.221 48.2933 46.6005 50.8583 52.7185C50.8668 52.7516 50.8796 52.7836 50.8963 52.8135C51.2383 53.6514 51.5423 54.5064 51.7988 55.35Z" fill="url(#paint1_linear_1387_21327)"/>
<path opacity="0.2" d="M28.9198 6.99027L27.0264 33.2359L24.4101 33.6435C24.2829 33.6636 24.1536 33.6671 24.0254 33.6539V6.91142C24.7075 6.85632 25.401 6.83447 26.0945 6.83447C27.0378 6.84682 27.984 6.89147 28.9198 6.99027Z" fill="url(#paint2_linear_1387_21327)"/>
<path opacity="0.2" d="M19.5976 7.61719V26.2039C18.7179 24.2897 17.7489 22.1873 16.8027 20.0641V8.45414C17.7188 8.12545 18.6517 7.84607 19.5976 7.61719Z" fill="url(#paint3_linear_1387_21327)"/>
<path d="M52.4282 46.4315C52.3617 54.4903 48.651 62.4228 41.8757 66.9819C38.8276 68.985 35.286 70.1083 31.6406 70.2283C27.9952 70.3483 24.3874 69.4604 21.2142 67.6621C15.8191 64.5944 11.8128 59.5668 10.027 53.623C9.46572 51.814 9.10539 49.9486 8.95257 48.0607C8.86741 47.0574 8.84298 46.0498 8.87942 45.0435C8.89652 44.597 8.88988 43.305 9.40478 43.1065C9.78478 42.9583 10.8402 43.3506 11.2373 43.4181L14.227 43.9282L17.0237 44.4032C17.6069 44.4329 18.1755 44.5953 18.6862 44.8782C18.9333 45.0859 19.1276 45.3491 19.2532 45.6463C19.3789 45.9436 19.4323 46.2664 19.4092 46.5882C19.4316 47.4427 19.536 48.293 19.7208 49.1276C20.0565 50.5564 20.6666 51.9063 21.5172 53.1024C24.884 57.8144 31.2195 58.7368 36.1339 55.9182C38.7031 54.3796 40.5876 51.9177 41.4018 49.0358C42.2161 46.1539 41.8986 43.0698 40.5143 40.4142C39.7977 39.0665 38.811 37.8809 37.6159 36.9315C36.9738 36.4226 36.272 35.9941 35.5259 35.6556C34.7782 35.3174 33.9679 35.1512 33.6164 34.3161C33.4374 33.7158 33.4305 33.0772 33.5964 32.4731L33.9973 29.6231C34.2063 28.1392 34.4157 26.655 34.6253 25.1705C34.6747 24.8247 34.7203 24.477 34.7735 24.1321C34.8685 23.5498 34.9502 22.8021 35.6009 22.7841C36.5296 22.9364 37.4234 23.254 38.24 23.7217C39.0724 24.086 39.8814 24.5013 40.6625 24.9653C43.5485 26.7347 46.0361 29.0835 47.968 31.8633C49.9 34.6432 51.2343 37.7935 51.8867 41.1153C52.2381 42.8642 52.4198 44.6429 52.4292 46.4267C52.4292 46.7858 54.5001 46.479 54.4944 45.8729C54.4994 42.2993 53.761 38.7638 52.3262 35.4909C50.8914 32.218 48.7916 29.2793 46.1601 26.8615C44.7713 25.6198 43.2354 24.5532 41.5868 23.6856C40.0463 22.755 38.3433 22.1248 36.568 21.8284C35.8758 21.758 35.1774 21.8761 34.5468 22.1701C33.9162 22.4641 33.3767 22.9231 32.9856 23.4985C32.7353 24.1916 32.5943 24.9195 32.5676 25.6559C32.3054 27.5116 32.0438 29.3666 31.7829 31.221C31.5691 32.741 30.8186 34.9631 32.4859 35.914C33.1803 36.3102 33.9726 36.5116 34.6709 36.9353C35.4741 37.4271 36.2069 38.0257 36.8492 38.7146C38.0618 40.0326 38.9344 41.6266 39.3914 43.3582C39.8675 45.0949 39.9272 46.9194 39.5657 48.6835C39.2042 50.4475 38.4317 52.1015 37.3109 53.5109C36.3394 54.7998 34.9954 55.7591 33.4606 56.2588C31.9259 56.7586 30.2747 56.7746 28.7305 56.3048C27.1875 55.7969 25.785 54.9341 24.6359 53.7857C23.4867 52.6374 22.6229 51.2356 22.1138 49.6928C21.8402 48.8999 21.6532 48.0797 21.5562 47.2466C21.5729 46.5194 21.4947 45.7932 21.3234 45.0863C21.1461 44.6993 20.8692 44.3664 20.521 44.1215C20.1728 43.8766 19.7659 43.7286 19.3417 43.6926C17.4161 43.3345 15.4781 43.0333 13.5468 42.7046C11.8026 42.4073 10.0479 41.8838 8.36262 42.7265C6.75428 43.5311 6.79322 45.0388 6.80557 46.6471C6.8178 48.7922 7.09543 50.9276 7.63209 53.0045C8.42746 56.1639 9.84098 59.1343 11.791 61.7443C13.741 64.3542 16.1888 66.5518 18.9931 68.2102C22.0164 69.8914 25.3779 70.874 28.8307 71.0857C32.2834 71.2975 35.7398 70.733 38.9458 69.4338C42.6385 67.925 45.9146 65.5512 48.4986 62.5123C51.0826 59.4733 52.8988 55.8581 53.7943 51.9709C54.2509 49.9714 54.4854 47.9276 54.4935 45.8767C54.4963 45.529 52.4358 45.8187 52.4282 46.4315Z" fill="#080F21"/>
<path d="M31.5719 8.97296C30.8487 13.7464 30.1071 18.517 29.3471 23.2847C28.9842 25.5742 28.6187 27.8634 28.2508 30.1523C28.1216 30.955 28.1928 31.8575 27.3008 32.1169C26.8984 32.2051 26.4911 32.2686 26.081 32.3069C25.5043 32.4461 24.9171 32.5376 24.3254 32.5805C23.4571 32.5643 23.269 31.5963 22.9526 30.9056C21.9694 28.7624 20.9652 26.6306 19.9801 24.4846C18.8401 22.0032 17.7106 19.517 16.6247 17.0109C16.0851 15.7645 15.555 14.5143 15.0468 13.2546C14.8245 12.7036 14.5718 12.1507 14.3894 11.5855C14.1158 10.7485 14.4901 10.549 15.2444 10.2108C18.0156 8.96943 20.9804 8.21578 24.0081 7.98306C25.3742 7.88331 26.7459 7.88331 28.1121 7.98306C29.0621 8.05051 31.6271 7.89851 31.5321 9.25891C31.4371 10.6193 33.5755 10.626 33.6695 9.25891C33.8861 6.15146 30.3598 6.00326 28.1121 5.84366C24.8788 5.6133 21.6299 5.9316 18.5029 6.78511C17.0842 7.17996 15.6968 7.67977 14.3523 8.28041C13.1477 8.81241 12.1179 9.60091 12.1075 11.0554C12.0989 12.3692 12.9729 13.8104 13.4641 14.9903C14.0974 16.5166 14.7478 18.0366 15.4154 19.5503C16.7663 22.6207 18.1703 25.6654 19.5858 28.7073C20.1349 29.8891 20.6878 31.069 21.2293 32.2546C21.7167 33.3215 22.1793 34.3114 23.4229 34.6401C24.6664 34.9688 26.289 34.4501 27.5212 34.2354C30.0482 33.8012 30.1489 31.7226 30.4918 29.5946C31.5685 22.9161 32.6157 16.2344 33.6335 9.54961C33.8368 8.19586 31.7771 7.61541 31.5719 8.97296Z" fill="#080F21"/>
<path d="M21.2799 37.1307C20.1922 38.2788 19.2787 39.5802 18.5686 40.9934C18.4377 41.2514 18.2274 41.4605 17.9686 41.5899C17.7098 41.7192 17.4162 41.7619 17.1313 41.7116L16.1604 41.5397L8.42173 40.1736C8.24147 40.1416 8.06962 40.0732 7.91663 39.9726C7.76365 39.8721 7.6327 39.7414 7.53183 39.5886C7.43095 39.4359 7.36226 39.2641 7.32987 39.084C7.29749 38.9038 7.3021 38.7189 7.34347 38.5405C7.85889 36.134 8.86799 33.8606 10.307 31.864C11.7459 29.8674 13.5835 28.1911 15.7035 26.941C15.8641 26.85 16.0417 26.7928 16.2253 26.773C16.4089 26.7531 16.5946 26.771 16.7711 26.8256C16.9475 26.8801 17.1109 26.9701 17.2513 27.0901C17.3917 27.2101 17.506 27.3576 17.5873 27.5234L21.2695 35.1177L21.5146 35.6278C21.6309 35.8729 21.6707 36.1474 21.6289 36.4154C21.587 36.6835 21.4654 36.9327 21.2799 37.1307Z" fill="#080F21"/>
<path d="M79.3306 71.8515C78.8461 72.9725 77.6016 73.419 75.8821 73.419C73.0667 73.2328 70.2864 72.6902 67.6076 71.804H67.5696L66.6861 68.517L59.5232 62.342C59.3576 62.4439 59.1665 62.4966 58.9721 62.494C58.6402 62.4615 58.3208 62.3506 58.04 62.1706C57.7593 61.9906 57.5252 61.7466 57.3571 61.4585C57.162 61.1948 57.0304 60.8895 56.9728 60.5665C56.9151 60.2435 56.9329 59.9115 57.0247 59.5965C56.8504 59.3944 56.6886 59.1818 56.5402 58.96C55.9227 58.029 56.4072 57.079 56.4737 56.3285C56.3407 55.7965 55.5617 55.217 55.6472 54.799C55.3814 54.7756 55.124 54.6947 54.8927 54.5618C54.6613 54.4289 54.4617 54.2473 54.3077 54.0295C54.2349 53.9277 54.186 53.8107 54.1646 53.6874C54.1432 53.564 54.1499 53.4374 54.1842 53.317L55.7707 48.035L58.4687 45.812L67.7786 49.023C68.956 49.4303 70.0347 50.0806 70.9446 50.9316C71.8546 51.7827 72.5755 52.8154 73.0606 53.963L79.3306 71.8515Z" fill="#080F21"/>
<path d="M59.5407 60.4611C60.5202 61.2762 60.9657 62.3611 60.5316 62.8931C60.0974 63.4251 58.9574 63.1905 57.978 62.3763C57.5735 62.1143 57.2787 61.7135 57.149 61.2494C57.0194 60.7852 57.0638 60.2896 57.274 59.856C57.7034 59.3278 58.5613 59.647 59.5407 60.4611Z" fill="white"/>
<path d="M59.4061 60.1277C60.3855 60.9418 60.8311 62.0277 60.3969 62.5597C59.9628 63.0917 58.8228 62.857 57.8433 62.0419C57.4575 61.7337 57.1816 61.309 57.0568 60.8312C56.932 60.3534 56.965 59.848 57.1508 59.3905C57.6343 58.906 58.4266 59.3135 59.4061 60.1277Z" fill="#080F21"/>
<path d="M59.1571 57.9264C60.3456 58.9163 60.8842 60.2482 60.3674 60.8866C59.8507 61.525 58.4523 61.2495 57.2638 60.2596C56.0754 59.2697 55.8882 57.8276 56.4088 57.1892C56.9294 56.5508 57.9687 56.927 59.1571 57.9264Z" fill="white"/>
<path d="M59.0317 57.5187C60.2201 58.5095 60.7597 59.8414 60.2429 60.4789C59.7261 61.1163 58.3277 60.8427 57.1393 59.8519C55.9508 58.861 55.8739 57.0674 56.3033 56.6276C56.8752 56.0338 57.847 56.5288 59.0317 57.5187Z" fill="#080F21"/>
<path d="M59.9483 58.212C60.4468 57.6071 59.9307 56.3586 58.7957 55.4234C57.6607 54.4882 56.3365 54.2205 55.8381 54.8255C55.3396 55.4305 55.8557 56.679 56.9907 57.6142C58.1257 58.5493 59.4499 58.817 59.9483 58.212Z" fill="white"/>
<path d="M59.9093 57.8712C60.4077 57.2663 59.8917 56.0177 58.7567 55.0826C57.6216 54.1474 56.2975 53.8797 55.799 54.4847C55.3006 55.0896 55.8166 56.3382 56.9516 57.2733C58.0866 58.2085 59.4108 58.4762 59.9093 57.8712Z" fill="#080F21"/>
<path d="M68.1239 24.5501C67.3199 20.4218 65.2176 16.6585 62.1238 13.8094C59.0762 11.1238 55.5213 10.0455 52.1098 10.7609C48.6984 11.4762 45.8921 13.9196 44.1973 17.6056C42.5306 21.4656 42.1416 25.7572 43.0868 29.854C43.8897 33.982 45.9911 37.7454 49.0841 40.5947C51.2342 42.62 54.0544 43.7832 57.0071 43.8627C57.3012 43.8643 57.5952 43.8497 57.8877 43.819L61.3011 54.2215C61.33 54.3759 61.3892 54.523 61.4752 54.6544C61.5612 54.7858 61.6723 54.8989 61.8022 54.9871C61.9321 55.0754 62.0781 55.1372 62.2319 55.1688C62.3857 55.2005 62.5443 55.2014 62.6985 55.1715C62.8528 55.1423 62.9999 55.083 63.1312 54.9968C63.2626 54.9107 63.3756 54.7995 63.4639 54.6696C63.5521 54.5396 63.6139 54.3936 63.6456 54.2397C63.6772 54.0859 63.6782 53.9273 63.6485 53.7731L60.2285 43.3298C61.7505 42.7685 63.1396 41.8979 64.3084 40.773C65.4771 39.6481 66.4001 38.2932 67.0191 36.7937C68.6757 32.9328 69.0626 28.6453 68.1239 24.5501ZM58.6088 41.3205C52.9962 42.5089 47.0758 37.15 45.4247 29.3695C44.592 25.772 44.9247 22.0029 46.3747 18.6069C47.7503 15.6144 49.9628 13.6669 52.6143 13.0969C53.1357 12.9875 53.667 12.9321 54.1998 12.9316C59.3051 12.9316 64.3011 17.9942 65.7983 25.0479C67.4437 32.8256 64.2137 40.1216 58.6088 41.3205Z" fill="#080F21"/>
<path opacity="0.3" d="M58.2552 19.4874C58.7898 19.4874 59.2232 19.054 59.2232 18.5193C59.2232 17.9847 58.7898 17.5513 58.2552 17.5513C57.7205 17.5513 57.2871 17.9847 57.2871 18.5193C57.2871 19.054 57.7205 19.4874 58.2552 19.4874Z" fill="url(#paint4_linear_1387_21327)"/>
<path d="M66.2453 55.4506L58.0468 47.1752C57.7378 46.8877 57.3362 46.7201 56.9144 46.7027C56.4927 46.6853 56.0786 46.8191 55.7469 47.0802C55.4057 47.35 55.1763 47.7367 55.1032 48.1655C55.0301 48.5944 55.1182 49.0352 55.3507 49.4029L58.8059 55.4877C59.3235 56.5768 59.6546 57.745 59.7853 58.9438L60.0608 60.4296C60.875 64.259 63.5046 65.931 66.5968 68.1246" fill="#EBECEC"/>
<path d="M66.5924 54.9997L57.9474 46.8781C57.6385 46.5904 57.2368 46.4227 56.815 46.4053C56.3932 46.3879 55.9791 46.5219 55.6475 46.7831C55.3061 47.0527 55.0767 47.4392 55.0036 47.8679C54.9304 48.2967 55.0187 48.7374 55.2513 49.1049L59.0589 55.1137C59.6325 56.0209 60.0281 57.0291 60.2246 58.0843L60.5001 59.5701C61.2984 63.2053 63.4861 66.3845 66.5962 68.4289" fill="#080F21"/>
<path d="M54.9733 51.896C55.1431 52.0041 55.2953 52.1377 55.4245 52.2922C55.5278 52.4293 55.5856 52.5954 55.5898 52.7672C55.581 52.8371 55.5584 52.9046 55.5233 52.9657L55.0939 53.8207C55.0796 53.8746 55.0761 53.9307 55.0835 53.986C55.0835 53.9974 55.0939 54.0962 55.1053 54.081C55.2374 53.8169 55.3694 53.5423 55.5015 53.2782C55.6009 53.0791 55.6461 52.8574 55.6326 52.6352C55.6191 52.4131 55.5473 52.1984 55.4245 52.0128C55.2929 51.8608 55.1411 51.7275 54.9733 51.6167C54.9733 51.6167 54.9619 51.7373 54.9619 51.7487C54.9514 51.781 54.94 51.8694 54.9733 51.8913V51.896Z" fill="#EBECEC"/>
<path d="M57.725 47.2188C57.9007 47.4174 58.0774 47.6264 58.2532 47.824C58.3538 47.9253 58.4291 48.0489 58.473 48.1847C58.5169 48.3205 58.5282 48.4648 58.5059 48.6058C58.4685 48.7864 58.384 48.9539 58.2609 49.0913C58.1378 49.2286 57.9806 49.3309 57.8052 49.3879C57.6298 49.4448 57.4424 49.4543 57.2621 49.4154C57.0819 49.3765 56.9151 49.2906 56.7788 49.1663C56.5803 48.9906 56.3826 48.793 56.1841 48.6163C55.9855 48.4396 55.7775 48.242 55.579 48.0548C55.5904 48.0662 55.5457 48.165 55.579 48.1869C55.9865 48.5612 56.3827 48.9573 56.8007 49.3212C56.9064 49.4126 57.0292 49.482 57.162 49.5254C57.2949 49.5688 57.435 49.5853 57.5743 49.574C57.7135 49.5627 57.8492 49.5237 57.9732 49.4595C58.0973 49.3952 58.2073 49.3068 58.2969 49.1996C58.4481 49.0076 58.5366 48.7737 58.5504 48.5296C58.5642 48.2856 58.5025 48.0432 58.3739 47.8354C58.2737 47.6956 58.1635 47.5632 58.0442 47.4392C57.934 47.3176 57.8352 47.197 57.725 47.0649C57.7354 47.0982 57.6917 47.1856 57.725 47.2188Z" fill="#EBECEC"/>
<path d="M62.9067 51.5433C63.7427 52.3251 70.0374 57.4095 70.0374 57.4095L62.4004 49.9995L62.9067 51.5433Z" fill="#EBECEC"/>
<path d="M55.6493 54.7913L55.7918 54.7248C56.2226 54.5128 56.5848 54.1836 56.8368 53.7748L57.2985 53.0044L57.4743 53.3236L57.1665 53.7748C56.8078 54.2942 56.2639 54.6566 55.6465 54.7875L55.6493 54.7913Z" fill="#EBECEC"/>
<path opacity="0.2" d="M62.8337 29.4529C63.6846 29.1803 63.716 26.9041 62.9037 24.3688C62.0914 21.8336 60.7431 19.9994 59.8922 20.272C59.0413 20.5446 59.01 22.8208 59.8223 25.3561C60.6346 27.8913 61.9828 29.7255 62.8337 29.4529Z" fill="url(#paint5_linear_1387_21327)"/>
<path d="M82.9183 78.9376C82.9278 78.4797 82.81 79.1352 82.7283 79.3034C82.5831 79.5837 82.3956 79.84 82.1725 80.0634C81.6938 80.5292 81.1352 80.905 80.5233 81.173C79.0214 81.8229 77.4139 82.1947 75.7791 82.2702C72.9006 82.4764 68.8317 82.2892 66.6401 80.1023C66.4249 79.8922 66.2409 79.6522 66.0938 79.3898C65.8602 78.9642 65.845 78.1748 65.8288 79.4041C65.8117 80.6609 65.8288 80.033 65.8725 79.7024L66.0102 78.7172L66.6895 73.8599C66.7009 73.7744 66.7569 73.4865 66.7436 73.5169C67.0999 72.6781 68.1382 73.1369 68.8393 73.3269C70.3778 73.7669 71.9399 74.1199 73.5181 74.3843C75.3003 74.6617 77.965 75.0331 79.1867 73.3393C79.3767 73.0723 79.3396 73.0201 79.6674 72.9859C79.8848 72.9625 80.1042 73.0038 80.2982 73.1046C80.5564 73.2878 80.7367 73.5609 80.8036 73.8703C81.081 74.6094 81.3118 75.3704 81.5636 76.119L83.0123 80.394C83.057 80.527 83.17 79.6397 83.1729 79.5646C83.2242 79.0757 83.1921 78.5817 83.0779 78.1035L81.6291 73.8285C81.3793 73.0904 81.1399 72.3484 80.8796 71.6141C80.7941 71.2891 80.5918 71.0071 80.3113 70.822C80.0309 70.6369 79.692 70.5617 79.3596 70.6109L79.3245 70.6536C78.5645 72.3465 76.3187 72.3095 74.754 72.1689C73.4598 72.0347 72.1769 71.808 70.9151 71.4906C70.2197 71.3262 69.5271 71.1457 68.8374 70.9567C68.2465 70.7952 67.5074 70.3867 66.9707 70.8522C66.2962 71.4345 66.3465 73.2975 66.2354 74.0907C66.0454 75.4521 65.8392 76.8134 65.6654 78.1757C65.4177 79.3873 65.5604 80.6461 66.0729 81.7715C66.7076 82.6906 67.6223 83.3801 68.6807 83.737C71.5117 84.7638 74.5678 85.0057 77.5251 84.4372C79.0025 84.2467 80.4155 83.716 81.6529 82.8868C82.1616 82.5017 82.5668 81.9963 82.8321 81.4159C83.0974 80.8356 83.2145 80.1985 83.1729 79.5618C83.1729 79.405 83.2337 78.1254 83.0779 78.1007C82.9116 78.0807 82.9211 78.7913 82.9183 78.9376Z" fill="#080F21"/>
<path d="M31.9131 75.1812C31.8317 74.867 31.6376 74.5937 31.3679 74.4131C31.0982 74.2326 30.7716 74.1573 30.4501 74.2017C29.4244 74.3352 28.3839 74.3031 27.3683 74.1067C27.0485 74.0463 26.7177 74.1047 26.4379 74.2708C26.158 74.437 25.9484 74.6995 25.8483 75.0092C25.7941 75.1871 25.7781 75.3745 25.8014 75.559C25.8246 75.7435 25.8865 75.921 25.9831 76.08C26.0797 76.2389 26.2087 76.3756 26.3618 76.4812C26.5149 76.5868 26.6886 76.6588 26.8715 76.6926C28.1594 76.9358 29.4773 76.9769 30.7779 76.8142C30.9655 76.7943 31.1466 76.7343 31.309 76.6382C31.4714 76.5421 31.6111 76.4122 31.7188 76.2572C31.8265 76.1023 31.8996 75.926 31.9332 75.7404C31.9667 75.5547 31.9598 75.364 31.9131 75.1812Z" fill="#080F21"/>
<path d="M35.1459 76.0066C35.8327 76.0066 36.3894 75.4499 36.3894 74.7631C36.3894 74.0763 35.8327 73.5195 35.1459 73.5195C34.4591 73.5195 33.9023 74.0763 33.9023 74.7631C33.9023 75.4499 34.4591 76.0066 35.1459 76.0066Z" fill="#080F21"/>
<defs>
<linearGradient id="paint0_linear_1387_21327" x1="8.94141" y1="62.2188" x2="30.114" y2="62.2188" gradientUnits="userSpaceOnUse">
<stop offset="0.005" stop-color="#3063BA"/>
<stop offset="1" stop-color="#A3BFF6"/>
</linearGradient>
<linearGradient id="paint1_linear_1387_21327" x1="30.5664" y1="55.2645" x2="51.7988" y2="55.2645" gradientUnits="userSpaceOnUse">
<stop offset="0.005" stop-color="#3063BA"/>
<stop offset="1" stop-color="#A3BFF6"/>
</linearGradient>
<linearGradient id="paint2_linear_1387_21327" x1="24.0225" y1="20.2485" x2="28.9198" y2="20.2485" gradientUnits="userSpaceOnUse">
<stop offset="0.005" stop-color="#3063BA"/>
<stop offset="1" stop-color="#A3BFF6"/>
</linearGradient>
<linearGradient id="paint3_linear_1387_21327" x1="16.8027" y1="16.911" x2="19.5976" y2="16.911" gradientUnits="userSpaceOnUse">
<stop offset="0.005" stop-color="#3063BA"/>
<stop offset="1" stop-color="#A3BFF6"/>
</linearGradient>
<linearGradient id="paint4_linear_1387_21327" x1="57.2871" y1="18.5193" x2="59.2232" y2="18.5193" gradientUnits="userSpaceOnUse">
<stop offset="0.005" stop-color="#3063BA"/>
<stop offset="1" stop-color="#A3BFF6"/>
</linearGradient>
<linearGradient id="paint5_linear_1387_21327" x1="59.2326" y1="24.8651" x2="63.4914" y2="24.865" gradientUnits="userSpaceOnUse">
<stop offset="0.005" stop-color="#3063BA"/>
<stop offset="1" stop-color="#A3BFF6"/>
</linearGradient>
</defs>
</svg>
