<svg width="90" height="91" viewBox="0 0 90 91" fill="none" xmlns="http://www.w3.org/2000/svg">
<path fill-rule="evenodd" clip-rule="evenodd" d="M18.1772 28.6499C18.2114 28.5145 18.2177 28.3737 18.196 28.2357C18.1743 28.0978 18.125 27.9656 18.0509 27.8472L16.7095 25.6299C16.5607 25.3959 16.3262 25.2295 16.0562 25.1662C15.7862 25.1029 15.5021 25.1478 15.2648 25.2914C15.0276 25.4349 14.8559 25.6656 14.7866 25.9342C14.7173 26.2027 14.7559 26.4876 14.8941 26.7281L16.2345 28.9454C16.3062 29.0652 16.4008 29.1695 16.513 29.2525C16.6253 29.3355 16.7528 29.3954 16.8883 29.4288C17.0238 29.4622 17.1646 29.4684 17.3025 29.447C17.4404 29.4257 17.5727 29.3773 17.6918 29.3045C17.8128 29.2339 17.9181 29.1394 18.0016 29.0269C18.085 28.9144 18.1448 28.7862 18.1772 28.6499Z" fill="#080F21"/>
<path fill-rule="evenodd" clip-rule="evenodd" d="M10.4371 31.8273C10.3708 32.1018 10.4159 32.3913 10.5623 32.6327C10.7088 32.874 10.9449 33.0476 11.2189 33.1155L13.7317 33.7378C14.006 33.8049 14.2959 33.7603 14.5374 33.6138C14.7789 33.4673 14.9522 33.2308 15.0194 32.9564C15.0865 32.682 15.0419 32.3922 14.8954 32.1507C14.7489 31.9092 14.5124 31.7358 14.238 31.6687L11.7253 31.0455C11.4509 30.9805 11.162 31.0261 10.9209 31.1724C10.6799 31.3187 10.5061 31.554 10.4371 31.8273Z" fill="#080F21"/>
<path fill-rule="evenodd" clip-rule="evenodd" d="M22.019 24.8278L21.3967 27.3405C21.3635 27.4764 21.3573 27.6174 21.3786 27.7557C21.3999 27.8939 21.4482 28.0266 21.5207 28.1462C21.5933 28.2658 21.6887 28.3699 21.8015 28.4526C21.9143 28.5354 22.0422 28.595 22.1781 28.6283C22.314 28.6615 22.455 28.6676 22.5933 28.6464C22.7315 28.6251 22.8642 28.5768 22.9838 28.5042C23.1034 28.4317 23.2075 28.3363 23.2902 28.2235C23.3729 28.1107 23.4326 27.9827 23.4658 27.8469L24.089 25.3341C24.148 25.0626 24.0986 24.7787 23.9513 24.5431C23.8041 24.3074 23.5706 24.1385 23.3007 24.0725C23.0307 24.0065 22.7457 24.0485 22.5063 24.1896C22.2669 24.3307 22.092 24.5596 22.019 24.8278Z" fill="#080F21"/>
<path d="M78.221 24.1593V66.3393C78.2215 67.2976 78.0331 68.2466 77.6667 69.132C77.3002 70.0174 76.7628 70.8219 76.0852 71.4995C75.4076 72.1771 74.6031 72.7144 73.7177 73.0809C72.8323 73.4474 71.8833 73.6358 70.925 73.6353H38.5587C36.6238 73.6348 34.7683 72.866 33.4002 71.4978C32.032 70.1297 31.2632 68.2742 31.2627 66.3393V60.6773H38.6157C39.6739 60.6783 40.7219 60.4706 41.6997 60.0661C42.6776 59.6616 43.5661 59.0682 44.3143 58.32C45.0626 57.5717 45.6559 56.6832 46.0604 55.7054C46.4649 54.7275 46.6726 53.6795 46.6716 52.6213V37.9058C46.6719 36.8478 46.4637 35.8001 46.0589 34.8226C45.6541 33.8451 45.0608 32.9569 44.3127 32.2088C43.5645 31.4606 42.6763 30.8672 41.6988 30.4625C40.7213 30.0577 39.6737 29.8495 38.6157 29.8498H31.2665V24.1593C31.266 23.201 31.4544 22.252 31.8208 21.3666C32.1873 20.4812 32.7247 19.6767 33.4023 18.9991C34.0799 18.3215 34.8844 17.7841 35.7698 17.4177C36.6552 17.0512 37.6042 16.8628 38.5625 16.8633H70.9288C71.929 16.8675 72.9179 17.0744 73.8358 17.4713C75.1399 18.0363 76.25 18.9706 77.0292 20.1591C77.8085 21.3475 78.2228 22.7381 78.221 24.1593Z" fill="#080F21"/>
<path d="M79.5376 66.9414C79.3496 68.2853 78.8312 69.5616 78.0288 70.6559C77.2263 71.7502 76.1649 72.6283 74.9396 73.2115C72.4411 74.4655 69.8286 74.3229 67.1402 74.3229H44.0077C42.0127 74.3229 40.0083 74.3514 38.0038 74.3229C33.5293 74.2564 29.9003 71.0359 29.8813 66.4569C29.8718 64.5379 29.8623 62.6 29.8623 60.681H32.6268V63.7115C32.6268 66.039 32.5508 68.3095 34.0613 70.295C34.6699 71.1024 35.4538 71.7613 36.3539 72.222C37.254 72.6828 38.2468 72.9334 39.2578 72.9549C39.9988 72.9644 40.7398 72.9549 41.4903 72.9549H70.9497C72.1544 73.0274 73.3459 72.6706 74.3126 71.9479C75.1053 71.3028 75.7437 70.4885 76.181 69.5647C76.6182 68.6409 76.8432 67.631 76.8396 66.6089C76.8681 64.8609 76.8396 63.1034 76.8396 61.3554V24.5334C76.8431 23.0692 76.3915 21.64 75.5474 20.4436C74.7033 19.2472 73.5083 18.3426 72.1276 17.8549C70.1801 17.2279 67.7862 17.5509 65.7817 17.5509H54.7617C49.1757 17.5509 43.5803 17.4274 37.9943 17.5509C34.2608 17.6269 32.6268 21.3604 32.6268 24.5999V29.8534H29.8813V26.9084C29.8813 24.4859 29.8053 22.2059 31.2493 20.0779C33.3583 16.9999 36.9493 16.1829 40.4358 16.1829H70.8451C72.3485 16.1128 73.8477 16.3925 75.2246 16.9999C76.5092 17.6172 77.5971 18.5792 78.367 19.7785C79.1369 20.9779 79.5586 22.3675 79.5851 23.7924V65.0509C79.6025 65.6815 79.5867 66.3125 79.5376 66.9414Z" fill="#080F21"/>
<path d="M78.2145 46.1953H54.7354V60.3845H78.2145V46.1953Z" fill="white"/>
<path d="M54.7399 32.0073H31.2607V46.1966H54.7399V32.0073Z" fill="white"/>
<path d="M78.2145 32.0073H54.7354V46.1966H78.2145V32.0073Z" fill="white"/>
<path d="M37.943 17.8721H54.7409V32.0612H31.2607V24.5563C31.2605 23.6786 31.4331 22.8094 31.7688 21.9985C32.1046 21.1875 32.5967 20.4506 33.2172 19.8299C33.8378 19.2092 34.5745 18.7168 35.3854 18.3809C36.1962 18.0449 37.0653 17.8721 37.943 17.8721Z" fill="white"/>
<path opacity="0.2" d="M34.4591 60.6713H23.9046C22.8466 60.6715 21.7989 60.4633 20.8214 60.0586C19.8439 59.6538 18.9557 59.0604 18.2076 58.3123C17.4595 57.5642 16.8661 56.6759 16.4613 55.6984C16.0566 54.7209 15.8484 53.6732 15.8486 52.6152V42.3647C20.6461 42.6318 25.1819 44.6377 28.6073 48.0072C32.0327 51.3767 34.1131 55.8788 34.4591 60.6713Z" fill="url(#paint0_linear_1387_19492)"/>
<path d="M54.7354 17.8721H72.3264C73.8886 17.8721 75.3867 18.4926 76.4913 19.5972C77.5959 20.7018 78.2164 22.2 78.2164 23.7621V32.0632H54.7354V17.8721Z" fill="white"/>
<path d="M45.6196 37.9665V51.2418C45.7037 52.5109 45.5851 53.7853 45.2681 55.0171C44.8758 56.2573 44.1445 57.3631 43.1567 58.2094C42.1689 59.0556 40.964 59.6087 39.6783 59.806C38.6579 59.8934 37.6328 59.9134 36.6098 59.8659H25.8872C24.9021 59.9141 23.9146 59.8824 22.9346 59.7709C21.589 59.5268 20.3382 58.9119 19.3233 57.9953C18.3083 57.0787 17.5695 55.8968 17.19 54.583C16.9185 53.3962 16.8181 52.1767 16.8917 50.9615V45.7879C16.8917 43.1393 16.8413 40.4859 16.8917 37.8373C16.8797 36.471 17.2541 35.1291 17.9719 33.9664C18.6896 32.8038 19.7213 31.8677 20.9482 31.2661C22.2285 30.7634 23.6052 30.554 24.9771 30.6534H36.4549C37.8378 30.5475 39.2288 30.6613 40.576 30.9906C42.0337 31.4909 43.3009 32.43 44.2038 33.6789C45.1068 34.9278 45.6013 36.4254 45.6196 37.9665C45.6424 39.1008 47.739 38.8357 47.719 37.8373C47.6126 32.6028 43.427 29.0545 38.3435 29.0384C34.7915 29.027 31.2385 29.0384 27.6855 29.0384C26.4705 29.0384 25.2536 29.0213 24.0376 29.0384C21.5159 29.0546 19.1035 30.0695 17.3287 31.8608C14.5243 34.726 14.7922 38.3303 14.7922 41.9945C14.7922 45.4772 14.7742 48.9608 14.7922 52.4445C14.7819 53.6343 15.0088 54.8144 15.4595 55.9156C15.9102 57.0168 16.5758 58.0172 17.4173 58.8584C18.2589 59.6996 19.2596 60.3648 20.361 60.8151C21.4624 61.2653 22.6425 61.4917 23.8324 61.4809C27.0205 61.5227 30.2125 61.4809 33.4007 61.4809C36.8311 61.4809 40.5257 61.9274 43.559 59.9837C44.7195 59.2459 45.6956 58.252 46.4123 57.0783C47.1289 55.9047 47.5672 54.5824 47.6934 53.213C47.7808 52.13 47.719 51.0195 47.719 49.9346V37.8373C47.719 36.7039 45.6196 36.9642 45.6196 37.9665Z" fill="#080F21"/>
<path fill-rule="evenodd" clip-rule="evenodd" d="M36.8436 49.965L33.3495 45.2454L36.8331 40.5268C37.1537 40.0942 37.2893 39.5519 37.2102 39.0193C37.131 38.4867 36.8434 38.0074 36.4108 37.6867C35.9782 37.3661 35.436 37.2305 34.9034 37.3097C34.3707 37.3889 33.8914 37.6764 33.5708 38.109L30.8158 41.8359L28.0608 38.1195C27.7402 37.6869 27.2609 37.3994 26.7283 37.3202C26.1957 37.241 25.6534 37.3766 25.2208 37.6972C24.7882 38.0178 24.5007 38.4972 24.4215 39.0298C24.3423 39.5624 24.4779 40.1046 24.7985 40.5372L28.2926 45.2568L24.809 49.9755C24.5684 50.2975 24.4291 50.6839 24.4091 51.0854C24.389 51.4869 24.489 51.8852 24.6964 52.2296C24.9038 52.5739 25.209 52.8487 25.5732 53.0188C25.9375 53.1889 26.3441 53.2466 26.7413 53.1846C27.0053 53.1466 27.2591 53.0561 27.4875 52.9184C27.716 52.7807 27.9145 52.5985 28.0713 52.3828L30.8168 48.6664L33.5718 52.3828C33.8951 52.8116 34.3716 53.0989 34.9018 53.1846C35.2991 53.2425 35.7047 53.1819 36.0677 53.0104C36.4307 52.8388 36.735 52.5638 36.9424 52.2201C37.1499 51.8763 37.2513 51.4789 37.2338 51.0778C37.2164 50.6766 37.08 50.2895 36.8436 49.965Z" fill="#080F21"/>
<path d="M26.4245 37.7766C26.1365 37.7754 25.8539 37.8546 25.6083 38.0051C25.3628 38.1556 25.164 38.3716 25.0343 38.6287C24.9046 38.8859 24.8491 39.1741 24.874 39.461C24.8989 39.748 25.0032 40.0222 25.1753 40.2532L28.8803 45.2559L25.1867 50.2567C24.9413 50.5884 24.8376 51.0039 24.8984 51.412C24.9591 51.8201 25.1793 52.1874 25.5106 52.4332C25.6735 52.5553 25.8593 52.6435 26.0569 52.6924C26.2545 52.7414 26.46 52.7501 26.6611 52.7182C26.8643 52.6887 27.0597 52.619 27.2357 52.5131C27.4117 52.4072 27.5648 52.2674 27.6861 52.1016L30.8116 47.8703L33.9466 52.1016C34.1967 52.4308 34.5636 52.6514 34.9716 52.7182C35.3784 52.7758 35.7914 52.6707 36.1211 52.4256C36.2861 52.3049 36.4258 52.1528 36.5319 51.978C36.6381 51.8033 36.7087 51.6093 36.7398 51.4072C36.7708 51.2051 36.7617 50.9989 36.7129 50.8003C36.6642 50.6018 36.5767 50.4148 36.4555 50.2501L32.7505 45.2474L36.4432 40.2466C36.5648 40.0825 36.6529 39.8961 36.7025 39.698C36.7521 39.4999 36.7622 39.2939 36.7322 39.0919C36.7022 38.8899 36.6327 38.6958 36.5277 38.5207C36.4227 38.3455 36.2842 38.1927 36.1202 38.071C35.9561 37.9494 35.7697 37.8613 35.5716 37.8117C35.3735 37.7621 35.1676 37.752 34.9655 37.782C34.7635 37.812 34.5694 37.8815 34.3942 37.9865C34.2191 38.0915 34.0663 38.23 33.9447 38.3941L30.8097 42.6359L27.6747 38.4045C27.5302 38.2091 27.3417 38.0504 27.1246 37.9413C26.9074 37.8322 26.6675 37.7758 26.4245 37.7766Z" fill="#080F21"/>
<path d="M55.4356 73.5837V17.8186C55.4356 17.0947 54.04 17.2952 54.04 17.9213V73.6863C54.04 74.4111 55.4356 74.2097 55.4356 73.5846V73.5837Z" fill="#080F21"/>
<path d="M78.2131 31.5864H44.4873V32.5364H78.2131V31.5864Z" fill="#080F21"/>
<path d="M78.8678 46.166H46.0635V47.116H78.8678V46.166Z" fill="#080F21"/>
<path opacity="0.2" d="M78.2166 24.1563V52.6372C74.9168 51.2305 72.0439 48.9828 69.8845 46.1185C67.7251 43.2542 66.355 39.8736 65.9108 36.3141C65.4666 32.7546 65.9639 29.1409 67.3531 25.8338C68.7423 22.5266 70.9748 19.6418 73.8276 17.4673C75.1324 18.0319 76.2433 18.9661 77.0233 20.1548C77.8032 21.3435 78.2181 22.7345 78.2166 24.1563Z" fill="url(#paint1_linear_1387_19492)"/>
<defs>
<linearGradient id="paint0_linear_1387_19492" x1="15.8486" y1="51.519" x2="34.4591" y2="51.519" gradientUnits="userSpaceOnUse">
<stop offset="0.005" stop-color="#3063BA"/>
<stop offset="1" stop-color="#A3BFF6"/>
</linearGradient>
<linearGradient id="paint1_linear_1387_19492" x1="65.7526" y1="35.0527" x2="78.2166" y2="35.0527" gradientUnits="userSpaceOnUse">
<stop offset="0.005" stop-color="#3063BA"/>
<stop offset="1" stop-color="#A3BFF6"/>
</linearGradient>
</defs>
</svg>
