<svg width="90" height="91" viewBox="0 0 90 91" fill="none" xmlns="http://www.w3.org/2000/svg">
<path d="M40.7493 81.5496H8.17486C7.73288 81.5497 7.29929 81.4289 6.92101 81.2003C6.54273 80.9717 6.23416 80.6439 6.0287 80.2526C5.82325 79.8613 5.72874 79.4212 5.75539 78.98C5.78203 78.5388 5.92882 78.1134 6.17988 77.7496L6.36988 77.4646L14.1475 66.1425L18.2325 60.2012L21.6715 55.1956L22.4571 54.0556C22.6801 53.7327 22.9781 53.4687 23.3256 53.2864C23.6731 53.104 24.0597 53.0088 24.4521 53.0088C24.8445 53.0088 25.2311 53.104 25.5786 53.2864C25.9261 53.4687 26.2241 53.7327 26.4471 54.0556L31.6084 61.5606L36.0639 68.0292L42.7424 77.7524C42.9926 78.116 43.1387 78.5411 43.165 78.9816C43.1913 79.4222 43.0968 79.8616 42.8917 80.2524C42.6866 80.6432 42.3786 80.9706 42.001 81.1992C41.6235 81.4278 41.1907 81.549 40.7493 81.5496Z" fill="#080F21"/>
<path opacity="0.2" d="M40.3122 32.2407C35.3148 36.3678 28.9559 38.4793 22.4825 38.1612C16.009 37.8432 9.88781 35.1184 5.31907 30.5212C5.01397 28.6198 5.16938 26.6729 5.77226 24.8439C6.37513 23.015 7.40788 21.3573 8.78386 20.0099C10.1598 18.6626 11.8389 17.665 13.6802 17.1007C15.5214 16.5365 17.4711 16.4221 19.3657 16.7671C21.441 17.1296 23.3824 18.0378 24.9907 19.3986L40.3122 32.2407Z" fill="url(#paint0_linear_1387_16794)"/>
<path d="M45.9515 53.2014C44.0687 55.3923 41.3931 56.7461 38.5126 56.9652C35.6322 57.1843 32.7826 56.2508 30.5901 54.3699C29.0321 53.0903 27.5016 51.7745 25.9579 50.4749C20.8324 46.1683 15.7071 41.8616 10.5822 37.5549C8.47843 35.8238 7.03731 33.4191 6.50273 30.7475C5.96815 28.076 6.37294 25.3019 7.64861 22.8945C8.43429 21.4886 9.5227 20.2749 10.8351 19.3412C12.1474 18.4076 13.6509 17.7773 15.2368 17.4961C16.8226 17.2149 18.4511 17.2897 20.0045 17.7152C21.5579 18.1407 22.9972 18.9061 24.2184 19.9562C28.9846 23.8721 33.6662 27.8944 38.3886 31.8625C40.1474 33.3401 41.9049 34.818 43.6611 36.2962C45.3249 37.5753 46.6657 39.2265 47.576 41.1174C48.704 43.6912 48.8808 46.5821 48.0748 49.2742C47.6309 50.7096 46.9095 52.0439 45.9515 53.2014C45.1421 54.1904 47.1143 54.369 47.652 53.7116C49.564 51.4288 50.6144 48.5475 50.6203 45.5698C50.6262 42.592 49.5872 39.7066 47.6843 37.4162C45.7843 35.1942 43.1927 33.4262 40.9612 31.55C35.9481 27.3358 30.953 23.095 25.9171 18.9093C23.5778 17.021 20.6772 15.9639 17.6716 15.9041C14.6659 15.8442 11.7256 16.7851 9.313 18.5787C7.95578 19.5977 6.8152 20.8769 5.95786 22.3416C5.10053 23.8064 4.54364 25.4272 4.31971 27.1096C4.09577 28.7919 4.20928 30.502 4.65362 32.14C5.09795 33.778 5.8642 35.311 6.90761 36.6496C8.57391 38.7139 10.9841 40.3669 12.9999 42.0646L22.8087 50.3077C24.8474 52.0177 26.8718 53.7544 28.9266 55.4492C31.6619 57.6505 35.1468 58.7002 38.6429 58.3758C42.1389 58.0515 45.3713 56.3785 47.6549 53.7116C48.4852 52.7464 46.5044 52.5602 45.9515 53.2014Z" fill="#080F21"/>
<path d="M66.0909 19.3145L60.3871 26.1468L56.0713 39.4098L65.7556 43.1291L71.2636 35.0351L70.1968 21.6125L66.0909 19.3145Z" fill="#080F21"/>
<path d="M58.6747 35.7726L65.9147 39.7844L73.1309 31.3513L58.0439 30.2056L58.6747 35.7726Z" fill="#080F21"/>
<path d="M54.4742 42.9193C53.9888 43.0166 53.4846 42.9398 53.0503 42.7023C52.6159 42.4648 52.2792 42.0818 52.0992 41.6207L51.6242 40.3809C51.1944 39.272 51.2111 38.0397 51.6707 36.9429C51.6962 38.0441 52.0065 39.1198 52.5713 40.0655L53.8576 42.241C54.0021 42.5159 54.2143 42.7493 54.4742 42.9193Z" fill="#080F21"/>
<path d="M56.2147 43.1094C55.7939 43.1883 55.359 43.1351 54.9696 42.9572C54.5801 42.7793 54.2552 42.4854 54.0392 42.1157L52.752 39.9402C52.2779 39.1384 51.9823 38.2437 51.8856 37.3172C51.7889 36.3907 51.8932 35.4543 52.1915 34.5718C52.2166 34.7065 52.2515 34.8392 52.296 34.9689C53.1995 37.8432 54.5112 40.5729 56.191 43.0743C56.191 43.0819 56.2024 43.0942 56.2147 43.1094Z" fill="#080F21"/>
<path d="M57.5574 53.844C57.5021 53.8324 57.4497 53.8096 57.4035 53.777C57.3573 53.7444 57.3182 53.7028 57.2887 53.6546C57.2591 53.6063 57.2398 53.5526 57.2317 53.4966C57.2237 53.4407 57.2272 53.3837 57.242 53.3291L57.9317 50.7327C57.9444 50.6811 57.9673 50.6325 57.999 50.5898C58.0306 50.5471 58.0705 50.5111 58.1161 50.4839C58.1618 50.4567 58.2125 50.4388 58.2651 50.4313C58.3178 50.4238 58.3714 50.4268 58.4228 50.4402C58.4776 50.4524 58.5292 50.4756 58.5746 50.5086C58.62 50.5415 58.6582 50.5833 58.6867 50.6316C58.7153 50.6798 58.7337 50.7334 58.7408 50.7891C58.7478 50.8447 58.7434 50.9012 58.7278 50.9551L58.0371 53.5514C58.0112 53.6522 57.9473 53.739 57.8587 53.7936C57.7701 53.8481 57.6638 53.8662 57.5621 53.844H57.5574Z" fill="#080F21"/>
<path d="M56.1605 50.0997C55.9034 49.2996 55.8794 48.4429 56.0911 47.6297L62.1606 24.9247C62.3733 24.1392 62.8819 23.4665 63.5797 23.0478C64.2776 22.6291 65.1104 22.4969 65.9036 22.6789C66.3153 22.7742 66.7036 22.9515 67.0453 23.2002C67.3869 23.4489 67.675 23.7639 67.8922 24.1263C68.1095 24.4888 68.2514 24.8913 68.3097 25.3099C68.3679 25.7285 68.3412 26.1545 68.2311 26.5625L62.2309 48.9825C62.0047 49.829 61.5278 50.5873 60.8629 51.158L59.0969 52.6542C58.9158 52.8086 58.6994 52.916 58.4669 52.9668C58.2344 53.0176 57.993 53.0103 57.764 52.9456C57.535 52.8809 57.3255 52.7607 57.154 52.5957C56.9825 52.4307 56.8543 52.226 56.7808 51.9997L56.1605 50.0997Z" fill="white"/>
<path d="M56.8528 49.9148C56.4025 48.258 56.9944 46.7342 57.4228 45.1458L59.2116 38.4569L62.682 25.478C62.7793 24.9703 62.956 24.4811 63.2054 24.0283C63.4043 23.7276 63.672 23.4786 63.9864 23.3022C64.3008 23.1257 64.6527 23.0268 65.013 23.0137C65.3733 23.0006 65.7315 23.0737 66.0579 23.2269C66.3842 23.38 66.6694 23.6088 66.8895 23.8943C67.2167 24.2679 67.4481 24.7155 67.5639 25.1984C67.6798 25.6813 67.6766 26.185 67.5545 26.6664C67.3218 27.7713 66.9665 28.8647 66.6748 29.9544L62.7447 44.6395C62.3523 46.1053 62.0037 47.5921 61.5657 49.0456C61.0657 50.409 60.1152 51.5609 58.8715 52.3107C58.4915 52.5387 58.5865 52.8427 57.9215 52.4466C57.6507 52.2205 57.4642 51.9095 57.3924 51.564C57.191 51.0244 57.0342 50.463 56.8566 49.9148C56.7141 49.4788 55.3442 49.8673 55.4801 50.2834C55.8249 51.3436 56.0054 52.8674 57.2176 53.2664C58.5476 53.7053 59.5983 52.7914 60.5321 52.0001C61.6337 51.2252 62.4709 50.1309 62.9309 48.8651C63.0753 48.3901 63.1902 47.8989 63.3185 47.4173L67.5289 31.6843C67.9801 29.9971 68.4618 28.3137 68.8845 26.6189C69.7234 23.255 66.1058 21.2666 63.3061 22.8018C61.5961 23.7385 61.3539 25.5055 60.9007 27.2003L58.844 34.8953L56.3493 44.2243C55.8335 46.1528 54.9376 48.2856 55.4801 50.2844C55.5931 50.7157 56.9706 50.3499 56.8528 49.9148Z" fill="#080F21"/>
<path d="M62.0194 37.7809C61.9749 37.7702 61.9329 37.7508 61.8959 37.7239C61.8589 37.6969 61.8276 37.6629 61.8037 37.6238C61.7799 37.5847 61.764 37.5413 61.757 37.496C61.75 37.4508 61.752 37.4045 61.7629 37.3601L62.3329 35.2311C62.3584 35.1466 62.4145 35.0746 62.4902 35.0293C62.5659 34.984 62.6559 34.9685 62.7424 34.986C62.7869 34.9967 62.8289 35.0161 62.866 35.043C62.903 35.07 62.9344 35.104 62.9583 35.1431C62.9822 35.1822 62.9982 35.2256 63.0053 35.2708C63.0125 35.3161 63.0106 35.3623 62.9998 35.4069L62.4298 37.5358C62.4057 37.6212 62.3499 37.6941 62.2738 37.7397C62.1977 37.7853 62.1061 37.8 62.0194 37.7809Z" fill="#080F21"/>
<path d="M61.2467 40.6231C61.2021 40.6124 61.1601 40.593 61.1231 40.5661C61.086 40.5391 61.0546 40.5052 61.0307 40.4661C61.0068 40.427 60.9908 40.3836 60.9837 40.3383C60.9766 40.293 60.9785 40.2468 60.9892 40.2023L61.5592 38.0733C61.5845 37.9886 61.6405 37.9165 61.7163 37.8709C61.792 37.8254 61.882 37.8098 61.9687 37.8273C62.0587 37.8491 62.1364 37.9058 62.1847 37.9849C62.233 38.064 62.2479 38.159 62.2261 38.2491L61.6561 40.3771C61.6328 40.463 61.5772 40.5366 61.5009 40.5825C61.4246 40.6283 61.3335 40.6429 61.2467 40.6231Z" fill="#080F21"/>
<path d="M60.8133 29.8892L59.3398 32.5207C59.1592 32.8434 59.0445 33.1988 59.0023 33.5662C58.96 33.9336 58.9911 34.3057 59.0938 34.661C59.6864 36.9352 60.1125 39.2495 60.3687 41.5856C60.4346 42.1486 60.2746 42.7147 59.9238 43.1599C59.573 43.6051 59.06 43.893 58.4972 43.9606C58.1119 44.0034 57.7223 43.9399 57.3706 43.7769C57.019 43.614 56.7186 43.3578 56.5022 43.0363C54.8269 40.5324 53.5155 37.8033 52.6072 34.9308C52.3401 34.0892 52.3517 33.1839 52.6405 32.3494C52.9292 31.515 53.4797 30.7961 54.2099 30.2996L60.3972 26.1357L60.8133 29.8892Z" fill="#080F21"/>
<path d="M74.4166 29.971C75.0858 32.7307 75.383 35.5676 75.3001 38.4061C75.2801 39.2375 75.0544 40.051 74.6433 40.774C74.2322 41.4969 73.6484 42.1068 72.9441 42.549C70.6097 44.1201 67.9611 45.1639 65.1826 45.608C64.968 45.6508 64.7469 45.6492 64.5329 45.6035C64.3189 45.5578 64.1165 45.4688 63.9381 45.342C63.9286 45.3325 63.9191 45.3325 63.9001 45.3135C63.2628 44.86 62.8258 44.1774 62.6806 43.4089C62.5354 42.6403 62.6932 41.8453 63.1211 41.1905C63.8922 39.9937 64.9854 39.0387 66.2751 38.4355L67.5101 37.8655L67.1111 30.7871L68.2226 26.5795L68.8591 21.478C71.8283 22.7613 74.9229 23.732 78.0931 24.3746L74.7111 28.622C74.5624 28.8095 74.4585 29.0286 74.4075 29.2624C74.3564 29.4962 74.3595 29.7386 74.4166 29.971Z" fill="#080F21"/>
<path d="M63.5464 43.9825C64.049 43.8077 64.5525 43.6319 65.0436 43.4561C65.3239 43.3516 65.6136 43.2576 65.8986 43.1522C66.1448 43.0439 66.4154 43.0036 66.6824 43.0353C66.952 43.072 67.2024 43.1954 67.3958 43.3868C67.5234 43.495 67.6191 43.6359 67.6726 43.7944C67.7262 43.9529 67.7356 44.123 67.6998 44.2865C67.6851 44.3438 67.6812 44.4034 67.6884 44.4622C67.6884 44.486 67.6998 44.579 67.7122 44.5676C67.7991 44.3166 67.8157 44.0465 67.7599 43.7867C67.7041 43.527 67.5782 43.2874 67.3958 43.0942C67.2214 42.9296 67.0056 42.8154 66.7713 42.7638C66.5371 42.7123 66.2932 42.7254 66.0658 42.8016C65.4578 43.0125 64.8489 43.2224 64.2532 43.4447C64.0186 43.5264 63.7782 43.6081 63.5398 43.6908C63.5046 43.7022 63.5626 43.9825 63.5512 43.9825H63.5464Z" fill="white"/>
<path d="M56.0332 41.0705C56.3791 40.8189 56.7989 40.6893 57.2265 40.702C57.6541 40.7147 58.0654 40.8691 58.3958 41.1408C58.7464 41.4334 59.0503 41.7725 59.3781 42.0908C59.5063 42.219 59.647 42.3483 59.7761 42.4765C59.7761 42.4765 59.7875 42.3482 59.7875 42.3359C59.7875 42.3017 59.7989 42.219 59.7761 42.1962C59.4598 41.8922 59.1558 41.5882 58.8404 41.2956C58.735 41.1902 58.6181 41.0847 58.5127 40.9793C58.2027 40.6821 57.8047 40.4934 57.3784 40.4416C56.9002 40.3878 56.4194 40.5176 56.0332 40.8045C56.0094 40.8273 56.0218 40.9213 56.0218 40.9441C56.0218 40.9327 56.0332 41.0733 56.0332 41.0733V41.0705Z" fill="white"/>
<path d="M64.5059 14.7223C64.1711 15.3821 64.0033 16.114 64.0174 16.8538C64.0315 17.5935 64.2269 18.3184 64.5866 18.965C65.5813 20.3843 66.9677 21.4832 68.5766 22.1276C70.8098 23.1328 73.1339 23.9223 75.5173 24.4855C77.7555 25.0631 79.873 25.7927 81.9668 24.4456C82.97 23.7996 84.0492 23.1849 84.9887 22.4506C85.3693 22.1775 85.6372 21.775 85.7421 21.3185C85.8471 20.862 85.7819 20.3829 85.5587 19.9711C85.2666 19.5459 84.8706 19.2025 84.4083 18.9736C83.7255 18.5442 83.0469 18.1069 82.3724 17.6616C79.8867 16.0654 77.5355 14.2687 75.3425 12.2894C73.8405 10.8948 72.6103 8.71643 70.4025 8.47133C66.7611 8.06758 65.6981 12.1269 64.5011 14.7242C64.1211 15.5517 65.3485 16.2765 65.7361 15.4443L66.934 12.8442C67.3767 11.8828 67.7387 10.7048 68.7295 10.1747C70.677 9.12968 71.8892 10.8197 73.0891 12.0747C74.5848 13.5963 76.1988 14.9968 77.916 16.2632C78.8432 16.9643 79.7913 17.6369 80.7517 18.2896C81.8816 18.9296 82.9714 19.6381 84.015 20.4109C84.6572 20.9809 84.2354 21.2574 83.7433 21.5813L82.0922 22.6672C81.7626 22.8847 81.4367 23.1146 81.0995 23.3208C80.5817 23.6019 80.0097 23.7688 79.4221 23.8101C78.8344 23.8514 78.2447 23.7661 77.6928 23.5602C75.5418 23.078 73.4207 22.4712 71.3401 21.7428C68.8008 20.8213 64.2275 18.9422 65.7352 15.4491C66.0962 14.6093 64.8697 13.8825 64.5059 14.7223Z" fill="#080F21"/>
<path d="M66.2251 71.0937L63.9451 70.5674C63.9926 70.3565 64.0401 70.1466 64.0743 69.9357L66.3781 70.3451C66.3306 70.5912 66.284 70.8496 66.2251 71.0937ZM66.494 69.5851L64.1665 69.3001C64.1902 69.0902 64.214 68.8793 64.2254 68.6693L66.5643 68.8327C66.5415 69.0826 66.5177 69.3391 66.494 69.5851ZM66.5994 68.0651L64.2605 68.0309V67.8666C64.2605 67.7146 64.2605 67.5512 64.2491 67.3868L66.588 67.2918C66.5994 67.4818 66.5994 67.6775 66.5994 67.8618V68.0651ZM64.2016 66.756C64.1788 66.5451 64.1551 66.3342 64.1199 66.1243L66.436 65.7728C66.4712 66.0188 66.5063 66.2763 66.531 66.5328L64.2016 66.756ZM64.0116 65.5039C63.9651 65.294 63.9166 65.0831 63.872 64.8845L66.1292 64.2879C66.2 64.5343 66.2584 64.7842 66.304 65.0365L64.0116 65.5039ZM63.6848 64.2642C63.6145 64.0656 63.5442 63.8547 63.4739 63.6676L65.6589 62.8373C65.7539 63.071 65.8347 63.3123 65.9164 63.5631L63.6848 64.2642ZM63.2279 63.071C63.1447 62.8753 63.0495 62.6849 62.9429 62.501L65.0243 61.437C65.1412 61.6593 65.2466 61.893 65.3521 62.1267L63.2279 63.071ZM62.6579 61.9367C62.5524 61.7467 62.4356 61.5747 62.3187 61.399L64.2767 60.1146C64.4173 60.3245 64.5455 60.5468 64.6747 60.7691L62.6579 61.9367ZM61.9558 60.8727C61.8276 60.6969 61.6993 60.5335 61.5701 60.3701L63.3827 58.8843C63.5471 59.0829 63.6991 59.2824 63.8511 59.4923L61.9558 60.8727ZM61.1379 59.879C60.9973 59.726 60.8453 59.5626 60.6933 59.422L62.3301 57.75C62.5059 57.9258 62.693 58.112 62.8564 58.2991L61.1379 59.879ZM60.2249 58.9898C60.0615 58.8492 59.8981 58.7048 59.7338 58.5803L61.1844 56.744C61.383 56.896 61.5825 57.0717 61.7696 57.2351L60.2249 58.9898ZM59.2312 58.1946C59.0555 58.0778 58.8807 57.9486 58.6935 57.8431L59.9333 55.8548C60.1432 55.9954 60.3655 56.1398 60.5764 56.2766L59.2312 58.1946ZM58.1435 57.5163C57.9535 57.4109 57.7692 57.3168 57.582 57.2237L58.5995 55.1185C58.8332 55.224 59.0555 55.3522 59.2778 55.4691L58.1435 57.5163ZM56.9968 56.9663C56.7983 56.8846 56.5997 56.8029 56.4012 56.7326L57.184 54.5333C57.4186 54.615 57.659 54.7091 57.8974 54.8183L56.9968 56.9663ZM55.7922 56.5331C55.5937 56.4751 55.3838 56.4162 55.1729 56.3697L55.7229 54.1011C55.968 54.159 56.2141 54.2293 56.4592 54.2996L55.7922 56.5331Z" fill="#080F21"/>
<path d="M52.4083 82.0639C50.4045 82.0623 48.4238 81.6363 46.5964 80.814C44.7691 79.9917 43.1367 78.7917 41.8066 77.293C40.4765 75.7944 39.4788 74.031 38.8794 72.1189C38.2799 70.2069 38.0922 68.1895 38.3286 66.1997C38.565 64.2099 39.2201 62.2927 40.2509 60.5743C41.2816 58.8559 42.6647 57.3754 44.3089 56.23C45.9531 55.0847 47.8213 54.3006 49.7904 53.9293C51.7595 53.558 53.7849 53.608 55.7333 54.0759L55.1833 56.3445C52.9049 55.7946 50.5146 55.9328 48.3147 56.7415C46.1148 57.5503 44.2042 58.9933 42.8245 60.888C41.4447 62.7827 40.6579 65.044 40.5636 67.386C40.4692 69.7279 41.0714 72.0452 42.2942 74.0448C43.517 76.0445 45.3053 77.6365 47.4329 78.6197C49.5606 79.6028 51.932 79.9329 54.2473 79.5681C56.5626 79.2034 58.7177 78.1602 60.44 76.5705C62.1623 74.9808 63.3745 72.916 63.9232 70.6373L66.1918 71.1873C65.448 74.284 63.6842 77.0404 61.1841 79.0132C58.684 80.986 55.593 82.0605 52.4083 82.0639Z" fill="#080F21"/>
<path d="M46.1942 26.1356C47.9707 26.1356 49.4109 24.6954 49.4109 22.9189C49.4109 21.1423 47.9707 19.7021 46.1942 19.7021C44.4177 19.7021 42.9775 21.1423 42.9775 22.9189C42.9775 24.6954 44.4177 26.1356 46.1942 26.1356Z" fill="#080F21"/>
<path d="M42.9952 16.9177C43.9381 16.9177 44.7024 16.1534 44.7024 15.2106C44.7024 14.2677 43.9381 13.5034 42.9952 13.5034C42.0524 13.5034 41.2881 14.2677 41.2881 15.2106C41.2881 16.1534 42.0524 16.9177 42.9952 16.9177Z" fill="#080F21"/>
<path d="M76.3123 58.5323C77.2037 58.5323 77.9263 57.8097 77.9263 56.9183C77.9263 56.0268 77.2037 55.3042 76.3123 55.3042C75.4209 55.3042 74.6982 56.0268 74.6982 56.9183C74.6982 57.8097 75.4209 58.5323 76.3123 58.5323Z" fill="#080F21"/>
<defs>
<linearGradient id="paint0_linear_1387_16794" x1="5.16993" y1="27.39" x2="40.3122" y2="27.39" gradientUnits="userSpaceOnUse">
<stop offset="0.005" stop-color="#3063BA"/>
<stop offset="1" stop-color="#A3BFF6"/>
</linearGradient>
</defs>
</svg>
